<?xml version="1.0" encoding="UTF-8" standalone="no"?>
<!DOCTYPE svg PUBLIC "-//W3C//DTD SVG 1.1//EN" "http://www.w3.org/Graphics/SVG/1.1/DTD/svg11.dtd">
<svg width="100%" height="100%" viewBox="0 0 2000 1000" version="1.1" xmlns="http://www.w3.org/2000/svg" xmlns:xlink="http://www.w3.org/1999/xlink" xml:space="preserve" style="fill-rule:evenodd;clip-rule:evenodd;stroke-linejoin:round;stroke-miterlimit:2;">
    <g transform="matrix(1.58238,0.0611882,-0.0611882,1.58238,7.17546,-95.4099)">
        <g opacity="0.25">
            <g transform="matrix(1,0,0,1,-129.58,-333.123)">
                <rect x="129.58" y="462.123" width="124" height="124" style="fill:url(#_Linear1);"/>
            </g>
            <g transform="matrix(1,0,0,1,-129.683,-204.119)">
                <rect x="129.58" y="462.123" width="124" height="124" style="fill:url(#_Linear2);"/>
            </g>
            <g transform="matrix(1,0,0,1,-129.887,53.8884)">
                <rect x="129.58" y="462.123" width="124" height="124" style="fill:url(#_Linear3);"/>
            </g>
            <g transform="matrix(1,0,0,1,-129.99,182.892)">
                <rect x="129.58" y="462.123" width="124" height="124" style="fill:url(#_Linear4);"/>
            </g>
            <g transform="matrix(1,0,0,1,-0.580247,-462.123)">
                <rect x="129.58" y="462.123" width="124" height="124" style="fill:url(#_Linear5);"/>
            </g>
            <g transform="matrix(1,0,0,1,-0.68264,-204.119)">
                <rect x="129.58" y="462.123" width="124" height="124" style="fill:url(#_Linear6);"/>
            </g>
            <g transform="matrix(1,0,0,1,-0.785033,-75.1155)">
                <rect x="129.58" y="462.123" width="124" height="124" style="fill:url(#_Linear7);"/>
            </g>
            <g transform="matrix(1,0,0,1,-0.887427,53.8884)">
                <rect x="129.58" y="462.123" width="124" height="124" style="fill:url(#_Linear8);"/>
            </g>
            <g transform="matrix(1,0,0,1,128.42,-333.123)">
                <rect x="129.58" y="462.123" width="124" height="124" style="fill:url(#_Linear9);"/>
            </g>
            <g transform="matrix(1,0,0,1,128.215,-75.1155)">
                <rect x="129.58" y="462.123" width="124" height="124" style="fill:url(#_Linear10);"/>
            </g>
            <g transform="matrix(1,0,0,1,257.42,-462.123)">
                <rect x="129.58" y="462.123" width="124" height="124" style="fill:url(#_Linear11);"/>
            </g>
            <g transform="matrix(1,0,0,1,257.42,-333.123)">
                <rect x="129.58" y="462.123" width="124" height="124" style="fill:url(#_Linear12);"/>
            </g>
            <g transform="matrix(1,0,0,1,257.317,-204.119)">
                <rect x="129.58" y="462.123" width="124" height="124" style="fill:url(#_Linear13);"/>
            </g>
            <g transform="matrix(1,0,0,1,257.113,53.8884)">
                <rect x="129.58" y="462.123" width="124" height="124" style="fill:url(#_Linear14);"/>
            </g>
            <g transform="matrix(1,0,0,1,257.01,182.892)">
                <rect x="129.58" y="462.123" width="124" height="124" style="fill:url(#_Linear15);"/>
            </g>
            <g transform="matrix(1,0,0,1,386.317,-204.119)">
                <rect x="129.58" y="462.123" width="124" height="124" style="fill:url(#_Linear16);"/>
            </g>
            <g transform="matrix(1,0,0,1,386.215,-75.1155)">
                <rect x="129.58" y="462.123" width="124" height="124" style="fill:url(#_Linear17);"/>
            </g>
            <g transform="matrix(1,0,0,1,386.113,53.8884)">
                <rect x="129.58" y="462.123" width="124" height="124" style="fill:url(#_Linear18);"/>
            </g>
            <g transform="matrix(1,0,0,1,515.42,-462.123)">
                <rect x="129.58" y="462.123" width="124" height="124" style="fill:url(#_Linear19);"/>
            </g>
            <g transform="matrix(1,0,0,1,515.42,-333.123)">
                <rect x="129.58" y="462.123" width="124" height="124" style="fill:url(#_Linear20);"/>
            </g>
            <g transform="matrix(1,0,0,1,515.01,182.892)">
                <rect x="129.58" y="462.123" width="124" height="124" style="fill:url(#_Linear21);"/>
            </g>
            <g transform="matrix(1,0,0,1,644.42,-462.123)">
                <rect x="129.58" y="462.123" width="124" height="124" style="fill:url(#_Linear22);"/>
            </g>
            <g transform="matrix(1,0,0,1,644.42,-333.123)">
                <rect x="129.58" y="462.123" width="124" height="124" style="fill:url(#_Linear23);"/>
            </g>
            <g transform="matrix(1,0,0,1,644.317,-204.119)">
                <rect x="129.58" y="462.123" width="124" height="124" style="fill:url(#_Linear24);"/>
            </g>
            <g transform="matrix(1,0,0,1,644.113,53.8884)">
                <rect x="129.58" y="462.123" width="124" height="124" style="fill:url(#_Linear25);"/>
            </g>
            <g transform="matrix(1,0,0,1,773.42,-462.123)">
                <rect x="129.58" y="462.123" width="124" height="124" style="fill:url(#_Linear26);"/>
            </g>
            <g transform="matrix(1,0,0,1,773.317,-204.119)">
                <rect x="129.58" y="462.123" width="124" height="124" style="fill:url(#_Linear27);"/>
            </g>
            <g transform="matrix(1,0,0,1,773.215,-75.1155)">
                <rect x="129.58" y="462.123" width="124" height="124" style="fill:url(#_Linear28);"/>
            </g>
            <g transform="matrix(1,0,0,1,773.113,53.8884)">
                <rect x="129.58" y="462.123" width="124" height="124" style="fill:url(#_Linear29);"/>
            </g>
            <g transform="matrix(1,0,0,1,773.01,182.892)">
                <rect x="129.58" y="462.123" width="124" height="124" style="fill:url(#_Linear30);"/>
            </g>
            <g transform="matrix(1,0,0,1,902.42,-333.123)">
                <rect x="129.58" y="462.123" width="124" height="124" style="fill:url(#_Linear31);"/>
            </g>
            <g transform="matrix(1,0,0,1,902.317,-204.119)">
                <rect x="129.58" y="462.123" width="124" height="124" style="fill:url(#_Linear32);"/>
            </g>
            <g transform="matrix(1,0,0,1,1031.42,-462.123)">
                <rect x="129.58" y="462.123" width="124" height="124" style="fill:url(#_Linear33);"/>
            </g>
            <g transform="matrix(1,0,0,1,1031.42,-333.123)">
                <rect x="129.58" y="462.123" width="124" height="124" style="fill:url(#_Linear34);"/>
            </g>
            <g transform="matrix(1,0,0,1,1031.21,-75.1155)">
                <rect x="129.58" y="462.123" width="124" height="124" style="fill:url(#_Linear35);"/>
            </g>
            <g transform="matrix(1,0,0,1,1031.11,53.8884)">
                <rect x="129.58" y="462.123" width="124" height="124" style="fill:url(#_Linear36);"/>
            </g>
        </g>
    </g>
    <defs>
        <linearGradient id="_Linear1" x1="0" y1="0" x2="1" y2="0" gradientUnits="userSpaceOnUse" gradientTransform="matrix(24.3014,628.454,-628.454,24.3014,758.398,369.103)"><stop offset="0" style="stop-color:rgb(34,34,34);stop-opacity:1"/><stop offset="1" style="stop-color:rgb(17,17,17);stop-opacity:1"/></linearGradient>
        <linearGradient id="_Linear2" x1="0" y1="0" x2="1" y2="0" gradientUnits="userSpaceOnUse" gradientTransform="matrix(24.3014,628.454,-628.454,24.3014,758.501,240.099)"><stop offset="0" style="stop-color:rgb(34,34,34);stop-opacity:1"/><stop offset="1" style="stop-color:rgb(17,17,17);stop-opacity:1"/></linearGradient>
        <linearGradient id="_Linear3" x1="0" y1="0" x2="1" y2="0" gradientUnits="userSpaceOnUse" gradientTransform="matrix(24.3014,628.454,-628.454,24.3014,758.706,-17.9086)"><stop offset="0" style="stop-color:rgb(34,34,34);stop-opacity:1"/><stop offset="1" style="stop-color:rgb(17,17,17);stop-opacity:1"/></linearGradient>
        <linearGradient id="_Linear4" x1="0" y1="0" x2="1" y2="0" gradientUnits="userSpaceOnUse" gradientTransform="matrix(24.3014,628.454,-628.454,24.3014,758.808,-146.913)"><stop offset="0" style="stop-color:rgb(34,34,34);stop-opacity:1"/><stop offset="1" style="stop-color:rgb(17,17,17);stop-opacity:1"/></linearGradient>
        <linearGradient id="_Linear5" x1="0" y1="0" x2="1" y2="0" gradientUnits="userSpaceOnUse" gradientTransform="matrix(24.3014,628.454,-628.454,24.3014,629.398,498.103)"><stop offset="0" style="stop-color:rgb(34,34,34);stop-opacity:1"/><stop offset="1" style="stop-color:rgb(17,17,17);stop-opacity:1"/></linearGradient>
        <linearGradient id="_Linear6" x1="0" y1="0" x2="1" y2="0" gradientUnits="userSpaceOnUse" gradientTransform="matrix(24.3014,628.454,-628.454,24.3014,629.501,240.099)"><stop offset="0" style="stop-color:rgb(34,34,34);stop-opacity:1"/><stop offset="1" style="stop-color:rgb(17,17,17);stop-opacity:1"/></linearGradient>
        <linearGradient id="_Linear7" x1="0" y1="0" x2="1" y2="0" gradientUnits="userSpaceOnUse" gradientTransform="matrix(24.3014,628.454,-628.454,24.3014,629.603,111.095)"><stop offset="0" style="stop-color:rgb(34,34,34);stop-opacity:1"/><stop offset="1" style="stop-color:rgb(17,17,17);stop-opacity:1"/></linearGradient>
        <linearGradient id="_Linear8" x1="0" y1="0" x2="1" y2="0" gradientUnits="userSpaceOnUse" gradientTransform="matrix(24.3014,628.454,-628.454,24.3014,629.706,-17.9086)"><stop offset="0" style="stop-color:rgb(34,34,34);stop-opacity:1"/><stop offset="1" style="stop-color:rgb(17,17,17);stop-opacity:1"/></linearGradient>
        <linearGradient id="_Linear9" x1="0" y1="0" x2="1" y2="0" gradientUnits="userSpaceOnUse" gradientTransform="matrix(24.3014,628.454,-628.454,24.3014,500.398,369.103)"><stop offset="0" style="stop-color:rgb(34,34,34);stop-opacity:1"/><stop offset="1" style="stop-color:rgb(17,17,17);stop-opacity:1"/></linearGradient>
        <linearGradient id="_Linear10" x1="0" y1="0" x2="1" y2="0" gradientUnits="userSpaceOnUse" gradientTransform="matrix(24.3014,628.454,-628.454,24.3014,500.603,111.095)"><stop offset="0" style="stop-color:rgb(34,34,34);stop-opacity:1"/><stop offset="1" style="stop-color:rgb(17,17,17);stop-opacity:1"/></linearGradient>
        <linearGradient id="_Linear11" x1="0" y1="0" x2="1" y2="0" gradientUnits="userSpaceOnUse" gradientTransform="matrix(24.3014,628.454,-628.454,24.3014,371.398,498.103)"><stop offset="0" style="stop-color:rgb(34,34,34);stop-opacity:1"/><stop offset="1" style="stop-color:rgb(17,17,17);stop-opacity:1"/></linearGradient>
        <linearGradient id="_Linear12" x1="0" y1="0" x2="1" y2="0" gradientUnits="userSpaceOnUse" gradientTransform="matrix(24.3014,628.454,-628.454,24.3014,371.398,369.103)"><stop offset="0" style="stop-color:rgb(34,34,34);stop-opacity:1"/><stop offset="1" style="stop-color:rgb(17,17,17);stop-opacity:1"/></linearGradient>
        <linearGradient id="_Linear13" x1="0" y1="0" x2="1" y2="0" gradientUnits="userSpaceOnUse" gradientTransform="matrix(24.3014,628.454,-628.454,24.3014,371.501,240.099)"><stop offset="0" style="stop-color:rgb(34,34,34);stop-opacity:1"/><stop offset="1" style="stop-color:rgb(17,17,17);stop-opacity:1"/></linearGradient>
        <linearGradient id="_Linear14" x1="0" y1="0" x2="1" y2="0" gradientUnits="userSpaceOnUse" gradientTransform="matrix(24.3014,628.454,-628.454,24.3014,371.706,-17.9086)"><stop offset="0" style="stop-color:rgb(34,34,34);stop-opacity:1"/><stop offset="1" style="stop-color:rgb(17,17,17);stop-opacity:1"/></linearGradient>
        <linearGradient id="_Linear15" x1="0" y1="0" x2="1" y2="0" gradientUnits="userSpaceOnUse" gradientTransform="matrix(24.3014,628.454,-628.454,24.3014,371.808,-146.913)"><stop offset="0" style="stop-color:rgb(34,34,34);stop-opacity:1"/><stop offset="1" style="stop-color:rgb(17,17,17);stop-opacity:1"/></linearGradient>
        <linearGradient id="_Linear16" x1="0" y1="0" x2="1" y2="0" gradientUnits="userSpaceOnUse" gradientTransform="matrix(24.3014,628.454,-628.454,24.3014,242.501,240.099)"><stop offset="0" style="stop-color:rgb(34,34,34);stop-opacity:1"/><stop offset="1" style="stop-color:rgb(17,17,17);stop-opacity:1"/></linearGradient>
        <linearGradient id="_Linear17" x1="0" y1="0" x2="1" y2="0" gradientUnits="userSpaceOnUse" gradientTransform="matrix(24.3014,628.454,-628.454,24.3014,242.603,111.095)"><stop offset="0" style="stop-color:rgb(34,34,34);stop-opacity:1"/><stop offset="1" style="stop-color:rgb(17,17,17);stop-opacity:1"/></linearGradient>
        <linearGradient id="_Linear18" x1="0" y1="0" x2="1" y2="0" gradientUnits="userSpaceOnUse" gradientTransform="matrix(24.3014,628.454,-628.454,24.3014,242.706,-17.9086)"><stop offset="0" style="stop-color:rgb(34,34,34);stop-opacity:1"/><stop offset="1" style="stop-color:rgb(17,17,17);stop-opacity:1"/></linearGradient>
        <linearGradient id="_Linear19" x1="0" y1="0" x2="1" y2="0" gradientUnits="userSpaceOnUse" gradientTransform="matrix(24.3014,628.454,-628.454,24.3014,113.398,498.103)"><stop offset="0" style="stop-color:rgb(34,34,34);stop-opacity:1"/><stop offset="1" style="stop-color:rgb(17,17,17);stop-opacity:1"/></linearGradient>
        <linearGradient id="_Linear20" x1="0" y1="0" x2="1" y2="0" gradientUnits="userSpaceOnUse" gradientTransform="matrix(24.3014,628.454,-628.454,24.3014,113.398,369.103)"><stop offset="0" style="stop-color:rgb(34,34,34);stop-opacity:1"/><stop offset="1" style="stop-color:rgb(17,17,17);stop-opacity:1"/></linearGradient>
        <linearGradient id="_Linear21" x1="0" y1="0" x2="1" y2="0" gradientUnits="userSpaceOnUse" gradientTransform="matrix(24.3014,628.454,-628.454,24.3014,113.808,-146.913)"><stop offset="0" style="stop-color:rgb(34,34,34);stop-opacity:1"/><stop offset="1" style="stop-color:rgb(17,17,17);stop-opacity:1"/></linearGradient>
        <linearGradient id="_Linear22" x1="0" y1="0" x2="1" y2="0" gradientUnits="userSpaceOnUse" gradientTransform="matrix(24.3014,628.454,-628.454,24.3014,-15.6016,498.103)"><stop offset="0" style="stop-color:rgb(34,34,34);stop-opacity:1"/><stop offset="1" style="stop-color:rgb(17,17,17);stop-opacity:1"/></linearGradient>
        <linearGradient id="_Linear23" x1="0" y1="0" x2="1" y2="0" gradientUnits="userSpaceOnUse" gradientTransform="matrix(24.3014,628.454,-628.454,24.3014,-15.6016,369.103)"><stop offset="0" style="stop-color:rgb(34,34,34);stop-opacity:1"/><stop offset="1" style="stop-color:rgb(17,17,17);stop-opacity:1"/></linearGradient>
        <linearGradient id="_Linear24" x1="0" y1="0" x2="1" y2="0" gradientUnits="userSpaceOnUse" gradientTransform="matrix(24.3014,628.454,-628.454,24.3014,-15.4992,240.099)"><stop offset="0" style="stop-color:rgb(34,34,34);stop-opacity:1"/><stop offset="1" style="stop-color:rgb(17,17,17);stop-opacity:1"/></linearGradient>
        <linearGradient id="_Linear25" x1="0" y1="0" x2="1" y2="0" gradientUnits="userSpaceOnUse" gradientTransform="matrix(24.3014,628.454,-628.454,24.3014,-15.2945,-17.9086)"><stop offset="0" style="stop-color:rgb(34,34,34);stop-opacity:1"/><stop offset="1" style="stop-color:rgb(17,17,17);stop-opacity:1"/></linearGradient>
        <linearGradient id="_Linear26" x1="0" y1="0" x2="1" y2="0" gradientUnits="userSpaceOnUse" gradientTransform="matrix(24.3014,628.454,-628.454,24.3014,-144.602,498.103)"><stop offset="0" style="stop-color:rgb(34,34,34);stop-opacity:1"/><stop offset="1" style="stop-color:rgb(17,17,17);stop-opacity:1"/></linearGradient>
        <linearGradient id="_Linear27" x1="0" y1="0" x2="1" y2="0" gradientUnits="userSpaceOnUse" gradientTransform="matrix(24.3014,628.454,-628.454,24.3014,-144.499,240.099)"><stop offset="0" style="stop-color:rgb(34,34,34);stop-opacity:1"/><stop offset="1" style="stop-color:rgb(17,17,17);stop-opacity:1"/></linearGradient>
        <linearGradient id="_Linear28" x1="0" y1="0" x2="1" y2="0" gradientUnits="userSpaceOnUse" gradientTransform="matrix(24.3014,628.454,-628.454,24.3014,-144.397,111.095)"><stop offset="0" style="stop-color:rgb(34,34,34);stop-opacity:1"/><stop offset="1" style="stop-color:rgb(17,17,17);stop-opacity:1"/></linearGradient>
        <linearGradient id="_Linear29" x1="0" y1="0" x2="1" y2="0" gradientUnits="userSpaceOnUse" gradientTransform="matrix(24.3014,628.454,-628.454,24.3014,-144.294,-17.9086)"><stop offset="0" style="stop-color:rgb(34,34,34);stop-opacity:1"/><stop offset="1" style="stop-color:rgb(17,17,17);stop-opacity:1"/></linearGradient>
        <linearGradient id="_Linear30" x1="0" y1="0" x2="1" y2="0" gradientUnits="userSpaceOnUse" gradientTransform="matrix(24.3014,628.454,-628.454,24.3014,-144.192,-146.913)"><stop offset="0" style="stop-color:rgb(34,34,34);stop-opacity:1"/><stop offset="1" style="stop-color:rgb(17,17,17);stop-opacity:1"/></linearGradient>
        <linearGradient id="_Linear31" x1="0" y1="0" x2="1" y2="0" gradientUnits="userSpaceOnUse" gradientTransform="matrix(24.3014,628.454,-628.454,24.3014,-273.602,369.103)"><stop offset="0" style="stop-color:rgb(34,34,34);stop-opacity:1"/><stop offset="1" style="stop-color:rgb(17,17,17);stop-opacity:1"/></linearGradient>
        <linearGradient id="_Linear32" x1="0" y1="0" x2="1" y2="0" gradientUnits="userSpaceOnUse" gradientTransform="matrix(24.3014,628.454,-628.454,24.3014,-273.499,240.099)"><stop offset="0" style="stop-color:rgb(34,34,34);stop-opacity:1"/><stop offset="1" style="stop-color:rgb(17,17,17);stop-opacity:1"/></linearGradient>
        <linearGradient id="_Linear33" x1="0" y1="0" x2="1" y2="0" gradientUnits="userSpaceOnUse" gradientTransform="matrix(24.3014,628.454,-628.454,24.3014,-402.602,498.103)"><stop offset="0" style="stop-color:rgb(34,34,34);stop-opacity:1"/><stop offset="1" style="stop-color:rgb(17,17,17);stop-opacity:1"/></linearGradient>
        <linearGradient id="_Linear34" x1="0" y1="0" x2="1" y2="0" gradientUnits="userSpaceOnUse" gradientTransform="matrix(24.3014,628.454,-628.454,24.3014,-402.602,369.103)"><stop offset="0" style="stop-color:rgb(34,34,34);stop-opacity:1"/><stop offset="1" style="stop-color:rgb(17,17,17);stop-opacity:1"/></linearGradient>
        <linearGradient id="_Linear35" x1="0" y1="0" x2="1" y2="0" gradientUnits="userSpaceOnUse" gradientTransform="matrix(24.3014,628.454,-628.454,24.3014,-402.397,111.095)"><stop offset="0" style="stop-color:rgb(34,34,34);stop-opacity:1"/><stop offset="1" style="stop-color:rgb(17,17,17);stop-opacity:1"/></linearGradient>
        <linearGradient id="_Linear36" x1="0" y1="0" x2="1" y2="0" gradientUnits="userSpaceOnUse" gradientTransform="matrix(24.3014,628.454,-628.454,24.3014,-402.294,-17.9086)"><stop offset="0" style="stop-color:rgb(34,34,34);stop-opacity:1"/><stop offset="1" style="stop-color:rgb(17,17,17);stop-opacity:1"/></linearGradient>
    </defs>
</svg>
