<?xml version="1.0" encoding="UTF-8" standalone="no"?>
<!DOCTYPE svg PUBLIC "-//W3C//DTD SVG 1.1//EN" "http://www.w3.org/Graphics/SVG/1.1/DTD/svg11.dtd">
<svg width="100%" height="100%" viewBox="0 0 2000 1000" version="1.1" xmlns="http://www.w3.org/2000/svg" xmlns:xlink="http://www.w3.org/1999/xlink" xml:space="preserve" style="fill-rule:evenodd;clip-rule:evenodd;stroke-linejoin:round;stroke-miterlimit:2;">
    <g opacity="0.33">
        <g transform="matrix(1.58238,0.0611882,-0.0611882,1.58238,-177.489,-630.031)">
            <path d="M253.58,462.123L129.58,462.123L129.58,586.123L253.58,586.123L253.58,462.123ZM250.423,465.28L250.423,582.966C250.423,582.966 132.737,582.966 132.737,582.966C132.737,582.966 132.737,465.28 132.737,465.28L250.423,465.28Z" style="fill:url(#_Linear1);"/>
        </g>
        <g transform="matrix(1.58238,0.0611882,-0.0611882,1.58238,-185.546,-425.904)">
            <rect x="129.58" y="462.123" width="124" height="124" style="fill:url(#_Linear2);"/>
        </g>
        <g transform="matrix(1.58238,0.0611882,-0.0611882,1.58238,-201.655,-17.6505)">
            <rect x="129.58" y="462.123" width="124" height="124" style="fill:url(#_Linear3);"/>
        </g>
        <g transform="matrix(1.58238,0.0611882,-0.0611882,1.58238,34.5309,-826.265)">
            <rect x="129.58" y="462.123" width="124" height="124" style="fill:url(#_Linear4);"/>
        </g>
        <g transform="matrix(1.58238,0.0611882,-0.0611882,1.58238,18.582,-418.01)">
            <rect x="129.58" y="462.123" width="124" height="124" style="fill:url(#_Linear5);"/>
        </g>
        <g transform="matrix(1.58238,0.0611882,-0.0611882,1.58238,10.5265,-213.884)">
            <path d="M253.58,462.123L129.58,462.123L129.58,586.123L253.58,586.123L253.58,462.123ZM250.423,465.28L250.423,582.966C250.423,582.966 132.737,582.966 132.737,582.966C132.737,582.966 132.737,465.28 132.737,465.28L250.423,465.28Z" style="fill:url(#_Linear6);"/>
        </g>
        <g transform="matrix(1.58238,0.0611882,-0.0611882,1.58238,2.47098,-9.75727)">
            <rect x="129.58" y="462.123" width="124" height="124" style="fill:url(#_Linear7);"/>
        </g>
        <g transform="matrix(1.58238,0.0611882,-0.0611882,1.58238,230.765,-614.244)">
            <rect x="129.58" y="462.123" width="124" height="124" style="fill:url(#_Linear8);"/>
        </g>
        <g transform="matrix(1.58238,0.0611882,-0.0611882,1.58238,214.654,-205.991)">
            <rect x="129.58" y="462.123" width="124" height="124" style="fill:url(#_Linear9);"/>
        </g>
        <g transform="matrix(1.58238,0.0611882,-0.0611882,1.58238,442.785,-810.478)">
            <rect x="129.58" y="462.123" width="124" height="124" style="fill:url(#_Linear10);"/>
        </g>
        <g transform="matrix(1.58238,0.0611882,-0.0611882,1.58238,434.892,-606.351)">
            <rect x="129.58" y="462.123" width="124" height="124" style="fill:url(#_Linear11);"/>
        </g>
        <g transform="matrix(1.58238,0.0611882,-0.0611882,1.58238,426.836,-402.224)">
            <path d="M253.58,462.123L129.58,462.123L129.58,586.123L253.58,586.123L253.58,462.123ZM250.423,465.28L250.423,582.966C250.423,582.966 132.737,582.966 132.737,582.966C132.737,582.966 132.737,484.316 132.737,465.28L250.423,465.28Z" style="fill:url(#_Linear12);"/>
        </g>
        <g transform="matrix(1.58238,0.0611882,-0.0611882,1.58238,410.726,6.02931)">
            <rect x="129.58" y="462.123" width="124" height="124" style="fill:url(#_Linear13);"/>
        </g>
        <g transform="matrix(1.58238,0.0611882,-0.0611882,1.58238,402.669,210.156)">
            <rect x="129.58" y="462.123" width="124" height="124" style="fill:url(#_Linear14);"/>
        </g>
        <g transform="matrix(1.58238,0.0611882,-0.0611882,1.58238,630.963,-394.331)">
            <rect x="129.58" y="462.123" width="124" height="124" style="fill:url(#_Linear15);"/>
        </g>
        <g transform="matrix(1.58238,0.0611882,-0.0611882,1.58238,622.908,-190.204)">
            <path d="M253.58,462.123L129.58,462.123L129.58,586.123L253.58,586.123L253.58,462.123ZM250.423,465.28L250.423,582.966C250.423,582.966 132.737,582.966 132.737,582.966C132.737,565.671 132.737,482.575 132.737,465.28L250.423,465.28Z" style="fill:url(#_Linear16);"/>
        </g>
        <g transform="matrix(1.58238,0.0611882,-0.0611882,1.58238,614.853,13.9226)">
            <rect x="129.58" y="462.123" width="124" height="124" style="fill:url(#_Linear17);"/>
        </g>
        <g transform="matrix(1.58238,0.0611882,-0.0611882,1.58238,851.039,-794.691)">
            <path d="M253.58,462.123L129.58,462.123L129.58,586.123L253.58,586.123L253.58,462.123ZM250.423,465.28L250.423,582.966C233.128,582.966 150.032,582.966 132.737,582.966C132.737,582.966 132.737,465.28 132.737,465.28L250.423,465.28Z" style="fill:url(#_Linear18);"/>
        </g>
        <g transform="matrix(1.58238,0.0611882,-0.0611882,1.58238,843.146,-590.564)">
            <rect x="129.58" y="462.123" width="124" height="124" style="fill:url(#_Linear19);"/>
        </g>
        <g transform="matrix(1.58238,0.0611882,-0.0611882,1.58238,810.923,225.942)">
            <rect x="129.58" y="462.123" width="124" height="124" style="fill:url(#_Linear20);"/>
        </g>
        <g transform="matrix(1.58238,0.0611882,-0.0611882,1.58238,1055.17,-786.798)">
            <rect x="129.58" y="462.123" width="124" height="124" style="fill:url(#_Linear21);"/>
        </g>
        <g transform="matrix(1.58238,0.0611882,-0.0611882,1.58238,1047.27,-582.671)">
            <rect x="129.58" y="462.123" width="124" height="124" style="fill:url(#_Linear22);"/>
        </g>
        <g transform="matrix(1.58238,0.0611882,-0.0611882,1.58238,1039.22,-378.544)">
            <rect x="129.58" y="462.123" width="124" height="124" style="fill:url(#_Linear23);"/>
        </g>
        <g transform="matrix(1.58238,0.0611882,-0.0611882,1.58238,1023.11,29.7091)">
            <path d="M253.58,462.123L129.58,462.123L129.58,586.123L253.58,586.123L253.58,462.123ZM250.423,465.28L250.423,582.966C250.423,582.966 151.773,582.966 132.737,582.966C132.737,582.966 132.737,465.28 132.737,465.28L250.423,465.28Z" style="fill:url(#_Linear24);"/>
        </g>
        <g transform="matrix(1.58238,0.0611882,-0.0611882,1.58238,1259.29,-778.905)">
            <rect x="129.58" y="462.123" width="124" height="124" style="fill:url(#_Linear25);"/>
        </g>
        <g transform="matrix(1.58238,0.0611882,-0.0611882,1.58238,1243.34,-370.651)">
            <path d="M253.58,462.123L129.58,462.123L129.58,586.123L253.58,586.123L253.58,462.123ZM250.423,465.28L250.423,582.966C250.423,582.966 132.737,582.966 132.737,582.966C132.737,582.966 132.737,465.28 132.737,465.28L250.423,465.28Z" style="fill:url(#_Linear26);"/>
        </g>
        <g transform="matrix(1.58238,0.0611882,-0.0611882,1.58238,1235.29,-166.525)">
            <rect x="129.58" y="462.123" width="124" height="124" style="fill:url(#_Linear27);"/>
        </g>
        <g transform="matrix(1.58238,0.0611882,-0.0611882,1.58238,1227.23,37.6024)">
            <rect x="129.58" y="462.123" width="124" height="124" style="fill:url(#_Linear28);"/>
        </g>
        <g transform="matrix(1.58238,0.0611882,-0.0611882,1.58238,1219.18,241.729)">
            <rect x="129.58" y="462.123" width="124" height="124" style="fill:url(#_Linear29);"/>
        </g>
        <g transform="matrix(1.58238,0.0611882,-0.0611882,1.58238,1455.53,-566.885)">
            <rect x="129.58" y="462.123" width="124" height="124" style="fill:url(#_Linear30);"/>
        </g>
        <g transform="matrix(1.58238,0.0611882,-0.0611882,1.58238,1447.47,-362.758)">
            <rect x="129.58" y="462.123" width="124" height="124" style="fill:url(#_Linear31);"/>
        </g>
        <g transform="matrix(1.58238,0.0611882,-0.0611882,1.58238,1667.55,-763.118)">
            <rect x="129.58" y="462.123" width="124" height="124" style="fill:url(#_Linear32);"/>
        </g>
        <g transform="matrix(1.58238,0.0611882,-0.0611882,1.58238,1659.65,-558.991)">
            <path d="M253.58,462.123L129.58,462.123L129.58,586.123L253.58,586.123L253.58,462.123ZM250.423,465.28L250.423,582.966C250.423,582.966 132.737,582.966 132.737,582.966C132.737,582.966 132.737,484.316 132.737,465.28L250.423,465.28Z" style="fill:url(#_Linear33);"/>
        </g>
        <g transform="matrix(1.58238,0.0611882,-0.0611882,1.58238,1643.53,-150.738)">
            <rect x="129.58" y="462.123" width="124" height="124" style="fill:url(#_Linear34);"/>
        </g>
        <g transform="matrix(1.58238,0.0611882,-0.0611882,1.58238,1635.48,53.3888)">
            <path d="M253.58,462.123L129.58,462.123L129.58,586.123L253.58,586.123L253.58,462.123ZM250.423,465.28L250.423,582.966C250.423,582.966 132.737,582.966 132.737,582.966C132.737,582.966 132.737,465.28 132.737,465.28L250.423,465.28Z" style="fill:url(#_Linear35);"/>
        </g>
    </g>
    <defs>
        <linearGradient id="_Linear1" x1="0" y1="0" x2="1" y2="0" gradientUnits="userSpaceOnUse" gradientTransform="matrix(24.4004,631.016,-631.016,24.4004,758.387,368.828)"><stop offset="0" style="stop-color:rgb(0,204,102);stop-opacity:1"/><stop offset="1" style="stop-color:rgb(0,204,102);stop-opacity:0"/></linearGradient>
        <linearGradient id="_Linear2" x1="0" y1="0" x2="1" y2="0" gradientUnits="userSpaceOnUse" gradientTransform="matrix(24.4004,631.016,-631.016,24.4004,758.49,239.824)"><stop offset="0" style="stop-color:rgb(34,34,34);stop-opacity:1"/><stop offset="1" style="stop-color:rgb(34,34,34);stop-opacity:0"/></linearGradient>
        <linearGradient id="_Linear3" x1="0" y1="0" x2="1" y2="0" gradientUnits="userSpaceOnUse" gradientTransform="matrix(24.4004,631.016,-631.016,24.4004,758.694,-18.1831)"><stop offset="0" style="stop-color:rgb(34,34,34);stop-opacity:1"/><stop offset="1" style="stop-color:rgb(34,34,34);stop-opacity:0"/></linearGradient>
        <linearGradient id="_Linear4" x1="0" y1="0" x2="1" y2="0" gradientUnits="userSpaceOnUse" gradientTransform="matrix(24.4004,631.016,-631.016,24.4004,629.388,497.828)"><stop offset="0" style="stop-color:rgb(34,34,34);stop-opacity:1"/><stop offset="1" style="stop-color:rgb(34,34,34);stop-opacity:0"/></linearGradient>
        <linearGradient id="_Linear5" x1="0" y1="0" x2="1" y2="0" gradientUnits="userSpaceOnUse" gradientTransform="matrix(24.4004,631.016,-631.016,24.4004,629.49,239.824)"><stop offset="0" style="stop-color:rgb(34,34,34);stop-opacity:1"/><stop offset="1" style="stop-color:rgb(34,34,34);stop-opacity:0"/></linearGradient>
        <linearGradient id="_Linear6" x1="0" y1="0" x2="1" y2="0" gradientUnits="userSpaceOnUse" gradientTransform="matrix(24.4004,631.016,-631.016,24.4004,629.592,110.821)"><stop offset="0" style="stop-color:rgb(0,204,102);stop-opacity:1"/><stop offset="1" style="stop-color:rgb(0,204,102);stop-opacity:0"/></linearGradient>
        <linearGradient id="_Linear7" x1="0" y1="0" x2="1" y2="0" gradientUnits="userSpaceOnUse" gradientTransform="matrix(24.4004,631.016,-631.016,24.4004,629.695,-18.1831)"><stop offset="0" style="stop-color:rgb(34,34,34);stop-opacity:1"/><stop offset="1" style="stop-color:rgb(34,34,34);stop-opacity:0"/></linearGradient>
        <linearGradient id="_Linear8" x1="0" y1="0" x2="1" y2="0" gradientUnits="userSpaceOnUse" gradientTransform="matrix(24.4004,631.016,-631.016,24.4004,500.387,368.828)"><stop offset="0" style="stop-color:rgb(34,34,34);stop-opacity:1"/><stop offset="1" style="stop-color:rgb(34,34,34);stop-opacity:0"/></linearGradient>
        <linearGradient id="_Linear9" x1="0" y1="0" x2="1" y2="0" gradientUnits="userSpaceOnUse" gradientTransform="matrix(24.4004,631.016,-631.016,24.4004,500.592,110.821)"><stop offset="0" style="stop-color:rgb(34,34,34);stop-opacity:1"/><stop offset="1" style="stop-color:rgb(34,34,34);stop-opacity:0"/></linearGradient>
        <linearGradient id="_Linear10" x1="0" y1="0" x2="1" y2="0" gradientUnits="userSpaceOnUse" gradientTransform="matrix(24.4004,631.016,-631.016,24.4004,371.387,497.828)"><stop offset="0" style="stop-color:rgb(34,34,34);stop-opacity:1"/><stop offset="1" style="stop-color:rgb(34,34,34);stop-opacity:0"/></linearGradient>
        <linearGradient id="_Linear11" x1="0" y1="0" x2="1" y2="0" gradientUnits="userSpaceOnUse" gradientTransform="matrix(24.4004,631.016,-631.016,24.4004,371.387,368.828)"><stop offset="0" style="stop-color:rgb(34,34,34);stop-opacity:1"/><stop offset="1" style="stop-color:rgb(34,34,34);stop-opacity:0"/></linearGradient>
        <linearGradient id="_Linear12" x1="0" y1="0" x2="1" y2="0" gradientUnits="userSpaceOnUse" gradientTransform="matrix(24.4004,631.016,-631.016,24.4004,371.49,239.824)"><stop offset="0" style="stop-color:rgb(0,204,102);stop-opacity:1"/><stop offset="1" style="stop-color:rgb(0,204,102);stop-opacity:0"/></linearGradient>
        <linearGradient id="_Linear13" x1="0" y1="0" x2="1" y2="0" gradientUnits="userSpaceOnUse" gradientTransform="matrix(24.4004,631.016,-631.016,24.4004,371.694,-18.1831)"><stop offset="0" style="stop-color:rgb(34,34,34);stop-opacity:1"/><stop offset="1" style="stop-color:rgb(34,34,34);stop-opacity:0"/></linearGradient>
        <linearGradient id="_Linear14" x1="0" y1="0" x2="1" y2="0" gradientUnits="userSpaceOnUse" gradientTransform="matrix(24.4004,631.016,-631.016,24.4004,371.797,-147.187)"><stop offset="0" style="stop-color:rgb(34,34,34);stop-opacity:1"/><stop offset="1" style="stop-color:rgb(34,34,34);stop-opacity:0"/></linearGradient>
        <linearGradient id="_Linear15" x1="0" y1="0" x2="1" y2="0" gradientUnits="userSpaceOnUse" gradientTransform="matrix(24.4004,631.016,-631.016,24.4004,242.49,239.824)"><stop offset="0" style="stop-color:rgb(34,34,34);stop-opacity:1"/><stop offset="1" style="stop-color:rgb(34,34,34);stop-opacity:0"/></linearGradient>
        <linearGradient id="_Linear16" x1="0" y1="0" x2="1" y2="0" gradientUnits="userSpaceOnUse" gradientTransform="matrix(24.4004,631.016,-631.016,24.4004,242.592,110.821)"><stop offset="0" style="stop-color:rgb(0,204,102);stop-opacity:1"/><stop offset="1" style="stop-color:rgb(0,204,102);stop-opacity:0"/></linearGradient>
        <linearGradient id="_Linear17" x1="0" y1="0" x2="1" y2="0" gradientUnits="userSpaceOnUse" gradientTransform="matrix(24.4004,631.016,-631.016,24.4004,242.694,-18.1831)"><stop offset="0" style="stop-color:rgb(34,34,34);stop-opacity:1"/><stop offset="1" style="stop-color:rgb(34,34,34);stop-opacity:0"/></linearGradient>
        <linearGradient id="_Linear18" x1="0" y1="0" x2="1" y2="0" gradientUnits="userSpaceOnUse" gradientTransform="matrix(24.4004,631.016,-631.016,24.4004,113.387,497.828)"><stop offset="0" style="stop-color:rgb(0,204,102);stop-opacity:1"/><stop offset="1" style="stop-color:rgb(0,204,102);stop-opacity:0"/></linearGradient>
        <linearGradient id="_Linear19" x1="0" y1="0" x2="1" y2="0" gradientUnits="userSpaceOnUse" gradientTransform="matrix(24.4004,631.016,-631.016,24.4004,113.387,368.828)"><stop offset="0" style="stop-color:rgb(34,34,34);stop-opacity:1"/><stop offset="1" style="stop-color:rgb(34,34,34);stop-opacity:0"/></linearGradient>
        <linearGradient id="_Linear20" x1="0" y1="0" x2="1" y2="0" gradientUnits="userSpaceOnUse" gradientTransform="matrix(24.4004,631.016,-631.016,24.4004,113.797,-147.187)"><stop offset="0" style="stop-color:rgb(34,34,34);stop-opacity:1"/><stop offset="1" style="stop-color:rgb(34,34,34);stop-opacity:0"/></linearGradient>
        <linearGradient id="_Linear21" x1="0" y1="0" x2="1" y2="0" gradientUnits="userSpaceOnUse" gradientTransform="matrix(24.4004,631.016,-631.016,24.4004,-15.6126,497.828)"><stop offset="0" style="stop-color:rgb(34,34,34);stop-opacity:1"/><stop offset="1" style="stop-color:rgb(34,34,34);stop-opacity:0"/></linearGradient>
        <linearGradient id="_Linear22" x1="0" y1="0" x2="1" y2="0" gradientUnits="userSpaceOnUse" gradientTransform="matrix(24.4004,631.016,-631.016,24.4004,-15.6126,368.828)"><stop offset="0" style="stop-color:rgb(34,34,34);stop-opacity:1"/><stop offset="1" style="stop-color:rgb(34,34,34);stop-opacity:0"/></linearGradient>
        <linearGradient id="_Linear23" x1="0" y1="0" x2="1" y2="0" gradientUnits="userSpaceOnUse" gradientTransform="matrix(24.4004,631.016,-631.016,24.4004,-15.5096,239.824)"><stop offset="0" style="stop-color:rgb(34,34,34);stop-opacity:1"/><stop offset="1" style="stop-color:rgb(34,34,34);stop-opacity:0"/></linearGradient>
        <linearGradient id="_Linear24" x1="0" y1="0" x2="1" y2="0" gradientUnits="userSpaceOnUse" gradientTransform="matrix(24.4004,631.016,-631.016,24.4004,-15.3056,-18.1831)"><stop offset="0" style="stop-color:rgb(0,204,102);stop-opacity:1"/><stop offset="1" style="stop-color:rgb(0,204,102);stop-opacity:0"/></linearGradient>
        <linearGradient id="_Linear25" x1="0" y1="0" x2="1" y2="0" gradientUnits="userSpaceOnUse" gradientTransform="matrix(24.4004,631.016,-631.016,24.4004,-144.613,497.828)"><stop offset="0" style="stop-color:rgb(34,34,34);stop-opacity:1"/><stop offset="1" style="stop-color:rgb(34,34,34);stop-opacity:0"/></linearGradient>
        <linearGradient id="_Linear26" x1="0" y1="0" x2="1" y2="0" gradientUnits="userSpaceOnUse" gradientTransform="matrix(24.4004,631.016,-631.016,24.4004,-144.51,239.824)"><stop offset="0" style="stop-color:rgb(0,204,102);stop-opacity:1"/><stop offset="1" style="stop-color:rgb(0,204,102);stop-opacity:0"/></linearGradient>
        <linearGradient id="_Linear27" x1="0" y1="0" x2="1" y2="0" gradientUnits="userSpaceOnUse" gradientTransform="matrix(24.4004,631.016,-631.016,24.4004,-144.408,110.821)"><stop offset="0" style="stop-color:rgb(34,34,34);stop-opacity:1"/><stop offset="1" style="stop-color:rgb(34,34,34);stop-opacity:0"/></linearGradient>
        <linearGradient id="_Linear28" x1="0" y1="0" x2="1" y2="0" gradientUnits="userSpaceOnUse" gradientTransform="matrix(24.4004,631.016,-631.016,24.4004,-144.306,-18.1831)"><stop offset="0" style="stop-color:rgb(34,34,34);stop-opacity:1"/><stop offset="1" style="stop-color:rgb(34,34,34);stop-opacity:0"/></linearGradient>
        <linearGradient id="_Linear29" x1="0" y1="0" x2="1" y2="0" gradientUnits="userSpaceOnUse" gradientTransform="matrix(24.4004,631.016,-631.016,24.4004,-144.203,-147.187)"><stop offset="0" style="stop-color:rgb(34,34,34);stop-opacity:1"/><stop offset="1" style="stop-color:rgb(34,34,34);stop-opacity:0"/></linearGradient>
        <linearGradient id="_Linear30" x1="0" y1="0" x2="1" y2="0" gradientUnits="userSpaceOnUse" gradientTransform="matrix(24.4004,631.016,-631.016,24.4004,-273.613,368.828)"><stop offset="0" style="stop-color:rgb(34,34,34);stop-opacity:1"/><stop offset="1" style="stop-color:rgb(34,34,34);stop-opacity:0"/></linearGradient>
        <linearGradient id="_Linear31" x1="0" y1="0" x2="1" y2="0" gradientUnits="userSpaceOnUse" gradientTransform="matrix(24.4004,631.016,-631.016,24.4004,-273.51,239.824)"><stop offset="0" style="stop-color:rgb(34,34,34);stop-opacity:1"/><stop offset="1" style="stop-color:rgb(34,34,34);stop-opacity:0"/></linearGradient>
        <linearGradient id="_Linear32" x1="0" y1="0" x2="1" y2="0" gradientUnits="userSpaceOnUse" gradientTransform="matrix(24.4004,631.016,-631.016,24.4004,-402.613,497.828)"><stop offset="0" style="stop-color:rgb(34,34,34);stop-opacity:1"/><stop offset="1" style="stop-color:rgb(34,34,34);stop-opacity:0"/></linearGradient>
        <linearGradient id="_Linear33" x1="0" y1="0" x2="1" y2="0" gradientUnits="userSpaceOnUse" gradientTransform="matrix(24.4004,631.016,-631.016,24.4004,-402.613,368.828)"><stop offset="0" style="stop-color:rgb(0,204,102);stop-opacity:1"/><stop offset="1" style="stop-color:rgb(0,204,102);stop-opacity:0"/></linearGradient>
        <linearGradient id="_Linear34" x1="0" y1="0" x2="1" y2="0" gradientUnits="userSpaceOnUse" gradientTransform="matrix(24.4004,631.016,-631.016,24.4004,-402.403,110.821)"><stop offset="0" style="stop-color:rgb(34,34,34);stop-opacity:1"/><stop offset="1" style="stop-color:rgb(34,34,34);stop-opacity:0"/></linearGradient>
        <linearGradient id="_Linear35" x1="0" y1="0" x2="1" y2="0" gradientUnits="userSpaceOnUse" gradientTransform="matrix(24.4004,631.016,-631.016,24.4004,-402.303,-18.1831)"><stop offset="0" style="stop-color:rgb(0,204,102);stop-opacity:1"/><stop offset="1" style="stop-color:rgb(0,204,102);stop-opacity:0"/></linearGradient>
    </defs>
</svg>
