<?xml version="1.0" encoding="UTF-8" standalone="no"?>
<!DOCTYPE svg PUBLIC "-//W3C//DTD SVG 1.1//EN" "http://www.w3.org/Graphics/SVG/1.1/DTD/svg11.dtd">
<svg width="100%" height="100%" viewBox="0 0 2000 500" version="1.1" xmlns="http://www.w3.org/2000/svg" xmlns:xlink="http://www.w3.org/1999/xlink" xml:space="preserve" style="fill-rule:evenodd;clip-rule:evenodd;stroke-linejoin:round;stroke-miterlimit:2;">
    <g transform="matrix(1.0639,0,0,1.0639,755.809,-27.433)">
        <path d="M-479.013,307.26L-463.188,299.758C-460.173,306.54 -455.926,311.713 -450.445,315.275C-444.964,318.838 -438.251,320.619 -430.304,320.619C-420.986,320.619 -413.587,318.409 -408.107,313.991C-402.626,309.572 -399.886,303.355 -399.886,295.339C-399.886,287.803 -402.472,281.757 -407.644,277.201C-412.817,272.646 -420.541,268.963 -430.817,266.154C-445.684,262.112 -456.286,256.854 -462.623,250.38C-468.96,243.906 -472.128,235.462 -472.128,225.049C-472.128,211.895 -467.607,201.859 -458.563,194.939C-449.52,188.02 -439.038,184.56 -427.118,184.56C-417.116,184.56 -408.295,186.873 -400.656,191.497C-393.018,196.121 -386.766,203.229 -381.902,212.82L-397.111,219.5C-400.537,212.718 -404.767,207.871 -409.802,204.959C-414.838,202.047 -420.678,200.591 -427.323,200.591C-435.956,200.591 -442.721,202.595 -447.619,206.603C-452.518,210.611 -454.967,216.109 -454.967,223.097C-454.967,230.084 -452.826,235.497 -448.544,239.333C-444.262,243.17 -436.743,246.492 -425.988,249.301C-410.299,253.412 -399.166,258.978 -392.59,266C-386.013,273.022 -382.724,282.357 -382.724,294.003C-382.724,305.855 -386.783,315.926 -394.902,324.216C-403.02,332.505 -414.581,336.65 -429.584,336.65C-441.916,336.65 -452.295,334.098 -460.722,328.994C-469.148,323.89 -475.245,316.645 -479.013,307.26ZM-309.454,327.504C-312.537,330.587 -315.928,332.848 -319.628,334.286C-323.327,335.725 -327.677,336.444 -332.679,336.444C-340.968,336.444 -347.374,334.132 -351.895,329.508C-356.417,324.884 -358.678,318.255 -358.678,309.623L-358.678,243.341L-376.764,243.341L-376.764,228.954L-358.678,228.954L-358.678,204.085L-341.825,201.105L-341.825,228.954L-313.667,228.954L-313.667,243.341L-341.825,243.341L-341.825,308.185C-341.825,313.186 -340.865,316.817 -338.947,319.077C-337.029,321.338 -334.015,322.469 -329.904,322.469C-327.849,322.469 -325.879,322.058 -323.995,321.235C-322.111,320.413 -320.141,318.838 -318.086,316.508L-309.454,327.504ZM-214.501,334.184L-231.354,334.184L-231.354,320.208L-231.765,320.208C-235.328,325.483 -239.832,329.542 -245.279,332.385C-250.725,335.228 -256.737,336.65 -263.313,336.65C-273.795,336.65 -281.999,333.841 -287.925,328.223C-293.851,322.606 -296.814,315.583 -296.814,307.157C-296.814,297.292 -293.731,289.636 -287.566,284.189C-281.4,278.743 -272.768,275.369 -261.669,274.067L-231.354,270.573L-231.354,263.894C-231.354,256.289 -233.324,250.586 -237.263,246.784C-241.202,242.981 -246.597,241.08 -253.448,241.08C-259.957,241.08 -265.334,242.536 -269.582,245.448C-273.83,248.359 -277.084,252.418 -279.345,257.625L-294.04,251.562C-290.614,243.615 -285.322,237.449 -278.163,233.065C-271.004,228.68 -262.457,226.488 -252.523,226.488C-240.26,226.488 -230.857,229.759 -224.315,236.302C-217.772,242.844 -214.501,252.007 -214.501,263.791L-214.501,334.184ZM-231.354,291.434L-231.354,284.241L-260.539,287.529C-267.047,288.283 -271.843,290.15 -274.926,293.13C-278.009,296.11 -279.55,300.066 -279.55,304.999C-279.55,310.411 -277.769,314.744 -274.206,317.998C-270.644,321.253 -265.985,322.88 -260.231,322.88C-251.598,322.88 -244.628,319.917 -239.318,313.991C-234.009,308.065 -231.354,300.546 -231.354,291.434ZM-130.955,244.78C-132.659,244.005 -134.431,243.385 -136.247,242.93C-138.131,242.45 -140.237,242.211 -142.567,242.211C-150.103,242.211 -156.217,245.807 -160.91,253.001C-165.603,260.194 -167.949,269.374 -167.949,280.541L-167.949,334.184L-184.802,334.184L-184.802,228.954L-167.949,228.954L-167.949,248.171L-167.538,248.171C-165.14,241.594 -161.475,236.439 -156.543,232.705C-151.61,228.971 -146.095,227.104 -139.998,227.104C-137.189,227.104 -134.654,227.327 -132.393,227.772C-130.132,228.218 -127.563,229.125 -124.686,230.496L-130.955,244.78ZM-53.779,327.504C-56.862,330.587 -60.253,332.848 -63.953,334.286C-67.652,335.725 -72.003,336.444 -77.004,336.444C-85.293,336.444 -91.699,334.132 -96.221,329.508C-100.742,324.884 -103.003,318.255 -103.003,309.623L-103.003,243.341L-121.089,243.341L-121.089,228.954L-103.003,228.954L-103.003,204.085L-86.15,201.105L-86.15,228.954L-57.993,228.954L-57.993,243.341L-86.15,243.341L-86.15,308.185C-86.15,313.186 -85.191,316.817 -83.272,319.077C-81.354,321.338 -78.34,322.469 -74.229,322.469C-72.174,322.469 -70.204,322.058 -68.32,321.235C-66.436,320.413 -64.467,318.838 -62.411,316.508L-53.779,327.504ZM165.414,334.184L148.561,334.184L148.561,273.759C148.561,262.249 146.763,253.926 143.166,248.787C139.57,243.649 133.524,241.08 125.029,241.08C117.835,241.08 111.721,244.334 106.685,250.843C101.65,257.351 99.132,265.127 99.132,274.17L99.132,334.184L82.279,334.184L82.279,271.704C82.279,261.496 80.292,253.84 76.319,248.736C72.345,243.632 66.351,241.08 58.335,241.08C50.936,241.08 44.839,244.146 40.043,250.277C35.248,256.409 32.85,264.373 32.85,274.17L32.85,334.184L15.997,334.184L15.997,228.954L32.85,228.954L32.85,243.958L33.261,243.958C37.029,238.134 41.636,233.767 47.083,230.855C52.529,227.944 58.815,226.488 65.94,226.488C72.996,226.488 79.145,228.338 84.386,232.037C89.627,235.736 93.206,240.601 95.124,246.629C99.098,239.916 104.048,234.88 109.974,231.523C115.9,228.166 122.802,226.488 130.681,226.488C142.259,226.488 150.942,230.05 156.731,237.175C162.52,244.3 165.414,255.022 165.414,269.34L165.414,334.184ZM281.434,284.549L205.492,284.549C205.492,297.566 208.592,307.071 214.792,313.066C220.992,319.06 228.374,322.058 236.938,322.058C243.377,322.058 249.047,320.567 253.945,317.587C258.843,314.607 262.902,310.171 266.122,304.28L279.893,311.267C276.193,318.803 270.627,324.918 263.194,329.611C255.76,334.303 246.632,336.65 235.807,336.65C221.831,336.65 210.373,332.026 201.433,322.777C192.493,313.528 188.022,299.929 188.022,281.98C188.022,266.017 192.544,252.778 201.587,242.262C210.63,231.746 222.208,226.488 236.321,226.488C250.639,226.488 261.738,230.821 269.616,239.487C277.495,248.154 281.434,260.228 281.434,275.711L281.434,284.549ZM264.17,270.47C264.17,261.359 261.669,254.182 256.668,248.942C251.667,243.701 244.782,241.08 236.013,241.08C227.518,241.08 220.581,243.889 215.203,249.507C209.825,255.124 206.623,262.112 205.595,270.47L264.17,270.47ZM392.213,334.184L375.36,334.184L375.36,271.704C375.36,261.359 373.39,253.669 369.451,248.633C365.511,243.598 359.568,241.08 351.621,241.08C342.715,241.08 335.505,244.214 329.99,250.483C324.475,256.752 321.717,264.647 321.717,274.17L321.717,334.184L304.864,334.184L304.864,228.954L321.717,228.954L321.717,243.958L322.128,243.958C326.102,238.134 330.966,233.767 336.721,230.855C342.475,227.944 349.121,226.488 356.657,226.488C368.166,226.488 376.97,230.204 383.067,237.638C389.164,245.071 392.213,255.81 392.213,269.854L392.213,334.184ZM506.999,334.184L490.146,334.184L490.146,319.18L489.735,319.18C486.241,324.592 481.634,328.857 475.913,331.974C470.193,335.091 463.976,336.65 457.262,336.65C444.862,336.65 435.493,333.053 429.156,325.86C422.819,318.666 419.651,307.808 419.651,293.284L419.651,228.954L436.401,228.954L436.401,291.434C436.401,302.258 438.319,310.068 442.156,314.864C445.992,319.66 452.192,322.058 460.756,322.058C469.456,322.058 476.53,318.923 481.976,312.655C487.423,306.386 490.146,298.525 490.146,289.071L490.146,228.954L506.999,228.954L506.999,334.184ZM642.955,327.504C639.872,330.587 636.481,332.848 632.781,334.286C629.082,335.725 624.732,336.444 619.73,336.444C611.441,336.444 605.035,334.132 600.514,329.508C595.992,324.884 593.731,318.255 593.731,309.623L593.731,243.341L575.645,243.341L575.645,228.954L593.731,228.954L593.731,204.085L610.585,201.105L610.585,228.954L638.742,228.954L638.742,243.341L610.585,243.341L610.585,308.185C610.585,313.186 611.544,316.817 613.462,319.077C615.38,321.338 618.395,322.469 622.505,322.469C624.56,322.469 626.53,322.058 628.414,321.235C630.298,320.413 632.268,318.838 634.323,316.508L642.955,327.504ZM672.345,205.216C668.714,205.216 665.768,204 663.508,201.568C661.247,199.136 660.116,196.275 660.116,192.987C660.116,189.699 661.247,186.838 663.508,184.406C665.768,181.974 668.714,180.758 672.345,180.758C675.976,180.758 678.922,181.974 681.183,184.406C683.444,186.838 684.574,189.699 684.574,192.987C684.574,196.275 683.444,199.136 681.183,201.568C678.922,204 675.976,205.216 672.345,205.216ZM680.566,334.184L663.713,334.184L663.713,228.954L680.566,228.954L680.566,334.184ZM712.32,178.395L729.173,178.395L729.173,334.184L712.32,334.184L712.32,178.395ZM847.454,284.549L771.512,284.549C771.512,297.566 774.612,307.071 780.812,313.066C787.012,319.06 794.394,322.058 802.957,322.058C809.397,322.058 815.066,320.567 819.964,317.587C824.863,314.607 828.922,310.171 832.142,304.28L845.912,311.267C842.213,318.803 836.646,324.918 829.213,329.611C821.78,334.303 812.651,336.65 801.827,336.65C787.851,336.65 776.393,332.026 767.452,322.777C758.512,313.528 754.042,299.929 754.042,281.98C754.042,266.017 758.563,252.778 767.607,242.262C776.65,231.746 788.228,226.488 802.341,226.488C816.659,226.488 827.757,230.821 835.636,239.487C843.514,248.154 847.454,260.228 847.454,275.711L847.454,284.549ZM830.189,270.47C830.189,261.359 827.689,254.182 822.688,248.942C817.687,243.701 810.801,241.08 802.032,241.08C793.537,241.08 786.601,243.889 781.223,249.507C775.845,255.124 772.642,262.112 771.614,270.47L830.189,270.47ZM864.512,313.528L878.899,307.26C881.228,312.466 884.465,316.234 888.61,318.564C892.755,320.893 897.842,322.058 903.871,322.058C909.625,322.058 914.404,320.619 918.206,317.741C922.008,314.864 923.909,310.719 923.909,305.307C923.909,301.197 922.248,297.651 918.925,294.671C915.603,291.691 910.379,289.413 903.254,287.837C889.963,284.892 880.937,280.85 876.176,275.711C871.415,270.573 869.034,264.51 869.034,257.522C869.034,247.657 872.476,240.018 879.362,234.606C886.247,229.194 894.485,226.488 904.076,226.488C911.818,226.488 918.823,228.098 925.091,231.318C931.36,234.538 936.035,239.504 939.118,246.218L925.348,252.59C923.293,248.685 920.552,245.79 917.127,243.906C913.702,242.022 909.214,241.08 903.665,241.08C898.321,241.08 893.834,242.382 890.203,244.985C886.572,247.588 884.757,251.185 884.757,255.775C884.757,260.091 886.23,263.397 889.175,265.692C892.121,267.987 897.979,270.128 906.748,272.115C918.189,274.649 926.581,278.537 931.925,283.778C937.269,289.019 939.94,295.853 939.94,304.28C939.94,314.556 936.395,322.52 929.304,328.172C922.214,333.824 913.736,336.65 903.871,336.65C893.663,336.65 885.322,334.543 878.848,330.33C872.374,326.117 867.595,320.516 864.512,313.528Z" style="fill:rgb(238,238,238);fill-rule:nonzero;"/>
    </g>
</svg>
