<?xml version="1.0" encoding="UTF-8" standalone="no"?>
<!DOCTYPE svg PUBLIC "-//W3C//DTD SVG 1.1//EN" "http://www.w3.org/Graphics/SVG/1.1/DTD/svg11.dtd">
<svg width="100%" height="100%" viewBox="0 0 2000 500" version="1.1" xmlns="http://www.w3.org/2000/svg" xmlns:xlink="http://www.w3.org/1999/xlink" xml:space="preserve" style="fill-rule:evenodd;clip-rule:evenodd;stroke-linejoin:round;stroke-miterlimit:2;">
    <g transform="matrix(1.58238,0.0611882,-0.0611882,1.58238,-177.486,-630.466)">
        <path d="M253.58,462.123L129.58,462.123L129.58,586.123L253.58,586.123L253.58,462.123ZM250.423,465.28L250.423,582.966C233.128,582.966 150.032,582.966 132.737,582.966C132.737,582.966 132.737,484.316 132.737,465.28L250.423,465.28Z" style="fill:url(#_Linear1);"/>
    </g>
    <g transform="matrix(1.58238,0.0611882,-0.0611882,1.58238,-185.543,-426.339)">
        <rect x="129.58" y="462.123" width="124" height="124" style="fill:url(#_Linear2);"/>
    </g>
    <g transform="matrix(1.58238,0.0611882,-0.0611882,1.58238,34.5338,-826.7)">
        <rect x="129.58" y="462.123" width="124" height="124" style="fill:url(#_Linear3);"/>
    </g>
    <g transform="matrix(1.58238,0.0611882,-0.0611882,1.58238,18.5849,-418.445)">
        <rect x="129.58" y="462.123" width="124" height="124" style="fill:url(#_Linear4);"/>
    </g>
    <g transform="matrix(1.58238,0.0611882,-0.0611882,1.58238,230.768,-614.679)">
        <rect x="129.58" y="462.123" width="124" height="124" style="fill:url(#_Linear5);"/>
    </g>
    <g transform="matrix(1.58238,0.0611882,-0.0611882,1.58238,442.788,-810.913)">
        <rect x="129.58" y="462.123" width="124" height="124" style="fill:url(#_Linear6);"/>
    </g>
    <g transform="matrix(1.58238,0.0611882,-0.0611882,1.58238,434.895,-606.786)">
        <rect x="129.58" y="462.123" width="124" height="124" style="fill:url(#_Linear7);"/>
    </g>
    <g transform="matrix(1.58238,0.0611882,-0.0611882,1.58238,426.838,-402.659)">
        <path d="M253.58,462.123L129.58,462.123L129.58,586.123L253.58,586.123L253.58,462.123ZM250.423,465.28L250.423,582.966C250.423,582.966 151.773,582.966 132.737,582.966C132.737,582.966 132.737,484.316 132.737,465.28L250.423,465.28Z" style="fill:url(#_Linear8);"/>
    </g>
    <g transform="matrix(1.58238,0.0611882,-0.0611882,1.58238,630.965,-394.766)">
        <rect x="129.58" y="462.123" width="124" height="124" style="fill:url(#_Linear9);"/>
    </g>
    <g transform="matrix(1.58238,0.0611882,-0.0611882,1.58238,851.042,-795.126)">
        <path d="M253.58,462.123L129.58,462.123L129.58,586.123L253.58,586.123L253.58,462.123ZM250.423,465.28L250.423,582.966C250.423,582.966 132.737,582.966 132.737,582.966C132.737,565.671 132.737,482.575 132.737,465.28L250.423,465.28Z" style="fill:url(#_Linear10);"/>
    </g>
    <g transform="matrix(1.58238,0.0611882,-0.0611882,1.58238,843.149,-590.999)">
        <rect x="129.58" y="462.123" width="124" height="124" style="fill:url(#_Linear11);"/>
    </g>
    <g transform="matrix(1.58238,0.0611882,-0.0611882,1.58238,1055.17,-787.233)">
        <rect x="129.58" y="462.123" width="124" height="124" style="fill:url(#_Linear12);"/>
    </g>
    <g transform="matrix(1.58238,0.0611882,-0.0611882,1.58238,1047.28,-583.106)">
        <rect x="129.58" y="462.123" width="124" height="124" style="fill:url(#_Linear13);"/>
    </g>
    <g transform="matrix(1.58238,0.0611882,-0.0611882,1.58238,1039.22,-378.979)">
        <rect x="129.58" y="462.123" width="124" height="124" style="fill:url(#_Linear14);"/>
    </g>
    <g transform="matrix(1.58238,0.0611882,-0.0611882,1.58238,1259.3,-779.34)">
        <rect x="129.58" y="462.123" width="124" height="124" style="fill:url(#_Linear15);"/>
    </g>
    <g transform="matrix(1.58238,0.0611882,-0.0611882,1.58238,1243.35,-371.086)">
        <path d="M253.58,462.123L129.58,462.123L129.58,586.123L253.58,586.123L253.58,462.123ZM250.423,465.28L250.423,582.966C250.423,582.966 132.737,582.966 132.737,582.966C132.737,565.671 132.737,482.575 132.737,465.28L250.423,465.28Z" style="fill:url(#_Linear16);"/>
    </g>
    <g transform="matrix(1.58238,0.0611882,-0.0611882,1.58238,1455.53,-567.32)">
        <rect x="129.58" y="462.123" width="124" height="124" style="fill:url(#_Linear17);"/>
    </g>
    <g transform="matrix(1.58238,0.0611882,-0.0611882,1.58238,1447.47,-363.193)">
        <rect x="129.58" y="462.123" width="124" height="124" style="fill:url(#_Linear18);"/>
    </g>
    <g transform="matrix(1.58238,0.0611882,-0.0611882,1.58238,1667.55,-763.553)">
        <rect x="129.58" y="462.123" width="124" height="124" style="fill:url(#_Linear19);"/>
    </g>
    <g transform="matrix(1.58238,0.0611882,-0.0611882,1.58238,1659.66,-559.426)">
        <path d="M253.58,462.123L129.58,462.123L129.58,586.123L253.58,586.123L253.58,462.123ZM250.423,465.28L250.423,582.966C250.423,582.966 132.737,582.966 132.737,582.966C132.737,582.966 132.737,465.28 132.737,465.28L250.423,465.28Z" style="fill:url(#_Linear20);"/>
    </g>
    <defs>
        <linearGradient id="_Linear1" x1="0" y1="0" x2="1" y2="0" gradientUnits="userSpaceOnUse" gradientTransform="matrix(12.2002,315.508,-315.508,12.2002,758.396,369.103)"><stop offset="0" style="stop-color:rgb(0,204,102);stop-opacity:1"/><stop offset="1" style="stop-color:rgb(0,204,102);stop-opacity:0"/></linearGradient>
        <linearGradient id="_Linear2" x1="0" y1="0" x2="1" y2="0" gradientUnits="userSpaceOnUse" gradientTransform="matrix(12.2002,315.508,-315.508,12.2002,758.499,240.099)"><stop offset="0" style="stop-color:rgb(90,90,90);stop-opacity:0.33"/><stop offset="1" style="stop-color:rgb(90,90,90);stop-opacity:0"/></linearGradient>
        <linearGradient id="_Linear3" x1="0" y1="0" x2="1" y2="0" gradientUnits="userSpaceOnUse" gradientTransform="matrix(12.2002,315.508,-315.508,12.2002,629.396,498.103)"><stop offset="0" style="stop-color:rgb(90,90,90);stop-opacity:0.33"/><stop offset="1" style="stop-color:rgb(90,90,90);stop-opacity:0"/></linearGradient>
        <linearGradient id="_Linear4" x1="0" y1="0" x2="1" y2="0" gradientUnits="userSpaceOnUse" gradientTransform="matrix(12.2002,315.508,-315.508,12.2002,629.499,240.099)"><stop offset="0" style="stop-color:rgb(90,90,90);stop-opacity:0.33"/><stop offset="1" style="stop-color:rgb(90,90,90);stop-opacity:0"/></linearGradient>
        <linearGradient id="_Linear5" x1="0" y1="0" x2="1" y2="0" gradientUnits="userSpaceOnUse" gradientTransform="matrix(12.2002,315.508,-315.508,12.2002,500.396,369.103)"><stop offset="0" style="stop-color:rgb(90,90,90);stop-opacity:0.33"/><stop offset="1" style="stop-color:rgb(90,90,90);stop-opacity:0"/></linearGradient>
        <linearGradient id="_Linear6" x1="0" y1="0" x2="1" y2="0" gradientUnits="userSpaceOnUse" gradientTransform="matrix(12.2002,315.508,-315.508,12.2002,371.396,498.103)"><stop offset="0" style="stop-color:rgb(90,90,90);stop-opacity:0.33"/><stop offset="1" style="stop-color:rgb(90,90,90);stop-opacity:0"/></linearGradient>
        <linearGradient id="_Linear7" x1="0" y1="0" x2="1" y2="0" gradientUnits="userSpaceOnUse" gradientTransform="matrix(12.2002,315.508,-315.508,12.2002,371.396,369.103)"><stop offset="0" style="stop-color:rgb(90,90,90);stop-opacity:0.33"/><stop offset="1" style="stop-color:rgb(90,90,90);stop-opacity:0"/></linearGradient>
        <linearGradient id="_Linear8" x1="0" y1="0" x2="1" y2="0" gradientUnits="userSpaceOnUse" gradientTransform="matrix(12.2002,315.508,-315.508,12.2002,371.499,240.099)"><stop offset="0" style="stop-color:rgb(0,204,102);stop-opacity:1"/><stop offset="1" style="stop-color:rgb(0,204,102);stop-opacity:0"/></linearGradient>
        <linearGradient id="_Linear9" x1="0" y1="0" x2="1" y2="0" gradientUnits="userSpaceOnUse" gradientTransform="matrix(12.2002,315.508,-315.508,12.2002,242.499,240.099)"><stop offset="0" style="stop-color:rgb(90,90,90);stop-opacity:0.33"/><stop offset="1" style="stop-color:rgb(90,90,90);stop-opacity:0"/></linearGradient>
        <linearGradient id="_Linear10" x1="0" y1="0" x2="1" y2="0" gradientUnits="userSpaceOnUse" gradientTransform="matrix(12.2002,315.508,-315.508,12.2002,113.396,498.103)"><stop offset="0" style="stop-color:rgb(0,204,102);stop-opacity:1"/><stop offset="1" style="stop-color:rgb(0,204,102);stop-opacity:0"/></linearGradient>
        <linearGradient id="_Linear11" x1="0" y1="0" x2="1" y2="0" gradientUnits="userSpaceOnUse" gradientTransform="matrix(12.2002,315.508,-315.508,12.2002,113.396,369.103)"><stop offset="0" style="stop-color:rgb(90,90,90);stop-opacity:0.33"/><stop offset="1" style="stop-color:rgb(90,90,90);stop-opacity:0"/></linearGradient>
        <linearGradient id="_Linear12" x1="0" y1="0" x2="1" y2="0" gradientUnits="userSpaceOnUse" gradientTransform="matrix(12.2002,315.508,-315.508,12.2002,-15.6039,498.103)"><stop offset="0" style="stop-color:rgb(90,90,90);stop-opacity:0.33"/><stop offset="1" style="stop-color:rgb(90,90,90);stop-opacity:0"/></linearGradient>
        <linearGradient id="_Linear13" x1="0" y1="0" x2="1" y2="0" gradientUnits="userSpaceOnUse" gradientTransform="matrix(12.2002,315.508,-315.508,12.2002,-15.6039,369.103)"><stop offset="0" style="stop-color:rgb(90,90,90);stop-opacity:0.33"/><stop offset="1" style="stop-color:rgb(90,90,90);stop-opacity:0"/></linearGradient>
        <linearGradient id="_Linear14" x1="0" y1="0" x2="1" y2="0" gradientUnits="userSpaceOnUse" gradientTransform="matrix(12.2002,315.508,-315.508,12.2002,-15.5009,240.099)"><stop offset="0" style="stop-color:rgb(90,90,90);stop-opacity:0.33"/><stop offset="1" style="stop-color:rgb(90,90,90);stop-opacity:0"/></linearGradient>
        <linearGradient id="_Linear15" x1="0" y1="0" x2="1" y2="0" gradientUnits="userSpaceOnUse" gradientTransform="matrix(12.2002,315.508,-315.508,12.2002,-144.604,498.103)"><stop offset="0" style="stop-color:rgb(90,90,90);stop-opacity:0.33"/><stop offset="1" style="stop-color:rgb(90,90,90);stop-opacity:0"/></linearGradient>
        <linearGradient id="_Linear16" x1="0" y1="0" x2="1" y2="0" gradientUnits="userSpaceOnUse" gradientTransform="matrix(12.2002,315.508,-315.508,12.2002,-144.501,240.099)"><stop offset="0" style="stop-color:rgb(0,204,102);stop-opacity:1"/><stop offset="1" style="stop-color:rgb(0,204,102);stop-opacity:0"/></linearGradient>
        <linearGradient id="_Linear17" x1="0" y1="0" x2="1" y2="0" gradientUnits="userSpaceOnUse" gradientTransform="matrix(12.2002,315.508,-315.508,12.2002,-273.604,369.103)"><stop offset="0" style="stop-color:rgb(90,90,90);stop-opacity:0.33"/><stop offset="1" style="stop-color:rgb(90,90,90);stop-opacity:0"/></linearGradient>
        <linearGradient id="_Linear18" x1="0" y1="0" x2="1" y2="0" gradientUnits="userSpaceOnUse" gradientTransform="matrix(12.2002,315.508,-315.508,12.2002,-273.501,240.099)"><stop offset="0" style="stop-color:rgb(90,90,90);stop-opacity:0.33"/><stop offset="1" style="stop-color:rgb(90,90,90);stop-opacity:0"/></linearGradient>
        <linearGradient id="_Linear19" x1="0" y1="0" x2="1" y2="0" gradientUnits="userSpaceOnUse" gradientTransform="matrix(12.2002,315.508,-315.508,12.2002,-402.604,498.103)"><stop offset="0" style="stop-color:rgb(90,90,90);stop-opacity:0.33"/><stop offset="1" style="stop-color:rgb(90,90,90);stop-opacity:0"/></linearGradient>
        <linearGradient id="_Linear20" x1="0" y1="0" x2="1" y2="0" gradientUnits="userSpaceOnUse" gradientTransform="matrix(12.2002,315.508,-315.508,12.2002,-402.604,369.103)"><stop offset="0" style="stop-color:rgb(0,204,102);stop-opacity:1"/><stop offset="1" style="stop-color:rgb(0,204,102);stop-opacity:0"/></linearGradient>
    </defs>
</svg>
