<?xml version="1.0" encoding="UTF-8" standalone="no"?>
<!DOCTYPE svg PUBLIC "-//W3C//DTD SVG 1.1//EN" "http://www.w3.org/Graphics/SVG/1.1/DTD/svg11.dtd">
<svg width="100%" height="100%" viewBox="0 0 2000 1000" version="1.1" xmlns="http://www.w3.org/2000/svg" xmlns:xlink="http://www.w3.org/1999/xlink" xml:space="preserve" xmlns:serif="http://www.serif.com/" style="fill-rule:evenodd;clip-rule:evenodd;stroke-linejoin:round;stroke-miterlimit:2;">
    <g transform="matrix(0.906538,0.906538,-0.906538,0.906538,414.919,-1396.2)">
        <path d="M2000,251.5L1288.65,251.5L1443.81,96.344L1844.84,96.344L2000,251.5ZM1568.33,209.5L1587.24,209.5L1598.72,161.41L1599.54,161.41L1610.92,209.5L1629.93,209.5L1648.43,138.344L1630.85,138.344L1620.48,184.604L1619.66,184.604L1608.99,138.344L1589.17,138.344L1578.6,184.604L1577.78,184.604L1567.41,138.344L1549.83,138.344L1568.33,209.5ZM1656.78,209.5L1672.83,209.5L1672.83,138.344L1656.78,138.344L1656.78,209.5ZM1686.88,209.5L1702.93,209.5L1702.93,186.116L1714.42,186.116C1728.15,186.116 1739.22,176.06 1739.22,162.128C1739.22,148.095 1728.56,138.344 1714.42,138.344L1686.88,138.344L1686.88,209.5ZM1702.93,172.505L1702.93,152.057L1712.8,152.057C1718.6,152.057 1722.87,155.923 1722.87,162.128C1722.87,168.334 1718.6,172.505 1712.8,172.505L1702.93,172.505Z" style="fill:url(#_Linear1);"/>
    </g>
    <defs>
        <linearGradient id="_Linear1" x1="0" y1="0" x2="1" y2="0" gradientUnits="userSpaceOnUse" gradientTransform="matrix(551.549,551.549,-551.549,551.549,1644.33,-104.175)"><stop offset="0" style="stop-color:rgb(255,187,34);stop-opacity:0.25"/><stop offset="1" style="stop-color:rgb(255,187,34);stop-opacity:0"/></linearGradient>
    </defs>
</svg>
