<?xml version="1.0" encoding="UTF-8" standalone="no"?>
<!DOCTYPE svg PUBLIC "-//W3C//DTD SVG 1.1//EN" "http://www.w3.org/Graphics/SVG/1.1/DTD/svg11.dtd">
<svg width="100%" height="100%" viewBox="0 0 1510 169" version="1.1" xmlns="http://www.w3.org/2000/svg" xmlns:xlink="http://www.w3.org/1999/xlink" xml:space="preserve" xmlns:serif="http://www.serif.com/" style="fill-rule:evenodd;clip-rule:evenodd;stroke-linejoin:round;stroke-miterlimit:2;">
    <g transform="matrix(1.0639,0,0,1.0639,509.62,-189.793)">
        <g transform="matrix(210.459,0,0,210.459,-490.42,334.184)">
            <path d="M0.054,-0.128L0.129,-0.164C0.144,-0.131 0.164,-0.107 0.19,-0.09C0.216,-0.073 0.248,-0.064 0.286,-0.064C0.33,-0.064 0.365,-0.075 0.391,-0.096C0.417,-0.117 0.43,-0.146 0.43,-0.185C0.43,-0.22 0.418,-0.249 0.393,-0.271C0.369,-0.292 0.332,-0.31 0.283,-0.323C0.213,-0.342 0.162,-0.367 0.132,-0.398C0.102,-0.429 0.087,-0.469 0.087,-0.519C0.087,-0.581 0.108,-0.629 0.151,-0.662C0.194,-0.694 0.244,-0.711 0.301,-0.711C0.348,-0.711 0.39,-0.7 0.427,-0.678C0.463,-0.656 0.493,-0.622 0.516,-0.577L0.443,-0.545C0.427,-0.577 0.407,-0.6 0.383,-0.614C0.359,-0.628 0.331,-0.635 0.3,-0.635C0.259,-0.635 0.227,-0.625 0.203,-0.606C0.18,-0.587 0.168,-0.561 0.168,-0.528C0.168,-0.495 0.179,-0.469 0.199,-0.451C0.219,-0.432 0.255,-0.417 0.306,-0.403C0.381,-0.384 0.434,-0.357 0.465,-0.324C0.496,-0.291 0.512,-0.246 0.512,-0.191C0.512,-0.135 0.492,-0.087 0.454,-0.047C0.415,-0.008 0.36,0.012 0.289,0.012C0.23,0.012 0.181,-0 0.141,-0.025C0.101,-0.049 0.072,-0.083 0.054,-0.128Z" style="fill:rgb(238,238,238);fill-rule:nonzero;"/>
        </g>
        <g transform="matrix(210.459,0,0,210.459,-380.155,334.184)">
            <path d="M0.336,-0.032C0.321,-0.017 0.305,-0.006 0.288,0C0.27,0.007 0.249,0.011 0.226,0.011C0.186,0.011 0.156,-0 0.134,-0.022C0.113,-0.044 0.102,-0.076 0.102,-0.117L0.102,-0.432L0.016,-0.432L0.016,-0.5L0.102,-0.5L0.102,-0.618L0.182,-0.632L0.182,-0.5L0.316,-0.5L0.316,-0.432L0.182,-0.432L0.182,-0.124C0.182,-0.1 0.187,-0.083 0.196,-0.072C0.205,-0.061 0.219,-0.056 0.239,-0.056C0.249,-0.056 0.258,-0.058 0.267,-0.062C0.276,-0.065 0.285,-0.073 0.295,-0.084L0.336,-0.032Z" style="fill:rgb(238,238,238);fill-rule:nonzero;"/>
        </g>
        <g transform="matrix(210.459,0,0,210.459,-305.035,334.184)">
            <path d="M0.43,-0L0.35,-0L0.35,-0.066L0.348,-0.066C0.331,-0.041 0.31,-0.022 0.284,-0.009C0.258,0.005 0.229,0.012 0.198,0.012C0.148,0.012 0.109,-0.002 0.081,-0.028C0.053,-0.055 0.039,-0.088 0.039,-0.128C0.039,-0.175 0.054,-0.212 0.083,-0.238C0.112,-0.263 0.153,-0.279 0.206,-0.286L0.35,-0.302L0.35,-0.334C0.35,-0.37 0.341,-0.397 0.322,-0.415C0.303,-0.433 0.278,-0.442 0.245,-0.442C0.214,-0.442 0.189,-0.435 0.168,-0.422C0.148,-0.408 0.133,-0.389 0.122,-0.364L0.052,-0.393C0.069,-0.43 0.094,-0.46 0.128,-0.48C0.162,-0.501 0.202,-0.512 0.25,-0.512C0.308,-0.512 0.352,-0.496 0.384,-0.465C0.415,-0.434 0.43,-0.39 0.43,-0.334L0.43,-0ZM0.35,-0.203L0.35,-0.237L0.211,-0.222C0.181,-0.218 0.158,-0.209 0.143,-0.195C0.128,-0.181 0.121,-0.162 0.121,-0.139C0.121,-0.113 0.13,-0.092 0.146,-0.077C0.163,-0.061 0.186,-0.054 0.213,-0.054C0.254,-0.054 0.287,-0.068 0.312,-0.096C0.337,-0.124 0.35,-0.16 0.35,-0.203Z" style="fill:rgb(238,238,238);fill-rule:nonzero;"/>
        </g>
        <g transform="matrix(210.459,0,0,210.459,-200.833,334.184)">
            <path d="M0.332,-0.425C0.324,-0.428 0.316,-0.431 0.307,-0.434C0.298,-0.436 0.288,-0.437 0.277,-0.437C0.241,-0.437 0.212,-0.42 0.19,-0.386C0.167,-0.352 0.156,-0.308 0.156,-0.255L0.156,-0L0.076,-0L0.076,-0.5L0.156,-0.5L0.156,-0.409L0.158,-0.409C0.17,-0.44 0.187,-0.464 0.21,-0.482C0.234,-0.5 0.26,-0.509 0.289,-0.509C0.302,-0.509 0.314,-0.508 0.325,-0.506C0.336,-0.503 0.348,-0.499 0.362,-0.493L0.332,-0.425Z" style="fill:rgb(238,238,238);fill-rule:nonzero;"/>
        </g>
        <g transform="matrix(210.459,0,0,210.459,-124.48,334.184)">
            <path d="M0.336,-0.032C0.321,-0.017 0.305,-0.006 0.288,0C0.27,0.007 0.249,0.011 0.226,0.011C0.186,0.011 0.156,-0 0.134,-0.022C0.113,-0.044 0.102,-0.076 0.102,-0.117L0.102,-0.432L0.016,-0.432L0.016,-0.5L0.102,-0.5L0.102,-0.618L0.182,-0.632L0.182,-0.5L0.316,-0.5L0.316,-0.432L0.182,-0.432L0.182,-0.124C0.182,-0.1 0.187,-0.083 0.196,-0.072C0.205,-0.061 0.219,-0.056 0.239,-0.056C0.249,-0.056 0.258,-0.058 0.267,-0.062C0.276,-0.065 0.285,-0.073 0.295,-0.084L0.336,-0.032Z" style="fill:rgb(238,238,238);fill-rule:nonzero;"/>
        </g>
        <g transform="matrix(210.459,0,0,210.459,-0.0342249,334.184)">
            <path d="M0.786,-0L0.706,-0L0.706,-0.287C0.706,-0.342 0.698,-0.381 0.68,-0.406C0.663,-0.43 0.635,-0.442 0.594,-0.442C0.56,-0.442 0.531,-0.427 0.507,-0.396C0.483,-0.365 0.471,-0.328 0.471,-0.285L0.471,-0L0.391,-0L0.391,-0.297C0.391,-0.345 0.382,-0.382 0.363,-0.406C0.344,-0.43 0.315,-0.442 0.277,-0.442C0.242,-0.442 0.213,-0.428 0.19,-0.399C0.168,-0.37 0.156,-0.332 0.156,-0.285L0.156,-0L0.076,-0L0.076,-0.5L0.156,-0.5L0.156,-0.429L0.158,-0.429C0.176,-0.456 0.198,-0.477 0.224,-0.491C0.25,-0.505 0.28,-0.512 0.313,-0.512C0.347,-0.512 0.376,-0.503 0.401,-0.485C0.426,-0.468 0.443,-0.445 0.452,-0.416C0.471,-0.448 0.495,-0.472 0.523,-0.488C0.551,-0.504 0.584,-0.512 0.621,-0.512C0.676,-0.512 0.717,-0.495 0.745,-0.461C0.772,-0.427 0.786,-0.376 0.786,-0.308L0.786,-0Z" style="fill:rgb(238,238,238);fill-rule:nonzero;"/>
        </g>
        <g transform="matrix(210.459,0,0,210.459,179.185,334.184)">
            <path d="M0.486,-0.236L0.125,-0.236C0.125,-0.174 0.14,-0.129 0.169,-0.1C0.199,-0.072 0.234,-0.058 0.274,-0.058C0.305,-0.058 0.332,-0.065 0.355,-0.079C0.378,-0.093 0.398,-0.114 0.413,-0.142L0.479,-0.109C0.461,-0.073 0.434,-0.044 0.399,-0.022C0.364,0.001 0.32,0.012 0.269,0.012C0.203,0.012 0.148,-0.01 0.106,-0.054C0.063,-0.098 0.042,-0.163 0.042,-0.248C0.042,-0.324 0.063,-0.387 0.106,-0.437C0.149,-0.487 0.204,-0.512 0.271,-0.512C0.34,-0.512 0.392,-0.491 0.43,-0.45C0.467,-0.409 0.486,-0.351 0.486,-0.278L0.486,-0.236ZM0.404,-0.303C0.404,-0.346 0.392,-0.38 0.368,-0.405C0.344,-0.43 0.312,-0.442 0.27,-0.442C0.23,-0.442 0.197,-0.429 0.171,-0.402C0.146,-0.376 0.13,-0.342 0.125,-0.303L0.404,-0.303Z" style="fill:rgb(238,238,238);fill-rule:nonzero;"/>
        </g>
        <g transform="matrix(210.459,0,0,210.459,288.833,334.184)">
            <path d="M0.491,-0L0.411,-0L0.411,-0.297C0.411,-0.346 0.402,-0.383 0.383,-0.406C0.364,-0.43 0.336,-0.442 0.298,-0.442C0.256,-0.442 0.222,-0.427 0.196,-0.398C0.169,-0.368 0.156,-0.33 0.156,-0.285L0.156,-0L0.076,-0L0.076,-0.5L0.156,-0.5L0.156,-0.429L0.158,-0.429C0.177,-0.456 0.2,-0.477 0.228,-0.491C0.255,-0.505 0.286,-0.512 0.322,-0.512C0.377,-0.512 0.419,-0.494 0.448,-0.459C0.477,-0.423 0.491,-0.372 0.491,-0.306L0.491,-0Z" style="fill:rgb(238,238,238);fill-rule:nonzero;"/>
        </g>
        <g transform="matrix(210.459,0,0,210.459,405.88,334.184)">
            <path d="M0.48,-0L0.4,-0L0.4,-0.071L0.398,-0.071C0.382,-0.046 0.36,-0.025 0.333,-0.01C0.306,0.004 0.276,0.012 0.244,0.012C0.185,0.012 0.141,-0.005 0.111,-0.04C0.08,-0.074 0.065,-0.125 0.065,-0.194L0.065,-0.5L0.145,-0.5L0.145,-0.203C0.145,-0.152 0.154,-0.115 0.172,-0.092C0.191,-0.069 0.22,-0.058 0.261,-0.058C0.302,-0.058 0.336,-0.073 0.362,-0.102C0.387,-0.132 0.4,-0.169 0.4,-0.214L0.4,-0.5L0.48,-0.5L0.48,-0Z" style="fill:rgb(238,238,238);fill-rule:nonzero;"/>
        </g>
        <g transform="matrix(210.459,0,0,210.459,572.254,334.184)">
            <path d="M0.336,-0.032C0.321,-0.017 0.305,-0.006 0.288,0C0.27,0.007 0.249,0.011 0.226,0.011C0.186,0.011 0.156,-0 0.134,-0.022C0.113,-0.044 0.102,-0.076 0.102,-0.117L0.102,-0.432L0.016,-0.432L0.016,-0.5L0.102,-0.5L0.102,-0.618L0.182,-0.632L0.182,-0.5L0.316,-0.5L0.316,-0.432L0.182,-0.432L0.182,-0.124C0.182,-0.1 0.187,-0.083 0.196,-0.072C0.205,-0.061 0.219,-0.056 0.239,-0.056C0.249,-0.056 0.258,-0.058 0.267,-0.062C0.276,-0.065 0.285,-0.073 0.295,-0.084L0.336,-0.032Z" style="fill:rgb(238,238,238);fill-rule:nonzero;"/>
        </g>
        <g transform="matrix(210.459,0,0,210.459,647.374,334.184)">
            <path d="M0.119,-0.613C0.101,-0.613 0.087,-0.619 0.077,-0.63C0.066,-0.642 0.061,-0.655 0.061,-0.671C0.061,-0.687 0.066,-0.7 0.077,-0.712C0.087,-0.723 0.101,-0.729 0.119,-0.729C0.136,-0.729 0.15,-0.723 0.161,-0.712C0.171,-0.7 0.177,-0.687 0.177,-0.671C0.177,-0.655 0.171,-0.642 0.161,-0.63C0.15,-0.619 0.136,-0.613 0.119,-0.613ZM0.158,-0L0.078,-0L0.078,-0.5L0.158,-0.5L0.158,-0Z" style="fill:rgb(238,238,238);fill-rule:nonzero;"/>
        </g>
        <g transform="matrix(210.459,0,0,210.459,696.289,334.184)">
            <rect x="0.076" y="-0.74" width="0.08" height="0.74" style="fill:rgb(238,238,238);fill-rule:nonzero;"/>
        </g>
        <g transform="matrix(210.459,0,0,210.459,745.204,334.184)">
            <path d="M0.486,-0.236L0.125,-0.236C0.125,-0.174 0.14,-0.129 0.169,-0.1C0.199,-0.072 0.234,-0.058 0.274,-0.058C0.305,-0.058 0.332,-0.065 0.355,-0.079C0.378,-0.093 0.398,-0.114 0.413,-0.142L0.479,-0.109C0.461,-0.073 0.434,-0.044 0.399,-0.022C0.364,0.001 0.32,0.012 0.269,0.012C0.203,0.012 0.148,-0.01 0.106,-0.054C0.063,-0.098 0.042,-0.163 0.042,-0.248C0.042,-0.324 0.063,-0.387 0.106,-0.437C0.149,-0.487 0.204,-0.512 0.271,-0.512C0.34,-0.512 0.392,-0.491 0.43,-0.45C0.467,-0.409 0.486,-0.351 0.486,-0.278L0.486,-0.236ZM0.404,-0.303C0.404,-0.346 0.392,-0.38 0.368,-0.405C0.344,-0.43 0.312,-0.442 0.27,-0.442C0.23,-0.442 0.197,-0.429 0.171,-0.402C0.146,-0.376 0.13,-0.342 0.125,-0.303L0.404,-0.303Z" style="fill:rgb(238,238,238);fill-rule:nonzero;"/>
        </g>
        <g transform="matrix(210.459,0,0,210.459,854.853,334.184)">
            <path d="M0.046,-0.098L0.114,-0.128C0.125,-0.103 0.141,-0.085 0.16,-0.074C0.18,-0.063 0.204,-0.058 0.233,-0.058C0.26,-0.058 0.283,-0.064 0.301,-0.078C0.319,-0.092 0.328,-0.111 0.328,-0.137C0.328,-0.157 0.32,-0.174 0.304,-0.188C0.289,-0.202 0.264,-0.213 0.23,-0.22C0.167,-0.234 0.124,-0.253 0.101,-0.278C0.079,-0.302 0.067,-0.331 0.067,-0.364C0.067,-0.411 0.084,-0.447 0.116,-0.473C0.149,-0.499 0.188,-0.512 0.234,-0.512C0.271,-0.512 0.304,-0.504 0.334,-0.489C0.364,-0.473 0.386,-0.45 0.4,-0.418L0.335,-0.388C0.325,-0.406 0.312,-0.42 0.296,-0.429C0.28,-0.438 0.258,-0.442 0.232,-0.442C0.207,-0.442 0.185,-0.436 0.168,-0.424C0.151,-0.411 0.142,-0.394 0.142,-0.373C0.142,-0.352 0.149,-0.336 0.163,-0.325C0.177,-0.315 0.205,-0.304 0.247,-0.295C0.301,-0.283 0.341,-0.264 0.366,-0.24C0.392,-0.215 0.404,-0.182 0.404,-0.142C0.404,-0.093 0.387,-0.055 0.354,-0.029C0.32,-0.002 0.28,0.012 0.233,0.012C0.184,0.012 0.145,0.002 0.114,-0.018C0.083,-0.038 0.061,-0.065 0.046,-0.098Z" style="fill:rgb(238,238,238);fill-rule:nonzero;"/>
        </g>
    </g>
</svg>
