<svg xmlns="http://www.w3.org/2000/svg" xml:space="preserve" style="fill-rule:evenodd;clip-rule:evenodd;stroke-linecap:square;stroke-miterlimit:1.5" viewBox="0 0 229 67"><g transform="scale(.74593 1)"><path d="M0 0h307v67H0z" style="fill:none"/><clipPath id="a"><path d="M0 0h307v67H0z"/></clipPath><g clip-path="url(#a)"><path d="M165.99 62.662h6.612V43.376h.379c1.072 1.763 4.478 5.604 10.849 5.604 9.146 0 15.632-7.18 15.632-17.394 0-10.222-6.486-17.213-16.01-17.213-6.56 0-9.714 4.219-10.597 5.541h-.442v-4.722h-6.423zm16.642-19.664c-5.804 0-10.219-4.224-10.219-11.349 0-6.248 3.785-11.294 10.092-11.294 6.119 0 10.219 4.415 10.219 11.29 0 6.624-4.1 11.353-10.092 11.353M222.543 48.98c10.092 0 17.398-7.433 17.398-17.272 0-9.84-7.18-17.335-17.335-17.335s-17.461 7.432-17.461 17.335c0 9.902 7.243 17.272 17.398 17.272m0-5.982c-6.181 0-10.66-4.73-10.66-11.29 0-6.497 4.416-11.29 10.66-11.29s10.66 4.73 10.66 11.29c0 6.496-4.416 11.29-10.66 11.29M261.568 48.16h5.485v-5.603h-4.476c-3.468 0-4.792-1.893-4.792-5.046V20.607h9.584v-5.415h-9.584V5.861h-6.235v7.251c0 1.324-.819 2.143-1.954 2.143h-4.35v5.352h5.926V37.7c0 6.871 3.905 10.46 10.396 10.46M288.936 48.98c6.56 0 9.777-4.219 10.66-5.478h.378v4.658h6.487V15.192h-6.613v4.785h-.442c-1.072-1.7-4.478-5.604-10.785-5.604-9.209 0-15.696 7.18-15.696 17.398s6.55 17.209 16.011 17.209m.946-5.982c-6.055 0-10.218-4.415-10.218-11.29 0-6.623 4.163-11.29 10.155-11.29 5.803 0 10.218 4.163 10.218 11.29 0 6.244-3.847 11.29-10.155 11.29M329.601 48.16h5.485v-5.603h-4.477c-3.467 0-4.792-1.893-4.792-5.046V20.607h9.584v-5.415h-9.584V5.861h-6.234v7.251c0 1.324-.819 2.143-1.954 2.143h-4.351v5.352h5.927V37.7c0 6.871 3.904 10.46 10.396 10.46" style="fill:#eee;fill-rule:nonzero" transform="matrix(1.46383 0 0 1.09192 -242.984 -1.424)"/><path d="M225.425 86.719h5.791c8.866 0 16.063-7.198 16.063-16.063v-5.791" style="fill:none;stroke:url(#b);stroke-width:4.37px" transform="matrix(1.8403 0 0 1.37273 -153.315 -70.878)"/><path d="M247.279 64.865h-5.791c-8.866 0-16.063 7.197-16.063 16.063v5.791" style="fill:none;stroke:url(#c);stroke-width:4.37px" transform="matrix(1.8403 0 0 1.37273 -153.315 -70.878)"/></g></g><defs><linearGradient id="b" x1="0" x2="1" y1="0" y2="0" gradientTransform="rotate(-90 164.003 -79.526)scale(17.3709)" gradientUnits="userSpaceOnUse"><stop offset="0" style="stop-color:#00b85c;stop-opacity:1"/><stop offset="1" style="stop-color:#008f47;stop-opacity:1"/></linearGradient><linearGradient id="c" x1="0" x2="1" y1="0" y2="0" gradientTransform="rotate(-90 154.951 -70.474)scale(17.3709)" gradientUnits="userSpaceOnUse"><stop offset="0" style="stop-color:#00b85c;stop-opacity:1"/><stop offset="1" style="stop-color:#0c6;stop-opacity:1"/></linearGradient></defs></svg>