<?xml version="1.0" encoding="UTF-8" standalone="no"?>
<!DOCTYPE svg PUBLIC "-//W3C//DTD SVG 1.1//EN" "http://www.w3.org/Graphics/SVG/1.1/DTD/svg11.dtd">
<svg width="100%" height="100%" viewBox="0 0 2000 2740" version="1.1" xmlns="http://www.w3.org/2000/svg" xmlns:xlink="http://www.w3.org/1999/xlink" xml:space="preserve" xmlns:serif="http://www.serif.com/" style="fill-rule:evenodd;clip-rule:evenodd;stroke-linejoin:round;stroke-miterlimit:2;">
    <g id="ArtBoard1" transform="matrix(1,0,0,2.74,0,0)">
        <rect x="0" y="0" width="2000" height="1000" style="fill:none;"/>
        <clipPath id="_clip1">
            <rect x="0" y="0" width="2000" height="1000"/>
        </clipPath>
        <g clip-path="url(#_clip1)">
            <g transform="matrix(1,0,0,0.364964,0,0)">
                <g transform="matrix(2.80583,0,0,2.80583,695.389,-137.751)">
                    <path d="M-13.763,49.095L-13.763,118.7L31.364,118.7L31.364,49.095L-13.763,49.095ZM-12.337,117.275L-12.337,49.095L29.939,49.095L29.939,117.275L-12.337,117.275Z" style="fill:rgb(34,34,34);"/>
                </g>
                <g transform="matrix(2.80583,0,0,2.80583,695.389,252.551)">
                    <path d="M-13.763,-21.829L-13.763,118.7L31.364,118.7L31.364,-21.829L-13.763,-21.829ZM-12.337,117.275L-12.337,-20.404C-12.337,-20.404 29.939,-20.404 29.939,-20.404C29.939,-20.404 29.939,117.275 29.939,117.275L-12.337,117.275Z" style="fill:rgb(34,34,34);"/>
                </g>
                <g transform="matrix(2.80583,0,0,2.80583,695.389,642.853)">
                    <path d="M-13.763,-21.829L-13.763,118.7L31.364,118.7L31.364,-21.829L-13.763,-21.829ZM-12.337,117.275L-12.337,-20.404C-12.337,-20.404 29.939,-20.404 29.939,-20.404C29.939,-20.404 29.939,117.275 29.939,117.275L-12.337,117.275Z" style="fill:rgb(34,34,34);"/>
                </g>
                <g transform="matrix(2.80583,0,0,2.80583,695.389,1033.15)">
                    <path d="M-13.763,-21.829L-13.763,118.7L31.364,118.7L31.364,-21.829L-13.763,-21.829ZM-12.337,117.275L-12.337,-20.404C-12.337,-20.404 29.939,-20.404 29.939,-20.404C29.939,-20.404 29.939,106.599 29.939,117.275L-12.337,117.275Z" style="fill:rgb(34,34,34);"/>
                </g>
                <g transform="matrix(2.80583,0,0,2.80583,695.389,1423.46)">
                    <path d="M-13.763,-21.829L-13.763,118.7L31.364,118.7L31.364,-21.829L-13.763,-21.829ZM-12.337,117.275L-12.337,-20.404C-12.337,-20.404 29.939,-20.404 29.939,-20.404C29.939,-20.404 29.939,117.275 29.939,117.275L-12.337,117.275Z" style="fill:rgb(34,34,34);"/>
                </g>
                <g transform="matrix(-2.80583,3.43615e-16,-3.43615e-16,-2.80583,744.776,2085.41)">
                    <path d="M-13.763,49.095L-13.763,118.7L31.364,118.7L31.364,49.095L-13.763,49.095ZM-12.337,117.275L-12.337,49.095L29.939,49.095L29.939,117.275L-12.337,117.275Z" style="fill:rgb(34,34,34);"/>
                </g>
            </g>
        </g>
    </g>
</svg>
