<?xml version="1.0" encoding="UTF-8" standalone="no"?>
<!DOCTYPE svg PUBLIC "-//W3C//DTD SVG 1.1//EN" "http://www.w3.org/Graphics/SVG/1.1/DTD/svg11.dtd">
<svg width="100%" height="100%" viewBox="0 0 2000 2740" version="1.1" xmlns="http://www.w3.org/2000/svg" xmlns:xlink="http://www.w3.org/1999/xlink" xml:space="preserve" xmlns:serif="http://www.serif.com/" style="fill-rule:evenodd;clip-rule:evenodd;stroke-linejoin:round;stroke-miterlimit:2;">
    <g id="ArtBoard1" transform="matrix(1,0,0,2.74,0,0)">
        <rect x="0" y="0" width="2000" height="1000" style="fill:none;"/>
        <clipPath id="_clip1">
            <rect x="0" y="0" width="2000" height="1000"/>
        </clipPath>
        <g clip-path="url(#_clip1)">
            <g transform="matrix(1,0,0,0.364964,0,1.69223e-10)">
                <g transform="matrix(2.80583,0,0,2.80583,34.6155,57.4001)">
                    <path d="M177.739,-20.457L105.59,35.812C105.59,35.812 31.7,-20.457 31.7,-20.457L-13.763,-20.457L-13.763,118.7L30.371,118.7L30.371,33.799C30.371,33.799 105.599,92.465 105.599,92.465L179.03,34.212C179.03,34.212 179.03,118.7 179.03,118.7L223.164,118.7L223.164,-20.457L177.739,-20.457ZM179.988,-20.404L221.738,-20.404C221.738,-20.404 221.738,117.275 221.738,117.275C221.738,117.275 180.456,117.275 180.456,117.275C180.456,117.275 180.456,31.262 180.456,31.262L105.591,90.651L28.945,30.88L28.945,117.275C28.945,117.275 -12.337,117.275 -12.337,117.275C-12.337,107.038 -12.337,-10.167 -12.337,-20.404C-12.337,-20.404 26.015,-20.404 29.417,-20.404C29.417,-20.404 105.6,37.611 105.6,37.611L179.988,-20.404Z" style="fill:rgb(34,34,34);"/>
                </g>
                <g transform="matrix(2.80583,0,0,2.80583,34.6155,447.702)">
                    <path d="M223.164,-21.829L179.498,-21.829L105.59,35.812L29.898,-21.829L-13.763,-21.829L-13.763,118.7L30.371,118.7L30.371,33.799C30.371,33.799 105.599,92.465 105.599,92.465L179.03,34.212C179.03,34.212 179.03,118.7 179.03,118.7L223.164,118.7L223.164,-21.829ZM179.988,-20.404L221.738,-20.404C221.738,-20.404 221.738,117.275 221.738,117.275C221.738,117.275 180.456,117.275 180.456,117.275C180.456,109.067 180.456,32.737 180.456,32.737L180.456,31.262L105.591,90.651C105.591,90.651 28.945,30.88 28.945,30.88L28.945,117.275C28.945,117.275 -12.337,117.275 -12.337,117.275C-12.337,117.275 -12.337,-20.404 -12.337,-20.404C-12.337,-20.404 29.417,-20.404 29.417,-20.404L105.6,37.611L179.988,-20.404Z" style="fill:rgb(34,34,34);"/>
                </g>
                <g transform="matrix(2.80583,0,0,2.80583,34.6155,838.004)">
                    <path d="M223.164,-21.829L179.498,-21.829L105.59,35.812L29.898,-21.829L-13.763,-21.829L-13.763,118.7L30.371,118.7L30.371,33.799C30.371,33.799 105.599,92.465 105.599,92.465L179.03,34.212L179.03,118.7L223.164,118.7L223.164,-21.829ZM179.988,-20.404L221.738,-20.404C221.738,-20.404 221.738,106.599 221.738,117.275C221.738,117.275 180.456,117.275 180.456,117.275L180.456,31.262L105.591,90.651L28.945,30.88L28.945,117.275C28.945,117.275 -12.337,117.275 -12.337,117.275C-12.337,117.275 -12.337,-20.404 -12.337,-20.404C-12.337,-20.404 26.015,-20.404 29.417,-20.404L105.6,37.611L179.988,-20.404Z" style="fill:rgb(34,34,34);"/>
                </g>
                <g transform="matrix(2.80583,0,0,2.80583,34.6155,1228.31)">
                    <path d="M223.164,-21.829L179.498,-21.829L105.59,35.812L29.898,-21.829L-13.763,-21.829L-13.763,118.7L30.371,118.7L30.371,33.799C30.371,33.799 105.599,92.465 105.599,92.465L179.03,34.212C179.03,34.212 179.03,118.7 179.03,118.7L223.164,118.7L223.164,-21.829ZM179.988,-20.404L221.738,-20.404C221.738,-20.404 221.738,106.599 221.738,117.275C221.738,117.275 180.456,117.275 180.456,117.275C180.456,117.275 180.456,31.262 180.456,31.262L105.591,90.651L28.945,30.88L28.945,117.275C28.945,117.275 -6.814,117.275 -12.337,117.275C-12.337,117.275 -12.337,-20.404 -12.337,-20.404C-12.337,-20.404 29.417,-20.404 29.417,-20.404C29.417,-20.404 105.6,37.611 105.6,37.611L179.988,-20.404Z" style="fill:rgb(34,34,34);"/>
                </g>
            </g>
        </g>
    </g>
</svg>
