<?xml version="1.0" encoding="UTF-8" standalone="no"?>
<!DOCTYPE svg PUBLIC "-//W3C//DTD SVG 1.1//EN" "http://www.w3.org/Graphics/SVG/1.1/DTD/svg11.dtd">
<svg width="100%" height="100%" viewBox="0 0 2000 2740" version="1.1" xmlns="http://www.w3.org/2000/svg" xmlns:xlink="http://www.w3.org/1999/xlink" xml:space="preserve" xmlns:serif="http://www.serif.com/" style="fill-rule:evenodd;clip-rule:evenodd;stroke-linejoin:round;stroke-miterlimit:2;">
    <g id="ArtBoard1" transform="matrix(1,0,0,2.74,0,0)">
        <rect x="0" y="0" width="2000" height="1000" style="fill:none;"/>
        <g transform="matrix(1,0,0,0.364964,0,1.69182e-10)">
            <g transform="matrix(2.80583,0,0,2.80583,818.007,57.4001)">
                <path d="M162.534,-20.457L162.534,64.804C150.713,57.073 32.167,-20.457 32.167,-20.457L-13.763,-20.457L-13.763,118.7L30.569,118.7L30.569,32.265C43.344,40.601 162.857,118.585 162.857,118.585L163.034,118.7L206.866,118.7L206.866,-20.457L162.534,-20.457ZM163.959,-20.404L205.44,-20.404C205.44,-20.404 205.44,117.275 205.44,117.275C205.44,117.275 163.458,117.275 163.458,117.275C163.458,117.275 29.144,29.632 29.144,29.632L29.144,117.275C29.144,117.275 -12.337,117.275 -12.337,117.275C-12.337,107.038 -12.337,-10.167 -12.337,-20.404C-12.337,-20.404 29.644,-20.404 29.644,-20.404C35.069,-16.856 162.856,66.718 162.856,66.718L163.959,67.44L163.959,-20.404Z" style="fill:rgb(34,34,34);"/>
            </g>
            <g transform="matrix(2.80583,0,0,2.80583,818.007,447.702)">
                <path d="M206.866,-21.829L162.534,-21.829L162.534,64.804C162.534,64.804 30.069,-21.829 30.069,-21.829L-13.763,-21.829L-13.763,118.7L30.569,118.7L30.569,32.265C30.569,32.265 163.034,118.7 163.034,118.7L206.866,118.7L206.866,-21.829ZM163.959,-20.404L205.44,-20.404C205.44,-20.404 205.44,106.599 205.44,117.275C205.44,117.275 163.458,117.275 163.458,117.275C163.458,117.275 29.144,29.632 29.144,29.632L29.144,117.275C29.144,117.275 -12.337,117.275 -12.337,117.275C-12.337,117.275 -12.337,-20.404 -12.337,-20.404C-12.337,-20.404 29.644,-20.404 29.644,-20.404C29.644,-20.404 163.959,67.44 163.959,67.44L163.959,-20.404Z" style="fill:rgb(34,34,34);"/>
            </g>
            <g transform="matrix(2.80583,0,0,2.80583,818.007,838.004)">
                <path d="M206.866,-21.829L162.534,-21.829L162.534,64.804C149.755,56.447 30.247,-21.713 30.247,-21.713L30.069,-21.829L-13.763,-21.829L-13.763,118.7L30.569,118.7L30.569,32.265C30.569,32.265 163.034,118.7 163.034,118.7L206.866,118.7L206.866,-21.829ZM163.959,-20.404L205.44,-20.404C205.44,-20.404 205.44,117.275 205.44,117.275C200.097,117.275 166.446,117.275 163.458,117.275C163.458,117.275 29.144,29.632 29.144,29.632L29.144,117.275C29.144,117.275 -12.337,117.275 -12.337,117.275C-12.337,117.275 -12.337,-20.404 -12.337,-20.404C-12.337,-20.404 29.644,-20.404 29.644,-20.404C35.069,-16.856 162.856,66.718 162.856,66.718L163.959,67.44L163.959,-20.404Z" style="fill:rgb(34,34,34);"/>
            </g>
            <g transform="matrix(2.80583,0,0,2.80583,818.007,1228.31)">
                <path d="M206.866,-21.829L162.534,-21.829L162.534,64.804C162.534,64.804 30.069,-21.829 30.069,-21.829L-13.763,-21.829L-13.763,118.7L30.569,118.7L30.569,32.265C30.569,32.265 163.034,118.7 163.034,118.7L206.866,118.7L206.866,-21.829ZM163.959,-20.404L205.44,-20.404C205.44,-20.404 205.44,117.275 205.44,117.275C205.44,117.275 163.458,117.275 163.458,117.275C163.458,117.275 29.144,29.632 29.144,29.632L29.144,117.275C29.144,117.275 -12.337,117.275 -12.337,117.275C-12.337,107.038 -12.337,-10.167 -12.337,-20.404C-12.337,-20.404 29.644,-20.404 29.644,-20.404C29.644,-20.404 163.959,67.44 163.959,67.44L163.959,-20.404Z" style="fill:rgb(34,34,34);"/>
            </g>
            <g transform="matrix(2.80583,0,0,2.80583,818.007,1618.61)">
                <path d="M206.866,-21.829L162.534,-21.829L162.534,64.804C162.534,64.804 30.069,-21.829 30.069,-21.829L-13.763,-21.829L-13.763,118.7L30.569,118.7L30.569,32.265C43.344,40.601 162.857,118.585 162.857,118.585L163.034,118.7L206.866,118.7L206.866,-21.829ZM163.959,-20.404L205.44,-20.404C205.44,-20.404 205.44,117.275 205.44,117.275C205.44,117.275 163.458,117.275 163.458,117.275C163.458,117.275 29.144,29.632 29.144,29.632L29.144,117.275C29.144,117.275 -12.337,117.275 -12.337,117.275C-12.337,117.275 -12.337,-20.404 -12.337,-20.404C-12.337,-20.404 29.644,-20.404 29.644,-20.404C35.069,-16.856 162.856,66.718 162.856,66.718L163.959,67.44L163.959,-20.404Z" style="fill:rgb(34,34,34);"/>
            </g>
            <g transform="matrix(2.80583,0,0,2.80583,818.007,2008.91)">
                <path d="M206.866,-21.829L162.534,-21.829L162.534,64.804C149.755,56.447 30.247,-21.713 30.247,-21.713L30.069,-21.829L-13.763,-21.829L-13.763,118.7L30.569,118.7L30.569,32.265C30.569,32.265 163.034,118.7 163.034,118.7L206.866,118.7L206.866,-21.829ZM163.959,-20.404L205.44,-20.404C205.44,-20.404 205.44,117.275 205.44,117.275C205.44,117.275 163.458,117.275 163.458,117.275C163.458,117.275 29.144,29.632 29.144,29.632L29.144,117.275C29.144,117.275 -12.337,117.275 -12.337,117.275C-12.337,107.038 -12.337,-10.167 -12.337,-20.404C-12.337,-20.404 29.644,-20.404 29.644,-20.404C29.644,-20.404 163.959,67.44 163.959,67.44L163.959,-20.404Z" style="fill:rgb(34,34,34);"/>
            </g>
        </g>
    </g>
</svg>
