<?xml version="1.0" encoding="UTF-8" standalone="no"?>
<!DOCTYPE svg PUBLIC "-//W3C//DTD SVG 1.1//EN" "http://www.w3.org/Graphics/SVG/1.1/DTD/svg11.dtd">
<svg width="100%" height="100%" viewBox="0 0 2000 2740" version="1.1" xmlns="http://www.w3.org/2000/svg" xmlns:xlink="http://www.w3.org/1999/xlink" xml:space="preserve" xmlns:serif="http://www.serif.com/" style="fill-rule:evenodd;clip-rule:evenodd;stroke-linejoin:round;stroke-miterlimit:2;">
    <g id="ArtBoard1" transform="matrix(1,0,0,2.74,0,0)">
        <rect x="0" y="0" width="2000" height="1000" style="fill:none;"/>
        <clipPath id="_clip1">
            <rect x="0" y="0" width="2000" height="1000"/>
        </clipPath>
        <g clip-path="url(#_clip1)">
            <g transform="matrix(1,0,0,0.364964,0,0)">
                <g transform="matrix(2.80583,0,0,2.80583,1433.05,-137.751)">
                    <path d="M117.426,49.095L72.299,49.095L72.299,118.7L117.426,118.7L117.426,49.095ZM73.724,49.095L116,49.095L116,117.275C116,117.275 73.724,117.275 73.724,117.275C73.724,117.275 73.724,49.095 73.724,49.095Z" style="fill:rgb(34,34,34);"/>
                </g>
                <g transform="matrix(2.80583,0,0,2.80583,1433.05,252.551)">
                    <path d="M203.487,17.931L203.487,-21.829L-13.763,-21.829L-13.763,17.931L72.299,17.931C72.299,17.931 72.299,118.7 72.299,118.7L117.426,118.7L117.426,17.931C117.426,17.931 203.487,17.931 203.487,17.931ZM202.061,-20.404L202.061,16.506C202.061,16.506 116,16.506 116,16.506L116,117.275C116,117.275 73.724,117.275 73.724,117.275C73.724,117.275 73.724,16.506 73.724,16.506L-12.337,16.506C-12.337,16.506 -12.337,-20.404 -12.337,-20.404C1.168,-20.404 202.061,-20.404 202.061,-20.404L202.061,-20.404Z" style="fill:rgb(34,34,34);"/>
                </g>
                <g transform="matrix(2.80583,0,0,2.80583,1433.05,642.853)">
                    <path d="M203.487,17.931L203.487,-21.829L-13.763,-21.829L-13.763,17.931L72.299,17.931C72.299,17.931 72.299,118.7 72.299,118.7L117.426,118.7L117.426,17.931C117.426,17.931 203.487,17.931 203.487,17.931ZM202.061,-20.404L202.061,16.506C202.061,16.506 116,16.506 116,16.506L116,117.275C116,117.275 73.724,117.275 73.724,117.275C73.724,117.275 73.724,16.506 73.724,16.506L-12.337,16.506C-12.337,16.506 -12.337,-20.404 -12.337,-20.404C-12.337,-20.404 202.061,-20.404 202.061,-20.404L202.061,-20.404Z" style="fill:rgb(34,34,34);"/>
                </g>
                <g transform="matrix(2.80583,0,0,2.80583,1433.05,1033.15)">
                    <path d="M203.487,17.931L203.487,-21.829L-13.763,-21.829L-13.763,17.931L72.299,17.931C72.299,17.931 72.299,118.7 72.299,118.7L117.426,118.7L117.426,17.931C117.426,17.931 203.487,17.931 203.487,17.931ZM202.061,-20.404L202.061,16.506C193.811,16.506 116.713,16.506 116.713,16.506L116,16.506L116,117.275C116,117.275 73.724,117.275 73.724,117.275C73.724,117.275 73.724,16.506 73.724,16.506L-12.337,16.506C-12.337,16.506 -12.337,-20.404 -12.337,-20.404C1.168,-20.404 202.061,-20.404 202.061,-20.404L202.061,-20.404Z" style="fill:rgb(34,34,34);"/>
                </g>
                <g transform="matrix(2.80583,0,0,2.80583,1433.05,1423.46)">
                    <path d="M203.487,17.931L203.487,-21.829L-13.763,-21.829L-13.763,17.931L72.299,17.931C72.299,17.931 72.299,118.7 72.299,118.7L117.426,118.7L117.426,17.931C117.426,17.931 203.487,17.931 203.487,17.931ZM202.061,-20.404L202.061,16.506C193.811,16.506 116.713,16.506 116.713,16.506L116,16.506L116,117.275C116,117.275 73.724,117.275 73.724,117.275C73.724,117.275 73.724,16.506 73.724,16.506L-12.337,16.506C-12.337,16.506 -12.337,-20.404 -12.337,-20.404C-12.337,-20.404 202.061,-20.404 202.061,-20.404L202.061,-20.404Z" style="fill:rgb(34,34,34);"/>
                </g>
                <g transform="matrix(2.80583,0,0,2.80583,1433.05,1813.76)">
                    <path d="M203.487,17.931L203.487,-21.829L-13.763,-21.829L-13.763,17.931L72.299,17.931C72.299,17.931 72.299,118.7 72.299,118.7L117.426,118.7L117.426,17.931C117.426,17.931 203.487,17.931 203.487,17.931ZM202.061,-20.404L202.061,16.506C202.061,16.506 116,16.506 116,16.506L116,117.275C116,117.275 73.724,117.275 73.724,117.275C73.724,117.275 73.724,16.506 73.724,16.506L-12.337,16.506C-12.337,16.506 -12.337,-20.404 -12.337,-20.404C0.722,-20.404 189.002,-20.404 202.061,-20.404L202.061,-20.404Z" style="fill:rgb(34,34,34);"/>
                </g>
                <g transform="matrix(2.80583,0,0,2.80583,1433.05,2204.06)">
                    <path d="M203.487,17.931L203.487,-21.829L-13.763,-21.829L-13.763,17.931L72.299,17.931C72.299,17.931 72.299,118.7 72.299,118.7L117.426,118.7L117.426,17.931L203.487,17.931ZM202.061,-20.404L202.061,16.506C193.811,16.506 116.713,16.506 116.713,16.506L116,16.506L116,117.275C116,117.275 73.724,117.275 73.724,117.275C73.724,117.275 73.724,16.506 73.724,16.506L-12.337,16.506C-12.337,16.506 -12.337,-20.404 -12.337,-20.404C0.722,-20.404 189.002,-20.404 202.061,-20.404L202.061,-20.404Z" style="fill:rgb(34,34,34);"/>
                </g>
                <path d="M1758.53,2732.11L1758.53,2640.67C1758.53,2640.67 2000,2640.67 2000,2640.67L2000,2537.11L2000,2537.11C2000,2537.11 1398.44,2537.11 1398.44,2537.11C1398.44,2537.11 1398.44,2640.67 1398.44,2640.67L1639.91,2640.67L1639.91,2732.11L1635.91,2732.11L1635.91,2644.67L1394.44,2644.67L1394.44,2533.11L2004,2533.11L2004,2644.67C2004,2644.67 1762.53,2644.67 1762.53,2644.67L1762.53,2732.11L1758.53,2732.11Z" style="fill:rgb(34,34,34);"/>
            </g>
        </g>
    </g>
</svg>
