<?xml version="1.0" encoding="UTF-8" standalone="no"?>
<!DOCTYPE svg PUBLIC "-//W3C//DTD SVG 1.1//EN" "http://www.w3.org/Graphics/SVG/1.1/DTD/svg11.dtd">
<svg width="100%" height="100%" viewBox="0 0 2000 1000" version="1.1" xmlns="http://www.w3.org/2000/svg" xmlns:xlink="http://www.w3.org/1999/xlink" xml:space="preserve" xmlns:serif="http://www.serif.com/" style="fill-rule:evenodd;clip-rule:evenodd;stroke-miterlimit:2;">
    <g opacity="0.25">
        <g transform="matrix(1.00552,0,0,1.00552,-5.52152,-7.17669)">
            <path d="M1107.56,45.489L1106.11,45.488C711.038,45.488 345.699,295.516 167.278,647.997L167.278,109.19L57.393,109.19L57.393,2567.53L167.278,2567.53L167.278,1094.22C167.278,966.846 197.015,847.963 247.992,733.325C400.925,401.685 732.278,159.62 1093.37,159.62C1522.43,159.62 1845.28,495.114 1845.28,924.037L1845.28,2567.53L1955.16,2567.53L1955.16,924.037C1959.41,431.905 1599.62,46.26 1107.56,45.489Z" style="fill:url(#_Linear1);fill-rule:nonzero;stroke:url(#_Linear2);stroke-width:4.97px;stroke-dasharray:19.89,14.92,0,0;"/>
        </g>
        <g transform="matrix(0.904235,0,0,0.904235,162.673,580.198)">
            <rect x="-14" y="57" width="28" height="28" style="fill:rgb(17,17,17);"/>
        </g>
        <g transform="matrix(0.904235,0,0,0.904235,52.1837,38.5617)">
            <circle cx="320" cy="277" r="15" style="fill:rgb(17,17,17);"/>
        </g>
        <g transform="matrix(0.904235,0,0,0.904235,244,665.726)">
            <rect x="-14" y="57" width="28" height="28" style="fill:rgb(17,17,17);"/>
        </g>
        <g transform="matrix(0.904235,0,0,0.904235,109.208,149.09)">
            <circle cx="320" cy="277" r="15" style="fill:rgb(17,17,17);"/>
        </g>
        <g transform="matrix(0.904235,0,0,0.904235,1960.48,856.52)">
            <rect x="-14" y="57" width="28" height="28" style="fill:rgb(17,17,17);"/>
        </g>
        <g transform="matrix(0.904235,0,0,0.904235,1671.12,176.527)">
            <circle cx="320" cy="277" r="15" style="fill:rgb(17,17,17);"/>
        </g>
        <g transform="matrix(0.904235,0,0,0.904235,1849.56,856.52)">
            <rect x="-14" y="57" width="28" height="28" style="fill:rgb(17,17,17);"/>
        </g>
        <g transform="matrix(0.904235,0,0,0.904235,1560.21,235.963)">
            <circle cx="320" cy="277" r="15" style="fill:rgb(17,17,17);"/>
        </g>
        <g transform="matrix(0.904235,0,0,0.904235,441.003,-97.0731)">
            <circle cx="320" cy="277" r="15" style="fill:rgb(17,17,17);"/>
        </g>
        <g transform="matrix(0.904235,0,0,0.904235,1237.63,-97.0731)">
            <circle cx="320" cy="277" r="15" style="fill:rgb(17,17,17);"/>
        </g>
        <g transform="matrix(0.904235,0,0,0.904235,419.302,-211.91)">
            <circle cx="320" cy="277" r="15" style="fill:rgb(17,17,17);"/>
        </g>
        <g transform="matrix(0.904235,0,0,0.904235,1312.68,-211.91)">
            <circle cx="320" cy="277" r="15" style="fill:rgb(17,17,17);"/>
        </g>
        <g transform="matrix(0.904235,0,0,0.904235,52.1837,38.5617)">
            <rect x="-14" y="57" width="28" height="28" style="fill:rgb(17,17,17);"/>
        </g>
        <g transform="matrix(0.904235,0,0,0.904235,162.5,38.5617)">
            <rect x="-14" y="57" width="28" height="28" style="fill:rgb(17,17,17);"/>
        </g>
        <path d="M1957.98,442.884L1957.98,905.547L1945.3,905.547L1945.3,935.893L1975.65,935.893L1975.65,905.547L1962.98,905.547L1962.98,442.884C1970.66,441.682 1976.55,435.023 1976.55,427C1976.55,418.127 1969.35,410.923 1960.48,410.923C1951.6,410.923 1944.4,418.127 1944.4,427C1944.4,435.023 1950.29,441.682 1957.98,442.884ZM1970.62,910.575L1950.33,910.575L1950.33,930.866C1950.33,930.866 1970.62,930.866 1970.62,930.866C1970.62,930.866 1970.62,910.575 1970.62,910.575ZM1962.98,437.765C1967.87,436.631 1971.53,432.239 1971.53,427C1971.53,420.901 1966.57,415.95 1960.48,415.95C1954.38,415.95 1949.43,420.901 1949.43,427C1949.43,432.239 1953.08,436.631 1957.98,437.765L1962.98,437.765Z" style="fill:url(#_Linear3);"/>
        <path d="M1847.06,502.32L1847.06,905.547L1834.39,905.547L1834.39,935.893L1864.74,935.893L1864.74,905.547L1852.06,905.547L1852.06,502.32C1859.75,501.118 1865.64,494.46 1865.64,486.436C1865.64,477.563 1858.44,470.359 1849.56,470.359C1840.69,470.359 1833.49,477.563 1833.49,486.436C1833.49,494.46 1839.38,501.118 1847.06,502.32ZM1859.71,910.575L1839.42,910.575L1839.42,930.866C1839.42,930.866 1859.71,930.866 1859.71,930.866C1859.71,930.866 1859.71,910.575 1859.71,910.575ZM1852.06,497.202C1856.96,496.067 1860.61,491.675 1860.61,486.436C1860.61,480.338 1855.66,475.387 1849.56,475.387C1843.47,475.387 1838.51,480.338 1838.51,486.436C1838.51,491.675 1842.17,496.067 1847.06,497.202L1852.06,497.202Z" style="fill:url(#_Linear4);"/>
        <path d="M1100.53,150.884L1511.1,150.884C1512.31,143.204 1518.96,137.323 1526.98,137.323C1535.86,137.323 1543.06,144.527 1543.06,153.4C1543.06,162.273 1535.86,169.477 1526.98,169.477C1518.96,169.477 1512.31,163.595 1511.1,155.915L1100.53,155.915C1099.46,159.173 1096.4,161.53 1092.79,161.53C1089.18,161.53 1086.12,159.173 1085.06,155.915L746.239,155.915C745.031,163.595 738.376,169.477 730.358,169.477C721.485,169.477 714.281,162.273 714.281,153.4C714.281,144.527 721.485,137.323 730.358,137.323C738.375,137.323 745.03,143.204 746.239,150.884L1085.06,150.884C1086.12,147.626 1089.18,145.268 1092.79,145.268C1096.4,145.268 1099.46,147.626 1100.53,150.884ZM741.407,153.236C741.319,147.213 736.402,142.35 730.358,142.35C724.26,142.35 719.308,147.302 719.308,153.4C719.308,159.499 724.26,164.45 730.358,164.45C736.402,164.45 741.319,159.587 741.407,153.564L741.407,153.236ZM1526.98,142.35C1533.08,142.35 1538.03,147.302 1538.03,153.4C1538.03,159.499 1533.08,164.45 1526.98,164.45C1520.88,164.45 1515.93,159.499 1515.93,153.4C1515.93,147.302 1520.88,142.35 1526.98,142.35Z" style="fill:url(#_Linear5);"/>
        <path d="M1114.52,36.046L1586.15,36.046C1587.36,28.367 1594.02,22.486 1602.03,22.486C1610.91,22.486 1618.11,29.69 1618.11,38.564C1618.11,47.437 1610.91,54.641 1602.03,54.641C1594.02,54.641 1587.36,48.759 1586.15,41.078L1114.52,41.078C1113.46,44.335 1110.39,46.693 1106.78,46.693C1103.17,46.693 1100.11,44.335 1099.05,41.078L724.538,41.078C723.33,48.759 716.675,54.641 708.657,54.641C699.784,54.641 692.58,47.437 692.58,38.564C692.58,29.69 699.784,22.486 708.657,22.486C716.674,22.486 723.328,28.367 724.538,36.046L1099.05,36.046C1100.11,32.788 1103.17,30.43 1106.78,30.43C1110.39,30.43 1113.46,32.788 1114.52,36.046ZM719.706,38.438C719.638,32.397 714.713,27.514 708.657,27.514C702.558,27.514 697.607,32.465 697.607,38.564C697.607,44.662 702.558,49.613 708.657,49.613C714.715,49.613 719.64,44.728 719.706,38.686L719.706,38.438ZM1590.99,38.696C1591.06,44.733 1595.98,49.613 1602.03,49.613C1608.13,49.613 1613.08,44.662 1613.08,38.564C1613.08,32.465 1608.13,27.514 1602.03,27.514C1595.98,27.514 1591.06,32.392 1590.99,38.429L1590.99,38.696Z" style="fill:url(#_Linear6);"/>
        <path d="M389.558,412.881L248.324,714.754L228.827,714.754L228.827,745.1L259.173,745.1L259.173,714.754L253.874,714.754L394.109,415.015C395.524,415.422 397.019,415.641 398.564,415.641C407.437,415.641 414.641,408.437 414.641,399.564C414.641,390.69 407.437,383.486 398.564,383.486C389.69,383.486 382.486,390.69 382.486,399.564C382.486,405.101 385.292,409.989 389.558,412.881ZM254.146,719.782L233.854,719.782L233.854,740.073C233.854,740.073 254.146,740.073 254.146,740.073C254.146,740.073 254.146,719.782 254.146,719.782ZM396.28,410.377C397.016,410.532 397.78,410.613 398.564,410.613C404.662,410.613 409.613,405.662 409.613,399.564C409.613,393.465 404.662,388.514 398.564,388.514C392.465,388.514 387.514,393.465 387.514,399.564C387.514,403.082 389.162,406.219 391.728,408.243L396.28,410.377Z" style="fill:url(#_Linear7);"/>
        <path d="M332.155,302.088L167.497,629.225L147.5,629.225L147.5,659.572L177.847,659.572L177.847,629.225L173.124,629.225L336.643,304.352C338.188,304.846 339.833,305.112 341.539,305.112C350.412,305.112 357.616,297.908 357.616,289.035C357.616,280.162 350.412,272.958 341.539,272.958C332.666,272.958 325.462,280.162 325.462,289.035C325.462,294.407 328.102,299.167 332.155,302.088ZM172.819,634.253L152.528,634.253L152.528,654.544C152.528,654.544 172.819,654.544 172.819,654.544C172.819,654.544 172.819,634.253 172.819,634.253ZM338.946,299.778C339.778,299.979 340.646,300.085 341.539,300.085C347.638,300.085 352.589,295.133 352.589,289.035C352.589,282.936 347.638,277.985 341.539,277.985C335.441,277.985 330.489,282.936 330.489,289.035C330.489,292.44 332.033,295.487 334.457,297.514L338.946,299.778Z" style="fill:url(#_Linear8);"/>
        <path d="M177.673,87.589L147.326,87.589L147.326,117.936L177.673,117.936L177.673,87.589ZM152.354,92.617L172.645,92.617C172.645,92.617 172.645,112.908 172.645,112.908C172.645,112.908 152.354,112.908 152.354,112.908L152.354,92.617Z" style="fill:url(#_Linear9);"/>
        <path d="M67.357,87.589L37.011,87.589L37.011,117.936L67.357,117.936L67.357,87.589ZM42.038,92.617L62.329,92.617C62.329,92.617 62.329,112.908 62.329,112.908C62.329,112.908 42.038,112.908 42.038,112.908L42.038,92.617Z" style="fill:url(#_Linear10);"/>
    </g>
    <defs>
        <linearGradient id="_Linear1" x1="0" y1="0" x2="1" y2="0" gradientUnits="userSpaceOnUse" gradientTransform="matrix(6.08961e-14,994.509,-994.509,6.08961e-14,1000,7.13728)"><stop offset="0" style="stop-color:rgb(34,34,34);stop-opacity:1"/><stop offset="1" style="stop-color:rgb(17,17,17);stop-opacity:1"/></linearGradient>
        <linearGradient id="_Linear2" x1="0" y1="0" x2="1" y2="0" gradientUnits="userSpaceOnUse" gradientTransform="matrix(6.08961e-14,994.509,-1025.66,6.28034e-14,1042.82,7.13728)"><stop offset="0" style="stop-color:rgb(17,119,187);stop-opacity:1"/><stop offset="1" style="stop-color:rgb(17,17,17);stop-opacity:1"/></linearGradient>
        <linearGradient id="_Linear3" x1="0" y1="0" x2="1" y2="0" gradientUnits="userSpaceOnUse" gradientTransform="matrix(6.12323e-14,1000,-1000,6.12323e-14,1000,0)"><stop offset="0" style="stop-color:rgb(17,153,255);stop-opacity:1"/><stop offset="1" style="stop-color:rgb(17,17,17);stop-opacity:1"/></linearGradient>
        <linearGradient id="_Linear4" x1="0" y1="0" x2="1" y2="0" gradientUnits="userSpaceOnUse" gradientTransform="matrix(6.12323e-14,1000,-1000,6.12323e-14,1000,0)"><stop offset="0" style="stop-color:rgb(17,153,255);stop-opacity:1"/><stop offset="1" style="stop-color:rgb(17,17,17);stop-opacity:1"/></linearGradient>
        <linearGradient id="_Linear5" x1="0" y1="0" x2="1" y2="0" gradientUnits="userSpaceOnUse" gradientTransform="matrix(6.12323e-14,1000,-1000,6.12323e-14,1000,0)"><stop offset="0" style="stop-color:rgb(17,153,255);stop-opacity:1"/><stop offset="1" style="stop-color:rgb(17,17,17);stop-opacity:1"/></linearGradient>
        <linearGradient id="_Linear6" x1="0" y1="0" x2="1" y2="0" gradientUnits="userSpaceOnUse" gradientTransform="matrix(6.12323e-14,1000,-1000,6.12323e-14,1000,0)"><stop offset="0" style="stop-color:rgb(17,153,255);stop-opacity:1"/><stop offset="1" style="stop-color:rgb(17,17,17);stop-opacity:1"/></linearGradient>
        <linearGradient id="_Linear7" x1="0" y1="0" x2="1" y2="0" gradientUnits="userSpaceOnUse" gradientTransform="matrix(6.12323e-14,1000,-1000,6.12323e-14,1000,0)"><stop offset="0" style="stop-color:rgb(17,153,255);stop-opacity:1"/><stop offset="1" style="stop-color:rgb(17,17,17);stop-opacity:1"/></linearGradient>
        <linearGradient id="_Linear8" x1="0" y1="0" x2="1" y2="0" gradientUnits="userSpaceOnUse" gradientTransform="matrix(6.12323e-14,1000,-1000,6.12323e-14,1000,0)"><stop offset="0" style="stop-color:rgb(17,153,255);stop-opacity:1"/><stop offset="1" style="stop-color:rgb(17,17,17);stop-opacity:1"/></linearGradient>
        <linearGradient id="_Linear9" x1="0" y1="0" x2="1" y2="0" gradientUnits="userSpaceOnUse" gradientTransform="matrix(6.12323e-14,1000,-1000,6.12323e-14,1000,0)"><stop offset="0" style="stop-color:rgb(17,153,255);stop-opacity:1"/><stop offset="1" style="stop-color:rgb(17,17,17);stop-opacity:1"/></linearGradient>
        <linearGradient id="_Linear10" x1="0" y1="0" x2="1" y2="0" gradientUnits="userSpaceOnUse" gradientTransform="matrix(6.12323e-14,1000,-1000,6.12323e-14,1000,0)"><stop offset="0" style="stop-color:rgb(17,153,255);stop-opacity:1"/><stop offset="1" style="stop-color:rgb(17,17,17);stop-opacity:1"/></linearGradient>
    </defs>
</svg>
