<svg viewBox="0 0 2000 500" xmlns="http://www.w3.org/2000/svg" xmlns:xlink="http://www.w3.org/1999/xlink" xml:space="preserve" style="fill-rule:evenodd;clip-rule:evenodd;stroke-miterlimit:2"><path style="fill:url(#a)" d="M0 0h1989v500H0z" transform="scale(1.00553 1)"/><path d="m1184.51 59.337-1.53-.001c-361.553 0-699.672 197.02-907.71 490.929h-90.102V127.039H68.381v423.226h354.34c185.697-223.228 457.212-369.628 746.709-369.628 291.38 0 536.67 145.582 675.81 369.628h141.2c-145.7-294.077-440.18-490.361-801.93-490.928Z" style="fill:#222;fill-rule:nonzero" transform="translate(37.848 -17.743) scale(.9409)"/><path d="M86.073 659.253C68.95 624.601 34.06 601.469-8.496 601.469c-42.555 0-82.352 23.19-106.839 57.784m-10.605 0v-49.815h-13.746v49.815" style="fill:none;fill-rule:nonzero;stroke:url(#b);stroke-width:.63px;stroke-dasharray:1.88,1.88,0,0" transform="translate(1218.825 -4769.984) scale(7.99388)"/><path d="M-97.98 659.253c21.857-26.275 53.815-43.506 87.89-43.506 34.296 0 63.167 17.135 79.544 43.506" style="fill:none;fill-rule:nonzero;stroke:url(#b);stroke-width:.63px;stroke-dasharray:1.88,1.88,0,0" transform="translate(1218.825 -4769.984) scale(7.99388)"/><path d="M320 277 122.194 670.003" style="fill:none;stroke:url(#c);stroke-width:5.58px;stroke-linecap:round;stroke-miterlimit:1.5" transform="matrix(.89233 .01378 .01378 .87188 93.8 54.75)"/><path d="M750 127h881" style="fill:none;stroke:url(#d);stroke-width:5.66px;stroke-linecap:round;stroke-miterlimit:1.5" transform="matrix(.86864 0 0 .89927 138.642 38.086)"/><path d="M726 0h988" style="fill:none;stroke:url(#e);stroke-width:5.65px;stroke-linecap:round;stroke-miterlimit:1.5" transform="matrix(.87196 0 0 .89927 135.5 38.086)"/><circle cx="320" cy="277" r="15" style="fill:url(#f)" transform="translate(102.187 38.086) scale(.89927)"/><circle cx="320" cy="277" r="15" style="fill:url(#g)" transform="translate(488.871 -96.804) scale(.89927)"/><circle cx="320" cy="277" r="15" style="fill:url(#h)" transform="translate(1281.12 -96.804) scale(.89927)"/><circle cx="320" cy="277" r="15" style="fill:url(#i)" transform="translate(467.289 -211.01) scale(.89927)"/><circle cx="320" cy="277" r="15" style="fill:url(#j)" transform="translate(1355.76 -211.01) scale(.89927)"/><path style="fill:url(#f)" d="M-14 57h28v28h-28z" transform="translate(102.187 38.086) scale(.89927)"/><path style="fill:url(#k)" d="M-14 57h28v28h-28z" transform="translate(211.897 38.086) scale(.89927)"/><path style="fill:none;stroke:url(#l);stroke-width:5.56px;stroke-linecap:round;stroke-miterlimit:1.5" d="M-14 57h28v28h-28z" transform="translate(102.187 38.086) scale(.89927)"/><path style="fill:none;stroke:url(#m);stroke-width:5.56px;stroke-linecap:round;stroke-miterlimit:1.5" d="M-14 57h28v28h-28z" transform="translate(211.897 38.086) scale(.89927)"/><circle cx="320" cy="277" r="15" style="fill:none;stroke:url(#l);stroke-width:5.56px;stroke-linecap:round;stroke-miterlimit:1.5" transform="translate(102.187 38.086) scale(.89927)"/><circle cx="320" cy="277" r="15" style="fill:none;stroke:url(#n);stroke-width:5.56px;stroke-linecap:round;stroke-miterlimit:1.5" transform="translate(488.871 -96.804) scale(.89927)"/><circle cx="320" cy="277" r="15" style="fill:none;stroke:url(#o);stroke-width:5.56px;stroke-linecap:round;stroke-miterlimit:1.5" transform="translate(1281.12 -96.804) scale(.89927)"/><circle cx="320" cy="277" r="15" style="fill:none;stroke:url(#p);stroke-width:5.56px;stroke-linecap:round;stroke-miterlimit:1.5" transform="translate(467.289 -211.01) scale(.89927)"/><circle cx="320" cy="277" r="15" style="fill:none;stroke:url(#q);stroke-width:5.56px;stroke-linecap:round;stroke-miterlimit:1.5" transform="translate(1355.76 -211.01) scale(.89927)"/><circle cx="1151" cy="38.086" r="5.914" style="fill:url(#r);stroke:url(#_Linear18);stroke-width:3.66px;stroke-linecap:round;stroke-miterlimit:1.5" transform="translate(-422.825 -13.991) scale(1.36735)"/><circle cx="1151" cy="38.086" r="5.914" style="fill:url(#s);stroke:url(#_Linear19);stroke-width:3.66px;stroke-linecap:round;stroke-miterlimit:1.5" transform="translate(-436.739 100.216) scale(1.36735)"/><use xlink:href="#_Image26" x="459" y="133" width="1078" height="274"/><defs><linearGradient id="a" x1="0" y1="0" x2="1" y2="0" gradientUnits="userSpaceOnUse" gradientTransform="matrix(0 500 -497.25 0 994.5 0)"><stop offset="0" style="stop-color:#5a5a5a;stop-opacity:.33"/><stop offset="1" style="stop-color:#5a5a5a;stop-opacity:0"/></linearGradient><linearGradient id="b" x1="0" y1="0" x2="1" y2="0" gradientUnits="userSpaceOnUse" gradientTransform="rotate(90 -312.259 282.226) scale(58.8511)"><stop offset="0" style="stop-color:#17c;stop-opacity:1"/><stop offset="1" style="stop-color:#17c;stop-opacity:0"/></linearGradient><linearGradient id="c" x1="0" y1="0" x2="1" y2="0" gradientUnits="userSpaceOnUse" gradientTransform="matrix(-8.86045 573.613 -560.469 8.86045 1021.85 -78.95)"><stop offset="0" style="stop-color:#19f;stop-opacity:1"/><stop offset="1" style="stop-color:#19f;stop-opacity:0"/></linearGradient><linearGradient id="d" x1="0" y1="0" x2="1" y2="0" gradientUnits="userSpaceOnUse" gradientTransform="scale(575.61 556.009) rotate(90 .904 .828)"><stop offset="0" style="stop-color:#19f;stop-opacity:1"/><stop offset="1" style="stop-color:#19f;stop-opacity:0"/></linearGradient><linearGradient id="e" x1="0" y1="0" x2="1" y2="0" gradientUnits="userSpaceOnUse" gradientTransform="scale(573.421 556.009) rotate(90 .907 .83)"><stop offset="0" style="stop-color:#19f;stop-opacity:1"/><stop offset="1" style="stop-color:#19f;stop-opacity:0"/></linearGradient><linearGradient id="f" x1="0" y1="0" x2="1" y2="0" gradientUnits="userSpaceOnUse" gradientTransform="rotate(90 522.891 480.539) scale(556.009)"><stop offset="0" style="stop-color:#111212;stop-opacity:1"/><stop offset="1" style="stop-color:#111212;stop-opacity:0"/></linearGradient><linearGradient id="g" x1="0" y1="0" x2="1" y2="0" gradientUnits="userSpaceOnUse" gradientTransform="rotate(90 232.89 340.537) scale(556.009)"><stop offset="0" style="stop-color:#111212;stop-opacity:1"/><stop offset="1" style="stop-color:#111212;stop-opacity:0"/></linearGradient><linearGradient id="h" x1="0" y1="0" x2="1" y2="0" gradientUnits="userSpaceOnUse" gradientTransform="rotate(90 -207.61 -99.963) scale(556.009)"><stop offset="0" style="stop-color:#111212;stop-opacity:1"/><stop offset="1" style="stop-color:#111212;stop-opacity:0"/></linearGradient><linearGradient id="i" x1="0" y1="0" x2="1" y2="0" gradientUnits="userSpaceOnUse" gradientTransform="rotate(90 181.39 416.037) scale(556.009)"><stop offset="0" style="stop-color:#111212;stop-opacity:1"/><stop offset="1" style="stop-color:#111212;stop-opacity:0"/></linearGradient><linearGradient id="j" x1="0" y1="0" x2="1" y2="0" gradientUnits="userSpaceOnUse" gradientTransform="rotate(90 -312.61 -77.963) scale(556.009)"><stop offset="0" style="stop-color:#111212;stop-opacity:1"/><stop offset="1" style="stop-color:#111212;stop-opacity:0"/></linearGradient><linearGradient id="k" x1="0" y1="0" x2="1" y2="0" gradientUnits="userSpaceOnUse" gradientTransform="rotate(90 461.89 419.537) scale(556.009)"><stop offset="0" style="stop-color:#111212;stop-opacity:1"/><stop offset="1" style="stop-color:#111212;stop-opacity:0"/></linearGradient><linearGradient id="l" x1="0" y1="0" x2="1" y2="0" gradientUnits="userSpaceOnUse" gradientTransform="rotate(90 522.891 480.539) scale(556.009)"><stop offset="0" style="stop-color:#19f;stop-opacity:1"/><stop offset="1" style="stop-color:#19f;stop-opacity:0"/></linearGradient><linearGradient id="m" x1="0" y1="0" x2="1" y2="0" gradientUnits="userSpaceOnUse" gradientTransform="rotate(90 461.89 419.537) scale(556.009)"><stop offset="0" style="stop-color:#19f;stop-opacity:1"/><stop offset="1" style="stop-color:#19f;stop-opacity:0"/></linearGradient><linearGradient id="n" x1="0" y1="0" x2="1" y2="0" gradientUnits="userSpaceOnUse" gradientTransform="rotate(90 232.89 340.537) scale(556.009)"><stop offset="0" style="stop-color:#19f;stop-opacity:1"/><stop offset="1" style="stop-color:#19f;stop-opacity:0"/></linearGradient><linearGradient id="o" x1="0" y1="0" x2="1" y2="0" gradientUnits="userSpaceOnUse" gradientTransform="rotate(90 -207.61 -99.963) scale(556.009)"><stop offset="0" style="stop-color:#19f;stop-opacity:1"/><stop offset="1" style="stop-color:#19f;stop-opacity:0"/></linearGradient><linearGradient id="p" x1="0" y1="0" x2="1" y2="0" gradientUnits="userSpaceOnUse" gradientTransform="rotate(90 181.39 416.037) scale(556.009)"><stop offset="0" style="stop-color:#19f;stop-opacity:1"/><stop offset="1" style="stop-color:#19f;stop-opacity:0"/></linearGradient><linearGradient id="q" x1="0" y1="0" x2="1" y2="0" gradientUnits="userSpaceOnUse" gradientTransform="rotate(90 -312.61 -77.963) scale(556.009)"><stop offset="0" style="stop-color:#19f;stop-opacity:1"/><stop offset="1" style="stop-color:#19f;stop-opacity:0"/></linearGradient><linearGradient id="r" x1="0" y1="0" x2="1" y2="0" gradientUnits="userSpaceOnUse" gradientTransform="rotate(90 516.824 527.056) scale(365.67)"><stop offset="0" style="stop-color:#19f;stop-opacity:1"/><stop offset="1" style="stop-color:#19f;stop-opacity:0"/></linearGradient><linearGradient id="s" x1="0" y1="0" x2="1" y2="0" gradientUnits="userSpaceOnUse" gradientTransform="rotate(90 563.676 490.384) scale(365.67)"><stop offset="0" style="stop-color:#19f;stop-opacity:1"/><stop offset="1" style="stop-color:#19f;stop-opacity:0"/></linearGradient></defs></svg>