<svg
  viewBox="0 0 2000 500"
  xmlns="http://www.w3.org/2000/svg"
  xmlns:xlink="http://www.w3.org/1999/xlink"
  xml:space="preserve"
  style="fill-rule:evenodd;clip-rule:evenodd;stroke-miterlimit:2"
><path style="fill:none" d="M0 0h2000v500H0z" /><path
    d="M69.888 333.237V142.763H34.5L-35.562 275.05l-70.063-132.287h-35.625v190.474H-108V205.7l54.625 102.837h35.625L36.638 205.7v127.537h33.25Zm57.95-137.987h-33.25v137.987h33.25V195.25Zm-16.625-52.487c-11.163 0-19.95 9.025-19.95 19.95 0 11.162 8.787 20.187 19.95 20.187 11.162 0 20.187-9.025 20.187-20.187 0-10.925-9.025-19.95-20.187-19.95ZM222.6 226.125c14.963 0 25.888 10.45 25.888 26.362V333h34.2v-85.025c.475-31.825-22.325-56.05-54.388-56.05-19 0-32.537 8.313-42.275 21.85v-18.287h-33.25V333h33.25v-68.875c0-19.712 16.863-38 36.575-38Zm85.263 60.8c0 27.312 22.325 49.637 49.637 49.637 10.45 0 27.313-3.087 27.313-3.087l-4.038-31.588s-14.25 1.663-23.275 1.663c-9.025 0-16.387-7.6-16.387-16.625V228.5h39.662v-33.012h-39.662v-36.575l-33.25 3.562v33.013H289.1V228.5h18.763v58.425ZM532.3 161.763s-18.762-22.325-62.937-22.325c-42.275 0-68.163 27.787-68.163 57.237 0 4.038.475 7.838 1.425 11.875 6.175 25.413 26.6 35.625 51.538 41.8 10.687 2.612 22.325 4.75 32.537 8.075 9.975 3.325 19 8.075 20.663 20.425.237.95.237 1.662.237 2.613 0 13.299-15.675 23.037-36.575 23.037-29.212 0-54.15-15.438-54.15-15.438l-16.862 27.313s32.537 20.187 71.012 20.187c42.513 0 68.638-27.075 68.638-55.575 0-2.137-.238-4.274-.475-6.412-4.988-35.15-33.013-45.6-63.65-52.25-8.788-1.9-17.575-3.562-25.413-6.412-7.6-2.85-14.012-6.413-16.15-14.963-.475-1.662-.475-3.087-.475-4.512 0-13.775 15.2-24.938 35.863-24.938 26.837 0 38.95 11.638 38.95 11.638l23.987-21.375Zm127.538 99.749v5.463c-1.425 20.187-17.338 36.575-37.288 36.575-20.9 0-37.287-17.813-37.287-39.188 0-21.374 16.387-39.187 37.287-39.187 19.95 0 35.863 16.15 37.288 36.337Zm0 59.613v12.112h33.25V195.488h-33.25V207.6c-8.55-9.737-20.663-15.675-37.288-15.675-38.95 0-70.537 32.538-70.537 72.437 0 39.9 31.587 72.2 70.537 72.2 16.625 0 28.738-5.7 37.288-15.437Zm123.262-95c14.962 0 25.887 10.45 25.887 26.362V333h34.2v-85.025c.475-31.825-22.325-56.05-54.387-56.05-19 0-32.538 8.313-42.275 21.85v-18.287h-33.25V333h33.25v-68.875c0-19.712 16.862-38 36.575-38Zm184.775-19.475s-19.238-14.725-52.013-14.725c-34.675 0-55.1 22.088-55.1 44.413 0 3.087.475 6.174 1.188 9.262 4.987 19 21.375 27.788 41.325 32.3 7.837 1.662 16.387 2.85 23.75 5.225 5.7 1.662 11.162 3.562 12.112 9.975.238 2.375-1.662 4.037-3.8 5.7-4.987 3.8-12.112 5.7-20.662 5.7-21.613 0-41.563-10.213-41.563-10.213l-14.725 28.5s27.075 13.775 56.288 13.775c20.662 0 37.05-7.6 46.312-17.812 6.888-7.363 10.45-16.15 10.45-25.175 0-1.663-.237-3.563-.475-5.225-3.325-22.087-19.237-32.063-39.187-37.287-9.738-2.613-20.663-3.801-29.688-6.888-4.037-1.425-7.837-2.375-9.025-6.65-.237-.475-.237-.95-.237-1.425 0-2.137 1.425-4.037 3.087-5.7 4.275-4.037 11.4-6.412 19.95-6.412 20.663 0 32.775 8.55 32.775 8.55l19.238-25.888Z"
    style="fill:#ebebeb;fill-rule:nonzero"
    transform="translate(636.609 41.52) scale(.87544)"
  /></svg>
