<?xml version="1.0" encoding="UTF-8" standalone="no"?>
<!DOCTYPE svg PUBLIC "-//W3C//DTD SVG 1.1//EN" "http://www.w3.org/Graphics/SVG/1.1/DTD/svg11.dtd">
<svg width="100%" height="100%" viewBox="0 0 2000 1000" version="1.1" xmlns="http://www.w3.org/2000/svg" xmlns:xlink="http://www.w3.org/1999/xlink" xml:space="preserve" xmlns:serif="http://www.serif.com/" style="fill-rule:evenodd;clip-rule:evenodd;stroke-linejoin:round;stroke-miterlimit:2;">
    <g transform="matrix(1.61692,-0.433253,0.433253,1.61692,275.294,113.989)">
        <path d="M231.66,324.407L238.83,324.407L238.83,305.201C238.83,295.358 242.193,289.357 250.6,282.875L267.173,270.151C277.262,262.229 287.314,253.106 287.314,235.822C287.314,211.335 270.296,192.881 240.752,192.881C208.596,192.881 193.497,215.416 193.497,238.702L200.427,238.702C200.427,218.297 213.401,199.571 240.752,199.571C265.732,199.571 280.144,214.936 280.144,236.062C280.144,249.505 272.458,257.428 262.61,265.11L245.796,278.314C235.962,286.236 231.66,292.958 231.66,305.201L231.66,324.407ZM235.485,367.105C240.037,367.105 243.631,363.511 243.631,358.959C243.631,354.168 240.037,350.574 235.485,350.574C230.933,350.574 227.099,354.168 227.099,358.959C227.099,363.511 230.933,367.105 235.485,367.105Z" style="fill:url(#_Linear1);fill-rule:nonzero;"/>
    </g>
    <g transform="matrix(2.73774,-0.733576,0.733576,2.73774,374.28,-322.976)">
        <path d="M218.459,310.966L254.432,310.966L254.432,307.124C254.432,297.281 259.232,292.959 269.793,284.796L279.888,276.873C291.4,267.989 298.115,255.984 298.115,240.378C298.115,214.224 276.531,193.841 240.766,193.841C201.162,193.841 182.216,216.622 182.216,247.101L219.629,247.101C219.629,232.215 227.795,226.214 240.766,226.214C255.418,226.214 260.222,235.096 260.222,242.539C260.222,251.183 255.658,255.024 247.732,261.267L240.042,267.269C226.373,278.073 218.459,286.716 218.459,307.124L218.459,310.966ZM217.019,363.985L256.352,363.985L256.352,326.572L217.019,326.572L217.019,363.985Z" style="fill:url(#_Linear2);fill-rule:nonzero;"/>
    </g>
    <g transform="matrix(1.92271,0.728286,-0.728286,1.92271,-87.8655,-231.21)">
        <path d="M219.404,326.086C220.842,327.527 222.758,328.487 225.154,328.487C228.75,328.487 233.075,325.606 233.075,320.564C233.075,318.883 232.594,317.443 231.153,315.282C229.231,312.401 227.789,310.24 227.789,305.678C227.789,285.99 277.234,281.909 277.234,239.661C277.234,213.754 259.5,199.121 229.711,199.121C200.19,199.121 183.176,215.433 183.176,242.06C183.176,246.377 186.769,249.976 191.081,249.976C195.394,249.976 198.987,246.377 198.987,242.06C198.987,222.376 211.016,213.252 229.717,213.252C249.647,213.252 261.902,221.895 261.902,239.661C261.902,275.192 211.738,274.472 211.738,305.682C211.738,312.164 213.656,320.326 219.409,326.088L219.404,326.086ZM224.203,365.905C231.155,365.905 235.47,362.549 235.47,354.639C235.47,346.729 231.155,343.133 224.203,343.133C217.252,343.133 212.937,346.729 212.937,354.639C212.937,362.549 217.252,365.905 224.203,365.905Z" style="fill:url(#_Linear3);fill-rule:nonzero;"/>
    </g>
    <g transform="matrix(5.43091,0.739945,-0.739945,5.43091,941.104,-1268.57)">
        <path d="M210.052,325.132L214.594,325.132L216.028,262.247L216.028,196.001L208.618,196.001L208.618,262.247L210.052,325.132ZM212.443,367.105C216.995,367.105 220.589,363.511 220.589,358.959C220.589,354.168 216.995,350.574 212.443,350.574C207.891,350.574 204.057,354.168 204.057,358.959C204.057,363.511 207.891,367.105 212.443,367.105Z" style="fill:url(#_Linear4);fill-rule:nonzero;"/>
    </g>
    <g transform="matrix(1.95434,0.523663,-0.523663,1.95434,697.005,-529.18)">
        <path d="M202.371,310.731L213.637,310.731L219.869,219.043L219.869,196.001L197.337,196.001L197.337,219.043L202.371,310.731ZM195.417,363.985L221.309,363.985L221.309,337.613L195.417,337.613L195.417,363.985Z" style="fill:url(#_Linear5);fill-rule:nonzero;"/>
    </g>
    <g transform="matrix(1.58742,0.425348,-0.425348,1.58742,641.643,258.48)">
        <path d="M200.682,200.561C191.093,200.561 185.336,204.642 185.816,214.003L190.134,309.53C190.373,314.811 193.49,318.651 200.682,318.651C207.394,318.651 210.511,314.811 210.75,309.53L215.308,214.003C215.788,204.642 210.031,200.561 200.682,200.561ZM200.682,365.905C210.753,365.905 216.268,360.87 216.268,350.319C216.268,339.528 210.753,334.253 200.682,334.253C190.611,334.253 184.856,339.528 184.856,350.319C184.856,360.87 190.611,365.905 200.682,365.905L200.682,365.905Z" style="fill:url(#_Linear6);fill-rule:nonzero;"/>
    </g>
    <g transform="matrix(0.905259,-0.242563,-0.119845,-0.447268,-95.7822,375.904)">
        <path d="M606.12,263.609C606.12,183.179 573.857,117.88 534.118,117.88L296.002,117.88C256.263,117.88 224,183.179 224,263.609C224,344.039 256.263,409.338 296.002,409.338L290.871,500L410.638,409.338L534.118,409.338C573.857,409.338 606.12,344.039 606.12,263.609Z" style="fill:url(#_Linear7);"/>
    </g>
    <g transform="matrix(1.15015,-0.308182,0.235061,0.877261,968.657,549.925)">
        <path d="M606.12,117.88L224,117.88L224,426.331L410.366,426.331L533.164,500L512.844,426.331L606.12,426.331L606.12,117.88Z" style="fill:url(#_Linear8);"/>
    </g>
    <g transform="matrix(2.34705,-0.62889,0.557462,2.08048,-1738.76,208.999)">
        <path d="M938.743,482.629C938.743,417.298 885.702,364.257 820.371,364.257C755.04,364.257 702,417.298 702,482.629C702,547.96 755.04,601 820.371,601C841.549,601 862.34,595.318 880.574,584.547L919.544,601L910.171,559.751C928.606,538.285 938.743,510.925 938.743,482.629Z" style="fill:url(#_Linear9);"/>
    </g>
    <g transform="matrix(0.416683,1.55508,-0.725003,0.194264,1096.44,-74.6162)">
        <path d="M607.673,281.037C607.673,189.15 572.893,114.549 530.054,114.549L300.067,114.549C257.227,114.549 222.447,189.15 222.447,281.038C222.447,372.925 257.227,447.526 300.067,447.526C300.067,447.526 350.754,447.526 350.754,447.526C350.754,447.526 364.184,504.874 364.184,504.874L403.95,447.526C403.95,447.526 530.054,447.526 530.054,447.526C572.893,447.526 607.673,372.925 607.673,281.038L607.673,281.037ZM604.567,281.038C604.567,369.248 571.179,440.864 530.054,440.864C530.054,440.864 403.003,440.864 403.003,440.864L365.376,495.126C365.376,495.126 352.67,440.864 352.67,440.864L300.067,440.864C258.941,440.864 225.553,369.248 225.553,281.038C225.553,192.827 258.941,121.211 300.067,121.211L530.054,121.211C571.179,121.211 604.567,192.827 604.567,281.037L604.567,281.038Z" style="fill:url(#_Linear10);"/>
    </g>
    <g transform="matrix(1.15541,-0.83632,0.412212,0.569486,50.6469,386.502)">
        <path d="M607.873,354.483L607.873,114.324L222.247,114.324L222.247,354.483L418.871,354.483L506.342,506.543L523.23,354.483C523.23,354.483 607.873,354.483 607.873,354.483ZM604.367,121.436L604.367,347.371C604.367,347.371 520.426,347.371 520.426,347.371L504.202,493.457C504.202,493.457 420.167,347.371 420.167,347.371L225.753,347.371C225.753,347.371 225.753,121.436 225.753,121.436C225.753,121.436 604.367,121.436 604.367,121.436L604.367,121.436Z" style="fill:url(#_Linear11);"/>
    </g>
    <g transform="matrix(0.139009,1.49878,-1.82624,0.489339,2369.51,-1235.11)">
        <path d="M940.428,476.094C940.428,413.58 886.689,362.916 820.655,362.916C754.342,362.916 700.315,413.767 700.315,476.546C700.315,539.06 754.054,589.724 820.087,589.724C838.963,589.724 857.569,585.522 874.41,577.47C874.41,577.47 941.351,603.609 941.351,603.609L921.042,537.912C933.681,519.519 940.428,498.045 940.428,476.094L940.428,476.094ZM937.058,476.546C937.058,498.192 930.373,519.364 917.802,537.444L917.45,537.951L936.134,598.391C936.134,598.391 874.734,574.416 874.734,574.416L873.882,574.831C857.421,582.858 839.172,587.041 820.655,587.041C756.027,587.041 703.685,537.278 703.685,476.094C703.685,415.175 755.739,365.599 820.087,365.599C884.716,365.599 937.058,415.362 937.058,476.546L937.058,476.546Z" style="fill:url(#_Linear12);"/>
    </g>
    <defs>
        <linearGradient id="_Linear1" x1="0" y1="0" x2="1" y2="0" gradientUnits="userSpaceOnUse" gradientTransform="matrix(-154.615,577.031,-577.031,-154.615,449.687,49.996)"><stop offset="0" style="stop-color:rgb(34,34,34);stop-opacity:0.5"/><stop offset="1" style="stop-color:rgb(17,17,17);stop-opacity:0.5"/></linearGradient>
        <linearGradient id="_Linear2" x1="0" y1="0" x2="1" y2="0" gradientUnits="userSpaceOnUse" gradientTransform="matrix(-91.3161,340.796,-340.796,-91.3161,191.951,169.405)"><stop offset="0" style="stop-color:rgb(34,34,34);stop-opacity:0.5"/><stop offset="1" style="stop-color:rgb(17,17,17);stop-opacity:0.5"/></linearGradient>
        <linearGradient id="_Linear3" x1="0" y1="0" x2="1" y2="0" gradientUnits="userSpaceOnUse" gradientTransform="matrix(172.285,454.84,-454.84,172.285,545.584,-86.4051)"><stop offset="0" style="stop-color:rgb(34,34,34);stop-opacity:0.5"/><stop offset="1" style="stop-color:rgb(17,17,17);stop-opacity:0.5"/></linearGradient>
        <linearGradient id="_Linear4" x1="0" y1="0" x2="1" y2="0" gradientUnits="userSpaceOnUse" gradientTransform="matrix(24.6301,180.775,-180.775,24.6301,46.2422,227.283)"><stop offset="0" style="stop-color:rgb(34,34,34);stop-opacity:0.5"/><stop offset="1" style="stop-color:rgb(17,17,17);stop-opacity:0.5"/></linearGradient>
        <linearGradient id="_Linear5" x1="0" y1="0" x2="1" y2="0" gradientUnits="userSpaceOnUse" gradientTransform="matrix(127.921,477.406,-477.406,127.921,223.833,210.796)"><stop offset="0" style="stop-color:rgb(34,34,34);stop-opacity:0.5"/><stop offset="1" style="stop-color:rgb(17,17,17);stop-opacity:0.5"/></linearGradient>
        <linearGradient id="_Linear6" x1="0" y1="0" x2="1" y2="0" gradientUnits="userSpaceOnUse" gradientTransform="matrix(157.488,587.754,-587.754,157.488,184.062,-212.149)"><stop offset="0" style="stop-color:rgb(34,34,34);stop-opacity:0.5"/><stop offset="1" style="stop-color:rgb(17,17,17);stop-opacity:0.5"/></linearGradient>
        <linearGradient id="_Linear7" x1="0" y1="0" x2="1" y2="0" gradientUnits="userSpaceOnUse" gradientTransform="matrix(-276.164,-2086.02,-1030.66,558.949,1257.99,158.208)"><stop offset="0" style="stop-color:rgb(34,34,34);stop-opacity:0.5"/><stop offset="1" style="stop-color:rgb(17,17,17);stop-opacity:0.5"/></linearGradient>
        <linearGradient id="_Linear8" x1="0" y1="0" x2="1" y2="0" gradientUnits="userSpaceOnUse" gradientTransform="matrix(-217.363,1063.55,-811.208,-284.978,164.48,-569.084)"><stop offset="0" style="stop-color:rgb(34,34,34);stop-opacity:0.5"/><stop offset="1" style="stop-color:rgb(17,17,17);stop-opacity:0.5"/></linearGradient>
        <linearGradient id="_Linear9" x1="0" y1="0" x2="1" y2="0" gradientUnits="userSpaceOnUse" gradientTransform="matrix(-106.517,448.461,-397.526,-120.165,1120.55,238.266)"><stop offset="0" style="stop-color:rgb(34,34,34);stop-opacity:0.5"/><stop offset="1" style="stop-color:rgb(17,17,17);stop-opacity:0.5"/></linearGradient>
        <linearGradient id="_Linear10" x1="0" y1="0" x2="1" y2="0" gradientUnits="userSpaceOnUse" gradientTransform="matrix(599.976,344.826,-160.763,1286.91,33.1332,118.865)"><stop offset="0" style="stop-color:rgb(34,34,34);stop-opacity:0.5"/><stop offset="1" style="stop-color:rgb(17,17,17);stop-opacity:0.5"/></linearGradient>
        <linearGradient id="_Linear11" x1="0" y1="0" x2="1" y2="0" gradientUnits="userSpaceOnUse" gradientTransform="matrix(-411.09,1152.26,-567.936,-834.044,711.726,366.522)"><stop offset="0" style="stop-color:rgb(34,34,34);stop-opacity:0.5"/><stop offset="1" style="stop-color:rgb(17,17,17);stop-opacity:0.5"/></linearGradient>
        <linearGradient id="_Linear12" x1="0" y1="0" x2="1" y2="0" gradientUnits="userSpaceOnUse" gradientTransform="matrix(651.032,49.5548,-174.443,534.295,569.391,780.072)"><stop offset="0" style="stop-color:rgb(34,34,34);stop-opacity:0.5"/><stop offset="1" style="stop-color:rgb(17,17,17);stop-opacity:0.5"/></linearGradient>
    </defs>
</svg>
