<svg viewBox="0 0 2000 500" xmlns="http://www.w3.org/2000/svg" xml:space="preserve" style="fill-rule:evenodd;clip-rule:evenodd;stroke-linecap:round;stroke-miterlimit:1.5"><g opacity=".33"><path d="M0 25h2000" style="fill:none;stroke:url(#a);stroke-width:9.2px" transform="matrix(1 0 0 .95708 0 209.236)"/><path d="M0 25h2000" style="fill:none;stroke:url(#b);stroke-width:9.2px" transform="matrix(1 0 0 .95708 0 -26.478)"/><path d="M0 25h2000" style="fill:none;stroke:url(#c);stroke-width:9.2px" transform="matrix(1 0 0 .95708 0 141.889)"/><path d="M0 25h2000" style="fill:none;stroke:url(#d);stroke-width:9.2px" transform="matrix(1 0 0 .95708 0 310.257)"/><path d="M0 25h2000" style="fill:none;stroke:url(#e);stroke-width:9.2px" transform="matrix(1 0 0 .95708 0 7.196)"/><path d="M0 25h2000" style="fill:none;stroke:url(#f);stroke-width:9.2px" transform="matrix(1 0 0 .95708 0 175.563)"/><path d="M0 25h2000" style="fill:none;stroke:url(#g);stroke-width:9.2px" transform="matrix(1 0 0 .95708 0 343.93)"/><path d="M0 25h2000" style="fill:none;stroke:url(#h);stroke-width:9.2px" transform="matrix(1 0 0 .95708 0 40.87)"/><path d="M0 25h2000" style="fill:none;stroke:url(#i);stroke-width:9.2px" transform="matrix(1 0 0 .95708 0 377.604)"/><path d="M0 25h2000" style="fill:none;stroke:url(#j);stroke-width:9.2px" transform="matrix(1 0 0 .95708 0 74.543)"/><path d="M0 25h2000" style="fill:none;stroke:url(#k);stroke-width:9.2px" transform="matrix(1 0 0 .95708 0 242.91)"/><path d="M0 25h2000" style="fill:none;stroke:url(#l);stroke-width:9.2px" transform="matrix(1 0 0 .95708 0 411.277)"/><path d="M0 25h2000" style="fill:none;stroke:url(#m);stroke-width:9.2px" transform="matrix(1 0 0 .95708 0 108.216)"/><path d="M0 25h2000" style="fill:none;stroke:url(#n);stroke-width:9.2px" transform="matrix(1 0 0 .95708 0 276.583)"/><path d="M0 25h2000" style="fill:none;stroke:url(#o);stroke-width:9.2px" transform="matrix(1 0 0 .95708 0 444.95)"/><path d="M0 25h2000" style="fill:none;stroke:url(#p);stroke-width:9.2px" transform="matrix(1 0 0 .95708 0 478.624)"/></g><path d="M456.978 233.476v-9.043h-13.153v-13.154h-9.043v13.154h-13.154v9.043h13.154v13.153h9.043v-13.153h13.153Zm-50.559 21.785h15.209l-19.731-26.307 19.731-26.307h-15.209l-15.209 19.73v-19.73h-13.154v52.614h13.154v-19.73l15.209 19.73Zm-41.516-30.828v-13.154c0-2.466-.891-4.522-2.672-6.166-1.781-1.644-3.905-2.466-6.371-2.466h-30.418V215.8h26.307v8.633h-17.675c-2.467 0-4.522.89-6.166 2.671-1.644 1.782-2.466 3.905-2.466 6.372v21.785h39.461v-13.153h-26.308v-8.632h17.265c2.466 0 4.59-.891 6.371-2.672 1.781-1.781 2.672-3.905 2.672-6.371Zm83.032-74.401c4.659 0 8.769 1.781 12.332 5.344 3.562 3.562 5.344 7.673 5.344 12.331v122.494c0 4.659-1.782 8.769-5.344 12.332-3.563 3.562-7.673 5.343-12.332 5.343H325.442c-4.659 0-8.77-1.781-12.332-5.343-3.562-3.563-5.344-7.673-5.344-12.332V167.707c0-4.658 1.782-8.769 5.344-12.331 3.562-3.563 7.673-5.344 12.332-5.344h122.493Z" style="fill:#222;fill-rule:nonzero" transform="rotate(-10.16 -7574.961 14334.104) scale(8.66319)"/><path d="M447.935 149.455H325.442c-4.812 0-9.061 1.833-12.74 5.513-3.68 3.679-5.513 7.928-5.513 12.739v122.494c0 4.812 1.833 9.06 5.513 12.74 3.679 3.679 7.928 5.512 12.74 5.512h122.493c4.812 0 9.06-1.833 12.74-5.512 3.68-3.68 5.513-7.928 5.513-12.74V167.707c0-4.811-1.833-9.06-5.513-12.739-3.68-3.68-7.928-5.513-12.74-5.513Zm0 .577c4.659 0 8.769 1.781 12.332 5.344 3.562 3.562 5.344 7.673 5.344 12.331v122.494c0 4.659-1.782 8.769-5.344 12.332-3.563 3.562-7.673 5.343-12.332 5.343H325.442c-4.659 0-8.77-1.781-12.332-5.343-3.562-3.563-5.344-7.673-5.344-12.332V167.707c0-4.658 1.782-8.769 5.344-12.331 3.562-3.563 7.673-5.344 12.332-5.344h122.493Zm-83.032 74.401v-13.154c0-2.466-.891-4.522-2.672-6.166-1.781-1.644-3.905-2.466-6.371-2.466h-30.418V215.8h26.307v8.633h-17.675c-2.467 0-4.522.89-6.166 2.671-1.644 1.782-2.466 3.905-2.466 6.372v21.785h39.461v-13.153h-26.308v-8.632h17.265c2.466 0 4.59-.891 6.371-2.672 1.781-1.781 2.672-3.905 2.672-6.371Zm-.577 0c0 2.308-.836 4.295-2.503 5.963-1.668 1.667-3.655 2.503-5.963 2.503h-17.842v9.786h26.308v11.999h-38.307v-21.208c0-2.315.77-4.309 2.313-5.98 1.531-1.659 3.445-2.486 5.742-2.486h18.252v-9.787h-26.307v-11.999h29.841c2.314 0 4.308.77 5.979 2.313 1.659 1.531 2.487 3.445 2.487 5.742v13.154Zm42.093 30.828h15.209l-19.731-26.307 19.731-26.307h-15.209l-15.209 19.73v-19.73h-13.154v52.614h13.154v-19.73l15.209 19.73Zm.284-.577-15.036-19.505-1.034.352v19.153h-11.999v-51.46h11.999v19.153l1.034.353 15.036-19.506h13.771l-19.298 25.73 19.298 25.73h-13.771Zm50.275-21.208v-9.043h-13.153v-13.154h-9.043v13.154h-13.154v9.043h13.154v13.153h9.043v-13.153h13.153Zm-.577-.577h-13.153v13.153h-7.889v-13.153h-13.154v-7.889h13.154v-13.154h7.889v13.154h13.153v7.889Z" style="fill:url(#q)" transform="rotate(-10.16 -7574.961 14334.104) scale(8.66319)"/><defs><linearGradient id="a" x1="0" y1="0" x2="1" y2="0" gradientUnits="userSpaceOnUse" gradientTransform="matrix(0 522.423 -500 0 1000 -218.62)"><stop offset="0" style="stop-color:#bbb;stop-opacity:.33"/><stop offset="1" style="stop-color:#7c7c7c;stop-opacity:0"/></linearGradient><linearGradient id="b" x1="0" y1="0" x2="1" y2="0" gradientUnits="userSpaceOnUse" gradientTransform="matrix(0 522.423 -500 0 1000 27.665)"><stop offset="0" style="stop-color:#bbb;stop-opacity:.33"/><stop offset="1" style="stop-color:#7c7c7c;stop-opacity:0"/></linearGradient><linearGradient id="c" x1="0" y1="0" x2="1" y2="0" gradientUnits="userSpaceOnUse" gradientTransform="matrix(0 522.423 -500 0 1000 -148.253)"><stop offset="0" style="stop-color:#bbb;stop-opacity:.33"/><stop offset="1" style="stop-color:#7c7c7c;stop-opacity:0"/></linearGradient><linearGradient id="d" x1="0" y1="0" x2="1" y2="0" gradientUnits="userSpaceOnUse" gradientTransform="scale(500 522.423) rotate(90 1.31 .69)"><stop offset="0" style="stop-color:#bbb;stop-opacity:.33"/><stop offset="1" style="stop-color:#7c7c7c;stop-opacity:0"/></linearGradient><linearGradient id="e" x1="0" y1="0" x2="1" y2="0" gradientUnits="userSpaceOnUse" gradientTransform="matrix(0 522.423 -500 0 1000 -7.518)"><stop offset="0" style="stop-color:#bbb;stop-opacity:.33"/><stop offset="1" style="stop-color:#7c7c7c;stop-opacity:0"/></linearGradient><linearGradient id="f" x1="0" y1="0" x2="1" y2="0" gradientUnits="userSpaceOnUse" gradientTransform="matrix(0 522.423 -500 0 1000 -183.436)"><stop offset="0" style="stop-color:#bbb;stop-opacity:.33"/><stop offset="1" style="stop-color:#7c7c7c;stop-opacity:0"/></linearGradient><linearGradient id="g" x1="0" y1="0" x2="1" y2="0" gradientUnits="userSpaceOnUse" gradientTransform="matrix(0 522.423 -500 0 1000 -359.354)"><stop offset="0" style="stop-color:#bbb;stop-opacity:.33"/><stop offset="1" style="stop-color:#7c7c7c;stop-opacity:0"/></linearGradient><linearGradient id="h" x1="0" y1="0" x2="1" y2="0" gradientUnits="userSpaceOnUse" gradientTransform="matrix(0 522.423 -500 0 1000 -42.702)"><stop offset="0" style="stop-color:#bbb;stop-opacity:.33"/><stop offset="1" style="stop-color:#7c7c7c;stop-opacity:0"/></linearGradient><linearGradient id="i" x1="0" y1="0" x2="1" y2="0" gradientUnits="userSpaceOnUse" gradientTransform="matrix(0 522.423 -500 0 1000 -394.538)"><stop offset="0" style="stop-color:#bbb;stop-opacity:.33"/><stop offset="1" style="stop-color:#7c7c7c;stop-opacity:0"/></linearGradient><linearGradient id="j" x1="0" y1="0" x2="1" y2="0" gradientUnits="userSpaceOnUse" gradientTransform="matrix(0 522.423 -500 0 1000 -77.886)"><stop offset="0" style="stop-color:#bbb;stop-opacity:.33"/><stop offset="1" style="stop-color:#7c7c7c;stop-opacity:0"/></linearGradient><linearGradient id="k" x1="0" y1="0" x2="1" y2="0" gradientUnits="userSpaceOnUse" gradientTransform="matrix(0 522.423 -500 0 1000 -253.804)"><stop offset="0" style="stop-color:#bbb;stop-opacity:.33"/><stop offset="1" style="stop-color:#7c7c7c;stop-opacity:0"/></linearGradient><linearGradient id="l" x1="0" y1="0" x2="1" y2="0" gradientUnits="userSpaceOnUse" gradientTransform="matrix(0 522.423 -500 0 1000 -429.721)"><stop offset="0" style="stop-color:#bbb;stop-opacity:.33"/><stop offset="1" style="stop-color:#7c7c7c;stop-opacity:0"/></linearGradient><linearGradient id="m" x1="0" y1="0" x2="1" y2="0" gradientUnits="userSpaceOnUse" gradientTransform="matrix(0 522.423 -500 0 1000 -113.069)"><stop offset="0" style="stop-color:#bbb;stop-opacity:.33"/><stop offset="1" style="stop-color:#7c7c7c;stop-opacity:0"/></linearGradient><linearGradient id="n" x1="0" y1="0" x2="1" y2="0" gradientUnits="userSpaceOnUse" gradientTransform="matrix(0 522.423 -500 0 1000 -288.987)"><stop offset="0" style="stop-color:#bbb;stop-opacity:.33"/><stop offset="1" style="stop-color:#7c7c7c;stop-opacity:0"/></linearGradient><linearGradient id="o" x1="0" y1="0" x2="1" y2="0" gradientUnits="userSpaceOnUse" gradientTransform="matrix(0 522.423 -500 0 1000 -464.905)"><stop offset="0" style="stop-color:#bbb;stop-opacity:.33"/><stop offset="1" style="stop-color:#7c7c7c;stop-opacity:0"/></linearGradient><linearGradient id="p" x1="0" y1="0" x2="1" y2="0" gradientUnits="userSpaceOnUse" gradientTransform="matrix(0 522.423 -500 0 1000 -500.089)"><stop offset="0" style="stop-color:#bbb;stop-opacity:.33"/><stop offset="1" style="stop-color:#7c7c7c;stop-opacity:0"/></linearGradient><linearGradient id="q" x1="0" y1="0" x2="1" y2="0" gradientUnits="userSpaceOnUse" gradientTransform="rotate(100.16 112.135 264.056) scale(58.3044)"><stop offset="0" style="stop-color:#f34;stop-opacity:1"/><stop offset="1" style="stop-color:#f34;stop-opacity:0"/></linearGradient></defs></svg>