<svg viewBox="0 0 2000 500" xmlns="http://www.w3.org/2000/svg" xml:space="preserve" style="fill-rule:evenodd;clip-rule:evenodd;stroke-linecap:round;stroke-miterlimit:1.5"><path d="M104.673 283.673h67.347v50.511h33.674V186.02c0-11.154-9.05-20.204-20.204-20.204H91.204C80.05 165.816 71 174.866 71 186.02v148.164h33.673v-50.511ZM172.02 250h-67.347v-50.51h67.347V250Zm101.021 50.51V165.816h-33.674v168.368h117.857V300.51h-84.183Zm67.346-101.02h50.511v134.694h33.673V199.49h50.51v-33.674H340.387v33.674Zm202.041 101.02v-33.673h67.347v-33.674h-67.347V199.49h84.184v-33.674H508.755v168.368h117.857V300.51h-84.184Zm151.531-101.02h67.346V250h-67.346v-50.51Zm80.816-33.674h-114.49v168.368h33.674v-50.511h67.346v50.511h33.674v-42.092c0-5.262-2.105-10.523-5.893-14.311l-10.944-10.944 10.944-10.944c3.788-3.788 5.893-9.05 5.893-14.311V186.02c0-10.943-9.26-20.204-20.204-20.204Zm87.551 33.253s41.671 90.497 56.824 123.329c3.367 7.155 10.523 11.786 18.31 11.786h42.723V165.816h-33.674v135.115s-41.671-90.497-56.824-123.329c-3.367-7.155-10.523-11.786-18.31-11.786h-42.723v168.368h33.674V199.069Zm185.204 84.604h67.35v50.511h33.67V186.02c0-11.154-9.05-20.204-20.2-20.204h-94.29c-11.15 0-20.2 9.05-20.2 20.204v148.164h33.67v-50.511ZM1114.88 250h-67.35v-50.51h67.35V250Zm67.34-50.51h50.51v134.694h33.68V199.49h50.51v-33.674h-134.7v33.674Zm269.39 101.02h-33.67V199.49h33.67v-33.674h-101.02v33.674h33.67v101.02h-33.67v33.674h101.02V300.51Zm99.55 33.674h36.62l65.87-168.368h-34.93l-49.25 125.644-49.25-125.644h-34.94l65.88 168.368ZM1721 300.51v-33.673h67.35v-33.674H1721V199.49h84.18v-33.674h-117.85v168.368h117.85V300.51H1721Z" style="fill:#ebebeb;fill-rule:nonzero" transform="translate(100.158)"/><path d="M239.367 334.184V165.816h-41.46c-8.629 0-16.416 5.683-19.152 13.891-7.997 23.782-23.361 70.083-23.361 70.083s-15.363-46.301-23.15-70.083c-2.736-8.208-10.734-13.891-19.363-13.891H71v168.368h33.673V198.438l33.674 102.072h33.673l33.674-100.599v134.273h33.673Zm134.694-33.674h-33.674V199.49h33.674v-33.674h-101.02v33.674h33.673v101.02h-33.673v33.674h101.02V300.51Zm67.347-101.441s41.671 90.497 56.824 123.329c3.367 7.155 10.523 11.786 18.31 11.786h42.723V165.816h-33.674v135.115s-41.671-90.497-56.824-123.329c-3.367-7.155-10.522-11.786-18.309-11.786h-42.724v168.368h33.674V199.069Zm151.53.421h50.51v134.694h33.674V199.49h50.51v-33.674H592.938v33.674Z" style="fill:#ebebeb;fill-rule:nonzero" transform="rotate(-90 202.266 150.123) scale(.25641)"/></svg>