<?xml version="1.0" encoding="UTF-8" standalone="no"?>
<!DOCTYPE svg PUBLIC "-//W3C//DTD SVG 1.1//EN" "http://www.w3.org/Graphics/SVG/1.1/DTD/svg11.dtd">
<svg width="100%" height="100%" viewBox="0 0 2000 500" version="1.1" xmlns="http://www.w3.org/2000/svg" xmlns:xlink="http://www.w3.org/1999/xlink" xml:space="preserve" style="fill-rule:evenodd;clip-rule:evenodd;stroke-linejoin:round;stroke-miterlimit:2;">
    <g id="Mintcraft" transform="matrix(1.33679,0,0,1.33679,-1492.25,-1195.11)">
        <g transform="matrix(3.58937,0,0,3.58937,1534.85,867.78)">
            <g transform="matrix(50.2577,0,0,50.2577,-5.27573,77)">
                <path d="M0.05,-0.7L0.05,-0L0.15,-0L0.15,-0.5L0.25,-0.5L0.25,-0.6L0.15,-0.6L0.15,-0.7L0.05,-0.7ZM0.45,-0.5L0.45,-0L0.55,-0L0.55,-0.7L0.45,-0.7L0.45,-0.6L0.35,-0.6L0.35,-0.5L0.45,-0.5ZM0.35,-0.3L0.35,-0.5L0.25,-0.5L0.25,-0.3L0.35,-0.3Z" style="fill:rgb(235,235,235);fill-rule:nonzero;"/>
            </g>
            <g transform="matrix(50.2577,0,0,50.2577,24.8286,77)">
                <path d="M0.05,-0L0.35,-0L0.35,-0.1L0.25,-0.1L0.25,-0.5L0.05,-0.5L0.05,-0.4L0.15,-0.4L0.15,-0.1L0.05,-0.1L0.05,-0ZM0.25,-0.7L0.15,-0.7L0.15,-0.6L0.25,-0.6L0.25,-0.7Z" style="fill:rgb(235,235,235);fill-rule:nonzero;"/>
            </g>
            <g transform="matrix(50.2577,0,0,50.2577,44.9317,77)">
                <path d="M0.55,-0L0.55,-0.4L0.45,-0.4L0.45,-0L0.55,-0ZM0.15,-0L0.15,-0.4L0.45,-0.4L0.45,-0.5L0.05,-0.5L0.05,-0L0.15,-0Z" style="fill:rgb(235,235,235);fill-rule:nonzero;"/>
            </g>
            <g transform="matrix(50.2577,0,0,50.2577,75.036,77)">
                <path d="M0.15,-0.5L0.15,-0.7L0.05,-0.7L0.05,-0.1L0.15,-0.1L0.149,-0L0.35,-0L0.35,-0.1L0.15,-0.1L0.15,-0.4L0.35,-0.4L0.35,-0.5L0.15,-0.5Z" style="fill:rgb(235,235,235);fill-rule:nonzero;"/>
            </g>
            <g transform="matrix(50.2577,0,0,50.2577,95.0888,77)">
                <path d="M0.15,-0L0.45,-0L0.45,-0.1L0.55,-0.1L0.55,-0.2L0.45,-0.2L0.45,-0.1L0.15,-0.1L0.15,-0ZM0.05,-0.4L0.05,-0.1L0.15,-0.1L0.15,-0.4L0.05,-0.4ZM0.45,-0.4L0.45,-0.5L0.15,-0.5L0.15,-0.4L0.45,-0.4L0.45,-0.3L0.55,-0.3L0.55,-0.4L0.45,-0.4Z" style="fill:rgb(235,235,235);fill-rule:nonzero;"/>
            </g>
            <g transform="matrix(50.2577,0,0,50.2577,125.243,77)">
                <path d="M0.45,-0.5L0.05,-0.5L0.05,-0L0.15,-0L0.15,-0.4L0.45,-0.4L0.45,-0.5Z" style="fill:rgb(235,235,235);fill-rule:nonzero;"/>
            </g>
            <g transform="matrix(50.2577,0,0,50.2577,150.322,77)">
                <path d="M0.15,-0L0.55,-0L0.55,-0.4L0.45,-0.4L0.45,-0.1L0.15,-0.1L0.15,-0ZM0.15,-0.1L0.15,-0.4L0.05,-0.4L0.05,-0.1L0.15,-0.1ZM0.45,-0.5L0.15,-0.5L0.15,-0.4L0.45,-0.4L0.45,-0.5Z" style="fill:rgb(235,235,235);fill-rule:nonzero;"/>
            </g>
            <g transform="matrix(50.2577,0,0,50.2577,180.477,77)">
                <path d="M0.45,-0.5L0.25,-0.5L0.25,-0.6L0.15,-0.6L0.15,-0.5L0.05,-0.5L0.05,-0.4L0.15,-0.4L0.15,-0L0.25,-0L0.25,-0.4L0.45,-0.4L0.45,-0.5ZM0.45,-0.7L0.25,-0.7L0.25,-0.6L0.45,-0.6L0.45,-0.7Z" style="fill:rgb(235,235,235);fill-rule:nonzero;"/>
            </g>
            <g transform="matrix(50.2577,0,0,50.2577,205.555,77)">
                <path d="M0.15,-0.5L0.15,-0.7L0.05,-0.7L0.05,-0.1L0.15,-0.1L0.149,-0L0.35,-0L0.35,-0.1L0.15,-0.1L0.15,-0.4L0.35,-0.4L0.35,-0.5L0.15,-0.5Z" style="fill:rgb(235,235,235);fill-rule:nonzero;"/>
            </g>
        </g>
        <g transform="matrix(2.91486,0,0,2.91486,-5178.49,-1985.41)">
            <path d="M2293.56,1040.71L2274,1029.42L2254.44,1040.71L2254.44,1063.29L2274,1074.58L2293.56,1063.29L2293.56,1040.71ZM2274,1036.58L2287.35,1044.29C2287.35,1044.29 2287.35,1059.71 2287.35,1059.71C2287.35,1059.71 2274,1067.42 2274,1067.42C2274,1067.42 2260.65,1059.71 2260.65,1059.71C2260.65,1059.71 2260.65,1044.29 2260.65,1044.29L2274,1036.58Z" style="fill:url(#_Linear1);"/>
        </g>
        <g transform="matrix(2.52563,0,0,2.52563,-4293.37,-1583.48)">
            <path d="M2251.43,1041.96L2251.43,1046.1L2274,1059.12L2296.57,1046.1L2296.57,1041.96L2274,1028.92L2251.43,1041.96ZM2262.17,1044.03L2274,1037.2L2285.83,1044.03L2274,1050.85L2262.17,1044.03Z" style="fill:rgb(255,187,34);"/>
        </g>
    </g>
    <defs>
        <linearGradient id="_Linear1" x1="0" y1="0" x2="1" y2="0" gradientUnits="userSpaceOnUse" gradientTransform="matrix(-3.93524e-13,-10.9586,10.9586,-3.93524e-13,2274,1054.92)"><stop offset="0" style="stop-color:rgb(221,153,34);stop-opacity:1"/><stop offset="1" style="stop-color:rgb(153,102,0);stop-opacity:1"/></linearGradient>
    </defs>
</svg>
