<?xml version="1.0" encoding="UTF-8" standalone="no"?>
<!DOCTYPE svg PUBLIC "-//W3C//DTD SVG 1.1//EN" "http://www.w3.org/Graphics/SVG/1.1/DTD/svg11.dtd">
<svg width="100%" height="100%" viewBox="0 0 2000 1000" version="1.1" xmlns="http://www.w3.org/2000/svg" xmlns:xlink="http://www.w3.org/1999/xlink" xml:space="preserve" xmlns:serif="http://www.serif.com/" style="fill-rule:evenodd;clip-rule:evenodd;stroke-linejoin:round;stroke-miterlimit:2;">
    <g transform="matrix(28.5714,0,0,28.5714,85.7143,-332.89)">
        <g opacity="0.25">
            <g transform="matrix(0.035,0,0,0.035,-3,11.6512)">
                <path d="M875,1659.88L1000,1732.05L1000,1659.88L844.551,1570.13L875,1587.71L875,1659.88ZM1000,793.857L1000,721.688L937.5,685.603L937.5,613.435L1000,649.519L1000,577.35L750,433.013L750,505.181L875,577.35L875,649.519L687.5,541.266L687.5,469.097L500,360.844L500,288.675L250,144.338L250,216.506L0,72.169L0,1154.7L375,1371.21L375,1299.04L500,1371.21L500,1443.38L562.5,1479.46L562.5,1407.29L687.5,1479.46L687.5,1551.63L812.5,1623.8L812.5,1551.63L750,1515.54L750,1371.21L687.5,1335.12L687.5,1262.95L937.5,1407.29L937.5,1335.12L812.5,1262.95L812.5,1190.79L1000,1299.04L1000,1226.87L937.5,1190.79L937.5,1118.62L1000,1154.7L1000,1010.36L750,866.025L750,938.194L812.5,974.279L812.5,1046.45L625,938.194L625,866.025L437.5,757.772L500,793.857L500,866.025L312.5,757.772L312.5,829.941L250,793.857L250,721.688L187.5,685.603L187.5,902.11L125,866.025L125,721.688L0,649.519L0,433.013L62.5,469.097L62.5,541.266L312.5,685.603L187.5,613.435L187.5,541.266L562.5,757.772L562.5,613.435L500,577.35L500,649.519L437.5,613.435L437.5,541.266L500,577.35L500,505.181L625,577.35L625,649.519L875,793.857L875,866.025L1000,938.194L1000,866.025L812.5,757.772L812.5,685.603L1000,793.857ZM875,1299.04L750,1226.87L750,1299.04L875,1371.21L875,1299.04ZM437.5,1118.62L437.5,1262.95L625,1371.21L625,1299.04L562.5,1262.95L562.5,1190.79L437.5,1118.62ZM937.5,1190.79L687.5,1046.45L687.5,1118.62L937.5,1262.95L937.5,1190.79ZM687.5,1118.62L625,1082.53L625,1154.7L687.5,1190.79L687.5,1118.62ZM62.5,974.279L0,938.194L0,1010.36L62.5,1046.45L62.5,1118.62L187.5,1190.79L187.5,1118.62L125,1082.53L125,1010.36L187.5,1046.45L187.5,1118.62L312.5,1190.79L312.5,1118.62L250,1082.53L250,1010.36L62.5,902.11L62.5,974.279ZM562.5,1118.62L562.5,974.279L625,1010.36L625,938.194L437.5,829.941L437.5,902.11L375,866.025L375,938.194L250,866.025L250,938.194L312.5,974.279L312.5,1118.62L375,1154.7L375,1082.53L437.5,1118.62L437.5,1046.45L335.276,987.429L562.5,1118.62ZM62.5,757.772L0,721.688L0,793.857L62.5,829.941L62.5,757.772ZM250,360.844L687.5,613.435L687.5,541.266L312.5,324.76L312.5,252.591L250,216.506L250,288.675L187.5,252.591L187.5,180.422L125,144.338L125,216.506L62.5,180.422L62.5,252.591L125,288.675L125,360.844L250,433.013L250,360.844ZM375,577.35L375,433.013L312.5,396.928L312.5,469.097L187.5,396.928L187.5,469.097L375,577.35ZM125,433.013L62.5,396.928L62.5,469.097L125,505.181L125,433.013ZM62.5,324.76L0,288.675L0,360.844L62.5,396.928L62.5,324.76ZM437.5,252.591L312.5,180.422L312.5,252.591L437.5,324.76L437.5,252.591Z" style="fill:url(#_Linear1);"/>
            </g>
            <g transform="matrix(0.035,0,0,0.035,-3,11.6512)">
                <path d="M1437.5,1190.79L1437.5,1335.12L1625,1226.87L1625,1154.7L1562.5,1190.79L1562.5,1118.62L1437.5,1190.79ZM1437.5,1118.62L1562.5,1046.45L1562.5,902.11L1625,866.025L1625,793.857L1437.5,902.11L1437.5,974.279L1375,1010.36L1375,1082.53L1250,1154.7L1250,1226.87L1312.5,1190.79L1312.5,1335.12L1375,1299.04L1375,1226.87L1437.5,1190.79L1437.5,1118.62ZM1687.5,902.11L1625,938.194L1625,1010.36L1687.5,974.279L1687.5,902.11ZM1125,866.025L1062.5,902.11L1062.5,974.279L1125,938.194L1125,866.025ZM1937.5,829.941L1875,866.025L1875,938.194L1937.5,902.11L1937.5,829.941ZM2000,433.013L1750,577.35L1750,649.519L1812.5,613.435L1812.5,685.603L1625,793.857L1625,721.688L1500,793.857L1500,866.025L1312.5,974.279L1312.5,1046.45L1250,1082.53L1250,1010.36L1125,1082.53L1187.5,1046.45L1187.5,1262.95L1125,1299.04L1125,1154.7L1000,1226.87L1000,1299.04L1062.5,1262.95L1062.5,1335.12L1000,1371.21L1000,1515.54L1062.5,1479.46L1062.5,1407.29L1250,1299.04L1250,1371.21L1312.5,1335.12L1312.5,1407.29L1187.5,1479.46L1187.5,1407.29L1125,1443.38L1125,1515.54L1187.5,1479.46L1187.5,1551.63L1062.5,1623.8L1062.5,1551.63L1000,1587.71L1000,1732.05L1375,1515.54L1375,1443.38L1500,1371.21L1500,1443.38L1562.5,1407.29L1562.5,1335.12L1687.5,1262.95L1687.5,1335.12L2000,1154.7L2000,1082.53L1875,1154.7L1875,1226.87L1812.5,1262.95L1812.5,1190.79L1750,1226.87L1750,1082.53L1687.5,1118.62L1687.5,1046.45L1750,1010.36L1750,938.194L1812.5,902.11L1812.5,829.941L1687.5,902.11L1687.5,829.941L1937.5,685.603L1937.5,757.772L2000,721.688L2000,649.519L1937.5,685.603L1937.5,613.435L2000,577.35L2000,433.013ZM1500,577.35L1437.5,613.435L1437.5,685.603L1500,649.519L1500,577.35ZM1750,216.506L1750,144.338L1500,288.675L1500,360.844L1750,216.506ZM1875,144.338L1687.5,252.591L1687.5,324.76L1875,216.506L1875,144.338ZM2000,216.506L2000,144.338L1937.5,180.422L1937.5,108.253L2000,72.169L2000,-0L1437.5,324.76L1437.5,396.928L1312.5,469.097L1312.5,396.928L1375,360.844L1000,577.35L1250,433.013L1250,505.181L1000,649.519L1000,866.025L1062.5,829.941L1062.5,902.11L1000,938.194L1000,1010.36L1062.5,974.279L1062.5,1046.45L1187.5,974.279L1187.5,902.11L1562.5,685.603L1562.5,541.266L1500,577.35L1500,505.181L1375,577.35L1375,721.688L1187.5,829.941L1187.5,757.772L1312.5,685.603L1312.5,613.435L1250,649.519L1250,721.688L1125,793.857L1125,721.688L1062.5,757.772L1062.5,685.603L1125,649.519L1125,577.35L1187.5,541.266L1187.5,613.435L1250,577.35L1250,505.181L1312.5,469.097L1312.5,541.266L1687.5,324.76L1687.5,396.928L1625,433.013L1625,505.181L1875,360.844L1875,433.013L2000,360.844L2000,288.675L1812.5,396.928L1812.5,324.76L2000,216.506Z" style="fill:url(#_Linear2);"/>
            </g>
            <g transform="matrix(0.035,0,0,0.035,-3,11.5096)">
                <path d="M312.5,-176.377L0.078,4L250,-140.292L312.5,-104.208L62.5,40.129L250,148.383L312.5,112.298L375,148.383L312.5,184.467L375,220.551L437.5,184.467L500,220.551L625,148.383L562.5,112.298L937.5,-104.208L812.5,-176.377L750,-140.292L687.5,-176.377L562.5,-104.208L687.5,-32.039L500,76.214L437.5,40.129L375,76.214L312.5,40.129L250,76.214L187.5,40.129L250,4.045L187.5,-32.039L250,-68.124L312.5,-32.039L375,-68.124L312.5,-104.208L375,-140.292L437.5,-104.208L812.5,-320.714L875,-284.63L812.5,-248.546L875,-212.461L1125,-356.799L1187.5,-320.714L1312.5,-392.883L1375,-356.799L1125,-212.461L1187.5,-176.377L1250,-212.461L1312.5,-176.377L1125,-68.124L1062.5,-104.208L875,4.045L937.5,-32.039L1000,4.045L1125,-68.124L1187.5,-32.039L1125,4.045L1250,76.214L1125,148.383L1187.5,184.467L1125,220.551L1187.5,256.636L1125,292.72L1000,220.551L937.5,256.636L875,220.551L1000,148.383L937.5,112.298L1000,76.214L937.5,40.129L812.5,112.298L875,148.383L812.5,184.467L750,148.383L687.5,184.467L875,292.72L812.5,328.805L687.5,256.636L562.5,328.805L625,364.889L687.5,328.805L750,364.889L687.5,400.973L812.5,473.142L875,437.058L812.5,400.973L1000,292.72L1062.5,328.805L1125,292.72L1187.5,328.805L1062.5,400.973L1000,364.889L937.5,400.973L1000,437.058L875,509.227L1000,581.395L1375,364.889L1312.5,328.805L1437.5,256.636L1500,292.72L1562.5,256.636L1500,220.551L1625,148.383L1687.5,184.467L1812.5,112.298L1750,76.214L1812.5,40.129L1875,76.214L2000,4.045L1000,-573.305L750,-428.968L812.5,-392.883L937.5,-465.052L1000,-428.968L812.5,-320.714L750,-356.799L562.5,-248.546L500,-284.63L562.5,-320.714L437.5,-248.546L500,-212.461L375,-140.292L312.5,-176.377ZM1062.5,400.973L937.5,473.142L1000,509.227L1125,437.058L1062.5,400.973ZM1187.5,184.467L1312.5,256.636L1500,148.383L1437.5,112.298L1375,148.383L1312.5,112.298L1187.5,184.467ZM437.5,112.298L375,148.383L437.5,184.467L500,148.383L437.5,112.298ZM1500,76.214L1562.5,40.129L1687.5,112.298L1937.5,-32.039L1625,-212.461L1437.5,-104.208L1500,-68.124L1437.5,-32.039L1500,4.045L1437.5,40.129L1500,76.214ZM1312.5,-32.039L1250,4.045L1312.5,40.129L1375,4.045L1312.5,-32.039ZM562.5,-32.039L500,-68.124L437.5,-32.039L500,4.045L562.5,-32.039ZM1500,-212.461L1250,-68.124L1312.5,-32.039L1562.5,-176.377L1500,-212.461ZM1625,-68.124L1687.5,-104.208L1625,-140.292L1562.5,-104.208L1625,-68.124ZM750,-140.292L687.5,-104.208L750,-68.124L812.5,-104.208L750,-140.292ZM1500,-284.63L1437.5,-248.546L1500,-212.461L1562.5,-248.546L1500,-284.63ZM1250,-428.968L1187.5,-465.052L1000,-356.799L1062.5,-320.714L1250,-428.968ZM1062.5,-537.221L1000,-501.136L1062.5,-465.052L1125,-501.136L1062.5,-537.221Z" style="fill:url(#_Linear3);"/>
            </g>
        </g>
    </g>
    <g transform="matrix(28.5714,0,0,28.5714,85.7143,-332.89)">
        <g opacity="0.25">
            <g transform="matrix(1,0,0,1,0,-0.141578)">
                <g opacity="0.5">
                    <g transform="matrix(2.1875,1.26295,1.08611e-16,2.52591,-3,11.7927)">
                        <path d="M11,15L9,15L9,16L11,16L11,15ZM15,14L12,14L12,15L16,15L16,13L15,13L15,14ZM2,13L0,13L0,14L2,14L2,13ZM5,11L5,13L6,13L6,12L7,12L7,11L5,11ZM16,11L15,11L15,12L16,12L16,11ZM14,11L12,11L12,12L14,12L14,11ZM0,9L2,9L2,10L3,10L3,8L0,8L0,9ZM15,9L11,9L11,10L15,10L15,9ZM7,9L6,9L6,10L9,10L9,9L10,9L10,8L7,8L7,9ZM5,8L4,8L4,9L5,9L5,8ZM9,6L7,6L7,7L9,7L9,6ZM6,6L3,6L3,7L6,7L6,6ZM16,5L15,5L15,6L16,6L16,5ZM2,5L1,5L1,6L2,6L2,5ZM8,4L9,4L9,5L13,5L13,4L10,4L10,3L8,3L8,4ZM6,3L5,3L5,4L6,4L6,3ZM4,3L2,3L2,4L4,4L4,3ZM4,0L0,0L0,1L4,1L4,0Z" style="fill:url(#_Linear4);"/>
                    </g>
                    <g transform="matrix(2.1875,1.26295,1.08611e-16,2.52591,-3,11.7927)">
                        <path d="M14,15L13,15L13,16L14,16L14,15ZM8,15L6,15L6,16L8,16L8,15ZM3,14L1,14L1,15L3,15L3,14ZM1,13L3,13L3,14L5,14L5,13L4,13L4,12L1,12L1,13ZM13,13L12,13L12,14L15,14L15,13L14,13L14,12L13,12L13,13ZM7,12L7,14L10,14L10,13L9,13L9,12L7,12ZM16,12L15,12L15,13L16,13L16,12ZM3,10L2,10L2,11L3,11L3,10ZM9,10L8,10L8,11L9,11L9,10ZM11,10L10,10L10,11L11,11L11,10ZM6,10L4,10L4,11L6,11L6,10ZM16,10L13,10L13,11L16,11L16,10ZM16,8L15,8L15,9L16,9L16,8ZM5,7L4,7L4,8L5,8L5,7ZM9,5L9,7L10,7L10,8L13,8L13,7L12,7L12,6L11,6L11,5L9,5ZM0,6L0,8L2,8L2,7L1,7L1,6L0,6ZM6,6L6,8L8,8L8,7L7,7L7,6L6,6ZM13,5L12,5L12,6L13,6L13,5ZM15,5L14,5L14,6L15,6L15,5ZM14,4L13,4L13,5L14,5L14,4ZM6,4L3,4L3,5L6,5L6,4ZM1,4L0,4L0,5L1,5L1,4ZM8,4L7,4L7,5L8,5L8,4ZM16,3L13,3L13,4L16,4L16,3ZM2,2L1,2L1,3L2,3L2,2ZM4,1L4,3L7,3L7,2L5,2L5,1L4,1ZM11,2L8,2L8,3L11,3L11,2ZM3,1L2,1L2,2L3,2L3,1ZM14,1L13,1L13,2L14,2L14,1ZM16,1L15,1L15,2L16,2L16,1ZM7,0L5,0L5,1L7,1L7,0ZM9,0L8,0L8,1L9,1L9,0ZM12,0L10,0L10,1L12,1L12,0Z" style="fill:url(#_Linear5);"/>
                    </g>
                    <g transform="matrix(2.1875,1.26295,1.08611e-16,2.52591,-3,11.7927)">
                        <path d="M15,12L14,12L14,13L15,13L15,12ZM13,12L11,12L11,13L13,13L13,12ZM1,10L0,10L0,11L1,11L1,10ZM8,10L6,10L6,11L8,11L8,10ZM6,7L5,7L5,8L6,8L6,7ZM4,7L2,7L2,8L4,8L4,7ZM12,5L11,5L11,6L12,6L12,5ZM14,5L13,5L13,6L14,6L14,5ZM8,2L7,2L7,3L8,3L8,2ZM4,2L2,2L2,3L4,3L4,2ZM13,1L11,1L11,2L13,2L13,1ZM10,0L9,0L9,1L10,1L10,0Z" style="fill:url(#_Linear6);"/>
                    </g>
                </g>
            </g>
            <g transform="matrix(1,0,0,1,0,-0.141578)">
                <g opacity="0.75">
                    <g transform="matrix(2.1875,-1.26295,-1.08611e-16,2.52591,32,31.9984)">
                        <path d="M11,15L9,15L9,16L11,16L11,15ZM15,14L12,14L12,15L16,15L16,13L15,13L15,14ZM2,13L0,13L0,14L2,14L2,13ZM5,11L5,13L6,13L6,12L7,12L7,11L5,11ZM16,11L15,11L15,12L16,12L16,11ZM14,11L12,11L12,12L14,12L14,11ZM0,9L2,9L2,10L3,10L3,8L0,8L0,9ZM15,9L11,9L11,10L15,10L15,9ZM7,9L6,9L6,10L9,10L9,9L10,9L10,8L7,8L7,9ZM5,8L4,8L4,9L5,9L5,8ZM9,6L7,6L7,7L9,7L9,6ZM6,6L3,6L3,7L6,7L6,6ZM16,5L15,5L15,6L16,6L16,5ZM2,5L1,5L1,6L2,6L2,5ZM8,4L9,4L9,5L13,5L13,4L10,4L10,3L8,3L8,4ZM6,3L5,3L5,4L6,4L6,3ZM4,3L2,3L2,4L4,4L4,3ZM4,0L0,0L0,1L4,1L4,0Z" style="fill:url(#_Linear7);"/>
                    </g>
                    <g transform="matrix(2.1875,-1.26295,-1.08611e-16,2.52591,32,31.9984)">
                        <path d="M14,15L13,15L13,16L14,16L14,15ZM8,15L6,15L6,16L8,16L8,15ZM3,14L1,14L1,15L3,15L3,14ZM1,13L3,13L3,14L5,14L5,13L4,13L4,12L1,12L1,13ZM13,13L12,13L12,14L15,14L15,13L14,13L14,12L13,12L13,13ZM7,12L7,14L10,14L10,13L9,13L9,12L7,12ZM16,12L15,12L15,13L16,13L16,12ZM3,10L2,10L2,11L3,11L3,10ZM9,10L8,10L8,11L9,11L9,10ZM11,10L10,10L10,11L11,11L11,10ZM6,10L4,10L4,11L6,11L6,10ZM16,10L13,10L13,11L16,11L16,10ZM16,8L15,8L15,9L16,9L16,8ZM5,7L4,7L4,8L5,8L5,7ZM9,5L9,7L10,7L10,8L13,8L13,7L12,7L12,6L11,6L11,5L9,5ZM0,6L0,8L2,8L2,7L1,7L1,6L0,6ZM6,6L6,8L8,8L8,7L7,7L7,6L6,6ZM13,5L12,5L12,6L13,6L13,5ZM15,5L14,5L14,6L15,6L15,5ZM14,4L13,4L13,5L14,5L14,4ZM6,4L3,4L3,5L6,5L6,4ZM1,4L0,4L0,5L1,5L1,4ZM8,4L7,4L7,5L8,5L8,4ZM16,3L13,3L13,4L16,4L16,3ZM2,2L1,2L1,3L2,3L2,2ZM4,1L4,3L7,3L7,2L5,2L5,1L4,1ZM11,2L8,2L8,3L11,3L11,2ZM3,1L2,1L2,2L3,2L3,1ZM14,1L13,1L13,2L14,2L14,1ZM16,1L15,1L15,2L16,2L16,1ZM7,0L5,0L5,1L7,1L7,0ZM9,0L8,0L8,1L9,1L9,0ZM12,0L10,0L10,1L12,1L12,0Z" style="fill:url(#_Linear8);"/>
                    </g>
                    <g transform="matrix(2.1875,-1.26295,-1.08611e-16,2.52591,32,31.9984)">
                        <path d="M15,12L14,12L14,13L15,13L15,12ZM13,12L11,12L11,13L13,13L13,12ZM1,10L0,10L0,11L1,11L1,10ZM8,10L6,10L6,11L8,11L8,10ZM6,7L5,7L5,8L6,8L6,7ZM4,7L2,7L2,8L4,8L4,7ZM12,5L11,5L11,6L12,6L12,5ZM14,5L13,5L13,6L14,6L14,5ZM8,2L7,2L7,3L8,3L8,2ZM4,2L2,2L2,3L4,3L4,2ZM13,1L11,1L11,2L13,2L13,1ZM10,0L9,0L9,1L10,1L10,0Z" style="fill:url(#_Linear9);"/>
                    </g>
                </g>
            </g>
            <g transform="matrix(1,0,0,1,0,-0.141578)">
                <g transform="matrix(2.1875,-1.26295,2.1875,1.26295,-3,11.7927)">
                    <path d="M11,15L9,15L9,16L11,16L11,15ZM15,14L12,14L12,15L16,15L16,13L15,13L15,14ZM2,13L0,13L0,14L2,14L2,13ZM5,11L5,13L6,13L6,12L7,12L7,11L5,11ZM16,11L15,11L15,12L16,12L16,11ZM14,11L12,11L12,12L14,12L14,11ZM0,9L2,9L2,10L3,10L3,8L0,8L0,9ZM15,9L11,9L11,10L15,10L15,9ZM7,9L6,9L6,10L9,10L9,9L10,9L10,8L7,8L7,9ZM5,8L4,8L4,9L5,9L5,8ZM9,6L7,6L7,7L9,7L9,6ZM6,6L3,6L3,7L6,7L6,6ZM16,5L15,5L15,6L16,6L16,5ZM2,5L1,5L1,6L2,6L2,5ZM8,4L9,4L9,5L13,5L13,4L10,4L10,3L8,3L8,4ZM6,3L5,3L5,4L6,4L6,3ZM4,3L2,3L2,4L4,4L4,3ZM4,0L0,0L0,1L4,1L4,0Z" style="fill:url(#_Linear10);"/>
                </g>
                <g transform="matrix(2.1875,-1.26295,2.1875,1.26295,-3,11.7927)">
                    <path d="M14,15L13,15L13,16L14,16L14,15ZM8,15L6,15L6,16L8,16L8,15ZM3,14L1,14L1,15L3,15L3,14ZM1,13L3,13L3,14L5,14L5,13L4,13L4,12L1,12L1,13ZM13,13L12,13L12,14L15,14L15,13L14,13L14,12L13,12L13,13ZM7,12L7,14L10,14L10,13L9,13L9,12L7,12ZM16,12L15,12L15,13L16,13L16,12ZM3,10L2,10L2,11L3,11L3,10ZM9,10L8,10L8,11L9,11L9,10ZM11,10L10,10L10,11L11,11L11,10ZM6,10L4,10L4,11L6,11L6,10ZM16,10L13,10L13,11L16,11L16,10ZM16,8L15,8L15,9L16,9L16,8ZM5,7L4,7L4,8L5,8L5,7ZM9,5L9,7L10,7L10,8L13,8L13,7L12,7L12,6L11,6L11,5L9,5ZM0,6L0,8L2,8L2,7L1,7L1,6L0,6ZM6,6L6,8L8,8L8,7L7,7L7,6L6,6ZM13,5L12,5L12,6L13,6L13,5ZM15,5L14,5L14,6L15,6L15,5ZM14,4L13,4L13,5L14,5L14,4ZM6,4L3,4L3,5L6,5L6,4ZM1,4L0,4L0,5L1,5L1,4ZM8,4L7,4L7,5L8,5L8,4ZM16,3L13,3L13,4L16,4L16,3ZM2,2L1,2L1,3L2,3L2,2ZM4,1L4,3L7,3L7,2L5,2L5,1L4,1ZM11,2L8,2L8,3L11,3L11,2ZM3,1L2,1L2,2L3,2L3,1ZM14,1L13,1L13,2L14,2L14,1ZM16,1L15,1L15,2L16,2L16,1ZM7,0L5,0L5,1L7,1L7,0ZM9,0L8,0L8,1L9,1L9,0ZM12,0L10,0L10,1L12,1L12,0Z" style="fill:url(#_Linear11);"/>
                </g>
                <g transform="matrix(2.1875,-1.26295,2.1875,1.26295,-3,11.7927)">
                    <path d="M15,12L14,12L14,13L15,13L15,12ZM13,12L11,12L11,13L13,13L13,12ZM1,10L0,10L0,11L1,11L1,10ZM8,10L6,10L6,11L8,11L8,10ZM6,7L5,7L5,8L6,8L6,7ZM4,7L2,7L2,8L4,8L4,7ZM12,5L11,5L11,6L12,6L12,5ZM14,5L13,5L13,6L14,6L14,5ZM8,2L7,2L7,3L8,3L8,2ZM4,2L2,2L2,3L4,3L4,2ZM13,1L11,1L11,2L13,2L13,1ZM10,0L9,0L9,1L10,1L10,0Z" style="fill:url(#_Linear12);"/>
                </g>
            </g>
        </g>
    </g>
    <defs>
        <linearGradient id="_Linear1" x1="0" y1="0" x2="1" y2="0" gradientUnits="userSpaceOnUse" gradientTransform="matrix(6.148e-14,1004.05,-1004.05,6.148e-14,1000,-4.04508)"><stop offset="0" style="stop-color:rgb(127,127,127);stop-opacity:0.5"/><stop offset="1" style="stop-color:rgb(17,17,17);stop-opacity:0"/></linearGradient>
        <linearGradient id="_Linear2" x1="0" y1="0" x2="1" y2="0" gradientUnits="userSpaceOnUse" gradientTransform="matrix(6.148e-14,1004.05,-1004.05,6.148e-14,1000,-4.04508)"><stop offset="0" style="stop-color:rgb(127,127,127);stop-opacity:0.75"/><stop offset="1" style="stop-color:rgb(17,17,17);stop-opacity:0"/></linearGradient>
        <linearGradient id="_Linear3" x1="0" y1="0" x2="1" y2="0" gradientUnits="userSpaceOnUse" gradientTransform="matrix(6.148e-14,1004.05,-1004.05,6.148e-14,1000,0)"><stop offset="0" style="stop-color:rgb(127,127,127);stop-opacity:1"/><stop offset="1" style="stop-color:rgb(17,17,17);stop-opacity:0"/></linearGradient>
        <linearGradient id="_Linear4" x1="0" y1="0" x2="1" y2="0" gradientUnits="userSpaceOnUse" gradientTransform="matrix(2.92917e-16,13.9125,-16.0647,8.03236,16,-8.05605)"><stop offset="0" style="stop-color:rgb(143,143,143);stop-opacity:1"/><stop offset="1" style="stop-color:rgb(17,17,17);stop-opacity:0"/></linearGradient>
        <linearGradient id="_Linear5" x1="0" y1="0" x2="1" y2="0" gradientUnits="userSpaceOnUse" gradientTransform="matrix(2.92917e-16,13.9125,-16.0647,8.03236,16,-8.05605)"><stop offset="0" style="stop-color:rgb(116,116,116);stop-opacity:1"/><stop offset="1" style="stop-color:rgb(17,17,17);stop-opacity:0"/></linearGradient>
        <linearGradient id="_Linear6" x1="0" y1="0" x2="1" y2="0" gradientUnits="userSpaceOnUse" gradientTransform="matrix(2.92917e-16,13.9125,-16.0647,8.03236,16,-8.05605)"><stop offset="0" style="stop-color:rgb(104,104,104);stop-opacity:1"/><stop offset="1" style="stop-color:rgb(17,17,17);stop-opacity:0"/></linearGradient>
        <linearGradient id="_Linear7" x1="0" y1="0" x2="1" y2="0" gradientUnits="userSpaceOnUse" gradientTransform="matrix(1.67444e-15,13.9125,-16.0647,-8.03236,-3.55271e-14,-8.05543)"><stop offset="0" style="stop-color:rgb(143,143,143);stop-opacity:1"/><stop offset="1" style="stop-color:rgb(17,17,17);stop-opacity:0"/></linearGradient>
        <linearGradient id="_Linear8" x1="0" y1="0" x2="1" y2="0" gradientUnits="userSpaceOnUse" gradientTransform="matrix(1.67444e-15,13.9125,-16.0647,-8.03236,-3.55271e-14,-8.05543)"><stop offset="0" style="stop-color:rgb(116,116,116);stop-opacity:1"/><stop offset="1" style="stop-color:rgb(17,17,17);stop-opacity:0"/></linearGradient>
        <linearGradient id="_Linear9" x1="0" y1="0" x2="1" y2="0" gradientUnits="userSpaceOnUse" gradientTransform="matrix(1.67444e-15,13.9125,-16.0647,-8.03236,-3.55271e-14,-8.05543)"><stop offset="0" style="stop-color:rgb(104,104,104);stop-opacity:1"/><stop offset="1" style="stop-color:rgb(17,17,17);stop-opacity:0"/></linearGradient>
        <linearGradient id="_Linear10" x1="0" y1="0" x2="1" y2="0" gradientUnits="userSpaceOnUse" gradientTransform="matrix(-13.9125,13.9125,-8.03236,-8.03236,8.05605,7.94395)"><stop offset="0" style="stop-color:rgb(143,143,143);stop-opacity:1"/><stop offset="1" style="stop-color:rgb(17,17,17);stop-opacity:0"/></linearGradient>
        <linearGradient id="_Linear11" x1="0" y1="0" x2="1" y2="0" gradientUnits="userSpaceOnUse" gradientTransform="matrix(-13.9125,13.9125,-8.03236,-8.03236,8.05605,7.94395)"><stop offset="0" style="stop-color:rgb(116,116,116);stop-opacity:1"/><stop offset="1" style="stop-color:rgb(17,17,17);stop-opacity:0"/></linearGradient>
        <linearGradient id="_Linear12" x1="0" y1="0" x2="1" y2="0" gradientUnits="userSpaceOnUse" gradientTransform="matrix(-13.9125,13.9125,-8.03236,-8.03236,8.05605,7.94395)"><stop offset="0" style="stop-color:rgb(104,104,104);stop-opacity:1"/><stop offset="1" style="stop-color:rgb(17,17,17);stop-opacity:0"/></linearGradient>
    </defs>
</svg>
