<?xml version="1.0" encoding="UTF-8" standalone="no"?>
<!DOCTYPE svg PUBLIC "-//W3C//DTD SVG 1.1//EN" "http://www.w3.org/Graphics/SVG/1.1/DTD/svg11.dtd">
<svg width="100%" height="100%" viewBox="0 0 1246 174" version="1.1" xmlns="http://www.w3.org/2000/svg" xmlns:xlink="http://www.w3.org/1999/xlink" xml:space="preserve" xmlns:serif="http://www.serif.com/" style="fill-rule:evenodd;clip-rule:evenodd;stroke-linejoin:round;stroke-miterlimit:2;">
    <g transform="matrix(4.73986,0,0,4.73986,187.453,-194.652)">
        <path d="M-2.763,41.82L-2.763,77L2.263,77L2.263,51.871L7.289,51.871L7.289,46.845L2.263,46.845L2.263,41.82L-2.763,41.82ZM17.338,51.871L17.338,77L22.365,77L22.365,41.82L17.338,41.82L17.338,46.845L12.315,46.845L12.315,51.871L17.338,51.871ZM12.315,61.923L12.315,51.871L7.289,51.871L7.289,61.923L12.315,61.923ZM27.341,77L42.419,77L42.419,71.974L37.393,71.974L37.393,51.871L27.341,51.871L27.341,56.897L32.367,56.897L32.367,71.974L27.341,71.974L27.341,77ZM37.393,41.82L32.367,41.82L32.367,46.845L37.393,46.845L37.393,41.82ZM72.572,77L72.572,56.897L67.546,56.897L67.546,77L72.572,77ZM52.471,77L52.471,56.897L67.546,56.897L67.546,51.871L47.445,51.871L47.445,77L52.471,77ZM82.575,51.871L82.575,41.82L77.549,41.82L77.549,71.974L82.575,71.974L82.523,77L92.624,77L92.624,71.974L82.575,71.974L82.575,56.897L92.624,56.897L92.624,51.871L82.575,51.871ZM102.628,77L117.705,77L117.705,71.974L122.731,71.974L122.731,66.949L117.705,66.949L117.705,71.974L102.628,71.974L102.628,77ZM97.602,56.897L97.602,71.974L102.628,71.974L102.628,56.897L97.602,56.897ZM117.705,56.897L117.705,51.871L102.628,51.871L102.628,56.897L117.705,56.897L117.705,61.923L122.731,61.923L122.731,56.897L117.705,56.897ZM147.858,51.871L127.756,51.871L127.756,77L132.783,77L132.783,56.897L147.858,56.897L147.858,51.871ZM157.861,77L177.964,77L177.964,56.897L172.938,56.897L172.938,71.974L157.861,71.974L157.861,77ZM157.861,71.974L157.861,56.897L152.835,56.897L152.835,71.974L157.861,71.974ZM172.938,51.871L157.861,51.871L157.861,56.897L172.938,56.897L172.938,51.871ZM203.092,51.871L193.041,51.871L193.041,46.846L188.015,46.846L188.015,51.871L182.989,51.871L182.989,56.897L188.015,56.897L188.015,77L193.041,77L193.041,56.897L203.092,56.897L203.092,51.871ZM203.092,41.82L193.041,41.82L193.041,46.846L203.092,46.846L203.092,41.82ZM213.094,51.871L213.094,41.82L208.068,41.82L208.068,71.974L213.094,71.974L213.042,77L223.143,77L223.143,71.974L213.094,71.974L213.094,56.897L223.143,56.897L223.143,51.871L213.094,51.871Z" style="fill:rgb(235,235,235);fill-rule:nonzero;"/>
    </g>
    <g transform="matrix(3.84914,0,0,3.84914,-8677.67,-3962.36)">
        <path d="M2293.55,1040.71L2274,1029.41L2254.45,1040.71L2254.45,1063.29L2274,1074.59L2293.55,1063.29L2293.55,1040.71ZM2274,1036.59L2287.35,1044.29C2287.35,1044.29 2287.35,1059.71 2287.35,1059.71C2287.35,1059.71 2274,1067.41 2274,1067.41C2274,1067.41 2260.66,1059.71 2260.66,1059.71C2260.66,1059.71 2260.66,1044.29 2260.66,1044.29L2274,1036.59Z" style="fill:url(#_Linear1);"/>
    </g>
    <g transform="matrix(3.33514,0,0,3.33514,-7508.86,-3431.6)">
        <path d="M2251.44,1041.96L2251.44,1046.1L2274,1059.12L2296.57,1046.1L2296.57,1041.95L2274,1028.93L2251.44,1041.96ZM2262.16,1044.03L2274,1050.86L2285.84,1044.03L2274,1037.19L2262.16,1044.03Z" style="fill:rgb(255,187,34);"/>
    </g>
    <defs>
        <linearGradient id="_Linear1" x1="0" y1="0" x2="1" y2="0" gradientUnits="userSpaceOnUse" gradientTransform="matrix(6.71021e-16,-10.9586,10.9586,6.71021e-16,2274,1054.92)"><stop offset="0" style="stop-color:rgb(221,153,34);stop-opacity:1"/><stop offset="1" style="stop-color:rgb(153,102,0);stop-opacity:1"/></linearGradient>
    </defs>
</svg>
