<?xml version="1.0" encoding="UTF-8" standalone="no"?>
<!DOCTYPE svg PUBLIC "-//W3C//DTD SVG 1.1//EN" "http://www.w3.org/Graphics/SVG/1.1/DTD/svg11.dtd">
<svg width="100%" height="100%" viewBox="0 0 1280 720" version="1.1" xmlns="http://www.w3.org/2000/svg" xmlns:xlink="http://www.w3.org/1999/xlink" xml:space="preserve" style="fill-rule:evenodd;clip-rule:evenodd;stroke-linecap:round;stroke-linejoin:round;stroke-miterlimit:1.5;">
    <rect x="0" y="0" width="1280" height="720" style="fill:rgb(238,238,238);"/>
    <g>
        <g transform="matrix(1,0,0,0.0972222,5.68434e-14,-2.22045e-16)">
            <rect x="0" y="0" width="1280" height="720" style="fill:rgb(221,221,221);"/>
            <path d="M1285,0C1285,-28.403 1282.76,-51.429 1280,-51.429L0,-51.429C-2.761,-51.429 -5,-28.403 -5,0L-5,720C-5,748.403 -2.761,771.429 0,771.429L1280,771.429C1282.76,771.429 1285,748.403 1285,720L1285,0ZM1280,0L0,0L0,720L1280,720L1280,0Z" style="fill:rgb(187,187,187);"/>
        </g>
        <path d="M34.936,45L202.201,45C207.935,45 212.136,40.8 212.136,35.067L212.136,34.933C212.136,29.2 207.935,25 202.201,25L34.936,25C29.201,25 25,29.2 25,34.933L25,35.067C25,40.8 29.201,45 34.936,45Z" style="fill:rgb(34,34,34);fill-opacity:0.8;fill-rule:nonzero;"/>
        <g transform="matrix(0.588235,0,0,0.588235,105.824,18.5294)">
            <circle cx="223" cy="28" r="17" style="fill:rgb(17,153,255);"/>
        </g>
        <path d="M643.727,28L552.693,28C548.679,28 545.738,30.94 545.738,34.953L545.738,35.047C545.738,39.06 548.679,42 552.693,42L643.727,42C647.742,42 650.683,39.06 650.683,35.047L650.683,34.953C650.683,30.94 647.742,28 643.727,28ZM827.301,42L965.955,42C969.969,42 972.91,39.06 972.91,35.047L972.91,34.953C972.91,30.94 969.969,28 965.955,28L827.301,28C823.287,28 820.346,30.94 820.346,34.953L820.346,35.047C820.346,39.06 823.287,42 827.301,42ZM1007.88,42L1137.85,42C1141.87,42 1144.81,39.06 1144.81,35.047L1144.81,34.953C1144.81,30.94 1141.87,28 1137.85,28L1007.88,28C1003.87,28 1000.93,30.94 1000.93,34.953L1000.93,35.047C1000.93,39.06 1003.87,42 1007.88,42ZM1149.48,34.953L1149.48,35.047C1149.48,39.06 1152.42,42 1156.44,42L1169.88,42C1173.89,42 1176.84,39.06 1176.84,35.047L1176.84,34.953C1176.84,30.94 1173.89,28 1169.88,28L1156.44,28C1152.42,28 1149.48,30.94 1149.48,34.953ZM1245.05,28L1188.46,28C1184.45,28 1181.51,30.94 1181.51,34.953L1181.51,35.047C1181.51,39.06 1184.45,42 1188.46,42L1245.05,42C1249.06,42 1252,39.06 1252,35.047L1252,34.953C1252,30.94 1249.06,28 1245.05,28ZM785.374,28L685.655,28C681.641,28 678.7,30.94 678.7,34.953L678.7,35.047C678.7,39.06 681.641,42 685.655,42L785.374,42C789.388,42 792.328,39.06 792.328,35.047L792.328,34.953C792.328,30.94 789.388,28 785.374,28Z" style="fill:rgb(34,34,34);fill-opacity:0.6;fill-rule:nonzero;"/>
    </g>
    <g>
        <path d="M309.389,155L84.398,155C75.799,155 69.5,161.297 69.5,169.894L69.5,170.094C69.5,178.69 75.799,184.987 84.398,184.987L309.389,184.987C317.988,184.987 324.288,178.69 324.288,170.094L324.288,169.894C324.288,161.297 317.988,155 309.389,155ZM369.197,184.987L651.391,184.987C659.989,184.987 666.288,178.69 666.288,170.094L666.288,169.894C666.288,161.297 659.989,155 651.391,155L369.197,155C360.599,155 354.3,161.297 354.3,169.894L354.3,170.094C354.3,178.69 360.599,184.987 369.197,184.987Z" style="fill:rgb(34,34,34);fill-opacity:0.8;fill-rule:nonzero;"/>
        <path d="M208.018,219.399L80.673,219.399C74.224,219.399 69.5,224.122 69.5,230.569L69.5,230.719C69.5,237.166 74.224,241.889 80.673,241.889L208.018,241.889C214.467,241.889 219.191,237.166 219.191,230.719L219.191,230.569C219.191,224.122 214.467,219.399 208.018,219.399ZM252.873,241.889L380.218,241.889C386.667,241.889 391.391,237.166 391.391,230.719L391.391,230.569C391.391,224.122 386.667,219.399 380.218,219.399L252.873,219.399C246.424,219.399 241.7,224.122 241.7,230.569L241.7,230.719C241.7,237.166 246.424,241.889 252.873,241.889ZM413.9,230.569L413.9,230.719C413.9,237.166 418.624,241.889 425.073,241.889L446.668,241.889C453.117,241.889 457.841,237.166 457.841,230.719L457.841,230.569C457.841,224.122 453.117,219.399 446.668,219.399L425.073,219.399C418.624,219.399 413.9,224.122 413.9,230.569Z" style="fill:rgb(34,34,34);fill-opacity:0.8;fill-rule:nonzero;"/>
    </g>
    <g>
        <g transform="matrix(0.735695,0,0,1.22093,-131.345,124.279)">
            <path d="M1007,191.06C1007,181.092 993.57,173 977.028,173L302.972,173C286.43,173 273,181.092 273,191.06L273,412.94C273,422.908 286.43,431 302.972,431L977.028,431C993.57,431 1007,422.908 1007,412.94L1007,191.06Z" style="fill:rgb(221,221,221);stroke:rgb(187,187,187);stroke-width:4.96px;"/>
        </g>
        <g transform="matrix(1,0,0,1,5.5,-6.5)">
            <path d="M240.171,381.5L114.524,381.5C108.161,381.5 103.5,386.16 103.5,392.521L103.5,392.669C103.5,399.031 108.161,403.691 114.524,403.691L240.171,403.691C246.534,403.691 251.195,399.031 251.195,392.669L251.195,392.521C251.195,386.16 246.534,381.5 240.171,381.5ZM284.428,403.691L431.239,403.691C437.602,403.691 442.263,399.031 442.263,392.669L442.263,392.521C442.263,386.16 437.602,381.5 431.239,381.5L284.428,381.5C278.065,381.5 273.404,386.16 273.404,392.521L273.404,392.669C273.404,399.031 278.065,403.691 284.428,403.691Z" style="fill:rgb(34,34,34);fill-opacity:0.8;fill-rule:nonzero;"/>
        </g>
        <g transform="matrix(1,0,0,1,8.64869,-5.75988)">
            <path d="M103.48,538.148L162.74,538.148C164.546,538.148 165.869,536.826 165.869,535.02L165.869,534.978C165.869,533.173 164.546,531.851 162.74,531.851L103.48,531.851C101.674,531.851 100.351,533.173 100.351,534.978L100.351,535.02C100.351,536.826 101.674,538.148 103.48,538.148ZM312.724,538.148L401.384,538.148C403.19,538.148 404.513,536.826 404.513,535.02L404.513,534.978C404.513,533.173 403.19,531.851 401.384,531.851L312.724,531.851C310.918,531.851 309.595,533.173 309.595,534.978L309.595,535.02C309.595,536.826 310.918,538.148 312.724,538.148ZM223.306,538.148L300.164,538.148C301.97,538.148 303.293,536.826 303.293,535.02L303.293,534.978C303.293,533.173 301.97,531.851 300.164,531.851L223.306,531.851C221.5,531.851 220.177,533.173 220.177,534.978L220.177,535.02C220.177,536.826 221.5,538.148 223.306,538.148ZM210.746,531.851L175.3,531.851C173.494,531.851 172.171,533.173 172.171,534.978L172.171,535.02C172.171,536.826 173.494,538.148 175.3,538.148L210.746,538.148C212.552,538.148 213.875,536.826 213.875,535.02L213.875,534.978C213.875,533.173 212.552,531.851 210.746,531.851ZM425.618,510.851L372.364,510.851C370.558,510.851 369.235,512.173 369.235,513.978L369.235,514.02C369.235,515.826 370.558,517.148 372.364,517.148L425.618,517.148C427.424,517.148 428.747,515.826 428.747,514.02L428.747,513.978C428.747,512.173 427.424,510.851 425.618,510.851ZM198.904,517.148L287.774,517.148C289.58,517.148 290.903,515.826 290.903,514.02L290.903,513.978C290.903,512.173 289.58,510.851 287.774,510.851L198.904,510.851C197.098,510.851 195.775,512.173 195.775,513.978L195.775,514.02C195.775,515.826 197.098,517.148 198.904,517.148ZM103.48,517.148L186.344,517.148C188.15,517.148 189.473,515.826 189.473,514.02L189.473,513.978C189.473,512.173 188.15,510.851 186.344,510.851L103.48,510.851C101.674,510.851 100.351,512.173 100.351,513.978L100.351,514.02C100.351,515.826 101.674,517.148 103.48,517.148ZM300.334,517.148L359.804,517.148C361.61,517.148 362.933,515.826 362.933,514.02L362.933,513.978C362.933,512.173 361.61,510.851 359.804,510.851L300.334,510.851C298.528,510.851 297.205,512.173 297.205,513.978L297.205,514.02C297.205,515.826 298.528,517.148 300.334,517.148ZM467.828,510.851L438.178,510.851C436.372,510.851 435.049,512.173 435.049,513.978L435.049,514.02C435.049,515.826 436.372,517.148 438.178,517.148L467.828,517.148C469.634,517.148 470.957,515.826 470.957,514.02L470.957,513.978C470.957,512.173 469.634,510.851 467.828,510.851ZM480.388,517.148L510.038,517.148C511.844,517.148 513.167,515.826 513.167,514.02L513.167,513.978C513.167,512.173 511.844,510.851 510.038,510.851L480.388,510.851C478.582,510.851 477.259,512.173 477.259,513.978L477.259,514.02C477.259,515.826 478.582,517.148 480.388,517.148ZM181.096,496.148L234.56,496.148C236.366,496.148 237.689,494.826 237.689,493.02L237.689,492.978C237.689,491.173 236.366,489.851 234.56,489.851L181.096,489.851C179.29,489.851 177.967,491.173 177.967,492.978L177.967,493.02C177.967,494.826 179.29,496.148 181.096,496.148ZM468.754,496.148L543.223,496.148C545.028,496.148 546.351,494.826 546.351,493.02L546.351,492.978C546.351,491.173 545.028,489.851 543.223,489.851L468.754,489.851C466.948,489.851 465.625,491.173 465.625,492.978L465.625,493.02C465.625,494.826 466.948,496.148 468.754,496.148ZM336.578,489.851L306.928,489.851C305.122,489.851 303.799,491.173 303.799,492.978L303.799,493.02C303.799,494.826 305.122,496.148 306.928,496.148L336.578,496.148C338.384,496.148 339.707,494.826 339.707,493.02L339.707,492.978C339.707,491.173 338.384,489.851 336.578,489.851ZM384.584,489.851L349.138,489.851C347.332,489.851 346.009,491.173 346.009,492.978L346.009,493.02C346.009,494.826 347.332,496.148 349.138,496.148L384.584,496.148C386.39,496.148 387.713,494.826 387.713,493.02L387.713,492.978C387.713,491.173 386.39,489.851 384.584,489.851ZM397.144,496.148L456.194,496.148C458,496.148 459.323,494.826 459.323,493.02L459.323,492.978C459.323,491.173 458,489.851 456.194,489.851L397.144,489.851C395.338,489.851 394.015,491.173 394.015,492.978L394.015,493.02C394.015,494.826 395.338,496.148 397.144,496.148ZM294.368,489.851L247.12,489.851C245.314,489.851 243.991,491.173 243.991,492.978L243.991,493.02C243.991,494.826 245.314,496.148 247.12,496.148L294.368,496.148C296.174,496.148 297.497,494.826 297.497,493.02L297.497,492.978C297.497,491.173 296.174,489.851 294.368,489.851ZM103.48,496.148L168.536,496.148C170.342,496.148 171.665,494.826 171.665,493.02L171.665,492.978C171.665,491.173 170.342,489.851 168.536,489.851L103.48,489.851C101.674,489.851 100.351,491.173 100.351,492.978L100.351,493.02C100.351,494.826 101.674,496.148 103.48,496.148ZM204.95,468.851L175.3,468.851C173.494,468.851 172.171,470.173 172.171,471.978L172.171,472.02C172.171,473.826 173.494,475.148 175.3,475.148L204.95,475.148C206.756,475.148 208.079,473.826 208.079,472.02L208.079,471.978C208.079,470.173 206.756,468.851 204.95,468.851ZM390.97,475.148L438.428,475.148C440.234,475.148 441.557,473.826 441.557,472.02L441.557,471.978C441.557,470.173 440.234,468.851 438.428,468.851L390.97,468.851C389.164,468.851 387.841,470.173 387.841,471.978L387.841,472.02C387.841,473.826 389.164,475.148 390.97,475.148ZM217.51,475.148L300.584,475.148C302.39,475.148 303.713,473.826 303.713,472.02L303.713,471.978C303.713,470.173 302.39,468.851 300.584,468.851L217.51,468.851C215.704,468.851 214.381,470.173 214.381,471.978L214.381,472.02C214.381,473.826 215.704,475.148 217.51,475.148ZM493.198,475.148L549.859,475.148C551.665,475.148 552.987,473.826 552.987,472.02L552.987,471.978C552.987,470.173 551.665,468.851 549.859,468.851L493.198,468.851C491.392,468.851 490.069,470.173 490.069,471.978L490.069,472.02C490.069,473.826 491.392,475.148 493.198,475.148ZM103.48,475.148L162.74,475.148C164.546,475.148 165.869,473.826 165.869,472.02L165.869,471.978C165.869,470.173 164.546,468.851 162.74,468.851L103.48,468.851C101.674,468.851 100.351,470.173 100.351,471.978L100.351,472.02C100.351,473.826 101.674,475.148 103.48,475.148ZM313.144,475.148L378.41,475.148C380.216,475.148 381.539,473.826 381.539,472.02L381.539,471.978C381.539,470.173 380.216,468.851 378.41,468.851L313.144,468.851C311.338,468.851 310.015,470.173 310.015,471.978L310.015,472.02C310.015,473.826 311.338,475.148 313.144,475.148ZM480.638,468.851L450.988,468.851C449.182,468.851 447.859,470.173 447.859,471.978L447.859,472.02C447.859,473.826 449.182,475.148 450.988,475.148L480.638,475.148C482.444,475.148 483.767,473.826 483.767,472.02L483.767,471.978C483.767,470.173 482.444,468.851 480.638,468.851ZM481.564,454.148L555.823,454.148C557.628,454.148 558.951,452.826 558.951,451.02L558.951,450.978C558.951,449.173 557.628,447.851 555.823,447.851L481.564,447.851C479.758,447.851 478.435,449.173 478.435,450.978L478.435,451.02C478.435,452.826 479.758,454.148 481.564,454.148ZM343.132,454.148L378.788,454.148C380.594,454.148 381.917,452.826 381.917,451.02L381.917,450.978C381.917,449.173 380.594,447.851 378.788,447.851L343.132,447.851C341.326,447.851 340.003,449.173 340.003,450.978L340.003,451.02C340.003,452.826 341.326,454.148 343.132,454.148ZM138.926,447.851L103.48,447.851C101.674,447.851 100.351,449.173 100.351,450.978L100.351,451.02C100.351,452.826 101.674,454.148 103.48,454.148L138.926,454.148C140.732,454.148 142.055,452.826 142.055,451.02L142.055,450.978C142.055,449.173 140.732,447.851 138.926,447.851ZM193.696,454.148L223.346,454.148C225.152,454.148 226.475,452.826 226.475,451.02L226.475,450.978C226.475,449.173 225.152,447.851 223.346,447.851L193.696,447.851C191.89,447.851 190.567,449.173 190.567,450.978L190.567,451.02C190.567,452.826 191.89,454.148 193.696,454.148ZM151.486,454.148L181.136,454.148C182.942,454.148 184.265,452.826 184.265,451.02L184.265,450.978C184.265,449.173 182.942,447.851 181.136,447.851L151.486,447.851C149.68,447.851 148.357,449.173 148.357,450.978L148.357,451.02C148.357,452.826 149.68,454.148 151.486,454.148ZM439.354,454.148L469.004,454.148C470.81,454.148 472.133,452.826 472.133,451.02L472.133,450.978C472.133,449.173 470.81,447.851 469.004,447.851L439.354,447.851C437.548,447.851 436.225,449.173 436.225,450.978L436.225,451.02C436.225,452.826 437.548,454.148 439.354,454.148ZM235.906,454.148L330.572,454.148C332.378,454.148 333.701,452.826 333.701,451.02L333.701,450.978C333.701,449.173 332.378,447.851 330.572,447.851L235.906,447.851C234.1,447.851 232.777,449.173 232.777,450.978L232.777,451.02C232.777,452.826 234.1,454.148 235.906,454.148ZM426.794,447.851L391.348,447.851C389.542,447.851 388.219,449.173 388.219,450.978L388.219,451.02C388.219,452.826 389.542,454.148 391.348,454.148L426.794,454.148C428.6,454.148 429.923,452.826 429.923,451.02L429.923,450.978C429.923,449.173 428.6,447.851 426.794,447.851Z" style="fill:rgb(34,34,34);fill-opacity:0.6;fill-rule:nonzero;"/>
        </g>
        <g transform="matrix(0.271348,0,0,0.157597,34.922,543.076)">
            <path d="M1007,211.7C1007,190.341 996.929,173 984.523,173L295.477,173C283.071,173 273,190.341 273,211.7L273,392.3C273,413.659 283.071,431 295.477,431L984.523,431C996.929,431 1007,413.659 1007,392.3L1007,211.7Z" style="fill:rgb(17,153,255);"/>
        </g>
        <g transform="matrix(0.209494,0,0,0.157597,276.852,543.076)">
            <path d="M1007,211.7C1007,190.341 993.955,173 977.887,173L302.113,173C286.045,173 273,190.341 273,211.7L273,392.3C273,413.659 286.045,431 302.113,431L977.887,431C993.955,431 1007,413.659 1007,392.3L1007,211.7ZM983.133,211.7L983.133,392.3C983.133,396.149 980.782,399.273 977.887,399.273L302.113,399.273C299.218,399.273 296.867,396.149 296.867,392.3C296.867,392.3 296.867,211.7 296.867,211.7C296.867,207.851 299.218,204.727 302.113,204.727L977.887,204.727C980.782,204.727 983.133,207.851 983.133,211.7Z" style="fill:rgb(17,119,187);"/>
        </g>
    </g>
    <g>
        <g transform="matrix(0.735695,0,0,1.22093,469.655,124.279)">
            <path d="M1007,191.06C1007,181.092 993.57,173 977.028,173L302.972,173C286.43,173 273,181.092 273,191.06L273,412.94C273,422.908 286.43,431 302.972,431L977.028,431C993.57,431 1007,422.908 1007,412.94L1007,191.06Z" style="fill:rgb(221,221,221);stroke:rgb(187,187,187);stroke-width:4.96px;"/>
        </g>
        <g transform="matrix(1,0,0,1,5.5,-6.5)">
            <path d="M715.524,403.691L841.171,403.691C847.534,403.691 852.195,399.031 852.195,392.669L852.195,392.521C852.195,386.16 847.534,381.5 841.171,381.5L715.524,381.5C709.161,381.5 704.5,386.16 704.5,392.521L704.5,392.669C704.5,399.031 709.161,403.691 715.524,403.691ZM885.428,403.691L1051.92,403.691C1058.29,403.691 1062.95,399.031 1062.95,392.669L1062.95,392.521C1062.95,386.16 1058.29,381.5 1051.92,381.5L885.428,381.5C879.065,381.5 874.404,386.16 874.404,392.521L874.404,392.669C874.404,399.031 879.065,403.691 885.428,403.691Z" style="fill:rgb(34,34,34);fill-opacity:0.8;fill-rule:nonzero;"/>
        </g>
        <g transform="matrix(1,0,0,1,8.64869,-5.75988)">
            <path d="M841.356,531.851L746.69,531.851C744.884,531.851 743.561,533.173 743.561,534.978L743.561,535.02C743.561,536.826 744.884,538.148 746.69,538.148L841.356,538.148C843.162,538.148 844.485,536.826 844.485,535.02L844.485,534.978C844.485,533.173 843.162,531.851 841.356,531.851ZM901.374,531.851L853.916,531.851C852.11,531.851 850.787,533.173 850.787,534.978L850.787,535.02C850.787,536.826 852.11,538.148 853.916,538.148L901.374,538.148C903.18,538.148 904.503,536.826 904.503,535.02L904.503,534.978C904.503,533.173 903.18,531.851 901.374,531.851ZM1008.6,531.851L913.934,531.851C912.128,531.851 910.805,533.173 910.805,534.978L910.805,535.02C910.805,536.826 912.128,538.148 913.934,538.148L1008.6,538.148C1010.41,538.148 1011.73,536.826 1011.73,535.02L1011.73,534.978C1011.73,533.173 1010.41,531.851 1008.6,531.851ZM1074.41,531.851L1021.16,531.851C1019.35,531.851 1018.03,533.173 1018.03,534.978L1018.03,535.02C1018.03,536.826 1019.35,538.148 1021.16,538.148L1074.41,538.148C1076.22,538.148 1077.54,536.826 1077.54,535.02L1077.54,534.978C1077.54,533.173 1076.22,531.851 1074.41,531.851ZM734.13,531.851L704.48,531.851C702.674,531.851 701.351,533.173 701.351,534.978L701.351,535.02C701.351,536.826 702.674,538.148 704.48,538.148L734.13,538.148C735.936,538.148 737.259,536.826 737.259,535.02L737.259,534.978C737.259,533.173 735.936,531.851 734.13,531.851ZM919.77,510.851L890.12,510.851C888.314,510.851 886.991,512.173 886.991,513.978L886.991,514.02C886.991,515.826 888.314,517.148 890.12,517.148L919.77,517.148C921.576,517.148 922.899,515.826 922.899,514.02L922.899,513.978C922.899,512.173 921.576,510.851 919.77,510.851ZM998.394,510.851L974.54,510.851C972.734,510.851 971.411,512.173 971.411,513.978L971.411,514.02C971.411,515.826 972.734,517.148 974.54,517.148L998.394,517.148C1000.2,517.148 1001.52,515.826 1001.52,514.02L1001.52,513.978C1001.52,512.173 1000.2,510.851 998.394,510.851ZM877.56,510.851L806.498,510.851C804.692,510.851 803.369,512.173 803.369,513.978L803.369,514.02C803.369,515.826 804.692,517.148 806.498,517.148L877.56,517.148C879.366,517.148 880.689,515.826 880.689,514.02L880.689,513.978C880.689,512.173 879.366,510.851 877.56,510.851ZM1040.6,510.851L1010.95,510.851C1009.15,510.851 1007.83,512.173 1007.83,513.978L1007.83,514.02C1007.83,515.826 1009.15,517.148 1010.95,517.148L1040.6,517.148C1042.41,517.148 1043.73,515.826 1043.73,514.02L1043.73,513.978C1043.73,512.173 1042.41,510.851 1040.6,510.851ZM1148.04,510.851L1053.16,510.851C1051.36,510.851 1050.04,512.173 1050.04,513.978L1050.04,514.02C1050.04,515.826 1051.36,517.148 1053.16,517.148L1148.04,517.148C1149.85,517.148 1151.17,515.826 1151.17,514.02L1151.17,513.978C1151.17,512.173 1149.85,510.851 1148.04,510.851ZM793.938,510.851L740.684,510.851C738.878,510.851 737.555,512.173 737.555,513.978L737.555,514.02C737.555,515.826 738.878,517.148 740.684,517.148L793.938,517.148C795.744,517.148 797.067,515.826 797.067,514.02L797.067,513.978C797.067,512.173 795.744,510.851 793.938,510.851ZM961.98,510.851L932.33,510.851C930.524,510.851 929.201,512.173 929.201,513.978L929.201,514.02C929.201,515.826 930.524,517.148 932.33,517.148L961.98,517.148C963.786,517.148 965.109,515.826 965.109,514.02L965.109,513.978C965.109,512.173 963.786,510.851 961.98,510.851ZM728.124,510.851L704.48,510.851C702.674,510.851 701.351,512.173 701.351,513.978L701.351,514.02C701.351,515.826 702.674,517.148 704.48,517.148L728.124,517.148C729.93,517.148 731.253,515.826 731.253,514.02L731.253,513.978C731.253,512.173 729.93,510.851 728.124,510.851ZM775.542,489.851L704.48,489.851C702.674,489.851 701.351,491.173 701.351,492.978L701.351,493.02C701.351,494.826 702.674,496.148 704.48,496.148L775.542,496.148C777.348,496.148 778.671,494.826 778.671,493.02L778.671,492.978C778.671,491.173 777.348,489.851 775.542,489.851ZM1076.18,496.148L1141.45,496.148C1143.25,496.148 1144.58,494.826 1144.58,493.02L1144.58,492.978C1144.58,491.173 1143.25,489.851 1141.45,489.851L1076.18,489.851C1074.37,489.851 1073.05,491.173 1073.05,492.978L1073.05,493.02C1073.05,494.826 1074.37,496.148 1076.18,496.148ZM811.956,489.851L788.102,489.851C786.296,489.851 784.973,491.173 784.973,492.978L784.973,493.02C784.973,494.826 786.296,496.148 788.102,496.148L811.956,496.148C813.762,496.148 815.085,494.826 815.085,493.02L815.085,492.978C815.085,491.173 813.762,489.851 811.956,489.851ZM854.924,496.148L967.398,496.148C969.204,496.148 970.527,494.826 970.527,493.02L970.527,492.978C970.527,491.173 969.204,489.851 967.398,489.851L854.924,489.851C853.118,489.851 851.795,491.173 851.795,492.978L851.795,493.02C851.795,494.826 853.118,496.148 854.924,496.148ZM842.364,489.851L824.516,489.851C822.71,489.851 821.387,491.173 821.387,492.978L821.387,493.02C821.387,494.826 822.71,496.148 824.516,496.148L842.364,496.148C844.17,496.148 845.493,494.826 845.493,493.02L845.493,492.978C845.493,491.173 844.17,489.851 842.364,489.851ZM1015.4,489.851L979.958,489.851C978.152,489.851 976.829,491.173 976.829,492.978L976.829,493.02C976.829,494.826 978.152,496.148 979.958,496.148L1015.4,496.148C1017.21,496.148 1018.53,494.826 1018.53,493.02L1018.53,492.978C1018.53,491.173 1017.21,489.851 1015.4,489.851ZM1063.62,489.851L1027.96,489.851C1026.16,489.851 1024.84,491.173 1024.84,492.978L1024.84,493.02C1024.84,494.826 1026.16,496.148 1027.96,496.148L1063.62,496.148C1065.43,496.148 1066.75,494.826 1066.75,493.02L1066.75,492.978C1066.75,491.173 1065.43,489.851 1063.62,489.851ZM859.584,468.851L835.94,468.851C834.134,468.851 832.811,470.173 832.811,471.978L832.811,472.02C832.811,473.826 834.134,475.148 835.94,475.148L859.584,475.148C861.39,475.148 862.713,473.826 862.713,472.02L862.713,471.978C862.713,470.173 861.39,468.851 859.584,468.851ZM961.224,468.851L872.144,468.851C870.338,468.851 869.015,470.173 869.015,471.978L869.015,472.02C869.015,473.826 870.338,475.148 872.144,475.148L961.224,475.148C963.03,475.148 964.353,473.826 964.353,472.02L964.353,471.978C964.353,470.173 963.03,468.851 961.224,468.851ZM1015.24,468.851L973.784,468.851C971.978,468.851 970.655,470.173 970.655,471.978L970.655,472.02C970.655,473.826 971.978,475.148 973.784,475.148L1015.24,475.148C1017.04,475.148 1018.37,473.826 1018.37,472.02L1018.37,471.978C1018.37,470.173 1017.04,468.851 1015.24,468.851ZM1027.8,475.148L1116.88,475.148C1118.68,475.148 1120.01,473.826 1120.01,472.02L1120.01,471.978C1120.01,470.173 1118.68,468.851 1116.88,468.851L1027.8,468.851C1025.99,468.851 1024.67,470.173 1024.67,471.978L1024.67,472.02C1024.67,473.826 1025.99,475.148 1027.8,475.148ZM704.48,475.148L823.38,475.148C825.186,475.148 826.509,473.826 826.509,472.02L826.509,471.978C826.509,470.173 825.186,468.851 823.38,468.851L704.48,468.851C702.674,468.851 701.351,470.173 701.351,471.978L701.351,472.02C701.351,473.826 702.674,475.148 704.48,475.148ZM907.38,447.851L824.516,447.851C822.71,447.851 821.387,449.173 821.387,450.978L821.387,451.02C821.387,452.826 822.71,454.148 824.516,454.148L907.38,454.148C909.186,454.148 910.509,452.826 910.509,451.02L910.509,450.978C910.509,449.173 909.186,447.851 907.38,447.851ZM1098.23,447.851L973.952,447.851C972.146,447.851 970.823,449.173 970.823,450.978L970.823,451.02C970.823,452.826 972.146,454.148 973.952,454.148L1098.23,454.148C1100.03,454.148 1101.36,452.826 1101.36,451.02L1101.36,450.978C1101.36,449.173 1100.03,447.851 1098.23,447.851ZM745.932,447.851L704.48,447.851C702.674,447.851 701.351,449.173 701.351,450.978L701.351,451.02C701.351,452.826 702.674,454.148 704.48,454.148L745.932,454.148C747.738,454.148 749.061,452.826 749.061,451.02L749.061,450.978C749.061,449.173 747.738,447.851 745.932,447.851ZM961.392,447.851L919.94,447.851C918.134,447.851 916.811,449.173 916.811,450.978L916.811,451.02C916.811,452.826 918.134,454.148 919.94,454.148L961.392,454.148C963.198,454.148 964.521,452.826 964.521,451.02L964.521,450.978C964.521,449.173 963.198,447.851 961.392,447.851ZM811.956,447.851L758.492,447.851C756.686,447.851 755.363,449.173 755.363,450.978L755.363,451.02C755.363,452.826 756.686,454.148 758.492,454.148L811.956,454.148C813.762,454.148 815.085,452.826 815.085,451.02L815.085,450.978C815.085,449.173 813.762,447.851 811.956,447.851Z" style="fill:rgb(34,34,34);fill-opacity:0.6;fill-rule:nonzero;"/>
        </g>
        <g transform="matrix(0.271348,0,0,0.157597,635.922,543.076)">
            <path d="M1007,211.7C1007,190.341 996.929,173 984.523,173L295.477,173C283.071,173 273,190.341 273,211.7L273,392.3C273,413.659 283.071,431 295.477,431L984.523,431C996.929,431 1007,413.659 1007,392.3L1007,211.7Z" style="fill:rgb(255,187,34);"/>
        </g>
        <g transform="matrix(0.209494,0,0,0.157597,877.852,543.076)">
            <path d="M1007,211.7C1007,190.341 993.955,173 977.887,173L302.113,173C286.045,173 273,190.341 273,211.7L273,392.3C273,413.659 286.045,431 302.113,431L977.887,431C993.955,431 1007,413.659 1007,392.3L1007,211.7ZM983.133,211.7L983.133,392.3C983.133,396.149 980.782,399.273 977.887,399.273L302.113,399.273C299.218,399.273 296.867,396.149 296.867,392.3C296.867,392.3 296.867,211.7 296.867,211.7C296.867,207.851 299.218,204.727 302.113,204.727L977.887,204.727C980.782,204.727 983.133,207.851 983.133,211.7Z" style="fill:rgb(221,153,34);"/>
        </g>
    </g>
</svg>
