<?xml version="1.0" encoding="UTF-8" standalone="no"?>
<!DOCTYPE svg PUBLIC "-//W3C//DTD SVG 1.1//EN" "http://www.w3.org/Graphics/SVG/1.1/DTD/svg11.dtd">
<svg width="100%" height="100%" viewBox="0 0 597 202" version="1.1" xmlns="http://www.w3.org/2000/svg" xmlns:xlink="http://www.w3.org/1999/xlink" xml:space="preserve" xmlns:serif="http://www.serif.com/" style="fill-rule:evenodd;clip-rule:evenodd;stroke-linejoin:round;stroke-miterlimit:2;">
    <g id="Button" transform="matrix(0.933594,0,0,0.30625,-3908.49,-69.5648)">
        <clipPath id="_clip1">
            <path d="M4762,540C4762,429.444 4732.56,339.686 4696.29,339.686L4315.71,339.686C4279.44,339.686 4250,429.444 4250,540C4250,650.556 4279.44,740.314 4315.71,740.314L4696.29,740.314C4732.56,740.314 4762,650.556 4762,540Z"/>
        </clipPath>
        <g clip-path="url(#_clip1)">
            <g opacity="0.75">
                <path d="M4762,540C4762,429.444 4732.56,339.686 4696.29,339.686L4315.71,339.686C4279.44,339.686 4250,429.444 4250,540C4250,650.556 4279.44,740.314 4315.71,740.314L4696.29,740.314C4732.56,740.314 4762,650.556 4762,540Z" style="fill:url(#_Linear2);"/>
                <clipPath id="_clip3">
                    <path d="M4762,540C4762,429.444 4732.56,339.686 4696.29,339.686L4315.71,339.686C4279.44,339.686 4250,429.444 4250,540C4250,650.556 4279.44,740.314 4315.71,740.314L4696.29,740.314C4732.56,740.314 4762,650.556 4762,540Z"/>
                </clipPath>
                <g clip-path="url(#_clip3)">
                    <g transform="matrix(1.28743,0,0,3.92471,-1299.33,-2101.51)">
                        <g transform="matrix(45.2055,0,0,45.2055,4476.18,692)">
                            <path d="M0.682,-0L0.682,-0.78L0.573,-0.78L0.573,-0.305C0.573,-0.255 0.579,-0.167 0.582,-0.133L0.579,-0.133C0.572,-0.159 0.545,-0.219 0.525,-0.256L0.24,-0.78L0.098,-0.78L0.098,-0L0.207,-0L0.207,-0.466C0.207,-0.535 0.203,-0.604 0.2,-0.651L0.203,-0.651C0.212,-0.62 0.237,-0.552 0.251,-0.527L0.537,-0L0.682,-0Z" style="fill:rgb(102,102,102);fill-rule:nonzero;"/>
                        </g>
                        <g transform="matrix(45.2055,0,0,45.2055,4511.07,692)">
                            <path d="M0.592,-0.277C0.592,-0.451 0.488,-0.565 0.318,-0.565C0.151,-0.565 0.044,-0.452 0.044,-0.277C0.044,-0.101 0.151,0.012 0.318,0.012C0.488,0.012 0.592,-0.101 0.592,-0.277ZM0.481,-0.277C0.481,-0.151 0.414,-0.077 0.318,-0.077C0.226,-0.077 0.155,-0.153 0.155,-0.277C0.155,-0.402 0.226,-0.475 0.318,-0.475C0.414,-0.475 0.481,-0.402 0.481,-0.277Z" style="fill:rgb(102,102,102);fill-rule:nonzero;"/>
                        </g>
                    </g>
                </g>
            </g>
        </g>
        <path d="M4769.5,540C4769.5,416.829 4736.69,316.829 4696.29,316.829L4315.71,316.829C4275.31,316.829 4242.5,416.829 4242.5,540C4242.5,663.171 4275.31,763.171 4315.71,763.171L4696.29,763.171C4736.69,763.171 4769.5,663.171 4769.5,540ZM4762,540C4762,429.444 4732.56,339.686 4696.29,339.686L4315.71,339.686C4279.44,339.686 4250,429.444 4250,540C4250,650.556 4279.44,740.314 4315.71,740.314L4696.29,740.314C4732.56,740.314 4762,650.556 4762,540Z" style="fill:url(#_Linear4);"/>
    </g>
    <defs>
        <linearGradient id="_Linear2" x1="0" y1="0" x2="1" y2="0" gradientUnits="userSpaceOnUse" gradientTransform="matrix(5.93416e-15,400.627,-96.9121,2.45314e-14,4504.89,339.686)"><stop offset="0" style="stop-color:rgb(220,220,220);stop-opacity:1"/><stop offset="1" style="stop-color:rgb(243,243,243);stop-opacity:1"/></linearGradient>
        <linearGradient id="_Linear4" x1="0" y1="0" x2="1" y2="0" gradientUnits="userSpaceOnUse" gradientTransform="matrix(2.4262e-14,400.627,-396.228,2.45314e-14,4506,339.686)"><stop offset="0" style="stop-color:rgb(119,119,119);stop-opacity:0.75"/><stop offset="1" style="stop-color:rgb(160,160,160);stop-opacity:0.75"/></linearGradient>
    </defs>
</svg>
