<?xml version="1.0" encoding="UTF-8" standalone="no"?>
<!DOCTYPE svg PUBLIC "-//W3C//DTD SVG 1.1//EN" "http://www.w3.org/Graphics/SVG/1.1/DTD/svg11.dtd">
<svg width="100%" height="100%" viewBox="0 0 160 110" version="1.1" xmlns="http://www.w3.org/2000/svg" xmlns:xlink="http://www.w3.org/1999/xlink" xml:space="preserve" style="fill-rule:evenodd;clip-rule:evenodd;stroke-linecap:square;stroke-miterlimit:1.5;">
    <g transform="matrix(0.135895,0,0,0.142242,-591.322,-196.768)">
        <rect x="4351.31" y="1419.1" width="1177.38" height="701.81" style="fill:url(#_Linear1);"/>
    </g>
    <g transform="matrix(0.0833333,0,0,0.165324,-2.22045e-14,-17.438)">
        <g opacity="0.05">
            <g transform="matrix(1,0,0,1,-1990,118)">
                <path d="M1990,24L3910,24" style="fill:none;stroke:black;stroke-width:5.17px;"/>
            </g>
            <g transform="matrix(1,0,0,1,-1990,126)">
                <path d="M1990,24L3910,24" style="fill:none;stroke:black;stroke-width:5.17px;"/>
            </g>
            <g transform="matrix(1,0,0,1,-1990,134)">
                <path d="M1990,24L3910,24" style="fill:none;stroke:black;stroke-width:5.17px;"/>
            </g>
            <g transform="matrix(1,0,0,1,-1990,142)">
                <path d="M1990,24L3910,24" style="fill:none;stroke:black;stroke-width:5.17px;"/>
            </g>
            <g transform="matrix(1,0,0,1,-1990,150)">
                <path d="M1990,24L3910,24" style="fill:none;stroke:black;stroke-width:5.17px;"/>
            </g>
            <g transform="matrix(1,0,0,1,-1990,158)">
                <path d="M1990,24L3910,24" style="fill:none;stroke:black;stroke-width:5.17px;"/>
            </g>
            <g transform="matrix(1,0,0,1,-1990,166)">
                <path d="M1990,24L3910,24" style="fill:none;stroke:black;stroke-width:5.17px;"/>
            </g>
            <g transform="matrix(1,0,0,1,-1990,174)">
                <path d="M1990,24L3910,24" style="fill:none;stroke:black;stroke-width:5.17px;"/>
            </g>
            <g transform="matrix(1,0,0,1,-1990,182)">
                <path d="M1990,24L3910,24" style="fill:none;stroke:black;stroke-width:5.17px;"/>
            </g>
            <g transform="matrix(1,0,0,1,-1990,190)">
                <path d="M1990,24L3910,24" style="fill:none;stroke:black;stroke-width:5.17px;"/>
            </g>
            <g transform="matrix(1,0,0,1,-1990,198)">
                <path d="M1990,24L3910,24" style="fill:none;stroke:black;stroke-width:5.17px;"/>
            </g>
            <g transform="matrix(1,0,0,1,-1990,206)">
                <path d="M1990,24L3910,24" style="fill:none;stroke:black;stroke-width:5.17px;"/>
            </g>
            <g transform="matrix(1,0,0,1,-1990,214)">
                <path d="M1990,24L3910,24" style="fill:none;stroke:black;stroke-width:5.17px;"/>
            </g>
            <g transform="matrix(1,0,0,1,-1990,222)">
                <path d="M1990,24L3910,24" style="fill:none;stroke:black;stroke-width:5.17px;"/>
            </g>
            <g transform="matrix(1,0,0,1,-1990,230)">
                <path d="M1990,24L3910,24" style="fill:none;stroke:black;stroke-width:5.17px;"/>
            </g>
            <g transform="matrix(1,0,0,1,-1990,238)">
                <path d="M1990,24L3910,24" style="fill:none;stroke:black;stroke-width:5.17px;"/>
            </g>
            <g transform="matrix(1,0,0,1,-1990,246)">
                <path d="M1990,24L3910,24" style="fill:none;stroke:black;stroke-width:5.17px;"/>
            </g>
            <g transform="matrix(1,0,0,1,-1990,254)">
                <path d="M1990,24L3910,24" style="fill:none;stroke:black;stroke-width:5.17px;"/>
            </g>
            <g transform="matrix(1,0,0,1,-1990,262)">
                <path d="M1990,24L3910,24" style="fill:none;stroke:black;stroke-width:5.17px;"/>
            </g>
            <g transform="matrix(1,0,0,1,-1990,270)">
                <path d="M1990,24L3910,24" style="fill:none;stroke:black;stroke-width:5.17px;"/>
            </g>
            <g transform="matrix(1,0,0,1,-1990,278)">
                <path d="M1990,24L3910,24" style="fill:none;stroke:black;stroke-width:5.17px;"/>
            </g>
            <g transform="matrix(1,0,0,1,-1990,286)">
                <path d="M1990,24L3910,24" style="fill:none;stroke:black;stroke-width:5.17px;"/>
            </g>
            <g transform="matrix(1,0,0,1,-1990,294)">
                <path d="M1990,24L3910,24" style="fill:none;stroke:black;stroke-width:5.17px;"/>
            </g>
            <g transform="matrix(1,0,0,1,-1990,302)">
                <path d="M1990,24L3910,24" style="fill:none;stroke:black;stroke-width:5.17px;"/>
            </g>
            <g transform="matrix(1,0,0,1,-1990,310)">
                <path d="M1990,24L3910,24" style="fill:none;stroke:black;stroke-width:5.17px;"/>
            </g>
            <g transform="matrix(1,0,0,1,-1990,318)">
                <path d="M1990,24L3910,24" style="fill:none;stroke:black;stroke-width:5.17px;"/>
            </g>
            <g transform="matrix(1,0,0,1,-1990,326)">
                <path d="M1990,24L3910,24" style="fill:none;stroke:black;stroke-width:5.17px;"/>
            </g>
            <g transform="matrix(1,0,0,1,-1990,334)">
                <path d="M1990,24L3910,24" style="fill:none;stroke:black;stroke-width:5.17px;"/>
            </g>
            <g transform="matrix(1,0,0,1,-1990,342)">
                <path d="M1990,24L3910,24" style="fill:none;stroke:black;stroke-width:5.17px;"/>
            </g>
            <g transform="matrix(1,0,0,1,-1990,350)">
                <path d="M1990,24L3910,24" style="fill:none;stroke:black;stroke-width:5.17px;"/>
            </g>
            <g transform="matrix(1,0,0,1,-1990,358)">
                <path d="M1990,24L3910,24" style="fill:none;stroke:black;stroke-width:5.17px;"/>
            </g>
            <g transform="matrix(1,0,0,1,-1990,366)">
                <path d="M1990,24L3910,24" style="fill:none;stroke:black;stroke-width:5.17px;"/>
            </g>
            <g transform="matrix(1,0,0,1,-1990,374)">
                <path d="M1990,24L3910,24" style="fill:none;stroke:black;stroke-width:5.17px;"/>
            </g>
            <g transform="matrix(1,0,0,1,-1990,382)">
                <path d="M1990,24L3910,24" style="fill:none;stroke:black;stroke-width:5.17px;"/>
            </g>
            <g transform="matrix(1,0,0,1,-1990,390)">
                <path d="M1990,24L3910,24" style="fill:none;stroke:black;stroke-width:5.17px;"/>
            </g>
            <g transform="matrix(1,0,0,1,-1990,398)">
                <path d="M1990,24L3910,24" style="fill:none;stroke:black;stroke-width:5.17px;"/>
            </g>
            <g transform="matrix(1,0,0,1,-1990,406)">
                <path d="M1990,24L3910,24" style="fill:none;stroke:black;stroke-width:5.17px;"/>
            </g>
            <g transform="matrix(1,0,0,1,-1990,414)">
                <path d="M1990,24L3910,24" style="fill:none;stroke:black;stroke-width:5.17px;"/>
            </g>
            <g transform="matrix(1,0,0,1,-1990,422)">
                <path d="M1990,24L3910,24" style="fill:none;stroke:black;stroke-width:5.17px;"/>
            </g>
            <g transform="matrix(1,0,0,1,-1990,430)">
                <path d="M1990,24L3910,24" style="fill:none;stroke:black;stroke-width:5.17px;"/>
            </g>
            <g transform="matrix(1,0,0,1,-1990,438)">
                <path d="M1990,24L3910,24" style="fill:none;stroke:black;stroke-width:5.17px;"/>
            </g>
            <g transform="matrix(1,0,0,1,-1990,446)">
                <path d="M1990,24L3910,24" style="fill:none;stroke:black;stroke-width:5.17px;"/>
            </g>
            <g transform="matrix(1,0,0,1,-1990,454)">
                <path d="M1990,24L3910,24" style="fill:none;stroke:black;stroke-width:5.17px;"/>
            </g>
            <g transform="matrix(1,0,0,1,-1990,462)">
                <path d="M1990,24L3910,24" style="fill:none;stroke:black;stroke-width:5.17px;"/>
            </g>
            <g transform="matrix(1,0,0,1,-1990,470)">
                <path d="M1990,24L3910,24" style="fill:none;stroke:black;stroke-width:5.17px;"/>
            </g>
            <g transform="matrix(1,0,0,1,-1990,478)">
                <path d="M1990,24L3910,24" style="fill:none;stroke:black;stroke-width:5.17px;"/>
            </g>
            <g transform="matrix(1,0,0,1,-1990,486)">
                <path d="M1990,24L3910,24" style="fill:none;stroke:black;stroke-width:5.17px;"/>
            </g>
            <g transform="matrix(1,0,0,1,-1990,494)">
                <path d="M1990,24L3910,24" style="fill:none;stroke:black;stroke-width:5.17px;"/>
            </g>
            <g transform="matrix(1,0,0,1,-1990,502)">
                <path d="M1990,24L3910,24" style="fill:none;stroke:black;stroke-width:5.17px;"/>
            </g>
            <g transform="matrix(1,0,0,1,-1990,510)">
                <path d="M1990,24L3910,24" style="fill:none;stroke:black;stroke-width:5.17px;"/>
            </g>
            <g transform="matrix(1,0,0,1,-1990,518)">
                <path d="M1990,24L3910,24" style="fill:none;stroke:black;stroke-width:5.17px;"/>
            </g>
            <g transform="matrix(1,0,0,1,-1990,526)">
                <path d="M1990,24L3910,24" style="fill:none;stroke:black;stroke-width:5.17px;"/>
            </g>
            <g transform="matrix(1,0,0,1,-1990,534)">
                <path d="M1990,24L3910,24" style="fill:none;stroke:black;stroke-width:5.17px;"/>
            </g>
            <g transform="matrix(1,0,0,1,-1990,542)">
                <path d="M1990,24L3910,24" style="fill:none;stroke:black;stroke-width:5.17px;"/>
            </g>
            <g transform="matrix(1,0,0,1,-1990,550)">
                <path d="M1990,24L3910,24" style="fill:none;stroke:black;stroke-width:5.17px;"/>
            </g>
            <g transform="matrix(1,0,0,1,-1990,558)">
                <path d="M1990,24L3910,24" style="fill:none;stroke:black;stroke-width:5.17px;"/>
            </g>
            <g transform="matrix(1,0,0,1,-1990,566)">
                <path d="M1990,24L3910,24" style="fill:none;stroke:black;stroke-width:5.17px;"/>
            </g>
            <g transform="matrix(1,0,0,1,-1990,574)">
                <path d="M1990,24L3910,24" style="fill:none;stroke:black;stroke-width:5.17px;"/>
            </g>
            <g transform="matrix(1,0,0,1,-1990,582)">
                <path d="M1990,24L3910,24" style="fill:none;stroke:black;stroke-width:5.17px;"/>
            </g>
            <g transform="matrix(1,0,0,1,-1990,590)">
                <path d="M1990,24L3910,24" style="fill:none;stroke:black;stroke-width:5.17px;"/>
            </g>
            <g transform="matrix(1,0,0,1,-1990,598)">
                <path d="M1990,24L3910,24" style="fill:none;stroke:black;stroke-width:5.17px;"/>
            </g>
            <g transform="matrix(1,0,0,1,-1990,606)">
                <path d="M1990,24L3910,24" style="fill:none;stroke:black;stroke-width:5.17px;"/>
            </g>
            <g transform="matrix(1,0,0,1,-1990,614)">
                <path d="M1990,24L3910,24" style="fill:none;stroke:black;stroke-width:5.17px;"/>
            </g>
            <g transform="matrix(1,0,0,1,-1990,622)">
                <path d="M1990,24L3910,24" style="fill:none;stroke:black;stroke-width:5.17px;"/>
            </g>
            <g transform="matrix(1,0,0,1,-1990,630)">
                <path d="M1990,24L3910,24" style="fill:none;stroke:black;stroke-width:5.17px;"/>
            </g>
            <g transform="matrix(1,0,0,1,-1990,638)">
                <path d="M1990,24L3910,24" style="fill:none;stroke:black;stroke-width:5.17px;"/>
            </g>
            <g transform="matrix(1,0,0,1,-1990,646)">
                <path d="M1990,24L3910,24" style="fill:none;stroke:black;stroke-width:5.17px;"/>
            </g>
            <g transform="matrix(1,0,0,1,-1990,654)">
                <path d="M1990,24L3910,24" style="fill:none;stroke:black;stroke-width:5.17px;"/>
            </g>
            <g transform="matrix(1,0,0,1,-1990,662)">
                <path d="M1990,24L3910,24" style="fill:none;stroke:black;stroke-width:5.17px;"/>
            </g>
            <g transform="matrix(1,0,0,1,-1990,670)">
                <path d="M1990,24L3910,24" style="fill:none;stroke:black;stroke-width:5.17px;"/>
            </g>
            <g transform="matrix(1,0,0,1,-1990,678)">
                <path d="M1990,24L3910,24" style="fill:none;stroke:black;stroke-width:5.17px;"/>
            </g>
            <g transform="matrix(1,0,0,1,-1990,686)">
                <path d="M1990,24L3910,24" style="fill:none;stroke:black;stroke-width:5.17px;"/>
            </g>
            <g transform="matrix(1,0,0,1,-1990,694)">
                <path d="M1990,24L3910,24" style="fill:none;stroke:black;stroke-width:5.17px;"/>
            </g>
            <g transform="matrix(1,0,0,1,-1990,702)">
                <path d="M1990,24L3910,24" style="fill:none;stroke:black;stroke-width:5.17px;"/>
            </g>
            <g transform="matrix(1,0,0,1,-1990,710)">
                <path d="M1990,24L3910,24" style="fill:none;stroke:black;stroke-width:5.17px;"/>
            </g>
        </g>
    </g>
    <g transform="matrix(0.135895,0,0,0.135661,-591.322,-185.28)">
        <path d="M5528.69,1403.25C5528.69,1382.55 5511.93,1365.76 5491.26,1365.76C5314.61,1365.76 4565.39,1365.76 4388.74,1365.76C4368.07,1365.76 4351.31,1382.55 4351.31,1403.25C4351.31,1403.25 4351.31,1403.26 4351.31,1403.26L5528.69,1403.26L5528.69,1403.25Z" style="fill:rgb(191,191,191);"/>
    </g>
    <g transform="matrix(0.135895,0,0,0.135661,-591.322,-80.3668)">
        <path d="M5528.69,1365.76L4351.31,1365.76L4351.31,1365.76C4351.31,1386.47 4368.07,1403.26 4388.74,1403.26C4565.39,1403.26 5314.61,1403.26 5491.26,1403.26C5511.93,1403.26 5528.69,1386.47 5528.69,1365.76C5528.69,1365.76 5528.69,1365.76 5528.69,1365.76Z" style="fill:rgb(191,191,191);"/>
    </g>
    <defs>
        <linearGradient id="_Linear1" x1="0" y1="0" x2="1" y2="0" gradientUnits="userSpaceOnUse" gradientTransform="matrix(4.29735e-14,701.81,-701.81,4.29735e-14,4937.46,1419.1)"><stop offset="0" style="stop-color:rgb(243,243,243);stop-opacity:1"/><stop offset="1" style="stop-color:rgb(220,220,220);stop-opacity:1"/></linearGradient>
    </defs>
</svg>
