<?xml version="1.0" encoding="UTF-8" standalone="no"?>
<!DOCTYPE svg PUBLIC "-//W3C//DTD SVG 1.1//EN" "http://www.w3.org/Graphics/SVG/1.1/DTD/svg11.dtd">
<svg width="100%" height="100%" viewBox="0 0 754 128" version="1.1" xmlns="http://www.w3.org/2000/svg" xmlns:xlink="http://www.w3.org/1999/xlink" xml:space="preserve" style="fill-rule:evenodd;clip-rule:evenodd;stroke-linejoin:round;stroke-miterlimit:2;">
    <g transform="matrix(0.93712,0,0,0.93712,-4183.84,-1556.98)">
        <g transform="matrix(60.5263,0,0,60.5263,4462.39,1702)">
            <path d="M0.585,-0.478L0.585,-0.479C0.576,-0.527 0.571,-0.609 0.571,-0.642C0.571,-0.649 0.567,-0.651 0.562,-0.651C0.56,-0.651 0.558,-0.651 0.556,-0.65C0.537,-0.638 0.504,-0.636 0.472,-0.636L0.148,-0.636C0.116,-0.636 0.083,-0.638 0.064,-0.65C0.062,-0.651 0.06,-0.651 0.058,-0.651C0.053,-0.651 0.049,-0.649 0.049,-0.642C0.049,-0.609 0.044,-0.527 0.036,-0.479L0.036,-0.477C0.036,-0.472 0.04,-0.47 0.044,-0.47C0.048,-0.47 0.051,-0.472 0.053,-0.476C0.087,-0.563 0.111,-0.605 0.184,-0.605L0.259,-0.605L0.259,-0.062C0.259,-0.039 0.221,-0.018 0.18,-0.018C0.176,-0.018 0.174,-0.014 0.174,-0.01C0.174,-0.005 0.177,-0 0.181,-0C0.211,-0 0.273,-0.007 0.311,-0.007C0.351,-0.007 0.409,-0 0.438,-0C0.442,-0 0.445,-0.005 0.445,-0.01C0.445,-0.014 0.443,-0.018 0.439,-0.018C0.399,-0.018 0.36,-0.039 0.36,-0.062L0.36,-0.605L0.435,-0.605C0.509,-0.605 0.533,-0.563 0.567,-0.476C0.568,-0.472 0.572,-0.47 0.576,-0.47C0.581,-0.47 0.585,-0.473 0.585,-0.478Z" style="fill:rgb(102,102,102);fill-rule:nonzero;"/>
        </g>
        <g transform="matrix(60.5263,0,0,60.5263,4499.91,1702)">
            <path d="M0.515,-0.009C0.515,-0.013 0.513,-0.017 0.508,-0.017C0.462,-0.017 0.455,-0.044 0.455,-0.067L0.455,-0.276C0.455,-0.372 0.414,-0.427 0.314,-0.427C0.263,-0.427 0.217,-0.401 0.186,-0.364L0.186,-0.662C0.186,-0.668 0.18,-0.67 0.176,-0.67C0.174,-0.67 0.172,-0.67 0.171,-0.669C0.151,-0.653 0.085,-0.639 0.049,-0.639C0.046,-0.639 0.044,-0.635 0.044,-0.63C0.044,-0.625 0.046,-0.62 0.051,-0.62C0.095,-0.62 0.096,-0.618 0.096,-0.597L0.096,-0.067C0.096,-0.044 0.088,-0.017 0.044,-0.017C0.039,-0.017 0.036,-0.013 0.036,-0.009C0.036,-0.004 0.039,-0 0.045,-0C0.072,-0 0.111,-0.006 0.142,-0.006C0.171,-0.006 0.21,-0 0.235,-0C0.24,-0 0.243,-0.004 0.243,-0.009C0.243,-0.013 0.24,-0.017 0.235,-0.017C0.192,-0.017 0.185,-0.042 0.185,-0.067L0.185,-0.327C0.211,-0.362 0.245,-0.387 0.292,-0.387C0.335,-0.387 0.364,-0.355 0.364,-0.278L0.364,-0.067C0.364,-0.044 0.358,-0.017 0.313,-0.017C0.307,-0.017 0.304,-0.013 0.304,-0.009C0.304,-0.005 0.307,-0 0.314,-0C0.338,-0 0.379,-0.006 0.411,-0.006C0.442,-0.006 0.48,-0 0.507,-0C0.513,-0 0.515,-0.004 0.515,-0.009Z" style="fill:rgb(102,102,102);fill-rule:nonzero;"/>
        </g>
        <g transform="matrix(60.5263,0,0,60.5263,4533.2,1702)">
            <path d="M0.192,-0.569C0.192,-0.599 0.169,-0.625 0.138,-0.625C0.11,-0.625 0.085,-0.599 0.085,-0.569C0.085,-0.539 0.11,-0.512 0.138,-0.512C0.169,-0.512 0.192,-0.539 0.192,-0.569ZM0.246,-0.009C0.246,-0.013 0.244,-0.017 0.239,-0.017C0.198,-0.017 0.186,-0.043 0.186,-0.067L0.186,-0.419C0.186,-0.425 0.181,-0.427 0.177,-0.427C0.175,-0.427 0.173,-0.427 0.172,-0.426C0.152,-0.41 0.086,-0.396 0.049,-0.396C0.046,-0.396 0.044,-0.392 0.044,-0.387C0.044,-0.382 0.046,-0.377 0.051,-0.377C0.095,-0.377 0.096,-0.375 0.096,-0.353L0.096,-0.067C0.096,-0.043 0.084,-0.017 0.043,-0.017C0.038,-0.017 0.035,-0.013 0.035,-0.009C0.035,-0.004 0.038,-0 0.044,-0C0.071,-0 0.111,-0.006 0.141,-0.006C0.171,-0.006 0.212,-0 0.238,-0C0.244,-0 0.246,-0.004 0.246,-0.009Z" style="fill:rgb(102,102,102);fill-rule:nonzero;"/>
        </g>
        <g transform="matrix(60.5263,0,0,60.5263,4550.09,1702)">
            <path d="M0.381,-0.113C0.381,-0.189 0.337,-0.227 0.242,-0.258C0.139,-0.292 0.117,-0.306 0.117,-0.342C0.117,-0.379 0.158,-0.403 0.214,-0.403C0.274,-0.403 0.317,-0.368 0.341,-0.298C0.342,-0.294 0.345,-0.292 0.348,-0.292C0.351,-0.292 0.354,-0.295 0.354,-0.299L0.354,-0.397C0.354,-0.402 0.35,-0.404 0.345,-0.406C0.304,-0.418 0.261,-0.427 0.202,-0.427C0.118,-0.427 0.058,-0.382 0.058,-0.319C0.058,-0.248 0.089,-0.216 0.17,-0.188C0.282,-0.151 0.314,-0.13 0.314,-0.084C0.314,-0.043 0.274,-0.019 0.207,-0.019C0.142,-0.019 0.089,-0.059 0.069,-0.14C0.069,-0.143 0.066,-0.145 0.063,-0.145C0.06,-0.145 0.057,-0.142 0.057,-0.138L0.057,-0.026C0.057,-0.022 0.06,-0.019 0.064,-0.017C0.098,-0.003 0.159,0.009 0.213,0.009C0.326,0.009 0.381,-0.039 0.381,-0.113Z" style="fill:rgb(102,102,102);fill-rule:nonzero;"/>
        </g>
        <g transform="matrix(60.5263,0,0,60.5263,4594.09,1702)">
            <path d="M0.479,-0.219C0.479,-0.361 0.4,-0.427 0.312,-0.427C0.25,-0.427 0.207,-0.402 0.185,-0.364L0.185,-0.418C0.185,-0.424 0.179,-0.427 0.174,-0.427C0.173,-0.427 0.171,-0.427 0.17,-0.426C0.149,-0.411 0.086,-0.396 0.049,-0.396C0.046,-0.396 0.044,-0.392 0.044,-0.388C0.044,-0.383 0.046,-0.378 0.051,-0.378C0.095,-0.378 0.095,-0.376 0.096,-0.353L0.096,0.132C0.096,0.155 0.084,0.182 0.043,0.182C0.038,0.182 0.036,0.186 0.036,0.19C0.036,0.195 0.038,0.199 0.044,0.199C0.071,0.199 0.112,0.194 0.142,0.194C0.172,0.194 0.216,0.199 0.242,0.199C0.248,0.199 0.25,0.195 0.25,0.19C0.25,0.186 0.248,0.182 0.243,0.182C0.202,0.182 0.186,0.156 0.186,0.132L0.186,-0.028C0.209,-0.008 0.244,0.009 0.29,0.009C0.406,0.009 0.479,-0.088 0.479,-0.219ZM0.386,-0.19C0.386,-0.082 0.352,-0.021 0.275,-0.021C0.24,-0.021 0.201,-0.048 0.183,-0.075L0.183,-0.282C0.183,-0.337 0.222,-0.381 0.273,-0.381C0.349,-0.381 0.386,-0.327 0.386,-0.19Z" style="fill:rgb(102,102,102);fill-rule:nonzero;"/>
        </g>
        <g transform="matrix(60.5263,0,0,60.5263,4626.05,1702)">
            <path d="M0.354,-0.333L0.354,-0.335C0.35,-0.359 0.345,-0.395 0.343,-0.419C0.342,-0.426 0.337,-0.427 0.332,-0.427C0.27,-0.427 0.227,-0.401 0.186,-0.355L0.186,-0.419C0.186,-0.424 0.18,-0.427 0.175,-0.427C0.173,-0.427 0.172,-0.427 0.171,-0.426C0.151,-0.41 0.086,-0.396 0.049,-0.396C0.046,-0.396 0.044,-0.392 0.044,-0.387C0.044,-0.382 0.046,-0.377 0.051,-0.377C0.095,-0.377 0.096,-0.375 0.096,-0.353L0.096,-0.067C0.096,-0.043 0.089,-0.016 0.045,-0.016C0.034,-0.016 0.034,-0 0.045,-0C0.072,-0 0.111,-0.006 0.141,-0.006C0.171,-0.006 0.215,-0 0.24,-0C0.245,-0 0.248,-0.004 0.248,-0.008C0.248,-0.012 0.245,-0.016 0.24,-0.016C0.198,-0.016 0.186,-0.041 0.186,-0.067L0.186,-0.318C0.213,-0.354 0.259,-0.368 0.287,-0.368C0.306,-0.368 0.326,-0.359 0.336,-0.333C0.338,-0.328 0.342,-0.326 0.346,-0.326C0.35,-0.326 0.354,-0.328 0.354,-0.333Z" style="fill:rgb(102,102,102);fill-rule:nonzero;"/>
        </g>
        <g transform="matrix(60.5263,0,0,60.5263,4649.17,1702)">
            <path d="M0.47,-0.21C0.47,-0.348 0.377,-0.427 0.259,-0.427C0.143,-0.427 0.048,-0.348 0.048,-0.21C0.048,-0.073 0.146,0.009 0.259,0.009C0.377,0.009 0.47,-0.073 0.47,-0.21ZM0.377,-0.184C0.377,-0.081 0.342,-0.022 0.271,-0.022C0.173,-0.022 0.142,-0.122 0.142,-0.24C0.142,-0.345 0.178,-0.399 0.25,-0.399C0.328,-0.399 0.377,-0.319 0.377,-0.184Z" style="fill:rgb(102,102,102);fill-rule:nonzero;"/>
        </g>
        <g transform="matrix(60.5263,0,0,60.5263,4680.58,1702)">
            <path d="M0.199,-0.569C0.199,-0.599 0.176,-0.625 0.146,-0.625C0.116,-0.625 0.092,-0.599 0.092,-0.569C0.092,-0.539 0.116,-0.512 0.146,-0.512C0.176,-0.512 0.199,-0.539 0.199,-0.569ZM0.196,0.023L0.196,-0.419C0.196,-0.425 0.19,-0.427 0.185,-0.427C0.184,-0.427 0.182,-0.427 0.181,-0.426C0.16,-0.41 0.094,-0.396 0.058,-0.396C0.055,-0.396 0.053,-0.392 0.053,-0.387C0.053,-0.382 0.055,-0.377 0.06,-0.377C0.104,-0.377 0.105,-0.375 0.105,-0.353L0.105,0.023C0.105,0.128 0.089,0.152 0.049,0.181C0.047,0.183 0.046,0.186 0.046,0.188C0.046,0.193 0.048,0.197 0.054,0.197L0.057,0.197C0.151,0.173 0.196,0.118 0.196,0.023Z" style="fill:rgb(102,102,102);fill-rule:nonzero;"/>
        </g>
        <g transform="matrix(60.5263,0,0,60.5263,4697.89,1702)">
            <path d="M0.43,-0.237C0.43,-0.356 0.357,-0.427 0.254,-0.427C0.134,-0.427 0.048,-0.343 0.048,-0.205C0.048,-0.063 0.144,0.009 0.255,0.009C0.337,0.009 0.395,-0.035 0.422,-0.115C0.423,-0.117 0.423,-0.119 0.423,-0.121C0.423,-0.125 0.421,-0.127 0.418,-0.127C0.415,-0.127 0.41,-0.125 0.407,-0.12C0.377,-0.069 0.342,-0.039 0.277,-0.039C0.193,-0.039 0.147,-0.107 0.143,-0.226L0.42,-0.226C0.428,-0.226 0.43,-0.229 0.43,-0.237ZM0.335,-0.255L0.143,-0.255C0.147,-0.349 0.183,-0.399 0.245,-0.399C0.302,-0.399 0.335,-0.35 0.335,-0.255Z" style="fill:rgb(102,102,102);fill-rule:nonzero;"/>
        </g>
        <g transform="matrix(60.5263,0,0,60.5263,4726.71,1702)">
            <path d="M0.424,-0.13C0.424,-0.134 0.422,-0.137 0.419,-0.137C0.416,-0.137 0.412,-0.134 0.408,-0.128C0.38,-0.075 0.346,-0.039 0.279,-0.039C0.207,-0.039 0.143,-0.099 0.143,-0.237C0.143,-0.343 0.19,-0.399 0.259,-0.399C0.288,-0.399 0.308,-0.393 0.332,-0.376C0.354,-0.362 0.377,-0.318 0.387,-0.278C0.389,-0.272 0.393,-0.269 0.397,-0.269C0.401,-0.269 0.405,-0.272 0.405,-0.278L0.405,-0.375C0.405,-0.386 0.402,-0.389 0.394,-0.393C0.358,-0.415 0.31,-0.427 0.261,-0.427C0.141,-0.427 0.048,-0.343 0.048,-0.205C0.048,-0.063 0.147,0.009 0.257,0.009C0.338,0.009 0.4,-0.043 0.423,-0.123C0.424,-0.126 0.424,-0.128 0.424,-0.13Z" style="fill:rgb(102,102,102);fill-rule:nonzero;"/>
        </g>
        <g transform="matrix(60.5263,0,0,60.5263,4755.21,1702)">
            <path d="M0.303,-0.042C0.303,-0.046 0.301,-0.048 0.297,-0.048C0.295,-0.048 0.293,-0.047 0.29,-0.045C0.275,-0.034 0.254,-0.028 0.232,-0.028C0.205,-0.028 0.186,-0.047 0.186,-0.082L0.186,-0.39L0.277,-0.39C0.283,-0.39 0.286,-0.394 0.286,-0.405C0.286,-0.418 0.283,-0.419 0.277,-0.419L0.186,-0.419L0.186,-0.534C0.186,-0.543 0.181,-0.547 0.173,-0.547C0.165,-0.547 0.16,-0.542 0.159,-0.536C0.152,-0.474 0.098,-0.416 0.033,-0.416C0.023,-0.416 0.021,-0.41 0.021,-0.405L0.021,-0.402C0.023,-0.391 0.028,-0.39 0.034,-0.39L0.096,-0.39L0.096,-0.083C0.096,-0.021 0.139,0.009 0.196,0.009C0.248,0.009 0.277,-0.008 0.3,-0.035C0.302,-0.038 0.303,-0.04 0.303,-0.042Z" style="fill:rgb(102,102,102);fill-rule:nonzero;"/>
        </g>
        <g transform="matrix(60.5263,0,0,60.5263,4793.1,1702)">
            <path d="M0.192,-0.569C0.192,-0.599 0.169,-0.625 0.138,-0.625C0.11,-0.625 0.085,-0.599 0.085,-0.569C0.085,-0.539 0.11,-0.512 0.138,-0.512C0.169,-0.512 0.192,-0.539 0.192,-0.569ZM0.246,-0.009C0.246,-0.013 0.244,-0.017 0.239,-0.017C0.198,-0.017 0.186,-0.043 0.186,-0.067L0.186,-0.419C0.186,-0.425 0.181,-0.427 0.177,-0.427C0.175,-0.427 0.173,-0.427 0.172,-0.426C0.152,-0.41 0.086,-0.396 0.049,-0.396C0.046,-0.396 0.044,-0.392 0.044,-0.387C0.044,-0.382 0.046,-0.377 0.051,-0.377C0.095,-0.377 0.096,-0.375 0.096,-0.353L0.096,-0.067C0.096,-0.043 0.084,-0.017 0.043,-0.017C0.038,-0.017 0.035,-0.013 0.035,-0.009C0.035,-0.004 0.038,-0 0.044,-0C0.071,-0 0.111,-0.006 0.141,-0.006C0.171,-0.006 0.212,-0 0.238,-0C0.244,-0 0.246,-0.004 0.246,-0.009Z" style="fill:rgb(102,102,102);fill-rule:nonzero;"/>
        </g>
        <g transform="matrix(60.5263,0,0,60.5263,4809.99,1702)">
            <path d="M0.381,-0.113C0.381,-0.189 0.337,-0.227 0.242,-0.258C0.139,-0.292 0.117,-0.306 0.117,-0.342C0.117,-0.379 0.158,-0.403 0.214,-0.403C0.274,-0.403 0.317,-0.368 0.341,-0.298C0.342,-0.294 0.345,-0.292 0.348,-0.292C0.351,-0.292 0.354,-0.295 0.354,-0.299L0.354,-0.397C0.354,-0.402 0.35,-0.404 0.345,-0.406C0.304,-0.418 0.261,-0.427 0.202,-0.427C0.118,-0.427 0.058,-0.382 0.058,-0.319C0.058,-0.248 0.089,-0.216 0.17,-0.188C0.282,-0.151 0.314,-0.13 0.314,-0.084C0.314,-0.043 0.274,-0.019 0.207,-0.019C0.142,-0.019 0.089,-0.059 0.069,-0.14C0.069,-0.143 0.066,-0.145 0.063,-0.145C0.06,-0.145 0.057,-0.142 0.057,-0.138L0.057,-0.026C0.057,-0.022 0.06,-0.019 0.064,-0.017C0.098,-0.003 0.159,0.009 0.213,0.009C0.326,0.009 0.381,-0.039 0.381,-0.113Z" style="fill:rgb(102,102,102);fill-rule:nonzero;"/>
        </g>
        <g transform="matrix(60.5263,0,0,60.5263,4853.99,1702)">
            <path d="M0.515,-0.009C0.515,-0.013 0.513,-0.017 0.508,-0.017C0.462,-0.017 0.455,-0.043 0.455,-0.067L0.455,-0.276C0.455,-0.372 0.414,-0.427 0.314,-0.427C0.263,-0.427 0.215,-0.401 0.183,-0.364L0.183,-0.419C0.183,-0.425 0.178,-0.427 0.174,-0.427C0.172,-0.427 0.17,-0.427 0.169,-0.426C0.148,-0.41 0.085,-0.396 0.049,-0.396C0.046,-0.396 0.044,-0.392 0.044,-0.387C0.044,-0.382 0.046,-0.377 0.051,-0.377C0.095,-0.377 0.096,-0.375 0.096,-0.353L0.096,-0.067C0.096,-0.043 0.088,-0.017 0.044,-0.017C0.039,-0.017 0.036,-0.013 0.036,-0.009C0.036,-0.004 0.039,-0 0.045,-0C0.072,-0 0.111,-0.006 0.141,-0.006C0.171,-0.006 0.21,-0 0.235,-0C0.24,-0 0.243,-0.004 0.243,-0.009C0.243,-0.013 0.24,-0.017 0.235,-0.017C0.192,-0.017 0.185,-0.04 0.185,-0.067L0.185,-0.327C0.211,-0.362 0.245,-0.387 0.292,-0.387C0.335,-0.387 0.364,-0.355 0.364,-0.278L0.364,-0.067C0.364,-0.043 0.358,-0.017 0.313,-0.017C0.307,-0.017 0.304,-0.013 0.304,-0.009C0.304,-0.004 0.307,-0 0.313,-0C0.338,-0 0.379,-0.006 0.411,-0.006C0.441,-0.006 0.48,-0 0.507,-0C0.513,-0 0.515,-0.004 0.515,-0.009Z" style="fill:rgb(102,102,102);fill-rule:nonzero;"/>
        </g>
        <g transform="matrix(60.5263,0,0,60.5263,4887.1,1702)">
            <path d="M0.47,-0.21C0.47,-0.348 0.377,-0.427 0.259,-0.427C0.143,-0.427 0.048,-0.348 0.048,-0.21C0.048,-0.073 0.146,0.009 0.259,0.009C0.377,0.009 0.47,-0.073 0.47,-0.21ZM0.377,-0.184C0.377,-0.081 0.342,-0.022 0.271,-0.022C0.173,-0.022 0.142,-0.122 0.142,-0.24C0.142,-0.345 0.178,-0.399 0.25,-0.399C0.328,-0.399 0.377,-0.319 0.377,-0.184Z" style="fill:rgb(102,102,102);fill-rule:nonzero;"/>
        </g>
        <g transform="matrix(60.5263,0,0,60.5263,4918.51,1702)">
            <path d="M0.303,-0.042C0.303,-0.046 0.301,-0.048 0.297,-0.048C0.295,-0.048 0.293,-0.047 0.29,-0.045C0.275,-0.034 0.254,-0.028 0.232,-0.028C0.205,-0.028 0.186,-0.047 0.186,-0.082L0.186,-0.39L0.277,-0.39C0.283,-0.39 0.286,-0.394 0.286,-0.405C0.286,-0.418 0.283,-0.419 0.277,-0.419L0.186,-0.419L0.186,-0.534C0.186,-0.543 0.181,-0.547 0.173,-0.547C0.165,-0.547 0.16,-0.542 0.159,-0.536C0.152,-0.474 0.098,-0.416 0.033,-0.416C0.023,-0.416 0.021,-0.41 0.021,-0.405L0.021,-0.402C0.023,-0.391 0.028,-0.39 0.034,-0.39L0.096,-0.39L0.096,-0.083C0.096,-0.021 0.139,0.009 0.196,0.009C0.248,0.009 0.277,-0.008 0.3,-0.035C0.302,-0.038 0.303,-0.04 0.303,-0.042Z" style="fill:rgb(102,102,102);fill-rule:nonzero;"/>
        </g>
        <g transform="matrix(60.5263,0,0,60.5263,4956.4,1702)">
            <path d="M0.467,-0.569C0.467,-0.599 0.444,-0.625 0.413,-0.625C0.385,-0.625 0.36,-0.599 0.36,-0.569C0.36,-0.539 0.385,-0.512 0.413,-0.512C0.444,-0.512 0.467,-0.539 0.467,-0.569ZM0.313,-0.573L0.313,-0.646C0.313,-0.654 0.309,-0.654 0.304,-0.654L0.246,-0.654C0.151,-0.654 0.097,-0.588 0.097,-0.494L0.097,-0.419L0.037,-0.419C0.031,-0.419 0.03,-0.413 0.03,-0.404C0.03,-0.397 0.033,-0.39 0.037,-0.39L0.097,-0.39L0.097,-0.067C0.097,-0.036 0.075,-0.016 0.035,-0.016C0.031,-0.016 0.029,-0.013 0.029,-0.009C0.029,-0.005 0.032,-0 0.036,-0C0.061,-0 0.111,-0.006 0.145,-0.006C0.18,-0.006 0.231,-0 0.255,-0C0.259,-0 0.261,-0.004 0.261,-0.008C0.261,-0.012 0.259,-0.016 0.256,-0.016C0.217,-0.016 0.187,-0.037 0.187,-0.067L0.187,-0.39L0.258,-0.39C0.261,-0.39 0.264,-0.396 0.264,-0.404C0.264,-0.414 0.261,-0.419 0.258,-0.419L0.187,-0.419L0.187,-0.488C0.187,-0.586 0.206,-0.627 0.244,-0.627C0.271,-0.627 0.286,-0.614 0.297,-0.572C0.299,-0.567 0.303,-0.564 0.306,-0.564C0.31,-0.564 0.313,-0.567 0.313,-0.573ZM0.521,-0.009C0.521,-0.013 0.519,-0.017 0.514,-0.017C0.473,-0.017 0.461,-0.043 0.461,-0.067L0.461,-0.419C0.461,-0.425 0.456,-0.427 0.452,-0.427C0.45,-0.427 0.448,-0.427 0.447,-0.426C0.427,-0.41 0.361,-0.396 0.324,-0.396C0.321,-0.396 0.319,-0.392 0.319,-0.387C0.319,-0.382 0.321,-0.377 0.326,-0.377C0.37,-0.377 0.371,-0.375 0.371,-0.353L0.371,-0.067C0.371,-0.043 0.359,-0.017 0.318,-0.017C0.313,-0.017 0.31,-0.013 0.31,-0.009C0.31,-0.004 0.313,-0 0.319,-0C0.346,-0 0.386,-0.006 0.416,-0.006C0.446,-0.006 0.487,-0 0.513,-0C0.519,-0 0.521,-0.004 0.521,-0.009Z" style="fill:rgb(102,102,102);fill-rule:nonzero;"/>
        </g>
        <g transform="matrix(60.5263,0,0,60.5263,4989.93,1702)">
            <path d="M0.515,-0.009C0.515,-0.013 0.513,-0.017 0.508,-0.017C0.462,-0.017 0.455,-0.043 0.455,-0.067L0.455,-0.276C0.455,-0.372 0.414,-0.427 0.314,-0.427C0.263,-0.427 0.215,-0.401 0.183,-0.364L0.183,-0.419C0.183,-0.425 0.178,-0.427 0.174,-0.427C0.172,-0.427 0.17,-0.427 0.169,-0.426C0.148,-0.41 0.085,-0.396 0.049,-0.396C0.046,-0.396 0.044,-0.392 0.044,-0.387C0.044,-0.382 0.046,-0.377 0.051,-0.377C0.095,-0.377 0.096,-0.375 0.096,-0.353L0.096,-0.067C0.096,-0.043 0.088,-0.017 0.044,-0.017C0.039,-0.017 0.036,-0.013 0.036,-0.009C0.036,-0.004 0.039,-0 0.045,-0C0.072,-0 0.111,-0.006 0.141,-0.006C0.171,-0.006 0.21,-0 0.235,-0C0.24,-0 0.243,-0.004 0.243,-0.009C0.243,-0.013 0.24,-0.017 0.235,-0.017C0.192,-0.017 0.185,-0.04 0.185,-0.067L0.185,-0.327C0.211,-0.362 0.245,-0.387 0.292,-0.387C0.335,-0.387 0.364,-0.355 0.364,-0.278L0.364,-0.067C0.364,-0.043 0.358,-0.017 0.313,-0.017C0.307,-0.017 0.304,-0.013 0.304,-0.009C0.304,-0.004 0.307,-0 0.313,-0C0.338,-0 0.379,-0.006 0.411,-0.006C0.441,-0.006 0.48,-0 0.507,-0C0.513,-0 0.515,-0.004 0.515,-0.009Z" style="fill:rgb(102,102,102);fill-rule:nonzero;"/>
        </g>
        <g transform="matrix(60.5263,0,0,60.5263,5023.04,1702)">
            <path d="M0.192,-0.569C0.192,-0.599 0.169,-0.625 0.138,-0.625C0.11,-0.625 0.085,-0.599 0.085,-0.569C0.085,-0.539 0.11,-0.512 0.138,-0.512C0.169,-0.512 0.192,-0.539 0.192,-0.569ZM0.246,-0.009C0.246,-0.013 0.244,-0.017 0.239,-0.017C0.198,-0.017 0.186,-0.043 0.186,-0.067L0.186,-0.419C0.186,-0.425 0.181,-0.427 0.177,-0.427C0.175,-0.427 0.173,-0.427 0.172,-0.426C0.152,-0.41 0.086,-0.396 0.049,-0.396C0.046,-0.396 0.044,-0.392 0.044,-0.387C0.044,-0.382 0.046,-0.377 0.051,-0.377C0.095,-0.377 0.096,-0.375 0.096,-0.353L0.096,-0.067C0.096,-0.043 0.084,-0.017 0.043,-0.017C0.038,-0.017 0.035,-0.013 0.035,-0.009C0.035,-0.004 0.038,-0 0.044,-0C0.071,-0 0.111,-0.006 0.141,-0.006C0.171,-0.006 0.212,-0 0.238,-0C0.244,-0 0.246,-0.004 0.246,-0.009Z" style="fill:rgb(102,102,102);fill-rule:nonzero;"/>
        </g>
        <g transform="matrix(60.5263,0,0,60.5263,5039.93,1702)">
            <path d="M0.381,-0.113C0.381,-0.189 0.337,-0.227 0.242,-0.258C0.139,-0.292 0.117,-0.306 0.117,-0.342C0.117,-0.379 0.158,-0.403 0.214,-0.403C0.274,-0.403 0.317,-0.368 0.341,-0.298C0.342,-0.294 0.345,-0.292 0.348,-0.292C0.351,-0.292 0.354,-0.295 0.354,-0.299L0.354,-0.397C0.354,-0.402 0.35,-0.404 0.345,-0.406C0.304,-0.418 0.261,-0.427 0.202,-0.427C0.118,-0.427 0.058,-0.382 0.058,-0.319C0.058,-0.248 0.089,-0.216 0.17,-0.188C0.282,-0.151 0.314,-0.13 0.314,-0.084C0.314,-0.043 0.274,-0.019 0.207,-0.019C0.142,-0.019 0.089,-0.059 0.069,-0.14C0.069,-0.143 0.066,-0.145 0.063,-0.145C0.06,-0.145 0.057,-0.142 0.057,-0.138L0.057,-0.026C0.057,-0.022 0.06,-0.019 0.064,-0.017C0.098,-0.003 0.159,0.009 0.213,0.009C0.326,0.009 0.381,-0.039 0.381,-0.113Z" style="fill:rgb(102,102,102);fill-rule:nonzero;"/>
        </g>
        <g transform="matrix(60.5263,0,0,60.5263,5065.96,1702)">
            <path d="M0.515,-0.009C0.515,-0.013 0.513,-0.017 0.508,-0.017C0.462,-0.017 0.455,-0.044 0.455,-0.067L0.455,-0.276C0.455,-0.372 0.414,-0.427 0.314,-0.427C0.263,-0.427 0.217,-0.401 0.186,-0.364L0.186,-0.662C0.186,-0.668 0.18,-0.67 0.176,-0.67C0.174,-0.67 0.172,-0.67 0.171,-0.669C0.151,-0.653 0.085,-0.639 0.049,-0.639C0.046,-0.639 0.044,-0.635 0.044,-0.63C0.044,-0.625 0.046,-0.62 0.051,-0.62C0.095,-0.62 0.096,-0.618 0.096,-0.597L0.096,-0.067C0.096,-0.044 0.088,-0.017 0.044,-0.017C0.039,-0.017 0.036,-0.013 0.036,-0.009C0.036,-0.004 0.039,-0 0.045,-0C0.072,-0 0.111,-0.006 0.142,-0.006C0.171,-0.006 0.21,-0 0.235,-0C0.24,-0 0.243,-0.004 0.243,-0.009C0.243,-0.013 0.24,-0.017 0.235,-0.017C0.192,-0.017 0.185,-0.042 0.185,-0.067L0.185,-0.327C0.211,-0.362 0.245,-0.387 0.292,-0.387C0.335,-0.387 0.364,-0.355 0.364,-0.278L0.364,-0.067C0.364,-0.044 0.358,-0.017 0.313,-0.017C0.307,-0.017 0.304,-0.013 0.304,-0.009C0.304,-0.005 0.307,-0 0.314,-0C0.338,-0 0.379,-0.006 0.411,-0.006C0.442,-0.006 0.48,-0 0.507,-0C0.513,-0 0.515,-0.004 0.515,-0.009Z" style="fill:rgb(102,102,102);fill-rule:nonzero;"/>
        </g>
        <g transform="matrix(60.5263,0,0,60.5263,5099.24,1702)">
            <path d="M0.43,-0.237C0.43,-0.356 0.357,-0.427 0.254,-0.427C0.134,-0.427 0.048,-0.343 0.048,-0.205C0.048,-0.063 0.144,0.009 0.255,0.009C0.337,0.009 0.395,-0.035 0.422,-0.115C0.423,-0.117 0.423,-0.119 0.423,-0.121C0.423,-0.125 0.421,-0.127 0.418,-0.127C0.415,-0.127 0.41,-0.125 0.407,-0.12C0.377,-0.069 0.342,-0.039 0.277,-0.039C0.193,-0.039 0.147,-0.107 0.143,-0.226L0.42,-0.226C0.428,-0.226 0.43,-0.229 0.43,-0.237ZM0.335,-0.255L0.143,-0.255C0.147,-0.349 0.183,-0.399 0.245,-0.399C0.302,-0.399 0.335,-0.35 0.335,-0.255Z" style="fill:rgb(102,102,102);fill-rule:nonzero;"/>
        </g>
        <g transform="matrix(60.5263,0,0,60.5263,5128.06,1702)">
            <path d="M0.491,-0.031C0.491,-0.036 0.489,-0.041 0.484,-0.041C0.44,-0.041 0.434,-0.043 0.434,-0.065L0.434,-0.661C0.434,-0.667 0.429,-0.67 0.424,-0.67C0.422,-0.67 0.42,-0.669 0.419,-0.668C0.399,-0.652 0.333,-0.638 0.297,-0.638C0.294,-0.638 0.292,-0.634 0.292,-0.63C0.292,-0.625 0.294,-0.62 0.299,-0.62C0.342,-0.62 0.344,-0.618 0.344,-0.596L0.344,-0.392C0.32,-0.415 0.29,-0.427 0.241,-0.427C0.125,-0.427 0.048,-0.33 0.048,-0.199C0.048,-0.057 0.13,0.009 0.218,0.009C0.282,0.009 0.326,-0.017 0.346,-0.054L0.346,-0C0.346,0.006 0.351,0.01 0.357,0.01C0.358,0.01 0.36,0.009 0.362,0.008C0.383,-0.008 0.449,-0.023 0.486,-0.023C0.489,-0.023 0.491,-0.027 0.491,-0.031ZM0.346,-0.134C0.346,-0.08 0.309,-0.034 0.256,-0.034C0.181,-0.034 0.141,-0.09 0.141,-0.228C0.141,-0.336 0.179,-0.398 0.256,-0.398C0.294,-0.398 0.33,-0.374 0.346,-0.338L0.346,-0.134Z" style="fill:rgb(102,102,102);fill-rule:nonzero;"/>
        </g>
        <g transform="matrix(60.5263,0,0,60.5263,5178.11,1702)">
            <path d="M0.489,-0.41C0.489,-0.415 0.487,-0.419 0.482,-0.419C0.459,-0.419 0.429,-0.415 0.404,-0.415C0.375,-0.415 0.344,-0.419 0.322,-0.419C0.317,-0.419 0.314,-0.414 0.314,-0.41C0.314,-0.406 0.317,-0.402 0.322,-0.402C0.357,-0.4 0.377,-0.386 0.377,-0.361C0.377,-0.353 0.375,-0.343 0.37,-0.332L0.287,-0.121L0.169,-0.369C0.168,-0.372 0.167,-0.375 0.167,-0.378C0.167,-0.391 0.178,-0.402 0.207,-0.402C0.215,-0.402 0.215,-0.419 0.207,-0.419C0.175,-0.419 0.137,-0.415 0.11,-0.415C0.082,-0.415 0.043,-0.419 0.013,-0.419C0.004,-0.419 0.004,-0.401 0.013,-0.401C0.034,-0.401 0.056,-0.395 0.065,-0.376L0.24,-0.003L0.21,0.071C0.192,0.116 0.165,0.135 0.145,0.135C0.115,0.135 0.088,0.107 0.07,0.068C0.068,0.064 0.064,0.061 0.061,0.061C0.058,0.061 0.055,0.064 0.055,0.07L0.055,0.154C0.055,0.16 0.06,0.162 0.065,0.163C0.082,0.165 0.113,0.165 0.141,0.165C0.183,0.165 0.215,0.146 0.239,0.086L0.41,-0.336C0.425,-0.371 0.453,-0.4 0.482,-0.402C0.487,-0.402 0.489,-0.406 0.489,-0.41Z" style="fill:rgb(102,102,102);fill-rule:nonzero;"/>
        </g>
        <g transform="matrix(60.5263,0,0,60.5263,5207.95,1702)">
            <path d="M0.43,-0.237C0.43,-0.356 0.357,-0.427 0.254,-0.427C0.134,-0.427 0.048,-0.343 0.048,-0.205C0.048,-0.063 0.144,0.009 0.255,0.009C0.337,0.009 0.395,-0.035 0.422,-0.115C0.423,-0.117 0.423,-0.119 0.423,-0.121C0.423,-0.125 0.421,-0.127 0.418,-0.127C0.415,-0.127 0.41,-0.125 0.407,-0.12C0.377,-0.069 0.342,-0.039 0.277,-0.039C0.193,-0.039 0.147,-0.107 0.143,-0.226L0.42,-0.226C0.428,-0.226 0.43,-0.229 0.43,-0.237ZM0.335,-0.255L0.143,-0.255C0.147,-0.349 0.183,-0.399 0.245,-0.399C0.302,-0.399 0.335,-0.35 0.335,-0.255Z" style="fill:rgb(102,102,102);fill-rule:nonzero;"/>
        </g>
        <g transform="matrix(60.5263,0,0,60.5263,5236.76,1702)">
            <path d="M0.303,-0.042C0.303,-0.046 0.301,-0.048 0.297,-0.048C0.295,-0.048 0.293,-0.047 0.29,-0.045C0.275,-0.034 0.254,-0.028 0.232,-0.028C0.205,-0.028 0.186,-0.047 0.186,-0.082L0.186,-0.39L0.277,-0.39C0.283,-0.39 0.286,-0.394 0.286,-0.405C0.286,-0.418 0.283,-0.419 0.277,-0.419L0.186,-0.419L0.186,-0.534C0.186,-0.543 0.181,-0.547 0.173,-0.547C0.165,-0.547 0.16,-0.542 0.159,-0.536C0.152,-0.474 0.098,-0.416 0.033,-0.416C0.023,-0.416 0.021,-0.41 0.021,-0.405L0.021,-0.402C0.023,-0.391 0.028,-0.39 0.034,-0.39L0.096,-0.39L0.096,-0.083C0.096,-0.021 0.139,0.009 0.196,0.009C0.248,0.009 0.277,-0.008 0.3,-0.035C0.302,-0.038 0.303,-0.04 0.303,-0.042Z" style="fill:rgb(102,102,102);fill-rule:nonzero;"/>
        </g>
        <g transform="matrix(60.5263,0,0,60.5263,5256.67,1702)">
            <path d="M0.204,-0.053C0.204,-0.089 0.178,-0.114 0.149,-0.114C0.123,-0.114 0.096,-0.089 0.096,-0.053C0.096,-0.025 0.123,0.002 0.149,0.002C0.178,0.002 0.204,-0.025 0.204,-0.053Z" style="fill:rgb(102,102,102);fill-rule:nonzero;"/>
        </g>
        <g transform="matrix(60.5263,0,0,60.5263,4523.06,1785.79)">
            <path d="M0.664,0.001C0.664,-0.003 0.661,-0.007 0.656,-0.007C0.611,-0.011 0.578,-0.033 0.54,-0.085C0.492,-0.149 0.441,-0.256 0.406,-0.303C0.493,-0.312 0.554,-0.379 0.554,-0.465C0.554,-0.588 0.459,-0.642 0.346,-0.642C0.228,-0.642 0.179,-0.636 0.051,-0.636C0.047,-0.636 0.045,-0.631 0.045,-0.627C0.045,-0.623 0.047,-0.618 0.051,-0.618C0.099,-0.612 0.116,-0.599 0.116,-0.572L0.116,-0.075C0.116,-0.05 0.088,-0.019 0.042,-0.018C0.038,-0.018 0.036,-0.014 0.036,-0.01C0.036,-0.006 0.039,-0 0.043,-0C0.072,-0 0.13,-0.007 0.17,-0.007C0.207,-0.007 0.273,-0 0.306,-0C0.311,-0 0.314,-0.004 0.314,-0.009C0.314,-0.013 0.311,-0.018 0.307,-0.018C0.264,-0.02 0.215,-0.05 0.215,-0.075L0.215,-0.302C0.25,-0.299 0.272,-0.295 0.302,-0.295C0.321,-0.278 0.404,-0.115 0.433,-0.075C0.478,-0.012 0.53,0.009 0.655,0.009C0.661,0.009 0.664,0.005 0.664,0.001ZM0.458,-0.468C0.458,-0.383 0.411,-0.33 0.316,-0.33C0.239,-0.33 0.215,-0.335 0.215,-0.351L0.215,-0.601C0.239,-0.608 0.28,-0.61 0.3,-0.61C0.403,-0.61 0.458,-0.562 0.458,-0.468Z" style="fill:rgb(102,102,102);fill-rule:nonzero;"/>
        </g>
        <g transform="matrix(60.5263,0,0,60.5263,4562.89,1785.79)">
            <path d="M0.43,-0.237C0.43,-0.356 0.357,-0.427 0.254,-0.427C0.134,-0.427 0.048,-0.343 0.048,-0.205C0.048,-0.063 0.144,0.009 0.255,0.009C0.337,0.009 0.395,-0.035 0.422,-0.115C0.423,-0.117 0.423,-0.119 0.423,-0.121C0.423,-0.125 0.421,-0.127 0.418,-0.127C0.415,-0.127 0.41,-0.125 0.407,-0.12C0.377,-0.069 0.342,-0.039 0.277,-0.039C0.193,-0.039 0.147,-0.107 0.143,-0.226L0.42,-0.226C0.428,-0.226 0.43,-0.229 0.43,-0.237ZM0.335,-0.255L0.143,-0.255C0.147,-0.349 0.183,-0.399 0.245,-0.399C0.302,-0.399 0.335,-0.35 0.335,-0.255Z" style="fill:rgb(102,102,102);fill-rule:nonzero;"/>
        </g>
        <g transform="matrix(60.5263,0,0,60.5263,4591.7,1785.79)">
            <path d="M0.303,-0.042C0.303,-0.046 0.301,-0.048 0.297,-0.048C0.295,-0.048 0.293,-0.047 0.29,-0.045C0.275,-0.034 0.254,-0.028 0.232,-0.028C0.205,-0.028 0.186,-0.047 0.186,-0.082L0.186,-0.39L0.277,-0.39C0.283,-0.39 0.286,-0.394 0.286,-0.405C0.286,-0.418 0.283,-0.419 0.277,-0.419L0.186,-0.419L0.186,-0.534C0.186,-0.543 0.181,-0.547 0.173,-0.547C0.165,-0.547 0.16,-0.542 0.159,-0.536C0.152,-0.474 0.098,-0.416 0.033,-0.416C0.023,-0.416 0.021,-0.41 0.021,-0.405L0.021,-0.402C0.023,-0.391 0.028,-0.39 0.034,-0.39L0.096,-0.39L0.096,-0.083C0.096,-0.021 0.139,0.009 0.196,0.009C0.248,0.009 0.277,-0.008 0.3,-0.035C0.302,-0.038 0.303,-0.04 0.303,-0.042Z" style="fill:rgb(102,102,102);fill-rule:nonzero;"/>
        </g>
        <g transform="matrix(60.5263,0,0,60.5263,4611.61,1785.79)">
            <path d="M0.519,-0.031C0.519,-0.036 0.517,-0.041 0.512,-0.041C0.468,-0.041 0.462,-0.043 0.462,-0.064L0.462,-0.402C0.462,-0.415 0.458,-0.419 0.448,-0.419L0.323,-0.419C0.312,-0.419 0.312,-0.401 0.323,-0.401C0.366,-0.401 0.373,-0.377 0.373,-0.352L0.373,-0.093C0.347,-0.058 0.31,-0.033 0.265,-0.033C0.22,-0.033 0.186,-0.063 0.186,-0.143L0.186,-0.402C0.186,-0.416 0.18,-0.419 0.17,-0.419L0.047,-0.419C0.042,-0.419 0.04,-0.414 0.04,-0.409C0.04,-0.405 0.042,-0.401 0.046,-0.401C0.092,-0.401 0.096,-0.376 0.096,-0.352L0.096,-0.144C0.096,-0.047 0.14,0.009 0.241,0.009C0.295,0.009 0.341,-0.017 0.375,-0.054L0.375,0.001C0.375,0.007 0.38,0.009 0.384,0.009C0.386,0.009 0.388,0.009 0.389,0.008C0.41,-0.008 0.478,-0.022 0.514,-0.022C0.517,-0.022 0.519,-0.026 0.519,-0.031Z" style="fill:rgb(102,102,102);fill-rule:nonzero;"/>
        </g>
        <g transform="matrix(60.5263,0,0,60.5263,4645.45,1785.79)">
            <path d="M0.354,-0.333L0.354,-0.335C0.35,-0.359 0.345,-0.395 0.343,-0.419C0.342,-0.426 0.337,-0.427 0.332,-0.427C0.27,-0.427 0.227,-0.401 0.186,-0.355L0.186,-0.419C0.186,-0.424 0.18,-0.427 0.175,-0.427C0.173,-0.427 0.172,-0.427 0.171,-0.426C0.151,-0.41 0.086,-0.396 0.049,-0.396C0.046,-0.396 0.044,-0.392 0.044,-0.387C0.044,-0.382 0.046,-0.377 0.051,-0.377C0.095,-0.377 0.096,-0.375 0.096,-0.353L0.096,-0.067C0.096,-0.043 0.089,-0.016 0.045,-0.016C0.034,-0.016 0.034,-0 0.045,-0C0.072,-0 0.111,-0.006 0.141,-0.006C0.171,-0.006 0.215,-0 0.24,-0C0.245,-0 0.248,-0.004 0.248,-0.008C0.248,-0.012 0.245,-0.016 0.24,-0.016C0.198,-0.016 0.186,-0.041 0.186,-0.067L0.186,-0.318C0.213,-0.354 0.259,-0.368 0.287,-0.368C0.306,-0.368 0.326,-0.359 0.336,-0.333C0.338,-0.328 0.342,-0.326 0.346,-0.326C0.35,-0.326 0.354,-0.328 0.354,-0.333Z" style="fill:rgb(102,102,102);fill-rule:nonzero;"/>
        </g>
        <g transform="matrix(60.5263,0,0,60.5263,4668.57,1785.79)">
            <path d="M0.515,-0.009C0.515,-0.013 0.513,-0.017 0.508,-0.017C0.462,-0.017 0.455,-0.043 0.455,-0.067L0.455,-0.276C0.455,-0.372 0.414,-0.427 0.314,-0.427C0.263,-0.427 0.215,-0.401 0.183,-0.364L0.183,-0.419C0.183,-0.425 0.178,-0.427 0.174,-0.427C0.172,-0.427 0.17,-0.427 0.169,-0.426C0.148,-0.41 0.085,-0.396 0.049,-0.396C0.046,-0.396 0.044,-0.392 0.044,-0.387C0.044,-0.382 0.046,-0.377 0.051,-0.377C0.095,-0.377 0.096,-0.375 0.096,-0.353L0.096,-0.067C0.096,-0.043 0.088,-0.017 0.044,-0.017C0.039,-0.017 0.036,-0.013 0.036,-0.009C0.036,-0.004 0.039,-0 0.045,-0C0.072,-0 0.111,-0.006 0.141,-0.006C0.171,-0.006 0.21,-0 0.235,-0C0.24,-0 0.243,-0.004 0.243,-0.009C0.243,-0.013 0.24,-0.017 0.235,-0.017C0.192,-0.017 0.185,-0.04 0.185,-0.067L0.185,-0.327C0.211,-0.362 0.245,-0.387 0.292,-0.387C0.335,-0.387 0.364,-0.355 0.364,-0.278L0.364,-0.067C0.364,-0.043 0.358,-0.017 0.313,-0.017C0.307,-0.017 0.304,-0.013 0.304,-0.009C0.304,-0.004 0.307,-0 0.313,-0C0.338,-0 0.379,-0.006 0.411,-0.006C0.441,-0.006 0.48,-0 0.507,-0C0.513,-0 0.515,-0.004 0.515,-0.009Z" style="fill:rgb(102,102,102);fill-rule:nonzero;"/>
        </g>
        <g transform="matrix(60.5263,0,0,60.5263,4719.65,1785.79)">
            <path d="M0.303,-0.042C0.303,-0.046 0.301,-0.048 0.297,-0.048C0.295,-0.048 0.293,-0.047 0.29,-0.045C0.275,-0.034 0.254,-0.028 0.232,-0.028C0.205,-0.028 0.186,-0.047 0.186,-0.082L0.186,-0.39L0.277,-0.39C0.283,-0.39 0.286,-0.394 0.286,-0.405C0.286,-0.418 0.283,-0.419 0.277,-0.419L0.186,-0.419L0.186,-0.534C0.186,-0.543 0.181,-0.547 0.173,-0.547C0.165,-0.547 0.16,-0.542 0.159,-0.536C0.152,-0.474 0.098,-0.416 0.033,-0.416C0.023,-0.416 0.021,-0.41 0.021,-0.405L0.021,-0.402C0.023,-0.391 0.028,-0.39 0.034,-0.39L0.096,-0.39L0.096,-0.083C0.096,-0.021 0.139,0.009 0.196,0.009C0.248,0.009 0.277,-0.008 0.3,-0.035C0.302,-0.038 0.303,-0.04 0.303,-0.042Z" style="fill:rgb(102,102,102);fill-rule:nonzero;"/>
        </g>
        <g transform="matrix(60.5263,0,0,60.5263,4739.57,1785.79)">
            <path d="M0.47,-0.21C0.47,-0.348 0.377,-0.427 0.259,-0.427C0.143,-0.427 0.048,-0.348 0.048,-0.21C0.048,-0.073 0.146,0.009 0.259,0.009C0.377,0.009 0.47,-0.073 0.47,-0.21ZM0.377,-0.184C0.377,-0.081 0.342,-0.022 0.271,-0.022C0.173,-0.022 0.142,-0.122 0.142,-0.24C0.142,-0.345 0.178,-0.399 0.25,-0.399C0.328,-0.399 0.377,-0.319 0.377,-0.184Z" style="fill:rgb(102,102,102);fill-rule:nonzero;"/>
        </g>
        <g transform="matrix(60.5263,0,0,60.5263,4788.96,1785.79)">
            <path d="M0.303,-0.042C0.303,-0.046 0.301,-0.048 0.297,-0.048C0.295,-0.048 0.293,-0.047 0.29,-0.045C0.275,-0.034 0.254,-0.028 0.232,-0.028C0.205,-0.028 0.186,-0.047 0.186,-0.082L0.186,-0.39L0.277,-0.39C0.283,-0.39 0.286,-0.394 0.286,-0.405C0.286,-0.418 0.283,-0.419 0.277,-0.419L0.186,-0.419L0.186,-0.534C0.186,-0.543 0.181,-0.547 0.173,-0.547C0.165,-0.547 0.16,-0.542 0.159,-0.536C0.152,-0.474 0.098,-0.416 0.033,-0.416C0.023,-0.416 0.021,-0.41 0.021,-0.405L0.021,-0.402C0.023,-0.391 0.028,-0.39 0.034,-0.39L0.096,-0.39L0.096,-0.083C0.096,-0.021 0.139,0.009 0.196,0.009C0.248,0.009 0.277,-0.008 0.3,-0.035C0.302,-0.038 0.303,-0.04 0.303,-0.042Z" style="fill:rgb(102,102,102);fill-rule:nonzero;"/>
        </g>
        <g transform="matrix(60.5263,0,0,60.5263,4808.87,1785.79)">
            <path d="M0.515,-0.009C0.515,-0.013 0.513,-0.017 0.508,-0.017C0.462,-0.017 0.455,-0.044 0.455,-0.067L0.455,-0.276C0.455,-0.372 0.414,-0.427 0.314,-0.427C0.263,-0.427 0.217,-0.401 0.186,-0.364L0.186,-0.662C0.186,-0.668 0.18,-0.67 0.176,-0.67C0.174,-0.67 0.172,-0.67 0.171,-0.669C0.151,-0.653 0.085,-0.639 0.049,-0.639C0.046,-0.639 0.044,-0.635 0.044,-0.63C0.044,-0.625 0.046,-0.62 0.051,-0.62C0.095,-0.62 0.096,-0.618 0.096,-0.597L0.096,-0.067C0.096,-0.044 0.088,-0.017 0.044,-0.017C0.039,-0.017 0.036,-0.013 0.036,-0.009C0.036,-0.004 0.039,-0 0.045,-0C0.072,-0 0.111,-0.006 0.142,-0.006C0.171,-0.006 0.21,-0 0.235,-0C0.24,-0 0.243,-0.004 0.243,-0.009C0.243,-0.013 0.24,-0.017 0.235,-0.017C0.192,-0.017 0.185,-0.042 0.185,-0.067L0.185,-0.327C0.211,-0.362 0.245,-0.387 0.292,-0.387C0.335,-0.387 0.364,-0.355 0.364,-0.278L0.364,-0.067C0.364,-0.044 0.358,-0.017 0.313,-0.017C0.307,-0.017 0.304,-0.013 0.304,-0.009C0.304,-0.005 0.307,-0 0.314,-0C0.338,-0 0.379,-0.006 0.411,-0.006C0.442,-0.006 0.48,-0 0.507,-0C0.513,-0 0.515,-0.004 0.515,-0.009Z" style="fill:rgb(102,102,102);fill-rule:nonzero;"/>
        </g>
        <g transform="matrix(60.5263,0,0,60.5263,4842.16,1785.79)">
            <path d="M0.43,-0.237C0.43,-0.356 0.357,-0.427 0.254,-0.427C0.134,-0.427 0.048,-0.343 0.048,-0.205C0.048,-0.063 0.144,0.009 0.255,0.009C0.337,0.009 0.395,-0.035 0.422,-0.115C0.423,-0.117 0.423,-0.119 0.423,-0.121C0.423,-0.125 0.421,-0.127 0.418,-0.127C0.415,-0.127 0.41,-0.125 0.407,-0.12C0.377,-0.069 0.342,-0.039 0.277,-0.039C0.193,-0.039 0.147,-0.107 0.143,-0.226L0.42,-0.226C0.428,-0.226 0.43,-0.229 0.43,-0.237ZM0.335,-0.255L0.143,-0.255C0.147,-0.349 0.183,-0.399 0.245,-0.399C0.302,-0.399 0.335,-0.35 0.335,-0.255Z" style="fill:rgb(102,102,102);fill-rule:nonzero;"/>
        </g>
        <g transform="matrix(60.5263,0,0,60.5263,4888.95,1785.79)">
            <path d="M0.693,-0.634C0.693,-0.638 0.691,-0.643 0.686,-0.643C0.654,-0.643 0.602,-0.636 0.567,-0.636C0.531,-0.636 0.48,-0.643 0.449,-0.643C0.444,-0.643 0.441,-0.638 0.441,-0.633C0.441,-0.629 0.444,-0.624 0.448,-0.624C0.497,-0.624 0.518,-0.605 0.518,-0.582L0.518,-0.347L0.215,-0.347L0.215,-0.582C0.215,-0.605 0.238,-0.624 0.287,-0.624C0.292,-0.624 0.294,-0.629 0.294,-0.633C0.294,-0.638 0.292,-0.643 0.286,-0.643C0.257,-0.643 0.206,-0.636 0.166,-0.636C0.135,-0.636 0.085,-0.643 0.05,-0.643C0.045,-0.643 0.043,-0.638 0.043,-0.634C0.043,-0.629 0.045,-0.624 0.05,-0.624C0.097,-0.624 0.116,-0.606 0.116,-0.582L0.116,-0.066C0.116,-0.043 0.082,-0.018 0.042,-0.018C0.034,-0.018 0.034,-0 0.042,-0C0.08,-0 0.134,-0.007 0.169,-0.007C0.205,-0.007 0.255,-0 0.286,-0C0.291,-0 0.295,-0.005 0.295,-0.01C0.295,-0.014 0.292,-0.018 0.287,-0.018C0.248,-0.018 0.215,-0.043 0.215,-0.066L0.215,-0.313L0.518,-0.313L0.518,-0.066C0.518,-0.043 0.485,-0.018 0.444,-0.018C0.44,-0.018 0.438,-0.014 0.438,-0.01C0.438,-0.005 0.441,-0 0.445,-0C0.48,-0 0.531,-0.007 0.566,-0.007C0.602,-0.007 0.655,-0 0.69,-0C0.699,-0 0.699,-0.018 0.69,-0.018C0.65,-0.018 0.617,-0.043 0.617,-0.066L0.617,-0.582C0.617,-0.605 0.638,-0.624 0.686,-0.624C0.691,-0.624 0.693,-0.629 0.693,-0.634Z" style="fill:rgb(102,102,102);fill-rule:nonzero;"/>
        </g>
        <g transform="matrix(60.5263,0,0,60.5263,4933.43,1785.79)">
            <path d="M0.47,-0.21C0.47,-0.348 0.377,-0.427 0.259,-0.427C0.143,-0.427 0.048,-0.348 0.048,-0.21C0.048,-0.073 0.146,0.009 0.259,0.009C0.377,0.009 0.47,-0.073 0.47,-0.21ZM0.377,-0.184C0.377,-0.081 0.342,-0.022 0.271,-0.022C0.173,-0.022 0.142,-0.122 0.142,-0.24C0.142,-0.345 0.178,-0.399 0.25,-0.399C0.328,-0.399 0.377,-0.319 0.377,-0.184Z" style="fill:rgb(102,102,102);fill-rule:nonzero;"/>
        </g>
        <g transform="matrix(60.5263,0,0,60.5263,4964.85,1785.79)">
            <path d="M0.729,-0.009C0.729,-0.013 0.727,-0.017 0.723,-0.017C0.68,-0.017 0.671,-0.043 0.671,-0.068L0.671,-0.275C0.671,-0.375 0.638,-0.427 0.539,-0.427C0.482,-0.427 0.441,-0.396 0.414,-0.357C0.397,-0.405 0.362,-0.427 0.299,-0.427C0.249,-0.427 0.206,-0.399 0.183,-0.364L0.183,-0.419C0.183,-0.425 0.177,-0.427 0.173,-0.427C0.171,-0.427 0.169,-0.427 0.168,-0.426C0.148,-0.41 0.085,-0.396 0.048,-0.396C0.045,-0.396 0.043,-0.392 0.043,-0.387C0.043,-0.382 0.045,-0.377 0.05,-0.377C0.094,-0.377 0.096,-0.375 0.096,-0.353L0.096,-0.068C0.096,-0.043 0.089,-0.017 0.044,-0.017C0.039,-0.017 0.037,-0.013 0.037,-0.009C0.037,-0.005 0.04,-0 0.045,-0C0.071,-0 0.112,-0.006 0.141,-0.006C0.17,-0.006 0.21,-0 0.233,-0C0.238,-0 0.24,-0.004 0.24,-0.009C0.24,-0.013 0.238,-0.017 0.232,-0.017C0.192,-0.017 0.185,-0.043 0.185,-0.068L0.185,-0.328C0.207,-0.364 0.237,-0.387 0.274,-0.387C0.316,-0.387 0.338,-0.355 0.338,-0.277L0.338,-0.068C0.338,-0.043 0.332,-0.017 0.288,-0.017C0.283,-0.017 0.281,-0.013 0.281,-0.009C0.281,-0.004 0.283,-0 0.289,-0C0.315,-0 0.354,-0.006 0.383,-0.006C0.41,-0.006 0.446,-0 0.475,-0C0.48,-0 0.482,-0.005 0.482,-0.009C0.482,-0.013 0.48,-0.017 0.476,-0.017C0.434,-0.017 0.426,-0.043 0.426,-0.068L0.426,-0.275C0.426,-0.296 0.424,-0.314 0.422,-0.33C0.445,-0.364 0.476,-0.387 0.516,-0.387C0.558,-0.387 0.581,-0.355 0.581,-0.277L0.581,-0.068C0.581,-0.043 0.575,-0.017 0.534,-0.017C0.529,-0.017 0.526,-0.013 0.526,-0.009C0.526,-0.005 0.529,-0 0.535,-0C0.559,-0 0.599,-0.006 0.629,-0.006C0.659,-0.006 0.697,-0 0.722,-0C0.727,-0 0.729,-0.004 0.729,-0.009Z" style="fill:rgb(102,102,102);fill-rule:nonzero;"/>
        </g>
        <g transform="matrix(60.5263,0,0,60.5263,5011.09,1785.79)">
            <path d="M0.43,-0.237C0.43,-0.356 0.357,-0.427 0.254,-0.427C0.134,-0.427 0.048,-0.343 0.048,-0.205C0.048,-0.063 0.144,0.009 0.255,0.009C0.337,0.009 0.395,-0.035 0.422,-0.115C0.423,-0.117 0.423,-0.119 0.423,-0.121C0.423,-0.125 0.421,-0.127 0.418,-0.127C0.415,-0.127 0.41,-0.125 0.407,-0.12C0.377,-0.069 0.342,-0.039 0.277,-0.039C0.193,-0.039 0.147,-0.107 0.143,-0.226L0.42,-0.226C0.428,-0.226 0.43,-0.229 0.43,-0.237ZM0.335,-0.255L0.143,-0.255C0.147,-0.349 0.183,-0.399 0.245,-0.399C0.302,-0.399 0.335,-0.35 0.335,-0.255Z" style="fill:rgb(102,102,102);fill-rule:nonzero;"/>
        </g>
        <g transform="matrix(60.5263,0,0,60.5263,5057.88,1785.79)">
            <path d="M0.479,-0.219C0.479,-0.361 0.4,-0.427 0.312,-0.427C0.25,-0.427 0.207,-0.402 0.185,-0.364L0.185,-0.418C0.185,-0.424 0.179,-0.427 0.174,-0.427C0.173,-0.427 0.171,-0.427 0.17,-0.426C0.149,-0.411 0.086,-0.396 0.049,-0.396C0.046,-0.396 0.044,-0.392 0.044,-0.388C0.044,-0.383 0.046,-0.378 0.051,-0.378C0.095,-0.378 0.095,-0.376 0.096,-0.353L0.096,0.132C0.096,0.155 0.084,0.182 0.043,0.182C0.038,0.182 0.036,0.186 0.036,0.19C0.036,0.195 0.038,0.199 0.044,0.199C0.071,0.199 0.112,0.194 0.142,0.194C0.172,0.194 0.216,0.199 0.242,0.199C0.248,0.199 0.25,0.195 0.25,0.19C0.25,0.186 0.248,0.182 0.243,0.182C0.202,0.182 0.186,0.156 0.186,0.132L0.186,-0.028C0.209,-0.008 0.244,0.009 0.29,0.009C0.406,0.009 0.479,-0.088 0.479,-0.219ZM0.386,-0.19C0.386,-0.082 0.352,-0.021 0.275,-0.021C0.24,-0.021 0.201,-0.048 0.183,-0.075L0.183,-0.282C0.183,-0.337 0.222,-0.381 0.273,-0.381C0.349,-0.381 0.386,-0.327 0.386,-0.19Z" style="fill:rgb(102,102,102);fill-rule:nonzero;"/>
        </g>
        <g transform="matrix(60.5263,0,0,60.5263,5089.83,1785.79)">
            <path d="M0.47,-0.05C0.47,-0.053 0.468,-0.055 0.465,-0.055C0.464,-0.055 0.461,-0.054 0.459,-0.052C0.446,-0.042 0.435,-0.036 0.426,-0.036C0.41,-0.036 0.401,-0.053 0.401,-0.089L0.401,-0.28C0.401,-0.401 0.351,-0.427 0.259,-0.427C0.18,-0.427 0.118,-0.407 0.08,-0.377C0.077,-0.374 0.074,-0.371 0.074,-0.367C0.074,-0.365 0.075,-0.364 0.075,-0.362C0.079,-0.342 0.085,-0.307 0.089,-0.281C0.09,-0.274 0.094,-0.271 0.097,-0.271C0.101,-0.271 0.105,-0.275 0.106,-0.28C0.11,-0.312 0.122,-0.347 0.139,-0.361C0.158,-0.378 0.193,-0.397 0.247,-0.397C0.297,-0.397 0.31,-0.368 0.31,-0.271C0.173,-0.243 0.051,-0.212 0.051,-0.098C0.051,-0.03 0.09,0.009 0.175,0.009C0.233,0.009 0.279,-0.014 0.313,-0.049C0.313,-0.008 0.34,0.009 0.372,0.009C0.413,0.009 0.445,-0.013 0.466,-0.041C0.469,-0.044 0.47,-0.048 0.47,-0.05ZM0.312,-0.085C0.279,-0.052 0.242,-0.035 0.204,-0.035C0.158,-0.035 0.136,-0.058 0.136,-0.102C0.136,-0.185 0.218,-0.218 0.312,-0.239L0.312,-0.085Z" style="fill:rgb(102,102,102);fill-rule:nonzero;"/>
        </g>
        <g transform="matrix(60.5263,0,0,60.5263,5119.37,1785.79)">
            <path d="M0.458,-0.354L0.458,-0.417C0.458,-0.424 0.452,-0.425 0.447,-0.425C0.416,-0.425 0.374,-0.416 0.342,-0.403C0.315,-0.419 0.279,-0.427 0.236,-0.427C0.124,-0.427 0.066,-0.371 0.066,-0.295C0.066,-0.247 0.093,-0.206 0.141,-0.185C0.1,-0.159 0.07,-0.124 0.062,-0.096C0.061,-0.093 0.06,-0.089 0.06,-0.086C0.06,-0.064 0.082,-0.042 0.13,-0.042L0.136,-0.042C0.094,-0.019 0.052,0.028 0.04,0.072C0.038,0.079 0.037,0.086 0.037,0.093C0.037,0.139 0.083,0.174 0.2,0.174C0.352,0.174 0.454,0.096 0.454,0.007C0.454,-0.075 0.4,-0.107 0.213,-0.107C0.158,-0.107 0.13,-0.11 0.13,-0.121L0.13,-0.124C0.134,-0.14 0.149,-0.157 0.177,-0.174C0.195,-0.17 0.214,-0.168 0.236,-0.168C0.341,-0.168 0.403,-0.223 0.403,-0.295C0.403,-0.326 0.394,-0.354 0.374,-0.377L0.41,-0.377C0.425,-0.377 0.434,-0.37 0.441,-0.354C0.444,-0.349 0.448,-0.347 0.452,-0.347C0.455,-0.347 0.458,-0.349 0.458,-0.354ZM0.315,-0.283C0.315,-0.225 0.296,-0.191 0.243,-0.191C0.185,-0.191 0.154,-0.244 0.154,-0.306C0.154,-0.366 0.17,-0.404 0.228,-0.404C0.281,-0.404 0.315,-0.35 0.315,-0.283ZM0.407,0.026C0.407,0.064 0.34,0.111 0.242,0.111C0.134,0.111 0.102,0.091 0.102,0.06C0.102,0.053 0.104,0.045 0.107,0.037C0.115,0.012 0.141,-0.017 0.175,-0.041C0.353,-0.041 0.407,-0.028 0.407,0.026Z" style="fill:rgb(102,102,102);fill-rule:nonzero;"/>
        </g>
        <g transform="matrix(60.5263,0,0,60.5263,5149.15,1785.79)">
            <path d="M0.43,-0.237C0.43,-0.356 0.357,-0.427 0.254,-0.427C0.134,-0.427 0.048,-0.343 0.048,-0.205C0.048,-0.063 0.144,0.009 0.255,0.009C0.337,0.009 0.395,-0.035 0.422,-0.115C0.423,-0.117 0.423,-0.119 0.423,-0.121C0.423,-0.125 0.421,-0.127 0.418,-0.127C0.415,-0.127 0.41,-0.125 0.407,-0.12C0.377,-0.069 0.342,-0.039 0.277,-0.039C0.193,-0.039 0.147,-0.107 0.143,-0.226L0.42,-0.226C0.428,-0.226 0.43,-0.229 0.43,-0.237ZM0.335,-0.255L0.143,-0.255C0.147,-0.349 0.183,-0.399 0.245,-0.399C0.302,-0.399 0.335,-0.35 0.335,-0.255Z" style="fill:rgb(102,102,102);fill-rule:nonzero;"/>
        </g>
        <g transform="matrix(60.5263,0,0,60.5263,5177.96,1785.79)">
            <path d="M0.488,-0.47C0.488,-0.574 0.411,-0.649 0.286,-0.649C0.219,-0.649 0.16,-0.624 0.131,-0.605C0.124,-0.6 0.121,-0.593 0.121,-0.587L0.121,-0.482C0.121,-0.477 0.126,-0.474 0.131,-0.474C0.135,-0.474 0.14,-0.476 0.141,-0.482C0.166,-0.566 0.208,-0.615 0.284,-0.615C0.351,-0.615 0.397,-0.569 0.397,-0.476C0.397,-0.4 0.35,-0.339 0.249,-0.318C0.243,-0.316 0.239,-0.312 0.239,-0.305C0.239,-0.303 0.239,-0.301 0.24,-0.299C0.248,-0.267 0.259,-0.211 0.264,-0.18C0.265,-0.173 0.27,-0.17 0.274,-0.17C0.279,-0.17 0.283,-0.173 0.283,-0.181L0.283,-0.256C0.406,-0.28 0.488,-0.353 0.488,-0.47ZM0.329,-0.055C0.329,-0.091 0.304,-0.115 0.274,-0.115C0.248,-0.115 0.221,-0.091 0.221,-0.055C0.221,-0.027 0.248,-0 0.274,-0C0.304,-0 0.329,-0.027 0.329,-0.055Z" style="fill:rgb(102,102,102);fill-rule:nonzero;"/>
        </g>
    </g>
</svg>
