<?xml version="1.0" encoding="UTF-8" standalone="no"?>
<!DOCTYPE svg PUBLIC "-//W3C//DTD SVG 1.1//EN" "http://www.w3.org/Graphics/SVG/1.1/DTD/svg11.dtd">
<svg width="100%" height="100%" viewBox="0 0 1280 720" version="1.1" xmlns="http://www.w3.org/2000/svg" xmlns:xlink="http://www.w3.org/1999/xlink" xml:space="preserve" style="fill-rule:evenodd;clip-rule:evenodd;stroke-linecap:round;stroke-miterlimit:3;">
    <g transform="matrix(1.13869,0,-0.148089,1.13869,429.37,-93.1971)">
        <g transform="matrix(0.190878,0,0,0.175368,259.838,133.27)">
            <path d="M2416,569.321C2021.33,435.233 1626.67,434.446 1232,569.321C837.333,704.196 442.667,703.409 48,569.321L48,48C442.667,182.088 837.333,182.875 1232,48C1626.67,-86.875 2021.33,-86.088 2416,48L2416,569.321Z" style="fill:rgb(34,34,34);stroke:rgb(17,17,17);stroke-width:40.9px;"/>
        </g>
        <g transform="matrix(0.190878,0,0,0.175368,259.838,133.27)">
            <path d="M2416,1090.64C2021.33,956.554 1626.67,955.768 1232,1090.64C837.333,1225.52 442.667,1224.73 48,1090.64L48,569.321C442.667,703.409 837.333,704.196 1232,569.321C1626.67,434.446 2021.33,435.233 2416,569.321L2416,1090.64Z" style="fill:rgb(255,51,68);stroke:rgb(187,34,51);stroke-width:40.9px;"/>
        </g>
        <g transform="matrix(0.190878,0,0,0.175368,259.838,133.27)">
            <path d="M2416,1611.96C2021.33,1477.88 1626.67,1477.09 1232,1611.96C837.333,1746.84 442.667,1746.05 48,1611.96L48,1090.64C442.667,1224.73 837.333,1225.52 1232,1090.64C1626.67,955.768 2021.33,956.554 2416,1090.64L2416,1611.96Z" style="fill:rgb(255,187,34);stroke:rgb(221,153,34);stroke-width:40.9px;"/>
        </g>
    </g>
    <g transform="matrix(1.13869,0,-0.148089,1.13869,429.37,-93.1971)">
        <path d="M721,672L721,124" style="fill:none;stroke:rgb(187,187,187);stroke-width:9.37px;stroke-linejoin:round;stroke-miterlimit:1.5;"/>
    </g>
    <g transform="matrix(0.458757,0,0,0.458757,23.2221,169.06)">
        <g transform="matrix(166.681,0,0,166.681,48,672)">
            <path d="M0.267,0.013C0.426,0.013 0.505,-0.094 0.505,-0.222L0.505,-0.7L0.143,-0.7L0.143,-0.604L0.397,-0.604L0.397,-0.223C0.397,-0.155 0.36,-0.086 0.269,-0.086C0.193,-0.086 0.143,-0.131 0.141,-0.2L0.036,-0.2C0.038,-0.063 0.141,0.013 0.267,0.013Z" style="fill:rgb(238,238,238);fill-rule:nonzero;"/>
        </g>
        <g transform="matrix(166.681,0,0,166.681,145.508,672)">
            <path d="M0.308,0.013C0.437,0.013 0.53,-0.057 0.557,-0.158L0.455,-0.158C0.434,-0.107 0.377,-0.075 0.311,-0.075C0.215,-0.075 0.154,-0.137 0.15,-0.228L0.562,-0.228L0.562,-0.267C0.562,-0.416 0.469,-0.536 0.306,-0.536C0.157,-0.536 0.045,-0.426 0.045,-0.26C0.045,-0.103 0.151,0.013 0.308,0.013ZM0.152,-0.309C0.16,-0.391 0.226,-0.448 0.306,-0.448C0.387,-0.448 0.451,-0.397 0.458,-0.309L0.152,-0.309Z" style="fill:rgb(238,238,238);fill-rule:nonzero;"/>
        </g>
        <g transform="matrix(166.681,0,0,166.681,246.683,672)">
            <path d="M0.298,-0L0.385,-0L0.385,-0.089L0.314,-0.089C0.259,-0.089 0.238,-0.119 0.238,-0.169L0.238,-0.437L0.39,-0.437L0.39,-0.523L0.238,-0.523L0.238,-0.671L0.139,-0.671L0.139,-0.556C0.139,-0.535 0.126,-0.522 0.108,-0.522L0.039,-0.522L0.039,-0.437L0.133,-0.437L0.133,-0.166C0.133,-0.057 0.195,-0 0.298,-0Z" style="fill:rgb(238,238,238);fill-rule:nonzero;"/>
        </g>
        <g transform="matrix(166.681,0,0,166.681,319.689,672)">
            <path d="M0.055,-0L0.464,-0L0.464,-0.089L0.187,-0.089L0.187,-0.096L0.459,-0.435L0.459,-0.523L0.064,-0.523L0.064,-0.435L0.327,-0.435L0.327,-0.428L0.055,-0.091L0.055,-0Z" style="fill:rgb(238,238,238);fill-rule:nonzero;"/>
        </g>
        <g transform="matrix(166.681,0,0,166.681,407.197,672)">
            <path d="M0.298,-0L0.385,-0L0.385,-0.089L0.314,-0.089C0.259,-0.089 0.238,-0.119 0.238,-0.169L0.238,-0.437L0.39,-0.437L0.39,-0.523L0.238,-0.523L0.238,-0.671L0.139,-0.671L0.139,-0.556C0.139,-0.535 0.126,-0.522 0.108,-0.522L0.039,-0.522L0.039,-0.437L0.133,-0.437L0.133,-0.166C0.133,-0.057 0.195,-0 0.298,-0Z" style="fill:rgb(238,238,238);fill-rule:nonzero;"/>
        </g>
        <g transform="matrix(166.681,0,0,166.681,524.706,672)">
            <path d="M0.299,0.013C0.403,0.013 0.454,-0.054 0.468,-0.074L0.474,-0.074L0.474,-0L0.577,-0L0.577,-0.523L0.472,-0.523L0.472,-0.447L0.465,-0.447C0.448,-0.474 0.394,-0.536 0.294,-0.536C0.148,-0.536 0.045,-0.422 0.045,-0.26C0.045,-0.098 0.149,0.013 0.299,0.013ZM0.314,-0.082C0.218,-0.082 0.152,-0.152 0.152,-0.261C0.152,-0.366 0.218,-0.44 0.313,-0.44C0.405,-0.44 0.475,-0.374 0.475,-0.261C0.475,-0.162 0.414,-0.082 0.314,-0.082Z" style="fill:rgb(238,238,238);fill-rule:nonzero;"/>
        </g>
        <g transform="matrix(166.681,0,0,166.681,632.382,672)">
            <path d="M0.266,0.013C0.344,0.013 0.398,-0.027 0.419,-0.07L0.426,-0.07L0.426,-0L0.528,-0L0.528,-0.523L0.423,-0.523L0.423,-0.216C0.423,-0.14 0.369,-0.084 0.296,-0.084C0.23,-0.084 0.179,-0.132 0.179,-0.206L0.179,-0.523L0.074,-0.523L0.074,-0.187C0.074,-0.074 0.147,0.013 0.266,0.013Z" style="fill:rgb(238,238,238);fill-rule:nonzero;"/>
        </g>
        <g transform="matrix(166.681,0,0,166.681,732.39,672)">
            <path d="M0.317,0.013C0.44,0.013 0.546,-0.061 0.569,-0.181L0.462,-0.181C0.444,-0.122 0.386,-0.082 0.319,-0.082C0.221,-0.082 0.153,-0.158 0.153,-0.261C0.153,-0.362 0.218,-0.44 0.317,-0.44C0.386,-0.44 0.443,-0.4 0.461,-0.34L0.569,-0.34C0.545,-0.46 0.44,-0.536 0.316,-0.536C0.157,-0.536 0.045,-0.416 0.045,-0.261C0.045,-0.107 0.155,0.013 0.317,0.013Z" style="fill:rgb(238,238,238);fill-rule:nonzero;"/>
        </g>
        <g transform="matrix(166.681,0,0,166.681,834.899,672)">
            <path d="M0.082,-0L0.187,-0L0.187,-0.31C0.187,-0.384 0.245,-0.438 0.316,-0.438C0.382,-0.438 0.435,-0.389 0.435,-0.316L0.435,-0L0.54,-0L0.54,-0.336C0.54,-0.449 0.466,-0.536 0.347,-0.536C0.269,-0.536 0.215,-0.496 0.193,-0.453L0.186,-0.453L0.186,-0.75L0.082,-0.75L0.082,-0Z" style="fill:rgb(238,238,238);fill-rule:nonzero;"/>
        </g>
        <g transform="matrix(166.681,0,0,166.681,981.744,672)">
            <path d="M0.299,0.013C0.403,0.013 0.454,-0.054 0.468,-0.074L0.474,-0.074L0.474,-0L0.577,-0L0.577,-0.523L0.472,-0.523L0.472,-0.447L0.465,-0.447C0.448,-0.474 0.394,-0.536 0.294,-0.536C0.148,-0.536 0.045,-0.422 0.045,-0.26C0.045,-0.098 0.149,0.013 0.299,0.013ZM0.314,-0.082C0.218,-0.082 0.152,-0.152 0.152,-0.261C0.152,-0.366 0.218,-0.44 0.313,-0.44C0.405,-0.44 0.475,-0.374 0.475,-0.261C0.475,-0.162 0.414,-0.082 0.314,-0.082Z" style="fill:rgb(238,238,238);fill-rule:nonzero;"/>
        </g>
        <g transform="matrix(166.681,0,0,166.681,1089.42,672)">
            <path d="M0.266,0.013C0.344,0.013 0.398,-0.027 0.419,-0.07L0.426,-0.07L0.426,-0L0.528,-0L0.528,-0.523L0.423,-0.523L0.423,-0.216C0.423,-0.14 0.369,-0.084 0.296,-0.084C0.23,-0.084 0.179,-0.132 0.179,-0.206L0.179,-0.523L0.074,-0.523L0.074,-0.187C0.074,-0.074 0.147,0.013 0.266,0.013Z" style="fill:rgb(238,238,238);fill-rule:nonzero;"/>
        </g>
        <g transform="matrix(166.681,0,0,166.681,1189.43,672)">
            <path d="M0.123,-0L0.228,-0L0.228,-0.437L0.373,-0.437L0.373,-0.523L0.227,-0.523L0.227,-0.572C0.227,-0.622 0.253,-0.661 0.316,-0.661L0.369,-0.661L0.369,-0.75L0.31,-0.75C0.2,-0.75 0.124,-0.684 0.124,-0.575L0.124,-0.523L0.029,-0.523L0.029,-0.437L0.123,-0.437L0.123,-0Z" style="fill:rgb(238,238,238);fill-rule:nonzero;"/>
        </g>
    </g>
    <g transform="matrix(1.29856,0,0,1.29856,-33.6082,-203.435)">
        <g transform="matrix(166.681,0,0,166.681,48,672)">
            <path d="M0.089,-0L0.311,-0C0.534,-0 0.665,-0.134 0.665,-0.351C0.665,-0.555 0.534,-0.7 0.311,-0.7L0.089,-0.7L0.089,-0ZM0.197,-0.094L0.197,-0.605L0.309,-0.605C0.455,-0.605 0.555,-0.514 0.555,-0.351C0.555,-0.181 0.453,-0.094 0.309,-0.094L0.197,-0.094Z" style="fill:rgb(238,238,238);fill-rule:nonzero;"/>
        </g>
        <g transform="matrix(166.681,0,0,166.681,166.677,672)">
            <path d="M0.308,0.013C0.437,0.013 0.53,-0.057 0.557,-0.158L0.455,-0.158C0.434,-0.107 0.377,-0.075 0.311,-0.075C0.215,-0.075 0.154,-0.137 0.15,-0.228L0.562,-0.228L0.562,-0.267C0.562,-0.416 0.469,-0.536 0.306,-0.536C0.157,-0.536 0.045,-0.426 0.045,-0.26C0.045,-0.103 0.151,0.013 0.308,0.013ZM0.152,-0.309C0.16,-0.391 0.226,-0.448 0.306,-0.448C0.387,-0.448 0.451,-0.397 0.458,-0.309L0.152,-0.309Z" style="fill:rgb(238,238,238);fill-rule:nonzero;"/>
        </g>
        <g transform="matrix(166.681,0,0,166.681,267.852,672)">
            <path d="M0.266,0.013C0.344,0.013 0.398,-0.027 0.419,-0.07L0.426,-0.07L0.426,-0L0.528,-0L0.528,-0.523L0.423,-0.523L0.423,-0.216C0.423,-0.14 0.369,-0.084 0.296,-0.084C0.23,-0.084 0.179,-0.132 0.179,-0.206L0.179,-0.523L0.074,-0.523L0.074,-0.187C0.074,-0.074 0.147,0.013 0.266,0.013Z" style="fill:rgb(238,238,238);fill-rule:nonzero;"/>
        </g>
        <g transform="matrix(166.681,0,0,166.681,367.86,672)">
            <path d="M0.298,-0L0.385,-0L0.385,-0.089L0.314,-0.089C0.259,-0.089 0.238,-0.119 0.238,-0.169L0.238,-0.437L0.39,-0.437L0.39,-0.523L0.238,-0.523L0.238,-0.671L0.139,-0.671L0.139,-0.556C0.139,-0.535 0.126,-0.522 0.108,-0.522L0.039,-0.522L0.039,-0.437L0.133,-0.437L0.133,-0.166C0.133,-0.057 0.195,-0 0.298,-0Z" style="fill:rgb(238,238,238);fill-rule:nonzero;"/>
        </g>
        <g transform="matrix(166.681,0,0,166.681,440.033,672)">
            <path d="M0.262,0.013C0.393,0.013 0.474,-0.056 0.474,-0.155C0.474,-0.377 0.164,-0.269 0.164,-0.385C0.164,-0.424 0.201,-0.452 0.26,-0.452C0.323,-0.452 0.357,-0.423 0.363,-0.379L0.459,-0.379C0.451,-0.479 0.369,-0.536 0.264,-0.536C0.144,-0.536 0.066,-0.471 0.066,-0.383C0.066,-0.17 0.372,-0.278 0.372,-0.15C0.372,-0.104 0.334,-0.073 0.265,-0.073C0.197,-0.073 0.158,-0.101 0.151,-0.155L0.052,-0.155C0.059,-0.054 0.129,0.013 0.262,0.013Z" style="fill:rgb(238,238,238);fill-rule:nonzero;"/>
        </g>
        <g transform="matrix(166.681,0,0,166.681,528.373,672)">
            <path d="M0.317,0.013C0.44,0.013 0.546,-0.061 0.569,-0.181L0.462,-0.181C0.444,-0.122 0.386,-0.082 0.319,-0.082C0.221,-0.082 0.153,-0.158 0.153,-0.261C0.153,-0.362 0.218,-0.44 0.317,-0.44C0.386,-0.44 0.443,-0.4 0.461,-0.34L0.569,-0.34C0.545,-0.46 0.44,-0.536 0.316,-0.536C0.157,-0.536 0.045,-0.416 0.045,-0.261C0.045,-0.107 0.155,0.013 0.317,0.013Z" style="fill:rgb(238,238,238);fill-rule:nonzero;"/>
        </g>
        <g transform="matrix(166.681,0,0,166.681,630.882,672)">
            <path d="M0.082,-0L0.187,-0L0.187,-0.31C0.187,-0.384 0.245,-0.438 0.316,-0.438C0.382,-0.438 0.435,-0.389 0.435,-0.316L0.435,-0L0.54,-0L0.54,-0.336C0.54,-0.449 0.466,-0.536 0.347,-0.536C0.269,-0.536 0.215,-0.496 0.193,-0.453L0.186,-0.453L0.186,-0.75L0.082,-0.75L0.082,-0Z" style="fill:rgb(238,238,238);fill-rule:nonzero;"/>
        </g>
        <g transform="matrix(166.681,0,0,166.681,732.39,672)">
            <path d="M0.123,-0.187L0.186,-0.187L0.209,-0.429L0.209,-0.7L0.1,-0.7L0.1,-0.429L0.123,-0.187ZM0.155,0.013C0.192,0.013 0.221,-0.015 0.221,-0.052C0.221,-0.089 0.192,-0.118 0.155,-0.118C0.118,-0.118 0.088,-0.089 0.088,-0.052C0.088,-0.015 0.118,0.013 0.155,0.013Z" style="fill:rgb(238,238,238);fill-rule:nonzero;"/>
        </g>
    </g>
</svg>
