<?xml version="1.0" encoding="UTF-8" standalone="no"?>
<!DOCTYPE svg PUBLIC "-//W3C//DTD SVG 1.1//EN" "http://www.w3.org/Graphics/SVG/1.1/DTD/svg11.dtd">
<svg width="100%" height="100%" viewBox="0 0 2000 1000" version="1.1" xmlns="http://www.w3.org/2000/svg" xmlns:xlink="http://www.w3.org/1999/xlink" xml:space="preserve" xmlns:serif="http://www.serif.com/" style="fill-rule:evenodd;clip-rule:evenodd;stroke-miterlimit:3;">
<g opacity="0.25">
    <g transform="matrix(2.80023,0,0,2.80023,36.5424,-25.1532)">
        <path d="M179.743,-21.116L105.595,36.711L29.658,-21.116L-13.05,-21.116L-13.05,117.988L29.658,117.988L29.658,32.34L105.595,91.558L179.743,32.737L179.743,117.988L222.451,117.988L222.451,-21.116L179.743,-21.116Z" style="fill:none;fill-rule:nonzero;stroke:url(#_Linear1);stroke-width:1.43px;"/>
    </g>
    <g transform="matrix(2.80023,0,0,2.80023,36.5424,364.37)">
        <path d="M179.743,-21.116L105.595,36.711L29.658,-21.116L-13.05,-21.116L-13.05,117.988L29.658,117.988L29.658,32.34L105.595,91.558L179.743,32.737L179.743,117.988L222.451,117.988L222.451,-21.116L179.743,-21.116Z" style="fill:none;fill-rule:nonzero;stroke:url(#_Linear2);stroke-width:1.43px;"/>
    </g>
    <g transform="matrix(2.80023,0,0,2.80023,36.5424,753.892)">
        <path d="M179.743,-21.116L105.595,36.711L29.658,-21.116L-13.05,-21.116L-13.05,117.988L29.658,117.988L29.658,32.34L105.595,91.558L179.743,32.737L179.743,117.988L222.451,117.988L222.451,-21.116L179.743,-21.116Z" style="fill:none;fill-rule:nonzero;stroke:url(#_Linear3);stroke-width:1.43px;"/>
    </g>
    <g transform="matrix(2.80023,0,0,2.80023,695.997,-219.915)">
        <rect x="-13.05" y="-21.116" width="43.701" height="139.104" style="fill:none;fill-rule:nonzero;stroke:url(#_Linear4);stroke-width:1.43px;"/>
    </g>
    <g transform="matrix(2.80023,0,0,2.80023,695.997,169.608)">
        <rect x="-13.05" y="-21.116" width="43.701" height="139.104" style="fill:none;fill-rule:nonzero;stroke:url(#_Linear5);stroke-width:1.43px;"/>
    </g>
    <g transform="matrix(2.80023,0,0,2.80023,695.997,559.131)">
        <rect x="-13.05" y="-21.116" width="43.701" height="139.104" style="fill:none;fill-rule:nonzero;stroke:url(#_Linear6);stroke-width:1.43px;"/>
    </g>
    <g transform="matrix(2.80023,0,0,2.80023,695.997,948.654)">
        <rect x="-13.05" y="-21.116" width="43.701" height="139.104" style="fill:none;fill-rule:nonzero;stroke:url(#_Linear7);stroke-width:1.43px;"/>
    </g>
    <g transform="matrix(2.80023,0,0,2.80023,818.371,-25.1532)">
        <path d="M163.246,-21.116L163.246,66.122L29.857,-21.116L-13.05,-21.116L-13.05,117.988L29.857,117.988L29.857,30.949L163.246,117.988L206.153,117.988L206.153,-21.116L163.246,-21.116Z" style="fill:none;fill-rule:nonzero;stroke:url(#_Linear8);stroke-width:1.43px;"/>
    </g>
    <g transform="matrix(2.80023,0,0,2.80023,818.371,364.37)">
        <path d="M163.246,-21.116L163.246,66.122L29.857,-21.116L-13.05,-21.116L-13.05,117.988L29.857,117.988L29.857,30.949L163.246,117.988L206.153,117.988L206.153,-21.116L163.246,-21.116Z" style="fill:none;fill-rule:nonzero;stroke:url(#_Linear9);stroke-width:1.43px;"/>
    </g>
    <g transform="matrix(2.80023,0,0,2.80023,818.371,753.892)">
        <path d="M163.246,-21.116L163.246,66.122L29.857,-21.116L-13.05,-21.116L-13.05,117.988L29.857,117.988L29.857,30.949L163.246,117.988L206.153,117.988L206.153,-21.116L163.246,-21.116Z" style="fill:none;fill-rule:nonzero;stroke:url(#_Linear10);stroke-width:1.43px;"/>
    </g>
    <g transform="matrix(2.80023,0,0,2.80023,1432.19,-219.915)">
        <path d="M202.774,-21.116L-13.05,-21.116L-13.05,17.218L73.011,17.218L73.011,117.988L116.713,117.988L116.713,17.218L202.774,17.218L202.774,-21.116Z" style="fill:none;fill-rule:nonzero;stroke:url(#_Linear11);stroke-width:1.43px;"/>
    </g>
    <g transform="matrix(2.80023,0,0,2.80023,1432.19,169.608)">
        <path d="M202.774,-21.116L-13.05,-21.116L-13.05,17.218L73.011,17.218L73.011,117.988L116.713,117.988L116.713,17.218L202.774,17.218L202.774,-21.116Z" style="fill:none;fill-rule:nonzero;stroke:url(#_Linear12);stroke-width:1.43px;"/>
    </g>
    <g transform="matrix(2.80023,0,0,2.80023,1432.19,559.131)">
        <path d="M202.774,-21.116L-13.05,-21.116L-13.05,17.218L73.011,17.218L73.011,117.988L116.713,117.988L116.713,17.218L202.774,17.218L202.774,-21.116Z" style="fill:none;fill-rule:nonzero;stroke:url(#_Linear13);stroke-width:1.43px;"/>
    </g>
    <g transform="matrix(2.80023,0,0,2.80023,1432.19,948.654)">
        <path d="M202.774,-21.116L-13.05,-21.116L-13.05,17.218L73.011,17.218L73.011,117.988L116.713,117.988L116.713,17.218L202.774,17.218L202.774,-21.116Z" style="fill:none;fill-rule:nonzero;stroke:url(#_Linear14);stroke-width:1.43px;"/>
    </g>
    </g>
    <defs>
        <linearGradient id="_Linear1" x1="0" y1="0" x2="1" y2="0" gradientUnits="userSpaceOnUse" gradientTransform="matrix(2.18669e-14,357.114,-357.114,2.18669e-14,344.064,8.98257)"><stop offset="0" style="stop-color:rgb(34,34,34);stop-opacity:1"/><stop offset="1" style="stop-color:rgb(17,17,17);stop-opacity:1"/></linearGradient>
        <linearGradient id="_Linear2" x1="0" y1="0" x2="1" y2="0" gradientUnits="userSpaceOnUse" gradientTransform="matrix(2.18669e-14,357.114,-357.114,2.18669e-14,344.064,-130.121)"><stop offset="0" style="stop-color:rgb(34,34,34);stop-opacity:1"/><stop offset="1" style="stop-color:rgb(17,17,17);stop-opacity:1"/></linearGradient>
        <linearGradient id="_Linear3" x1="0" y1="0" x2="1" y2="0" gradientUnits="userSpaceOnUse" gradientTransform="matrix(2.18669e-14,357.114,-357.114,2.18669e-14,344.064,-269.226)"><stop offset="0" style="stop-color:rgb(34,34,34);stop-opacity:1"/><stop offset="1" style="stop-color:rgb(17,17,17);stop-opacity:1"/></linearGradient>
        <linearGradient id="_Linear4" x1="0" y1="0" x2="1" y2="0" gradientUnits="userSpaceOnUse" gradientTransform="matrix(2.18669e-14,357.114,-357.114,2.18669e-14,108.564,78.5346)"><stop offset="0" style="stop-color:rgb(34,34,34);stop-opacity:1"/><stop offset="1" style="stop-color:rgb(17,17,17);stop-opacity:1"/></linearGradient>
        <linearGradient id="_Linear5" x1="0" y1="0" x2="1" y2="0" gradientUnits="userSpaceOnUse" gradientTransform="matrix(2.18669e-14,357.114,-357.114,2.18669e-14,108.564,-60.5695)"><stop offset="0" style="stop-color:rgb(34,34,34);stop-opacity:1"/><stop offset="1" style="stop-color:rgb(17,17,17);stop-opacity:1"/></linearGradient>
        <linearGradient id="_Linear6" x1="0" y1="0" x2="1" y2="0" gradientUnits="userSpaceOnUse" gradientTransform="matrix(2.18669e-14,357.114,-357.114,2.18669e-14,108.564,-199.674)"><stop offset="0" style="stop-color:rgb(34,34,34);stop-opacity:1"/><stop offset="1" style="stop-color:rgb(17,17,17);stop-opacity:1"/></linearGradient>
        <linearGradient id="_Linear7" x1="0" y1="0" x2="1" y2="0" gradientUnits="userSpaceOnUse" gradientTransform="matrix(2.18669e-14,357.114,-357.114,2.18669e-14,108.564,-338.778)"><stop offset="0" style="stop-color:rgb(34,34,34);stop-opacity:1"/><stop offset="1" style="stop-color:rgb(17,17,17);stop-opacity:1"/></linearGradient>
        <linearGradient id="_Linear8" x1="0" y1="0" x2="1" y2="0" gradientUnits="userSpaceOnUse" gradientTransform="matrix(2.18669e-14,357.114,-357.114,2.18669e-14,64.8624,8.98257)"><stop offset="0" style="stop-color:rgb(34,34,34);stop-opacity:1"/><stop offset="1" style="stop-color:rgb(17,17,17);stop-opacity:1"/></linearGradient>
        <linearGradient id="_Linear9" x1="0" y1="0" x2="1" y2="0" gradientUnits="userSpaceOnUse" gradientTransform="matrix(2.18669e-14,357.114,-357.114,2.18669e-14,64.8624,-130.121)"><stop offset="0" style="stop-color:rgb(34,34,34);stop-opacity:1"/><stop offset="1" style="stop-color:rgb(17,17,17);stop-opacity:1"/></linearGradient>
        <linearGradient id="_Linear10" x1="0" y1="0" x2="1" y2="0" gradientUnits="userSpaceOnUse" gradientTransform="matrix(2.18669e-14,357.114,-357.114,2.18669e-14,64.8624,-269.226)"><stop offset="0" style="stop-color:rgb(34,34,34);stop-opacity:1"/><stop offset="1" style="stop-color:rgb(17,17,17);stop-opacity:1"/></linearGradient>
        <linearGradient id="_Linear11" x1="0" y1="0" x2="1" y2="0" gradientUnits="userSpaceOnUse" gradientTransform="matrix(2.18669e-14,357.114,-357.114,2.18669e-14,-154.34,78.5346)"><stop offset="0" style="stop-color:rgb(34,34,34);stop-opacity:1"/><stop offset="1" style="stop-color:rgb(17,17,17);stop-opacity:1"/></linearGradient>
        <linearGradient id="_Linear12" x1="0" y1="0" x2="1" y2="0" gradientUnits="userSpaceOnUse" gradientTransform="matrix(2.18669e-14,357.114,-357.114,2.18669e-14,-154.34,-60.5695)"><stop offset="0" style="stop-color:rgb(34,34,34);stop-opacity:1"/><stop offset="1" style="stop-color:rgb(17,17,17);stop-opacity:1"/></linearGradient>
        <linearGradient id="_Linear13" x1="0" y1="0" x2="1" y2="0" gradientUnits="userSpaceOnUse" gradientTransform="matrix(2.18669e-14,357.114,-357.114,2.18669e-14,-154.34,-199.674)"><stop offset="0" style="stop-color:rgb(34,34,34);stop-opacity:1"/><stop offset="1" style="stop-color:rgb(17,17,17);stop-opacity:1"/></linearGradient>
        <linearGradient id="_Linear14" x1="0" y1="0" x2="1" y2="0" gradientUnits="userSpaceOnUse" gradientTransform="matrix(2.18669e-14,357.114,-357.114,2.18669e-14,-154.34,-338.778)"><stop offset="0" style="stop-color:rgb(34,34,34);stop-opacity:1"/><stop offset="1" style="stop-color:rgb(17,17,17);stop-opacity:1"/></linearGradient>
    </defs>
</svg>
