<?xml version="1.0" encoding="UTF-8" standalone="no"?>
<!DOCTYPE svg PUBLIC "-//W3C//DTD SVG 1.1//EN" "http://www.w3.org/Graphics/SVG/1.1/DTD/svg11.dtd">
<svg width="100%" height="100%" viewBox="0 0 1280 720" version="1.1" xmlns="http://www.w3.org/2000/svg" xmlns:xlink="http://www.w3.org/1999/xlink" xml:space="preserve" style="fill-rule:evenodd;clip-rule:evenodd;stroke-linejoin:round;stroke-miterlimit:2;">
    <rect x="0" y="0" width="1280" height="720" style="fill:rgb(34,34,34);"/>
    <g transform="matrix(16.9143,0,0,16.9143,98.7429,-151.674)">
        <g opacity="0.25">
            <g transform="matrix(0.0820777,0.0473876,4.07522e-18,0.0947752,-46.7946,-65.8578)">
                <g opacity="0.5">
                    <g transform="matrix(115.25,0,0,461,499,540)">
                        <rect x="0" y="0" width="4" height="1" style="fill:url(#_Linear1);"/>
                    </g>
                    <g transform="matrix(28.8125,0,0,28.8125,499,540)">
                        <path d="M11,15L9,15L9,16L11,16L11,15ZM15,14L12,14L12,15L16,15L16,13L15,13L15,14ZM2,13L0,13L0,14L2,14L2,13ZM5,11L5,13L6,13L6,12L7,12L7,11L5,11ZM16,11L15,11L15,12L16,12L16,11ZM14,11L12,11L12,12L14,12L14,11ZM0,9L2,9L2,10L3,10L3,8L0,8L0,9ZM15,9L11,9L11,10L15,10L15,9ZM7,9L6,9L6,10L9,10L9,9L10,9L10,8L7,8L7,9ZM5,8L4,8L4,9L5,9L5,8ZM9,6L7,6L7,7L9,7L9,6ZM6,6L3,6L3,7L6,7L6,6ZM16,5L15,5L15,6L16,6L16,5ZM2,5L1,5L1,6L2,6L2,5ZM8,4L9,4L9,5L13,5L13,4L10,4L10,3L8,3L8,4ZM6,3L5,3L5,4L6,4L6,3ZM4,3L2,3L2,4L4,4L4,3ZM4,0L0,0L0,1L4,1L4,0Z" style="fill:url(#_Linear2);"/>
                    </g>
                    <g transform="matrix(28.8125,0,0,28.8125,499,540)">
                        <path d="M14,15L13,15L13,16L14,16L14,15ZM8,15L6,15L6,16L8,16L8,15ZM3,14L1,14L1,15L3,15L3,14ZM1,13L3,13L3,14L5,14L5,13L4,13L4,12L1,12L1,13ZM13,13L12,13L12,14L15,14L15,13L14,13L14,12L13,12L13,13ZM7,12L7,14L10,14L10,13L9,13L9,12L7,12ZM16,12L15,12L15,13L16,13L16,12ZM3,10L2,10L2,11L3,11L3,10ZM9,10L8,10L8,11L9,11L9,10ZM11,10L10,10L10,11L11,11L11,10ZM6,10L4,10L4,11L6,11L6,10ZM16,10L13,10L13,11L16,11L16,10ZM16,8L15,8L15,9L16,9L16,8ZM5,7L4,7L4,8L5,8L5,7ZM9,5L9,7L10,7L10,8L13,8L13,7L12,7L12,6L11,6L11,5L9,5ZM0,6L0,8L2,8L2,7L1,7L1,6L0,6ZM6,6L6,8L8,8L8,7L7,7L7,6L6,6ZM13,5L12,5L12,6L13,6L13,5ZM15,5L14,5L14,6L15,6L15,5ZM14,4L13,4L13,5L14,5L14,4ZM6,4L3,4L3,5L6,5L6,4ZM1,4L0,4L0,5L1,5L1,4ZM8,4L7,4L7,5L8,5L8,4ZM16,3L13,3L13,4L16,4L16,3ZM2,2L1,2L1,3L2,3L2,2ZM4,1L4,3L7,3L7,2L5,2L5,1L4,1ZM11,2L8,2L8,3L11,3L11,2ZM3,1L2,1L2,2L3,2L3,1ZM14,1L13,1L13,2L14,2L14,1ZM16,1L15,1L15,2L16,2L16,1ZM7,0L5,0L5,1L7,1L7,0ZM9,0L8,0L8,1L9,1L9,0ZM12,0L10,0L10,1L12,1L12,0Z" style="fill:url(#_Linear3);"/>
                    </g>
                    <g transform="matrix(28.8125,0,0,28.8125,499,540)">
                        <path d="M15,12L14,12L14,13L15,13L15,12ZM13,12L11,12L11,13L13,13L13,12ZM1,10L0,10L0,11L1,11L1,10ZM8,10L6,10L6,11L8,11L8,10ZM6,7L5,7L5,8L6,8L6,7ZM4,7L2,7L2,8L4,8L4,7ZM12,5L11,5L11,6L12,6L12,5ZM14,5L13,5L13,6L14,6L14,5ZM8,2L7,2L7,3L8,3L8,2ZM4,2L2,2L2,3L4,3L4,2ZM13,1L11,1L11,2L13,2L13,1ZM10,0L9,0L9,1L10,1L10,0Z" style="fill:url(#_Linear4);"/>
                    </g>
                </g>
            </g>
            <g transform="matrix(0.0759219,-0.0438335,-3.76957e-18,0.0876671,-5.88503,6.54505)">
                <g opacity="0.75">
                    <g transform="matrix(124.595,0,-5.94826e-30,498.378,499,526.319)">
                        <rect x="0" y="0" width="4" height="1" style="fill:url(#_Linear5);"/>
                    </g>
                    <g transform="matrix(31.1486,0,-3.71766e-31,31.1486,499,526.319)">
                        <path d="M11,15L9,15L9,16L11,16L11,15ZM15,14L12,14L12,15L16,15L16,13L15,13L15,14ZM2,13L0,13L0,14L2,14L2,13ZM5,11L5,13L6,13L6,12L7,12L7,11L5,11ZM16,11L15,11L15,12L16,12L16,11ZM14,11L12,11L12,12L14,12L14,11ZM0,9L2,9L2,10L3,10L3,8L0,8L0,9ZM15,9L11,9L11,10L15,10L15,9ZM7,9L6,9L6,10L9,10L9,9L10,9L10,8L7,8L7,9ZM5,8L4,8L4,9L5,9L5,8ZM9,6L7,6L7,7L9,7L9,6ZM6,6L3,6L3,7L6,7L6,6ZM16,5L15,5L15,6L16,6L16,5ZM2,5L1,5L1,6L2,6L2,5ZM8,4L9,4L9,5L13,5L13,4L10,4L10,3L8,3L8,4ZM6,3L5,3L5,4L6,4L6,3ZM4,3L2,3L2,4L4,4L4,3ZM4,0L0,0L0,1L4,1L4,0Z" style="fill:url(#_Linear6);"/>
                    </g>
                    <g transform="matrix(31.1486,0,-3.71766e-31,31.1486,499,526.319)">
                        <path d="M14,15L13,15L13,16L14,16L14,15ZM8,15L6,15L6,16L8,16L8,15ZM3,14L1,14L1,15L3,15L3,14ZM1,13L3,13L3,14L5,14L5,13L4,13L4,12L1,12L1,13ZM13,13L12,13L12,14L15,14L15,13L14,13L14,12L13,12L13,13ZM7,12L7,14L10,14L10,13L9,13L9,12L7,12ZM16,12L15,12L15,13L16,13L16,12ZM3,10L2,10L2,11L3,11L3,10ZM9,10L8,10L8,11L9,11L9,10ZM11,10L10,10L10,11L11,11L11,10ZM6,10L4,10L4,11L6,11L6,10ZM16,10L13,10L13,11L16,11L16,10ZM16,8L15,8L15,9L16,9L16,8ZM5,7L4,7L4,8L5,8L5,7ZM9,5L9,7L10,7L10,8L13,8L13,7L12,7L12,6L11,6L11,5L9,5ZM0,6L0,8L2,8L2,7L1,7L1,6L0,6ZM6,6L6,8L8,8L8,7L7,7L7,6L6,6ZM13,5L12,5L12,6L13,6L13,5ZM15,5L14,5L14,6L15,6L15,5ZM14,4L13,4L13,5L14,5L14,4ZM6,4L3,4L3,5L6,5L6,4ZM1,4L0,4L0,5L1,5L1,4ZM8,4L7,4L7,5L8,5L8,4ZM16,3L13,3L13,4L16,4L16,3ZM2,2L1,2L1,3L2,3L2,2ZM4,1L4,3L7,3L7,2L5,2L5,1L4,1ZM11,2L8,2L8,3L11,3L11,2ZM3,1L2,1L2,2L3,2L3,1ZM14,1L13,1L13,2L14,2L14,1ZM16,1L15,1L15,2L16,2L16,1ZM7,0L5,0L5,1L7,1L7,0ZM9,0L8,0L8,1L9,1L9,0ZM12,0L10,0L10,1L12,1L12,0Z" style="fill:url(#_Linear7);"/>
                    </g>
                    <g transform="matrix(31.1486,0,-3.71766e-31,31.1486,499,526.319)">
                        <path d="M15,12L14,12L14,13L15,13L15,12ZM13,12L11,12L11,13L13,13L13,12ZM1,10L0,10L0,11L1,11L1,10ZM8,10L6,10L6,11L8,11L8,10ZM6,7L5,7L5,8L6,8L6,7ZM4,7L2,7L2,8L4,8L4,7ZM12,5L11,5L11,6L12,6L12,5ZM14,5L13,5L13,6L14,6L14,5ZM8,2L7,2L7,3L8,3L8,2ZM4,2L2,2L2,3L4,3L4,2ZM13,1L11,1L11,2L13,2L13,1ZM10,0L9,0L9,1L10,1L10,0Z" style="fill:url(#_Linear8);"/>
                    </g>
                </g>
            </g>
            <g transform="matrix(0.0759219,-0.0438335,0.0759219,0.0438335,-81.8829,9.99557)">
                <g transform="matrix(0.443801,0.443801,-0.768685,0.768685,527.922,404.013)">
                    <path d="M1232,47.791L122,47.791L85,69.153L196,133.239L233,111.877L270,133.239L233,154.601L196,133.239L418,261.411L455,240.049L492,261.411L455,282.773L529,325.497L566,304.135L529,282.773L640,218.687L677,240.049L714,218.687L751,240.049L677,282.773L640,261.411L603,282.773L640,304.135L566,346.859L640,389.583L1232,47.791ZM677,282.773L603,325.497L640,346.859L714,304.135L677,282.773ZM899,197.325L825,240.049L862,261.411L936,218.687L899,197.325ZM344,218.687L381,240.049L455,197.325L529,240.049L566,218.687L455,154.601L344,218.687ZM603,69.153L640,90.515L603,111.877L640,133.239L566,175.963L603,197.325L714,133.239L640,175.963L714,218.687L751,197.325L714,175.963L751,154.601L714,133.239L788,90.515L714,47.791L492,47.791L381,111.877L418,133.239L344,175.963L307,154.601L270,175.963L344,218.687L492,133.239L529,154.601L566,133.239L529,111.877L603,69.153ZM751,154.601L825,197.325L936,133.239L899,111.877L862,133.239L825,111.877L751,154.601ZM1010,133.239L936,175.963L973,197.325L1047,154.601L1010,133.239ZM307,111.877L270,133.239L307,154.601L344,133.239L307,111.877ZM936,90.515L973,69.153L1047,111.877L1158,47.791L936,47.791L899,69.153L936,90.515ZM1121,69.153L1084,90.515L1121,111.877L1158,90.515L1121,69.153ZM196,90.515L233,69.153L270,90.515L307,69.153L344,90.515L418,47.791L196,47.791L159,69.153L196,90.515ZM825,69.153L862,47.791L788,47.791L825,69.153Z" style="fill:url(#_Linear9);"/>
                </g>
                <g transform="matrix(0.443801,0.443801,-0.768685,0.768685,527.922,404.013)">
                    <path d="M455,240.049L418,261.411L455,282.773L492,261.411L455,240.049ZM455,111.877L381,154.601L418,175.963L492,133.239L455,111.877ZM714,90.515L640,133.239L677,154.601L751,111.877L714,90.515ZM529,69.153L492,90.515L529,111.877L566,90.515L529,69.153ZM936,47.791L899,69.153L936,90.515L1010,47.791L936,47.791ZM270,47.791L196,47.791L233,69.153L270,47.791Z" style="fill:url(#_Linear10);"/>
                </g>
                <g transform="matrix(0.443801,0.443801,-0.768685,0.768685,527.922,404.013)">
                    <path d="M677,282.773L603,325.497L640,346.859L714,304.135L677,282.773ZM566,304.135L640,261.411L677,282.773L751,240.049L714,218.687L677,240.049L640,218.687L529,282.773L566,304.135ZM899,197.325L825,240.049L862,261.411L936,218.687L899,197.325ZM529,197.325L492,218.687L529,240.049L566,218.687L529,197.325ZM270,175.963L344,218.687L418,175.963L381,154.601L344,175.963L307,154.601L270,175.963ZM640,133.239L566,175.963L603,197.325L677,154.601L640,133.239ZM751,154.601L825,197.325L936,133.239L899,111.877L862,133.239L825,111.877L751,154.601ZM233,111.877L196,133.239L233,154.601L270,133.239L233,111.877ZM492,90.515L455,111.877L492,133.239L529,111.877L492,90.515ZM1121,69.153L1084,90.515L1121,111.877L1158,90.515L1121,69.153ZM751,69.153L714,90.515L751,111.877L788,90.515L751,69.153ZM1084,47.791L1010,47.791L973,69.153L1010,90.515L1084,47.791ZM566,90.515L640,47.791L492,47.791L566,90.515ZM418,47.791L344,47.791L307,69.153L344,90.515L418,47.791ZM196,47.791L159,69.153L196,90.515L233,69.153L196,47.791ZM825,69.153L862,47.791L788,47.791L825,69.153Z" style="fill:url(#_Linear11);"/>
                </g>
                <g transform="matrix(0.443801,0.443801,-0.768685,0.768685,527.922,404.013)">
                    <path d="M603,282.773L529,325.497L566,346.859L640,304.135L603,282.773ZM381,240.049L455,197.325L492,218.687L529,197.325L455,154.601L344,218.687L381,240.049ZM640,175.963L714,218.687L751,197.325L714,175.963L751,154.601L714,133.239L640,175.963ZM1010,133.239L936,175.963L973,197.325L1047,154.601L1010,133.239ZM529,111.877L492,133.239L529,154.601L566,133.239L529,111.877ZM307,111.877L270,133.239L307,154.601L344,133.239L307,111.877ZM640,47.791L603,69.153L640,90.515L603,111.877L640,133.239L751,69.153L714,47.791L640,47.791ZM492,47.791L381,111.877L418,133.239L529,69.153L492,47.791ZM1158,47.791L1084,47.791L1010,90.515L1047,111.877L1158,47.791ZM270,47.791L233,69.153L270,90.515L344,47.791L270,47.791ZM122,47.791L48,47.791L85,69.153L122,47.791Z" style="fill:url(#_Linear12);"/>
                </g>
            </g>
        </g>
    </g>
    <g id="Mintcraft-ingame" transform="matrix(3.25442,0,0,3.25442,149.722,277.992)">
        <g transform="matrix(0.156198,0,0,0.156198,0.7,0.441481)">
            <path d="M1700.22,-4.418L1699.87,-5.902L576.222,-5.902L570.342,36.727L569.967,36.727L553.174,-5.902L349.153,-5.902L349.088,-5.532L348.87,-5.902L249.066,-5.902L238.084,36.087C238.084,36.087 212.46,36.087 212.46,36.087L209.318,48.263C209.318,48.263 169.823,-5.902 169.823,-5.902L73.29,-5.902L-6.77,242.218L79.913,322.807L175.397,322.807L188.47,273.926C188.47,273.926 190.63,276.446 190.63,276.446L214.991,276.446C214.991,276.446 255.475,322.807 255.475,322.807L353.573,322.807L353.839,321.478L354.73,322.807L454.798,322.807L455.174,320.804L456.551,322.807L556.822,322.807L562.568,284.021C562.568,284.021 581.242,322.807 581.242,322.807L683.835,322.807L702.989,147.748L711.393,147.748C711.393,147.748 702.604,234.594 702.604,234.594L728.082,322.807L841.964,322.807L856.516,147.748C856.516,147.748 874.337,147.748 874.337,147.748C874.337,147.748 871.179,238.128 871.179,238.128L880.896,322.807L1491.47,322.807L1491.85,322.108L1491.97,322.802L1592.02,322.905L1649.71,240.491L1648.07,232.272C1648.07,232.272 1674.61,232.272 1674.61,232.272L1712.46,179.949C1712.46,179.949 1747.89,322.902 1747.89,322.902L1845.26,322.902L1926.69,241.469L1883.69,102.848C1883.69,102.848 1922.76,56.092 1922.76,56.092L1903.07,-5.902L1701.09,-5.902L1700.22,-4.418Z" style="fill:rgb(17,17,17);fill-rule:nonzero;"/>
        </g>
        <g transform="matrix(1,0,0,1.00764,3,1.73022)">
            <path d="M24.5,6.9L22.6,13.8L31.3,13.8L33.1,7L37.1,7L38.8,0.5L50.2,0.5L42.2,35.2L29.8,35.2L33.5,20.4L29,20.4L27.1,27.6L19.1,27.6L21.1,20.4L16.6,20.5L12.2,35.2L0.1,35.2L11.2,0.5L22.5,0.5L20.6,6.8L24.5,6.9Z" style="fill:url(#_Linear13);fill-rule:nonzero;"/>
            <path d="M24.5,6.9L22.6,13.8L31.3,13.8L33.1,7L37.1,7L38.8,0.5L50.2,0.5L42.2,35.2L29.8,35.2L33.5,20.4L29,20.4L27.1,27.6L19.1,27.6L21.1,20.4L16.6,20.5L12.2,35.2L0.1,35.2L11.2,0.5L22.5,0.5L20.6,6.8L24.5,6.9ZM23.687,7.499L21.782,14.42L31.782,14.42L33.582,7.62C33.582,7.62 37.583,7.62 37.583,7.62L39.283,1.12C39.283,1.12 49.416,1.12 49.416,1.12C49.416,1.12 42.655,30.447 41.702,34.58C41.702,34.58 30.599,34.58 30.599,34.58C30.599,34.58 34.299,19.78 34.299,19.78L28.518,19.78L26.618,26.98C26.618,26.98 19.92,26.98 19.92,26.98C19.92,26.98 21.925,19.761 21.925,19.761L16.131,19.89L11.734,34.58C11.734,34.58 0.954,34.58 0.954,34.58C0.954,34.58 11.657,1.12 11.657,1.12C11.657,1.12 21.661,1.12 21.661,1.12C21.661,1.12 19.767,7.399 19.767,7.399L23.687,7.499Z" style="fill:url(#_Linear14);"/>
            <path d="M66,0.5L59.2,35.3L46.9,35.3L54.6,0.5L66,0.5Z" style="fill:url(#_Linear15);fill-rule:nonzero;"/>
            <path d="M66,0.5L59.2,35.3L46.9,35.3L54.6,0.5L66,0.5ZM65.242,1.12L58.685,34.68C58.685,34.68 47.677,34.68 47.677,34.68C47.677,34.68 55.102,1.12 55.102,1.12L65.242,1.12Z" style="fill:url(#_Linear16);"/>
            <g transform="matrix(1,0,0,0.997126,2.66454e-15,0.101149)">
                <path d="M82.8,24L83.8,16.8L79.3,16.7L76.3,35.2L64,35.2L70.5,0.4L81.9,0.4L80.9,6.9L84.9,7L83.9,13.7L88.3,13.7L90.2,0.4L101.7,0.4L97.7,35.2L85.3,35.2L86.8,24.1L82.8,24Z" style="fill:url(#_Linear17);fill-rule:nonzero;"/>
                <path d="M82.8,24L83.8,16.8L79.3,16.7L76.3,35.2L64,35.2L70.5,0.4L81.9,0.4L80.9,6.9L84.9,7L83.9,13.7L88.3,13.7L90.2,0.4L101.7,0.4L97.7,35.2L85.3,35.2L86.8,24.1L82.8,24ZM83.515,23.396L84.515,16.194L78.77,16.066L75.768,34.578C75.768,34.578 64.752,34.578 64.752,34.578C64.752,34.578 71.019,1.022 71.019,1.022C71.019,1.022 81.172,1.022 81.172,1.022C81.172,1.022 80.175,7.504 80.175,7.504L84.178,7.604C84.178,7.604 83.176,14.322 83.176,14.322L88.842,14.322L90.742,1.022C90.742,1.022 101,1.022 101,1.022C101,1.022 97.143,34.578 97.143,34.578C97.143,34.578 86.014,34.578 86.014,34.578C86.014,34.578 87.512,23.496 87.512,23.496L83.515,23.396Z" style="fill:url(#_Linear18);"/>
            </g>
            <g transform="matrix(0.159842,0,0,0.155013,-5.14042,-1.27897)">
                <path d="M870.768,12.114L868.962,51.652L817.275,51.652C817.275,51.652 803.805,228.298 802.959,234.038L722.198,234.038L739.981,51.014L688.294,51.014L692.685,11.476L870.768,12.114Z" style="fill:url(#_Linear19);fill-rule:nonzero;"/>
                <path d="M870.768,12.114L868.962,51.652L817.275,51.652C817.275,51.652 803.805,228.298 802.959,234.038L722.198,234.038L739.981,51.014L688.294,51.014L692.685,11.476L870.768,12.114ZM866.673,16.099L865.232,47.652C865.232,47.652 813.659,47.652 813.659,47.652L813.378,51.341C813.378,51.341 801.697,204.634 799.431,230.038C799.431,230.038 726.515,230.038 726.515,230.038C726.515,230.038 744.298,47.014 744.298,47.014L692.672,47.014C692.672,47.014 696.173,15.489 696.173,15.489L866.673,16.099Z" style="fill:url(#_Linear20);"/>
            </g>
            <g transform="matrix(1,0,0,0.988539,-1.15463e-14,0.401146)">
                <path d="M292.8,0.2L294.8,6.4L286.8,6.4L286.8,6.6C287.1,7.9 287.5,9.3 287.9,10.7C288.3,12.1 288.7,13.5 289.1,15C289.5,16.5 290,17.9 290.4,19.4C290.9,20.9 294.9,34.1 295.1,35L282.6,35L274.8,6.3L266.8,6.3L265.2,0.1L292.8,0.2Z" style="fill:url(#_Linear21);fill-rule:nonzero;"/>
                <path d="M292.8,0.2L294.8,6.4L286.8,6.4L286.8,6.6C287.1,7.9 287.5,9.3 287.9,10.7C288.3,12.1 288.7,13.5 289.1,15C289.5,16.5 290,17.9 290.4,19.4C290.9,20.9 294.9,34.1 295.1,35L282.6,35L274.8,6.3L266.8,6.3L265.2,0.1L292.8,0.2ZM292.345,0.826L293.941,5.773C293.941,5.773 286.175,5.773 286.175,5.773L286.175,6.672L286.191,6.742C286.494,8.051 286.896,9.462 287.299,10.873C287.698,12.269 288.097,13.666 288.496,15.162C288.896,16.662 289.396,18.062 289.796,19.562L289.808,19.599C290.248,20.921 293.417,31.359 294.281,34.373C294.281,34.373 283.077,34.373 283.077,34.373C283.077,34.373 275.277,5.673 275.277,5.673L267.284,5.673C267.284,5.673 266.008,0.73 266.008,0.73L292.345,0.826Z" style="fill:url(#_Linear22);"/>
            </g>
            <g transform="matrix(1,0,0,0.994253,-1.15463e-14,0.201724)">
                <path d="M264.1,13.4L265.8,20.3L249.1,20.3L252.2,35.1L239.7,35.1L233.3,0.3L260.8,0.3L262.4,6.4L246.2,6.4L247.6,13.4L264.1,13.4Z" style="fill:url(#_Linear23);fill-rule:nonzero;"/>
                <path d="M264.1,13.4L265.8,20.3L249.1,20.3L252.2,35.1L239.7,35.1L233.3,0.3L260.8,0.3L262.4,6.4L246.2,6.4L247.6,13.4L264.1,13.4ZM263.61,14.024L265.003,19.676C265.003,19.676 248.331,19.676 248.331,19.676L251.431,34.476C251.431,34.476 240.221,34.476 240.221,34.476C240.221,34.476 234.05,0.924 234.05,0.924C234.05,0.924 260.318,0.924 260.318,0.924C260.318,0.924 261.591,5.776 261.591,5.776C261.591,5.776 245.438,5.776 245.438,5.776L247.088,14.024L263.61,14.024Z" style="fill:url(#_Linear24);"/>
            </g>
            <g transform="matrix(1,0,0,0.994253,-1.15463e-14,0.201724)">
                <path d="M216.2,23.9L217.7,35.1L205.3,35.1L201.4,0.3L228.9,0.3L234.9,35.1L222.5,35.1L220.9,23.9L216.2,23.9ZM224.3,10.2L223.6,5.8L218.2,5.8L218.7,9.9L214.4,9.9L213.8,5.9L208.5,5.9L209.1,10.3L213.9,10.3L214.1,11.9L211.7,11.9L212.6,18.7L215.5,18.7L215.3,16.4L219.6,16.4L220,18.7L223,18.7L222,11.9L219.6,11.9L219.4,10.3L224.3,10.2Z" style="fill:url(#_Linear25);fill-rule:nonzero;"/>
                <path d="M216.2,23.9L217.7,35.1L205.3,35.1L201.4,0.3L228.9,0.3L234.9,35.1L222.5,35.1L220.9,23.9L216.2,23.9ZM221.442,23.276L215.486,23.276L216.986,34.476C216.986,34.476 205.859,34.476 205.859,34.476C205.859,34.476 202.099,0.924 202.099,0.924C202.099,0.924 228.374,0.924 228.374,0.924C228.374,0.924 234.159,34.476 234.159,34.476C234.159,34.476 223.042,34.476 223.042,34.476C223.042,34.476 221.442,23.276 221.442,23.276ZM224.313,10.824L225.029,10.809L224.133,5.176L217.495,5.176L217.995,9.276C217.995,9.276 214.938,9.276 214.938,9.276C214.938,9.276 214.338,5.276 214.338,5.276L207.784,5.276L208.554,10.924L213.348,10.924C213.348,10.924 213.392,11.276 213.392,11.276C213.392,11.276 210.987,11.276 210.987,11.276L212.052,19.324L216.181,19.324L215.981,17.024C215.981,17.024 219.074,17.024 219.074,17.024C219.074,17.024 219.474,19.324 219.474,19.324L223.723,19.324L222.54,11.276L220.152,11.276C220.152,11.276 220.106,10.909 220.106,10.909C220.106,10.909 224.313,10.824 224.313,10.824ZM224.3,10.2L223.6,5.8L218.2,5.8L218.7,9.9L214.4,9.9L213.8,5.9L208.5,5.9L209.1,10.3L213.9,10.3L214.1,11.9L211.7,11.9L212.6,18.7L215.5,18.7L215.3,16.4L219.6,16.4L220,18.7L223,18.7L222,11.9L219.6,11.9L219.4,10.3L224.3,10.2Z" style="fill:url(#_Linear26);"/>
            </g>
            <g transform="matrix(1,0,0,0.997126,-1.15463e-14,0.101149)">
                <path d="M194.7,17.1L198.8,17.1L200.6,35.1L188.2,35.1L187,20.5L182.4,20.4L183.4,35.2L171,35.2L169.7,0.4L197.1,0.4L198.4,13.3L194.3,13.3L194.7,17.1ZM186.6,13.6L186,6.5L181.5,6.5L182,13.7L186.6,13.6Z" style="fill:url(#_Linear27);fill-rule:nonzero;"/>
                <path d="M194.7,17.1L198.8,17.1L200.6,35.1L188.2,35.1L187,20.5L182.4,20.4L183.4,35.2L171,35.2L169.7,0.4L197.1,0.4L198.4,13.3L194.3,13.3L194.7,17.1ZM193.606,12.678L194.137,17.722L198.234,17.722C198.234,17.722 199.91,34.478 199.91,34.478C199.91,34.478 188.776,34.478 188.776,34.478C188.776,34.478 187.577,19.891 187.577,19.891L181.731,19.763L182.732,34.578C182.732,34.578 171.602,34.578 171.602,34.578C171.602,34.578 170.348,1.022 170.348,1.022C170.348,1.022 196.535,1.022 196.535,1.022C196.535,1.022 197.709,12.678 197.709,12.678C197.709,12.678 193.606,12.678 193.606,12.678ZM181.418,14.335L187.278,14.207L186.574,5.878L180.831,5.878L181.418,14.335ZM186.6,13.6L186,6.5L181.5,6.5L182,13.7L186.6,13.6Z" style="fill:url(#_Linear28);"/>
            </g>
            <g transform="matrix(1,0,0,0.994269,-1.15463e-14,0.201719)">
                <path d="M149.5,6.5L165.4,6.5L165.2,0.3L137.9,0.4L136.7,35.2L166.2,35.2L166,28L149.1,28L149.5,6.5Z" style="fill:url(#_Linear29);fill-rule:nonzero;"/>
                <path d="M149.5,6.5L165.4,6.5L165.2,0.3L137.9,0.4L136.7,35.2L166.2,35.2L166,28L149.1,28L149.5,6.5ZM149.5,5.876L148.887,5.876L148.463,28.624L165.392,28.624C165.392,28.624 165.558,34.576 165.558,34.576C165.558,34.576 137.347,34.576 137.347,34.576C137.347,34.576 138.504,1.021 138.504,1.021C138.504,1.021 164.595,0.926 164.595,0.926C164.595,0.926 164.755,5.876 164.755,5.876C164.755,5.876 149.5,5.876 149.5,5.876Z" style="fill:url(#_Linear30);"/>
            </g>
        </g>
        <g>
            <g transform="matrix(1.03448,0,0.929825,0.913793,-33.4143,3.75517)">
                <path d="M14,36.6L2.4,36.6L2.4,48L13.383,48L14,36.6Z" style="fill:url(#_Linear31);"/>
                <path d="M14,36.6L2.4,36.6L2.4,48L13.383,48L14,36.6ZM13.127,37.284L12.584,47.316C12.584,47.316 3.262,47.316 3.262,47.316C3.262,47.316 3.262,37.284 3.262,37.284L13.127,37.284Z" style="fill:url(#_Linear32);"/>
            </g>
            <g transform="matrix(1.00072,0,0.808487,0.913793,1.49087,3.75517)">
                <path d="M14,36.6L1.75,36.6L1.75,48L12.639,48L14,36.6Z" style="fill:url(#_Linear33);"/>
                <path d="M14,36.6L1.75,36.6L1.75,48L12.639,48L14,36.6ZM13.136,37.284L11.939,47.316C11.939,47.316 2.583,47.316 2.583,47.316C2.583,47.316 2.583,37.284 2.583,37.284L13.136,37.284Z" style="fill:url(#_Linear34);"/>
            </g>
            <g transform="matrix(1.0627,0,0.670543,0.913793,22.8077,3.85517)">
                <path d="M14,36.6L2.4,36.6L2.4,48L13.012,48L14,36.6Z" style="fill:url(#_Linear35);"/>
                <path d="M14,36.6L2.4,36.6L2.4,48L13.012,48L14,36.6ZM13.245,37.284L12.376,47.316C12.376,47.316 3.129,47.316 3.129,47.316C3.129,47.316 3.129,37.284 3.129,37.284L13.245,37.284Z" style="fill:url(#_Linear36);"/>
            </g>
            <g transform="matrix(1.0627,0,0.560651,0.913793,43.9297,3.75517)">
                <path d="M14,36.6L2.4,36.6L2.4,48L12.799,48L14,36.6Z" style="fill:url(#_Linear37);"/>
                <path d="M14,36.6L2.4,36.6L2.4,48L12.799,48L14,36.6ZM13.273,37.284L12.216,47.316C12.216,47.316 3.09,47.316 3.09,47.316C3.09,47.316 3.09,37.284 3.09,37.284L13.273,37.284Z" style="fill:url(#_Linear38);"/>
            </g>
            <g transform="matrix(1.0627,0,0.423287,0.913793,70.2598,3.75517)">
                <path d="M14,36.6L2.4,36.6L2.4,48L13.092,48L14,36.6Z" style="fill:url(#_Linear39);"/>
                <path d="M14,36.6L2.4,36.6L2.4,48L13.092,48L14,36.6ZM13.319,37.284L12.52,47.316C12.52,47.316 3.048,47.316 3.048,47.316C3.048,47.316 3.048,37.284 3.048,37.284C3.048,37.284 13.319,37.284 13.319,37.284Z" style="fill:url(#_Linear40);"/>
            </g>
            <g transform="matrix(1.0627,0,0.279526,0.931337,100.74,2.91307)">
                <rect x="2.4" y="36.6" width="11.6" height="11.4" style="fill:url(#_Linear41);"/>
                <path d="M14,36.6L2.4,36.6L2.4,48L14,48L14,36.6ZM13.386,37.271L13.386,47.329C13.386,47.329 3.014,47.329 3.014,47.329C3.014,47.329 3.014,37.271 3.014,37.271L13.386,37.271Z" style="fill:url(#_Linear42);"/>
            </g>
            <g transform="matrix(1.0627,0,-0.118121,0.913793,175.819,3.75517)">
                <path d="M14,36.6L2.4,36.6L2.4,48L12.832,48L14,36.6Z" style="fill:url(#_Linear43);"/>
                <path d="M14,36.6L2.4,36.6L2.4,48L12.832,48L14,36.6ZM13.324,37.284L12.296,47.316C12.296,47.316 2.993,47.316 2.993,47.316C2.993,47.316 2.993,37.284 2.993,37.284L13.324,37.284Z" style="fill:url(#_Linear44);"/>
            </g>
            <g transform="matrix(1.0627,0,-0.308459,0.922565,200.025,3.33412)">
                <path d="M14,36.6L2.4,36.6L2.4,48L13.945,48L14,36.6Z" style="fill:url(#_Linear45);"/>
                <path d="M14,36.6L2.4,36.6L2.4,48L13.945,48L14,36.6ZM13.376,37.277L13.328,47.323C13.328,47.323 3.02,47.323 3.02,47.323C3.02,47.323 3.02,37.277 3.02,37.277L13.376,37.277Z" style="fill:url(#_Linear46);"/>
            </g>
            <g transform="matrix(1.0627,0,-0.329362,0.922565,217.811,3.33412)">
                <path d="M14,36.6L2.4,36.6L2.4,48L12.868,48L14,36.6Z" style="fill:url(#_Linear47);"/>
                <path d="M14,36.6L2.4,36.6L2.4,48L12.868,48L14,36.6ZM13.283,37.277L12.285,47.323C12.285,47.323 3.024,47.323 3.024,47.323C3.024,47.323 3.024,37.277 3.024,37.277L13.283,37.277Z" style="fill:url(#_Linear48);"/>
            </g>
            <g transform="matrix(1.0627,0,-0.475685,0.922565,240.432,3.33412)">
                <path d="M14,36.6L2.4,36.6L2.4,48L13.214,48L14,36.6Z" style="fill:url(#_Linear49);"/>
                <path d="M14,36.6L2.4,36.6L2.4,48L13.214,48L14,36.6ZM13.269,37.277L12.577,47.323C12.577,47.323 3.061,47.323 3.061,47.323C3.061,47.323 3.061,37.277 3.061,37.277L13.269,37.277Z" style="fill:url(#_Linear50);"/>
            </g>
            <g transform="matrix(1.0627,0,-0.577216,0.922565,261.374,3.33412)">
                <path d="M14,36.6L2.4,36.6L2.4,48L13.231,48L14,36.6Z" style="fill:url(#_Linear51);"/>
                <path d="M14,36.6L2.4,36.6L2.4,48L13.231,48L14,36.6ZM13.236,37.277L12.558,47.323C12.558,47.323 3.094,47.323 3.094,47.323C3.094,47.323 3.094,37.277 3.094,37.277L13.236,37.277Z" style="fill:url(#_Linear52);"/>
            </g>
            <g transform="matrix(1.0627,0,-0.81911,0.931337,313.202,2.91307)">
                <path d="M14,36.6L2.4,36.6L2.4,48L12.613,48L14,36.6Z" style="fill:url(#_Linear53);"/>
                <path d="M14,36.6L2.4,36.6L2.4,48L12.613,48L14,36.6ZM13.079,37.271L11.855,47.329C11.855,47.329 3.183,47.329 3.183,47.329C3.183,47.329 3.183,37.271 3.183,37.271L13.079,37.271Z" style="fill:url(#_Linear54);"/>
            </g>
            <g transform="matrix(2.5268,0,0,0.913793,133.825,3.75517)">
                <path d="M14,36.6L2.325,36.6L2.793,48L13.544,48L14,36.6Z" style="fill:url(#_Linear55);"/>
                <path d="M14,36.6L2.325,36.6L2.793,48L13.544,48L14,36.6ZM13.724,37.284L13.322,47.316C13.322,47.316 3.014,47.316 3.014,47.316C3.014,47.316 2.602,37.284 2.602,37.284L13.724,37.284Z" style="fill:url(#_Linear56);"/>
            </g>
            <g transform="matrix(0.684696,0,0.929825,0.913793,-13.5173,-3.84483)">
                <path d="M14,36.6L2.4,36.6L2.4,47.433L3.194,45.026L14,38.721L14,36.6Z" style="fill:url(#_Linear57);"/>
                <path d="M14,36.6L2.4,36.6L2.4,47.433L3.194,45.026L14,38.721L14,36.6ZM3.702,44.179L3.702,37.284L12.698,37.284L12.698,38.93L3.702,44.179Z" style="fill:url(#_Linear58);"/>
            </g>
        </g>
    </g>
    <g transform="matrix(0.703025,-0.104671,0.104671,0.703025,92.079,81.779)">
        <g transform="matrix(120.06,0,0,120.06,754,737)">
            <path d="M0.55,-0L0.55,-0.7L0.45,-0.7L0.45,-0.4L0.35,-0.4L0.35,-0.3L0.45,-0.3L0.45,-0L0.55,-0ZM0.15,-0.6L0.15,-0.7L0.05,-0.7L0.05,-0L0.15,-0L0.15,-0.5L0.25,-0.5L0.25,-0.6L0.15,-0.6ZM0.35,-0.5L0.25,-0.5L0.25,-0.4L0.35,-0.4L0.35,-0.5Z" style="fill:rgb(34,34,34);fill-rule:nonzero;"/>
        </g>
        <g transform="matrix(120.06,0,0,120.06,825.916,737)">
            <path d="M0.45,-0.5L0.15,-0.5L0.15,-0.4L0.45,-0.4L0.45,-0.1L0.15,-0.1L0.15,-0L0.45,-0L0.45,-0.1L0.55,-0.1L0.55,-0.4L0.45,-0.4L0.45,-0.5ZM0.05,-0.4L0.05,-0.1L0.15,-0.1L0.15,-0.4L0.05,-0.4Z" style="fill:rgb(34,34,34);fill-rule:nonzero;"/>
        </g>
        <g transform="matrix(120.06,0,0,120.06,897.832,737)">
            <path d="M0.45,-0L0.75,-0L0.75,-0.5L0.65,-0.5L0.65,-0.1L0.45,-0.1L0.45,-0ZM0.35,-0.1L0.15,-0.1L0.15,-0L0.35,-0L0.35,-0.1ZM0.45,-0.1L0.45,-0.5L0.35,-0.5L0.35,-0.1L0.45,-0.1ZM0.15,-0.1L0.15,-0.5L0.05,-0.5L0.05,-0.1L0.15,-0.1Z" style="fill:rgb(34,34,34);fill-rule:nonzero;"/>
        </g>
        <g transform="matrix(120.06,0,0,120.06,1029.78,737)">
            <path d="M0.45,-0.5L0.25,-0.5L0.25,-0.6L0.15,-0.6L0.15,-0.5L0.05,-0.5L0.05,-0.4L0.15,-0.4L0.15,-0L0.25,-0L0.25,-0.4L0.45,-0.4L0.45,-0.5ZM0.45,-0.7L0.25,-0.7L0.25,-0.6L0.45,-0.6L0.45,-0.7Z" style="fill:rgb(34,34,34);fill-rule:nonzero;"/>
        </g>
        <g transform="matrix(120.06,0,0,120.06,1089.69,737)">
            <path d="M0.45,-0.5L0.15,-0.5L0.15,-0.4L0.45,-0.4L0.45,-0.1L0.15,-0.1L0.15,-0L0.45,-0L0.45,-0.1L0.55,-0.1L0.55,-0.4L0.45,-0.4L0.45,-0.5ZM0.05,-0.4L0.05,-0.1L0.15,-0.1L0.15,-0.4L0.05,-0.4Z" style="fill:rgb(34,34,34);fill-rule:nonzero;"/>
        </g>
        <g transform="matrix(120.06,0,0,120.06,1161.6,737)">
            <path d="M0.45,-0.5L0.05,-0.5L0.05,-0L0.15,-0L0.15,-0.4L0.45,-0.4L0.45,-0.5Z" style="fill:rgb(34,34,34);fill-rule:nonzero;"/>
        </g>
        <g transform="matrix(120.06,0,0,120.06,1257.53,737)">
            <path d="M0.35,-0.1L0.25,-0.1L0.25,-0.7L0.15,-0.7L0.15,-0.6L0.15,-0.6L0.05,-0.6L0.05,-0.5L0.05,-0.5L0.15,-0.5L0.15,-0.1L0.05,-0.1L0.05,-0L0.35,-0L0.35,-0.1Z" style="fill:rgb(34,34,34);fill-rule:nonzero;"/>
        </g>
        <g transform="matrix(120.06,0,0,120.06,1305.56,737)">
            <rect x="0.05" y="-0.1" width="0.1" height="0.1" style="fill:rgb(34,34,34);fill-rule:nonzero;"/>
        </g>
        <g transform="matrix(120.06,0,0,120.06,1329.57,737)">
            <path d="M0.35,-0.1L0.25,-0.1L0.25,-0.7L0.15,-0.7L0.15,-0.6L0.15,-0.6L0.05,-0.6L0.05,-0.5L0.05,-0.5L0.15,-0.5L0.15,-0.1L0.05,-0.1L0.05,-0L0.35,-0L0.35,-0.1Z" style="fill:rgb(34,34,34);fill-rule:nonzero;"/>
        </g>
        <g transform="matrix(120.06,0,0,120.06,1377.59,737)">
            <path d="M0.45,-0.1L0.15,-0.1L0.15,-0L0.45,-0L0.45,-0.1ZM0.15,-0.2L0.05,-0.2L0.05,-0.1L0.15,-0.1L0.15,-0.2ZM0.45,-0.3L0.45,-0.1L0.55,-0.1L0.55,-0.6L0.45,-0.6L0.45,-0.4L0.15,-0.4L0.15,-0.3L0.45,-0.3ZM0.15,-0.4L0.15,-0.6L0.05,-0.6L0.05,-0.4L0.15,-0.4ZM0.45,-0.7L0.15,-0.7L0.15,-0.6L0.45,-0.6L0.45,-0.7Z" style="fill:rgb(34,34,34);fill-rule:nonzero;"/>
        </g>
        <g transform="matrix(120.06,0,0,120.06,1449.63,737)">
            <path d="M0.15,-0.1L0.05,-0.1L0.05,-0L0.15,-0L0.15,-0.1ZM0.05,-0.7L0.05,-0.2L0.15,-0.2L0.15,-0.7L0.05,-0.7Z" style="fill:rgb(34,34,34);fill-rule:nonzero;"/>
        </g>
    </g>
    <g transform="matrix(0.703025,-0.104671,0.104671,0.703025,82.3528,74.5736)">
        <g transform="matrix(120.06,0,0,120.06,754,737)">
            <path d="M0.55,-0L0.55,-0.7L0.45,-0.7L0.45,-0.4L0.35,-0.4L0.35,-0.3L0.45,-0.3L0.45,-0L0.55,-0ZM0.15,-0.6L0.15,-0.7L0.05,-0.7L0.05,-0L0.15,-0L0.15,-0.5L0.25,-0.5L0.25,-0.6L0.15,-0.6ZM0.35,-0.5L0.25,-0.5L0.25,-0.4L0.35,-0.4L0.35,-0.5Z" style="fill:rgb(255,187,34);fill-rule:nonzero;"/>
        </g>
        <g transform="matrix(120.06,0,0,120.06,825.916,737)">
            <path d="M0.45,-0.5L0.15,-0.5L0.15,-0.4L0.45,-0.4L0.45,-0.1L0.15,-0.1L0.15,-0L0.45,-0L0.45,-0.1L0.55,-0.1L0.55,-0.4L0.45,-0.4L0.45,-0.5ZM0.05,-0.4L0.05,-0.1L0.15,-0.1L0.15,-0.4L0.05,-0.4Z" style="fill:rgb(255,187,34);fill-rule:nonzero;"/>
        </g>
        <g transform="matrix(120.06,0,0,120.06,897.832,737)">
            <path d="M0.45,-0L0.75,-0L0.75,-0.5L0.65,-0.5L0.65,-0.1L0.45,-0.1L0.45,-0ZM0.35,-0.1L0.15,-0.1L0.15,-0L0.35,-0L0.35,-0.1ZM0.45,-0.1L0.45,-0.5L0.35,-0.5L0.35,-0.1L0.45,-0.1ZM0.15,-0.1L0.15,-0.5L0.05,-0.5L0.05,-0.1L0.15,-0.1Z" style="fill:rgb(255,187,34);fill-rule:nonzero;"/>
        </g>
        <g transform="matrix(120.06,0,0,120.06,1029.78,737)">
            <path d="M0.45,-0.5L0.25,-0.5L0.25,-0.6L0.15,-0.6L0.15,-0.5L0.05,-0.5L0.05,-0.4L0.15,-0.4L0.15,-0L0.25,-0L0.25,-0.4L0.45,-0.4L0.45,-0.5ZM0.45,-0.7L0.25,-0.7L0.25,-0.6L0.45,-0.6L0.45,-0.7Z" style="fill:rgb(255,187,34);fill-rule:nonzero;"/>
        </g>
        <g transform="matrix(120.06,0,0,120.06,1089.69,737)">
            <path d="M0.45,-0.5L0.15,-0.5L0.15,-0.4L0.45,-0.4L0.45,-0.1L0.15,-0.1L0.15,-0L0.45,-0L0.45,-0.1L0.55,-0.1L0.55,-0.4L0.45,-0.4L0.45,-0.5ZM0.05,-0.4L0.05,-0.1L0.15,-0.1L0.15,-0.4L0.05,-0.4Z" style="fill:rgb(255,187,34);fill-rule:nonzero;"/>
        </g>
        <g transform="matrix(120.06,0,0,120.06,1161.6,737)">
            <path d="M0.45,-0.5L0.05,-0.5L0.05,-0L0.15,-0L0.15,-0.4L0.45,-0.4L0.45,-0.5Z" style="fill:rgb(255,187,34);fill-rule:nonzero;"/>
        </g>
        <g transform="matrix(120.06,0,0,120.06,1257.53,737)">
            <path d="M0.35,-0.1L0.25,-0.1L0.25,-0.7L0.15,-0.7L0.15,-0.6L0.15,-0.6L0.05,-0.6L0.05,-0.5L0.05,-0.5L0.15,-0.5L0.15,-0.1L0.05,-0.1L0.05,-0L0.35,-0L0.35,-0.1Z" style="fill:rgb(255,187,34);fill-rule:nonzero;"/>
        </g>
        <g transform="matrix(120.06,0,0,120.06,1305.56,737)">
            <rect x="0.05" y="-0.1" width="0.1" height="0.1" style="fill:rgb(255,187,34);fill-rule:nonzero;"/>
        </g>
        <g transform="matrix(120.06,0,0,120.06,1329.57,737)">
            <path d="M0.35,-0.1L0.25,-0.1L0.25,-0.7L0.15,-0.7L0.15,-0.6L0.15,-0.6L0.05,-0.6L0.05,-0.5L0.05,-0.5L0.15,-0.5L0.15,-0.1L0.05,-0.1L0.05,-0L0.35,-0L0.35,-0.1Z" style="fill:rgb(255,187,34);fill-rule:nonzero;"/>
        </g>
        <g transform="matrix(120.06,0,0,120.06,1377.59,737)">
            <path d="M0.45,-0.1L0.15,-0.1L0.15,-0L0.45,-0L0.45,-0.1ZM0.15,-0.2L0.05,-0.2L0.05,-0.1L0.15,-0.1L0.15,-0.2ZM0.45,-0.3L0.45,-0.1L0.55,-0.1L0.55,-0.6L0.45,-0.6L0.45,-0.4L0.15,-0.4L0.15,-0.3L0.45,-0.3ZM0.15,-0.4L0.15,-0.6L0.05,-0.6L0.05,-0.4L0.15,-0.4ZM0.45,-0.7L0.15,-0.7L0.15,-0.6L0.45,-0.6L0.45,-0.7Z" style="fill:rgb(255,187,34);fill-rule:nonzero;"/>
        </g>
        <g transform="matrix(120.06,0,0,120.06,1449.63,737)">
            <path d="M0.15,-0.1L0.05,-0.1L0.05,-0L0.15,-0L0.15,-0.1ZM0.05,-0.7L0.05,-0.2L0.15,-0.2L0.15,-0.7L0.05,-0.7Z" style="fill:rgb(255,187,34);fill-rule:nonzero;"/>
        </g>
    </g>
    <defs>
        <linearGradient id="_Linear1" x1="0" y1="0" x2="1" y2="0" gradientUnits="userSpaceOnUse" gradientTransform="matrix(7.68767e-17,0.912838,-4.21622,0.527027,4,-0.5)"><stop offset="0" style="stop-color:rgb(127,127,127);stop-opacity:1"/><stop offset="1" style="stop-color:rgb(127,127,127);stop-opacity:0"/></linearGradient>
        <linearGradient id="_Linear2" x1="0" y1="0" x2="1" y2="0" gradientUnits="userSpaceOnUse" gradientTransform="matrix(3.07507e-16,14.6054,-16.8649,8.43243,16,-8)"><stop offset="0" style="stop-color:rgb(143,143,143);stop-opacity:1"/><stop offset="1" style="stop-color:rgb(143,143,143);stop-opacity:0"/></linearGradient>
        <linearGradient id="_Linear3" x1="0" y1="0" x2="1" y2="0" gradientUnits="userSpaceOnUse" gradientTransform="matrix(3.07507e-16,14.6054,-16.8649,8.43243,16,-8)"><stop offset="0" style="stop-color:rgb(116,116,116);stop-opacity:1"/><stop offset="1" style="stop-color:rgb(116,116,116);stop-opacity:0"/></linearGradient>
        <linearGradient id="_Linear4" x1="0" y1="0" x2="1" y2="0" gradientUnits="userSpaceOnUse" gradientTransform="matrix(3.07507e-16,14.6054,-16.8649,8.43243,16,-8)"><stop offset="0" style="stop-color:rgb(104,104,104);stop-opacity:1"/><stop offset="1" style="stop-color:rgb(104,104,104);stop-opacity:0"/></linearGradient>
        <linearGradient id="_Linear5" x1="0" y1="0" x2="1" y2="0" gradientUnits="userSpaceOnUse" gradientTransform="matrix(4.39461e-16,0.912838,-4.21622,-0.527027,0,-0.5)"><stop offset="0" style="stop-color:rgb(127,127,127);stop-opacity:1"/><stop offset="1" style="stop-color:rgb(127,127,127);stop-opacity:0"/></linearGradient>
        <linearGradient id="_Linear6" x1="0" y1="0" x2="1" y2="0" gradientUnits="userSpaceOnUse" gradientTransform="matrix(1.75784e-15,14.6054,-16.8649,-8.43243,0,-8)"><stop offset="0" style="stop-color:rgb(143,143,143);stop-opacity:1"/><stop offset="1" style="stop-color:rgb(143,143,143);stop-opacity:0"/></linearGradient>
        <linearGradient id="_Linear7" x1="0" y1="0" x2="1" y2="0" gradientUnits="userSpaceOnUse" gradientTransform="matrix(1.75784e-15,14.6054,-16.8649,-8.43243,0,-8)"><stop offset="0" style="stop-color:rgb(116,116,116);stop-opacity:1"/><stop offset="1" style="stop-color:rgb(116,116,116);stop-opacity:0"/></linearGradient>
        <linearGradient id="_Linear8" x1="0" y1="0" x2="1" y2="0" gradientUnits="userSpaceOnUse" gradientTransform="matrix(1.75784e-15,14.6054,-16.8649,-8.43243,0,-8)"><stop offset="0" style="stop-color:rgb(104,104,104);stop-opacity:1"/><stop offset="1" style="stop-color:rgb(104,104,104);stop-opacity:0"/></linearGradient>
        <linearGradient id="_Linear9" x1="0" y1="0" x2="1" y2="0" gradientUnits="userSpaceOnUse" gradientTransform="matrix(3.82218e-14,624.209,-624.209,3.82218e-14,640,47.7914)"><stop offset="0" style="stop-color:rgb(127,127,127);stop-opacity:1"/><stop offset="1" style="stop-color:rgb(127,127,127);stop-opacity:0"/></linearGradient>
        <linearGradient id="_Linear10" x1="0" y1="0" x2="1" y2="0" gradientUnits="userSpaceOnUse" gradientTransform="matrix(3.82218e-14,624.209,-624.209,3.82218e-14,640,47.7914)"><stop offset="0" style="stop-color:rgb(104,104,104);stop-opacity:1"/><stop offset="1" style="stop-color:rgb(104,104,104);stop-opacity:0"/></linearGradient>
        <linearGradient id="_Linear11" x1="0" y1="0" x2="1" y2="0" gradientUnits="userSpaceOnUse" gradientTransform="matrix(3.82218e-14,624.209,-624.209,3.82218e-14,640,47.7914)"><stop offset="0" style="stop-color:rgb(116,116,116);stop-opacity:1"/><stop offset="1" style="stop-color:rgb(116,116,116);stop-opacity:0"/></linearGradient>
        <linearGradient id="_Linear12" x1="0" y1="0" x2="1" y2="0" gradientUnits="userSpaceOnUse" gradientTransform="matrix(3.82218e-14,624.209,-624.209,3.82218e-14,640,47.7914)"><stop offset="0" style="stop-color:rgb(143,143,143);stop-opacity:1"/><stop offset="1" style="stop-color:rgb(143,143,143);stop-opacity:0"/></linearGradient>
        <linearGradient id="_Linear13" x1="0" y1="0" x2="1" y2="0" gradientUnits="userSpaceOnUse" gradientTransform="matrix(2.13483e-15,-34.6,34.8644,2.11864e-15,151.45,35.1)"><stop offset="0" style="stop-color:rgb(238,238,238);stop-opacity:1"/><stop offset="1" style="stop-color:rgb(187,187,187);stop-opacity:1"/></linearGradient>
        <linearGradient id="_Linear14" x1="0" y1="0" x2="1" y2="0" gradientUnits="userSpaceOnUse" gradientTransform="matrix(2.13483e-15,-34.6,34.8644,2.11864e-15,151.45,35.1)"><stop offset="0" style="stop-color:black;stop-opacity:0.22"/><stop offset="1" style="stop-color:white;stop-opacity:0.27"/></linearGradient>
        <linearGradient id="_Linear15" x1="0" y1="0" x2="1" y2="0" gradientUnits="userSpaceOnUse" gradientTransform="matrix(2.13483e-15,-34.6,34.8644,2.11864e-15,151.45,35.1)"><stop offset="0" style="stop-color:rgb(238,238,238);stop-opacity:1"/><stop offset="1" style="stop-color:rgb(187,187,187);stop-opacity:1"/></linearGradient>
        <linearGradient id="_Linear16" x1="0" y1="0" x2="1" y2="0" gradientUnits="userSpaceOnUse" gradientTransform="matrix(2.13483e-15,-34.6,34.8644,2.11864e-15,151.45,35.1)"><stop offset="0" style="stop-color:black;stop-opacity:0.22"/><stop offset="1" style="stop-color:white;stop-opacity:0.27"/></linearGradient>
        <linearGradient id="_Linear17" x1="0" y1="0" x2="1" y2="0" gradientUnits="userSpaceOnUse" gradientTransform="matrix(2.13483e-15,-34.6997,34.8644,2.12474e-15,151.45,35.0997)"><stop offset="0" style="stop-color:rgb(238,238,238);stop-opacity:1"/><stop offset="1" style="stop-color:rgb(187,187,187);stop-opacity:1"/></linearGradient>
        <linearGradient id="_Linear18" x1="0" y1="0" x2="1" y2="0" gradientUnits="userSpaceOnUse" gradientTransform="matrix(2.13483e-15,-34.6997,34.8644,2.12474e-15,151.45,35.0997)"><stop offset="0" style="stop-color:black;stop-opacity:0.22"/><stop offset="1" style="stop-color:white;stop-opacity:0.27"/></linearGradient>
        <linearGradient id="_Linear19" x1="0" y1="0" x2="1" y2="0" gradientUnits="userSpaceOnUse" gradientTransform="matrix(1.33559e-14,-223.207,218.119,1.36675e-14,979.66,234.683)"><stop offset="0" style="stop-color:rgb(238,238,238);stop-opacity:1"/><stop offset="1" style="stop-color:rgb(187,187,187);stop-opacity:1"/></linearGradient>
        <linearGradient id="_Linear20" x1="0" y1="0" x2="1" y2="0" gradientUnits="userSpaceOnUse" gradientTransform="matrix(1.33559e-14,-223.207,218.119,1.36675e-14,979.66,234.683)"><stop offset="0" style="stop-color:black;stop-opacity:0.22"/><stop offset="1" style="stop-color:white;stop-opacity:0.27"/></linearGradient>
        <linearGradient id="_Linear21" x1="0" y1="0" x2="1" y2="0" gradientUnits="userSpaceOnUse" gradientTransform="matrix(2.13483e-15,-35.0012,34.8644,2.1432e-15,151.45,35.1012)"><stop offset="0" style="stop-color:rgb(238,238,238);stop-opacity:1"/><stop offset="1" style="stop-color:rgb(187,187,187);stop-opacity:1"/></linearGradient>
        <linearGradient id="_Linear22" x1="0" y1="0" x2="1" y2="0" gradientUnits="userSpaceOnUse" gradientTransform="matrix(2.13483e-15,-35.0012,34.8644,2.1432e-15,151.45,35.1012)"><stop offset="0" style="stop-color:black;stop-opacity:0.22"/><stop offset="1" style="stop-color:white;stop-opacity:0.27"/></linearGradient>
        <linearGradient id="_Linear23" x1="0" y1="0" x2="1" y2="0" gradientUnits="userSpaceOnUse" gradientTransform="matrix(2.13483e-15,-34.8,34.8644,2.13089e-15,151.45,35.1)"><stop offset="0" style="stop-color:rgb(238,238,238);stop-opacity:1"/><stop offset="1" style="stop-color:rgb(187,187,187);stop-opacity:1"/></linearGradient>
        <linearGradient id="_Linear24" x1="0" y1="0" x2="1" y2="0" gradientUnits="userSpaceOnUse" gradientTransform="matrix(2.13483e-15,-34.8,34.8644,2.13089e-15,151.45,35.1)"><stop offset="0" style="stop-color:black;stop-opacity:0.22"/><stop offset="1" style="stop-color:white;stop-opacity:0.27"/></linearGradient>
        <linearGradient id="_Linear25" x1="0" y1="0" x2="1" y2="0" gradientUnits="userSpaceOnUse" gradientTransform="matrix(2.13483e-15,-34.8,34.8644,2.13089e-15,151.45,35.1)"><stop offset="0" style="stop-color:rgb(238,238,238);stop-opacity:1"/><stop offset="1" style="stop-color:rgb(187,187,187);stop-opacity:1"/></linearGradient>
        <linearGradient id="_Linear26" x1="0" y1="0" x2="1" y2="0" gradientUnits="userSpaceOnUse" gradientTransform="matrix(2.13483e-15,-34.8,34.8644,2.13089e-15,151.45,35.1)"><stop offset="0" style="stop-color:black;stop-opacity:0.22"/><stop offset="1" style="stop-color:white;stop-opacity:0.27"/></linearGradient>
        <linearGradient id="_Linear27" x1="0" y1="0" x2="1" y2="0" gradientUnits="userSpaceOnUse" gradientTransform="matrix(2.13483e-15,-34.6997,34.8644,2.12474e-15,151.45,35.0997)"><stop offset="0" style="stop-color:rgb(238,238,238);stop-opacity:1"/><stop offset="1" style="stop-color:rgb(187,187,187);stop-opacity:1"/></linearGradient>
        <linearGradient id="_Linear28" x1="0" y1="0" x2="1" y2="0" gradientUnits="userSpaceOnUse" gradientTransform="matrix(2.13483e-15,-34.6997,34.8644,2.12474e-15,151.45,35.0997)"><stop offset="0" style="stop-color:black;stop-opacity:0.22"/><stop offset="1" style="stop-color:white;stop-opacity:0.27"/></linearGradient>
        <linearGradient id="_Linear29" x1="0" y1="0" x2="1" y2="0" gradientUnits="userSpaceOnUse" gradientTransform="matrix(2.13483e-15,-34.7994,34.8644,2.13085e-15,151.45,35.0994)"><stop offset="0" style="stop-color:rgb(238,238,238);stop-opacity:1"/><stop offset="1" style="stop-color:rgb(187,187,187);stop-opacity:1"/></linearGradient>
        <linearGradient id="_Linear30" x1="0" y1="0" x2="1" y2="0" gradientUnits="userSpaceOnUse" gradientTransform="matrix(2.13483e-15,-34.7994,34.8644,2.13085e-15,151.45,35.0994)"><stop offset="0" style="stop-color:black;stop-opacity:0.22"/><stop offset="1" style="stop-color:white;stop-opacity:0.27"/></linearGradient>
        <linearGradient id="_Linear31" x1="0" y1="0" x2="1" y2="0" gradientUnits="userSpaceOnUse" gradientTransform="matrix(-17.7222,19.717,-17.4167,1.20732e-15,156.181,28.283)"><stop offset="0" style="stop-color:rgb(59,59,59);stop-opacity:1"/><stop offset="1" style="stop-color:rgb(106,106,106);stop-opacity:1"/></linearGradient>
        <linearGradient id="_Linear32" x1="0" y1="0" x2="1" y2="0" gradientUnits="userSpaceOnUse" gradientTransform="matrix(-17.8206,19.8264,-17.5133,1.21402e-15,152.459,28.283)"><stop offset="0" style="stop-color:white;stop-opacity:0.12"/><stop offset="1" style="stop-color:black;stop-opacity:0.2"/></linearGradient>
        <linearGradient id="_Linear33" x1="0" y1="0" x2="1" y2="0" gradientUnits="userSpaceOnUse" gradientTransform="matrix(-15.9294,19.717,-18.0042,1.20732e-15,129.999,28.283)"><stop offset="0" style="stop-color:rgb(59,59,59);stop-opacity:1"/><stop offset="1" style="stop-color:rgb(106,106,106);stop-opacity:1"/></linearGradient>
        <linearGradient id="_Linear34" x1="0" y1="0" x2="1" y2="0" gradientUnits="userSpaceOnUse" gradientTransform="matrix(-16.0178,19.8264,-18.1042,1.21402e-15,126.152,28.283)"><stop offset="0" style="stop-color:white;stop-opacity:0.12"/><stop offset="1" style="stop-color:black;stop-opacity:0.2"/></linearGradient>
        <linearGradient id="_Linear35" x1="0" y1="0" x2="1" y2="0" gradientUnits="userSpaceOnUse" gradientTransform="matrix(-12.441,19.717,-16.9542,1.20732e-15,106.099,28.1736)"><stop offset="0" style="stop-color:rgb(59,59,59);stop-opacity:1"/><stop offset="1" style="stop-color:rgb(106,106,106);stop-opacity:1"/></linearGradient>
        <linearGradient id="_Linear36" x1="0" y1="0" x2="1" y2="0" gradientUnits="userSpaceOnUse" gradientTransform="matrix(-12.5101,19.8264,-17.0483,1.21402e-15,102.476,28.1736)"><stop offset="0" style="stop-color:white;stop-opacity:0.12"/><stop offset="1" style="stop-color:black;stop-opacity:0.2"/></linearGradient>
        <linearGradient id="_Linear37" x1="0" y1="0" x2="1" y2="0" gradientUnits="userSpaceOnUse" gradientTransform="matrix(-10.4022,19.717,-16.9542,1.20732e-15,89.0783,28.283)"><stop offset="0" style="stop-color:rgb(59,59,59);stop-opacity:1"/><stop offset="1" style="stop-color:rgb(106,106,106);stop-opacity:1"/></linearGradient>
        <linearGradient id="_Linear38" x1="0" y1="0" x2="1" y2="0" gradientUnits="userSpaceOnUse" gradientTransform="matrix(-10.4599,19.8264,-17.0483,1.21402e-15,85.4555,28.283)"><stop offset="0" style="stop-color:white;stop-opacity:0.12"/><stop offset="1" style="stop-color:black;stop-opacity:0.2"/></linearGradient>
        <linearGradient id="_Linear39" x1="0" y1="0" x2="1" y2="0" gradientUnits="userSpaceOnUse" gradientTransform="matrix(-7.85353,19.717,-16.9542,1.20732e-15,67.9576,28.283)"><stop offset="0" style="stop-color:rgb(59,59,59);stop-opacity:1"/><stop offset="1" style="stop-color:rgb(106,106,106);stop-opacity:1"/></linearGradient>
        <linearGradient id="_Linear40" x1="0" y1="0" x2="1" y2="0" gradientUnits="userSpaceOnUse" gradientTransform="matrix(-7.89712,19.8264,-17.0483,1.21402e-15,64.3347,28.283)"><stop offset="0" style="stop-color:white;stop-opacity:0.12"/><stop offset="1" style="stop-color:black;stop-opacity:0.2"/></linearGradient>
        <linearGradient id="_Linear41" x1="0" y1="0" x2="1" y2="0" gradientUnits="userSpaceOnUse" gradientTransform="matrix(-5.08855,19.3456,-16.9542,1.18457e-15,43.0044,28.6544)"><stop offset="0" style="stop-color:rgb(59,59,59);stop-opacity:1"/><stop offset="1" style="stop-color:rgb(106,106,106);stop-opacity:1"/></linearGradient>
        <linearGradient id="_Linear42" x1="0" y1="0" x2="1" y2="0" gradientUnits="userSpaceOnUse" gradientTransform="matrix(-5.11679,19.4529,-17.0483,1.19115e-15,39.3815,28.6544)"><stop offset="0" style="stop-color:white;stop-opacity:0.12"/><stop offset="1" style="stop-color:black;stop-opacity:0.2"/></linearGradient>
        <linearGradient id="_Linear43" x1="0" y1="0" x2="1" y2="0" gradientUnits="userSpaceOnUse" gradientTransform="matrix(2.19157,19.717,-16.9542,1.20732e-15,-16.9648,28.283)"><stop offset="0" style="stop-color:rgb(59,59,59);stop-opacity:1"/><stop offset="1" style="stop-color:rgb(106,106,106);stop-opacity:1"/></linearGradient>
        <linearGradient id="_Linear44" x1="0" y1="0" x2="1" y2="0" gradientUnits="userSpaceOnUse" gradientTransform="matrix(2.20374,19.8264,-17.0483,1.21402e-15,-20.5877,28.283)"><stop offset="0" style="stop-color:white;stop-opacity:0.12"/><stop offset="1" style="stop-color:black;stop-opacity:0.2"/></linearGradient>
        <linearGradient id="_Linear45" x1="0" y1="0" x2="1" y2="0" gradientUnits="userSpaceOnUse" gradientTransform="matrix(5.66864,19.5295,-16.9542,1.19584e-15,-34.622,28.4705)"><stop offset="0" style="stop-color:rgb(59,59,59);stop-opacity:1"/><stop offset="1" style="stop-color:rgb(106,106,106);stop-opacity:1"/></linearGradient>
        <linearGradient id="_Linear46" x1="0" y1="0" x2="1" y2="0" gradientUnits="userSpaceOnUse" gradientTransform="matrix(5.7001,19.6379,-17.0483,1.20247e-15,-38.2449,28.4705)"><stop offset="0" style="stop-color:white;stop-opacity:0.12"/><stop offset="1" style="stop-color:black;stop-opacity:0.2"/></linearGradient>
        <linearGradient id="_Linear47" x1="0" y1="0" x2="1" y2="0" gradientUnits="userSpaceOnUse" gradientTransform="matrix(6.05279,19.5295,-16.9542,1.19584e-15,-50.7989,28.4705)"><stop offset="0" style="stop-color:rgb(59,59,59);stop-opacity:1"/><stop offset="1" style="stop-color:rgb(106,106,106);stop-opacity:1"/></linearGradient>
        <linearGradient id="_Linear48" x1="0" y1="0" x2="1" y2="0" gradientUnits="userSpaceOnUse" gradientTransform="matrix(6.08638,19.6379,-17.0483,1.20247e-15,-54.4218,28.4705)"><stop offset="0" style="stop-color:white;stop-opacity:0.12"/><stop offset="1" style="stop-color:black;stop-opacity:0.2"/></linearGradient>
        <linearGradient id="_Linear49" x1="0" y1="0" x2="1" y2="0" gradientUnits="userSpaceOnUse" gradientTransform="matrix(8.7418,19.5295,-16.9542,1.19584e-15,-68.1655,28.4705)"><stop offset="0" style="stop-color:rgb(59,59,59);stop-opacity:1"/><stop offset="1" style="stop-color:rgb(106,106,106);stop-opacity:1"/></linearGradient>
        <linearGradient id="_Linear50" x1="0" y1="0" x2="1" y2="0" gradientUnits="userSpaceOnUse" gradientTransform="matrix(8.79032,19.6379,-17.0483,1.20247e-15,-71.7883,28.4705)"><stop offset="0" style="stop-color:white;stop-opacity:0.12"/><stop offset="1" style="stop-color:black;stop-opacity:0.2"/></linearGradient>
        <linearGradient id="_Linear51" x1="0" y1="0" x2="1" y2="0" gradientUnits="userSpaceOnUse" gradientTransform="matrix(10.6077,19.5295,-16.9542,1.19584e-15,-85.1514,28.4705)"><stop offset="0" style="stop-color:rgb(59,59,59);stop-opacity:1"/><stop offset="1" style="stop-color:rgb(106,106,106);stop-opacity:1"/></linearGradient>
        <linearGradient id="_Linear52" x1="0" y1="0" x2="1" y2="0" gradientUnits="userSpaceOnUse" gradientTransform="matrix(10.6665,19.6379,-17.0483,1.20247e-15,-88.7742,28.4705)"><stop offset="0" style="stop-color:white;stop-opacity:0.12"/><stop offset="1" style="stop-color:black;stop-opacity:0.2"/></linearGradient>
        <linearGradient id="_Linear53" x1="0" y1="0" x2="1" y2="0" gradientUnits="userSpaceOnUse" gradientTransform="matrix(14.9112,19.3456,-16.9542,1.18457e-15,-127.299,28.6544)"><stop offset="0" style="stop-color:rgb(59,59,59);stop-opacity:1"/><stop offset="1" style="stop-color:rgb(106,106,106);stop-opacity:1"/></linearGradient>
        <linearGradient id="_Linear54" x1="0" y1="0" x2="1" y2="0" gradientUnits="userSpaceOnUse" gradientTransform="matrix(14.994,19.4529,-17.0483,1.19115e-15,-130.922,28.6544)"><stop offset="0" style="stop-color:white;stop-opacity:0.12"/><stop offset="1" style="stop-color:black;stop-opacity:0.2"/></linearGradient>
        <linearGradient id="_Linear55" x1="0" y1="0" x2="1" y2="0" gradientUnits="userSpaceOnUse" gradientTransform="matrix(4.36614e-16,19.717,-7.13045,1.20732e-15,8.16258,28.283)"><stop offset="0" style="stop-color:rgb(59,59,59);stop-opacity:1"/><stop offset="1" style="stop-color:rgb(106,106,106);stop-opacity:1"/></linearGradient>
        <linearGradient id="_Linear56" x1="0" y1="0" x2="1" y2="0" gradientUnits="userSpaceOnUse" gradientTransform="matrix(4.39038e-16,19.8264,-7.17003,1.21402e-15,6.63892,28.283)"><stop offset="0" style="stop-color:white;stop-opacity:0.12"/><stop offset="1" style="stop-color:black;stop-opacity:0.2"/></linearGradient>
        <linearGradient id="_Linear57" x1="0" y1="0" x2="1" y2="0" gradientUnits="userSpaceOnUse" gradientTransform="matrix(-26.7759,19.717,-26.3142,1.20732e-15,195.614,36.6)"><stop offset="0" style="stop-color:rgb(59,59,59);stop-opacity:1"/><stop offset="1" style="stop-color:rgb(106,106,106);stop-opacity:1"/></linearGradient>
        <linearGradient id="_Linear58" x1="0" y1="0" x2="1" y2="0" gradientUnits="userSpaceOnUse" gradientTransform="matrix(-26.9245,19.8264,-26.4603,1.21402e-15,189.991,36.6)"><stop offset="0" style="stop-color:white;stop-opacity:0.12"/><stop offset="1" style="stop-color:black;stop-opacity:0.2"/></linearGradient>
    </defs>
</svg>
