<?xml version="1.0" encoding="UTF-8" standalone="no"?>
<!DOCTYPE svg PUBLIC "-//W3C//DTD SVG 1.1//EN" "http://www.w3.org/Graphics/SVG/1.1/DTD/svg11.dtd">
<svg width="100%" height="100%" viewBox="0 0 2000 1000" version="1.1" xmlns="http://www.w3.org/2000/svg" xmlns:xlink="http://www.w3.org/1999/xlink" xml:space="preserve" xmlns:serif="http://www.serif.com/" style="fill-rule:evenodd;clip-rule:evenodd;stroke-linejoin:round;stroke-miterlimit:2;">
    <path d="M-2,-4.239L-2,1168.33L121.591,1168.33L121.591,930.592L332.243,1094.87L537.864,931.748L537.864,1168.33L657.455,1168.33L657.455,1363.09L783.828,1363.09L783.828,1168.33L903.976,1168.33L903.976,926.294L1274.9,1168.33L1397.64,1168.33L1397.64,1080.91L1634.64,1080.91C1634.64,1080.91 1634.64,1363.09 1634.64,1363.09L1761.01,1363.09L1761.01,1080.91C1761.01,1080.91 2002,1080.91 2002,1080.91L2002,969.568L1761.01,969.568L1761.01,691.392C1761.01,691.392 2002,691.392 2002,691.392L2002,580.046L1761.01,580.046L1761.01,301.869C1761.01,301.869 2002,301.869 2002,301.869L2002,190.523L1761.01,190.523L1761.01,-87.653C1761.01,-87.653 2002,-87.653 2002,-87.653L2002,-199L1393.64,-199L1393.64,-87.653L1634.64,-87.653L1634.64,190.523L1397.64,190.523L1397.64,-4.239L1273.5,-4.239L1273.5,238.351C1237.68,214.928 903.07,-3.912 903.07,-3.912L783.828,-4.239L783.828,-199L657.455,-199L657.455,-4.239L539.176,-4.239L332.218,157.168C332.218,157.168 120.266,-4.239 120.266,-4.239L-2,-4.239ZM779.828,973.568L779.828,1168.33L779.828,1168.33L779.828,1359.09L779.828,1359.09L661.455,1359.09L661.455,1168.33L661.455,1168.33L661.455,973.568L779.828,973.568ZM1397.64,1076.91L1397.64,973.568L1998,973.568L1998,973.568L1998,1076.91L1757.01,1076.91L1757.01,1359.09C1757.01,1359.09 1638.64,1359.09 1638.64,1359.09C1638.64,1359.09 1638.64,1076.91 1638.64,1076.91L1397.64,1076.91ZM1277.5,1024.79L1277.5,778.807L1393.64,778.807L1393.64,1164.33C1393.64,1164.33 1276.09,1164.33 1276.09,1164.33C1276.09,1164.33 899.976,918.908 899.976,918.908L899.976,1164.33C899.976,1164.33 783.828,1164.33 783.828,1164.33L783.828,778.807L901.38,778.807L1277.5,1024.79ZM332.247,941.263L540.551,778.807L657.455,778.807L657.455,1164.33C657.455,1164.33 541.864,1164.33 541.864,1164.33C541.864,1164.33 541.864,923.469 541.864,923.469L332.222,1089.78L117.591,922.4L117.591,1164.33C117.591,1164.33 17.48,1164.33 2,1164.33L2,778.807L118.916,778.807L332.247,941.263ZM903.976,775.725L1273.5,1017.4L1273.5,777.89L903.976,536.771L903.976,775.725ZM1397.64,691.392L1397.64,969.568L1634.64,969.568L1634.64,691.392L1397.64,691.392ZM661.455,584.046L661.455,969.568L779.828,969.568L779.828,584.046L661.455,584.046ZM1397.64,687.392L1397.64,584.046L1998,584.046L1998,584.046L1998,687.392L1757.01,687.392L1757.01,969.568C1757.01,969.568 1638.64,969.568 1638.64,969.568C1638.64,969.568 1638.64,687.392 1638.64,687.392L1397.64,687.392ZM121.591,775.816L332.218,936.213L537.864,775.83L537.864,542.226L332.243,705.342C332.243,705.342 121.591,541.069 121.591,541.069L121.591,775.816ZM1393.64,389.284L1393.64,774.807C1393.64,774.807 1276.09,774.807 1276.09,774.807L899.976,529.385L899.976,774.807L783.828,774.807L783.828,389.284L901.38,389.284L1277.5,635.269L1277.5,389.284L1393.64,389.284ZM657.455,389.284L657.455,774.807C657.455,774.807 541.864,774.807 541.864,774.807C541.864,774.807 541.864,533.947 541.864,533.947L332.222,700.253C332.222,700.253 117.591,532.877 117.591,532.877L117.591,774.807C117.591,774.807 2,774.807 2,774.807C2,774.807 2,419.205 2,389.284C2,389.284 118.916,389.284 118.916,389.284C118.916,389.284 332.247,551.74 332.247,551.74L540.551,389.284L657.455,389.284ZM903.976,386.202L1273.5,627.873L1273.5,388.367L903.976,147.248L903.976,386.202ZM1397.64,301.869L1397.64,580.046L1634.64,580.046L1634.64,301.869L1397.64,301.869ZM779.828,580.046L779.828,194.523L661.455,194.523L661.455,580.046L779.828,580.046ZM1397.64,297.869L1397.64,194.523L1998,194.523L1998,194.523L1998,297.869C1998,297.869 1757.01,297.869 1757.01,297.869L1757.01,580.046C1757.01,580.046 1638.64,580.046 1638.64,580.046L1638.64,297.869L1397.64,297.869ZM121.591,386.293L332.218,546.69L537.864,386.308L537.864,152.703L332.243,315.82L121.591,151.546L121.591,386.293ZM783.828,-0.239L783.828,385.284L899.976,385.284L899.976,139.862C899.976,139.862 1276.09,385.284 1276.09,385.284C1276.09,385.284 1393.64,385.284 1393.64,385.284L1393.64,301.869L1393.64,301.869L1393.64,190.523L1393.64,190.523L1393.64,-0.239L1277.5,-0.239L1277.5,245.746C1277.5,245.746 901.38,-0.239 901.38,-0.239L783.828,-0.239ZM657.455,-0.239L657.455,194.523L657.455,194.523L657.455,385.284C657.455,385.284 541.864,385.284 541.864,385.284C541.864,385.284 541.864,144.424 541.864,144.424L332.222,310.731C332.222,310.731 117.591,143.355 117.591,143.355L117.591,385.284C117.591,385.284 2,385.284 2,385.284C2,385.284 2,-0.239 2,-0.239C2,-0.239 118.916,-0.239 118.916,-0.239C118.916,-0.239 332.247,162.218 332.247,162.218L540.551,-0.239L657.455,-0.239ZM661.455,-4.239L661.455,-195C675.993,-195 765.29,-195 779.828,-195L779.828,-4.239L779.828,-4.239L779.828,190.523L661.455,190.523L661.455,-4.239L661.455,-4.239ZM1998,-195L1998,-91.653C1998,-91.653 1757.01,-91.653 1757.01,-91.653L1757.01,190.523C1757.01,190.523 1638.64,190.523 1638.64,190.523C1638.64,190.523 1638.64,-91.653 1638.64,-91.653L1397.64,-91.653C1397.64,-91.653 1397.64,-195 1397.64,-195C1397.64,-195 1998,-195 1998,-195L1998,-195Z" style="fill:url(#_Linear1);"/>
    <defs>
        <linearGradient id="_Linear1" x1="0" y1="0" x2="1" y2="0" gradientUnits="userSpaceOnUse" gradientTransform="matrix(6.12323e-14,1000,-1000,6.12323e-14,1000,0)"><stop offset="0" style="stop-color:rgb(34,34,34);stop-opacity:0.5"/><stop offset="1" style="stop-color:rgb(17,17,17);stop-opacity:0.5"/></linearGradient>
    </defs>
</svg>
