<?xml version="1.0" encoding="UTF-8" standalone="no"?><!DOCTYPE svg PUBLIC "-//W3C//DTD SVG 1.1//EN" "http://www.w3.org/Graphics/SVG/1.1/DTD/svg11.dtd"><svg width="100%" height="100%" viewBox="0 0 1280 720" version="1.1" xmlns="http://www.w3.org/2000/svg" xmlns:xlink="http://www.w3.org/1999/xlink" xml:space="preserve" xmlns:serif="http://www.serif.com/" style="fill-rule:evenodd;clip-rule:evenodd;stroke-linejoin:round;stroke-miterlimit:2;"><circle cx="215.425" cy="432.8" r="134.125" style="fill:url(#_Linear1);"/><path d="M74.141,441.125l-26.141,0l0,-393.125l1184,0l0,393.125l-875.291,0c0.16,-2.751 0.241,-5.529 0.241,-8.325c0,-78.11 -63.415,-141.525 -141.525,-141.525c-78.11,0 -141.525,63.415 -141.525,141.525c0,2.796 0.081,5.574 0.241,8.325Z" style="fill:url(#_Linear2);"/><path d="M841.512,282.946c-5.994,16.162 -10.71,27.319 -14.149,33.472c-4.263,8.254 -10.079,16.142 -17.448,23.664c-6.839,43.781 -21.313,80.919 -43.421,111.412c-19.645,27.41 -44.607,48.413 -74.887,63.011c-27.113,13.358 -56.502,20.661 -88.166,21.909c-19.714,0.886 -41.476,-1.77 -65.287,-7.967c-22.435,-5.487 -42.989,-13.096 -61.664,-22.827c-18.675,-9.732 -31.342,-19.454 -38.002,-29.167c13.213,1.073 26.959,1.114 41.238,0.123c23.568,-1.77 42.378,-6.389 56.43,-13.858l-2.313,-1.848c-10.848,-9.871 -19.594,-18.919 -26.238,-27.143c-0.758,-0.945 -1.503,-1.895 -2.235,-2.849l35.136,-15.463c5.709,6.729 12.255,13.338 19.641,19.829l28.811,24.943c2.843,2.427 4.022,5.584 3.538,9.473c-0.483,3.89 -2.467,6.677 -5.952,8.363l-32.007,16.929c17.506,3.726 33.24,5.317 47.202,4.772c29.933,-1.272 56.668,-8.246 80.206,-20.923c24.097,-13.086 43.954,-31.542 59.569,-55.368c16.009,-24.756 26.715,-54.429 32.118,-89.019c0.566,-3.628 -0.753,-8.666 -3.958,-15.114c-0.622,-1.316 -1.29,-2.601 -2.006,-3.856l73.844,-32.498Z" style="fill:#17c;fill-rule:nonzero;"/><path d="M504.25,428.848c-11.947,-13.299 -21.115,-27.676 -27.504,-43.129c-8.898,-21.321 -12.367,-44.551 -10.409,-69.691c2.095,-30.041 11.984,-62.421 29.669,-97.141c28.164,38.783 57.608,65.878 88.331,81.287c8.276,4.082 14.92,7.055 19.932,8.919c3.116,0.98 7.208,2.035 12.277,3.167l3.266,0.623c1.652,-18.043 8.183,-34.11 19.594,-48.2c11.412,-14.09 25.795,-23.774 43.15,-29.053c17.355,-5.278 34.676,-5.402 51.965,-0.371c17.288,5.03 31.784,14.386 43.488,28.067l6.195,0.851c7.059,0.795 12.946,0.886 17.659,0.271c7.7,-1.12 16.406,-4.125 26.118,-9.016l-71.117,38.096c-3.8,-5.607 -8.577,-10.457 -14.331,-14.549c-8.593,-6.317 -18.26,-9.894 -28.999,-10.731c-9.519,-0.742 -18.492,0.954 -26.917,5.086c-8.426,4.132 -15.327,9.979 -20.705,17.54c-5.377,7.562 -8.559,16.093 -9.545,25.593l-2.619,28.895c-0.239,1.531 -0.727,2.927 -1.465,4.188l-10.598,5.677c-0.4,-0.049 -0.804,-0.121 -1.212,-0.217l-28.244,-6.252c-36.945,-8.035 -71.738,-27.935 -104.378,-59.7c-7.709,29.603 -7.171,55.798 1.613,78.582c5.694,15.208 15.236,29.568 28.625,43.081l-33.839,18.127Z" style="fill:#19f;fill-rule:nonzero;"/><path d="M195.653,598.027c-0,-0 41.903,-21.539 107.499,-55.528c44.623,-23.122 100.237,-51.914 161.032,-83.699c34.391,-17.98 70.429,-36.922 107.081,-56.31c23.582,-12.475 47.419,-25.129 71.201,-37.887c23.782,-12.758 47.506,-25.622 70.944,-38.367c36.427,-19.808 72.13,-39.373 106.155,-58.037c37.907,-20.795 73.695,-40.512 105.994,-58.339c94.281,-52.038 158.788,-87.887 158.788,-87.887c0,0 -65.584,33.838 -161.141,83.493c-32.737,17.011 -68.979,35.879 -107.294,55.914c-34.389,17.984 -70.459,36.866 -107.131,56.216c-23.595,12.45 -47.449,25.072 -71.247,37.801c-23.797,12.729 -47.539,25.561 -70.99,38.281c-36.447,19.77 -72.183,39.275 -106.205,57.943c-60.145,33 -114.926,63.344 -158.899,87.681c-64.64,35.776 -105.787,58.725 -105.787,58.725Z" style="fill:#eee;"/><defs><linearGradient id="_Linear1" x1="0" y1="0" x2="1" y2="0" gradientUnits="userSpaceOnUse" gradientTransform="matrix(1.64256e-14,268.25,-268.25,1.64256e-14,215.425,298.675)"><stop offset="0" style="stop-color:#333;stop-opacity:1"/><stop offset="1" style="stop-color:#333;stop-opacity:0"/></linearGradient><linearGradient id="_Linear2" x1="0" y1="0" x2="1" y2="0" gradientUnits="userSpaceOnUse" gradientTransform="matrix(2.4072e-14,393.125,-393.125,2.4072e-14,48,48)"><stop offset="0" style="stop-color:#333;stop-opacity:1"/><stop offset="1" style="stop-color:#333;stop-opacity:0"/></linearGradient></defs></svg>