<?xml version="1.0" encoding="UTF-8" standalone="no"?>
<!DOCTYPE svg PUBLIC "-//W3C//DTD SVG 1.1//EN" "http://www.w3.org/Graphics/SVG/1.1/DTD/svg11.dtd">
<svg width="100%" height="100%" viewBox="0 0 1280 720" version="1.1" xmlns="http://www.w3.org/2000/svg" xmlns:xlink="http://www.w3.org/1999/xlink" xml:space="preserve" style="fill-rule:evenodd;clip-rule:evenodd;stroke-linejoin:round;stroke-miterlimit:2;">
    <g transform="matrix(1.03973,0,0,1.03973,35.5519,-10.1244)">
        <circle cx="173" cy="426" r="129" style="fill:url(#_Linear1);"/>
    </g>
    <g transform="matrix(0.925,0,0,0.925,48,48)">
        <path d="M28.261,425L-51.892,425L-51.892,-51.892L1331.89,-51.892L1331.89,425L333.739,425C333.912,422.026 334,419.023 334,416C334,331.557 265.443,263 181,263C96.557,263 28,331.557 28,416C28,419.023 28.088,422.026 28.261,425Z" style="fill:url(#_Linear2);"/>
    </g>
    <g transform="matrix(0.988019,0.154332,-0.154332,0.988019,61.4849,-63.6044)">
        <path d="M824.165,222.016C820.738,238.908 817.8,250.66 815.352,257.27C812.414,266.083 807.885,274.774 801.764,283.343C801.764,327.655 793.196,366.582 776.058,400.122C760.88,430.235 739.458,454.839 711.793,473.935C687.067,491.317 659.157,503.068 628.065,509.189C608.724,513.106 586.813,513.84 562.331,511.392C539.318,509.434 517.835,505.088 497.882,498.356C477.929,491.623 463.914,483.972 455.835,475.404C469.055,474.425 482.642,472.344 496.597,469.161C519.61,463.775 537.482,456.308 550.212,446.76L547.642,445.291C535.401,437.212 525.363,429.623 517.529,422.523C516.634,421.705 515.752,420.882 514.881,420.052L547.21,399.352C553.889,405.119 561.377,410.639 569.676,415.913L601.992,436.11C605.174,438.069 606.827,441.007 606.949,444.924C607.072,448.841 605.542,451.901 602.359,454.105L573.348,475.771C591.22,476.75 607.011,475.893 620.72,473.2C650.099,467.325 675.438,456.308 696.737,440.15C718.526,423.502 735.296,402.203 747.047,376.252C759.043,349.322 765.042,318.352 765.042,283.343C765.042,279.671 762.961,274.897 758.799,269.021C757.981,267.817 757.123,266.65 756.221,265.521L824.165,222.016Z" style="fill:rgb(17,119,204);fill-rule:nonzero;"/>
    </g>
    <g transform="matrix(0.996979,0.0776719,-0.0776719,0.996979,23.5501,-29.9274)">
        <path d="M514.881,420.052C501.938,407.722 491.681,394.1 484.111,379.19C473.584,358.625 468.32,335.734 468.32,310.518C468.076,280.405 475.42,247.354 490.354,211.366C521.446,247.844 552.905,272.571 584.732,285.546C593.301,288.974 600.156,291.422 605.297,292.891C608.479,293.625 612.641,294.36 617.783,295.094L621.088,295.461C621.333,277.345 626.596,260.82 636.879,245.886C647.161,230.952 660.748,220.179 677.641,213.569C694.534,206.959 711.793,205.49 729.42,209.163C747.047,212.835 762.226,221.036 774.957,233.767L781.2,234.134C788.299,234.379 794.175,234.012 798.827,233.033C806.416,231.319 814.862,227.646 824.165,222.016L756.221,265.521C751.998,260.225 746.859,255.761 740.804,252.128C731.746,246.498 721.831,243.682 711.059,243.682C701.511,243.682 692.697,246.069 684.618,250.843C676.539,255.617 670.113,261.982 665.339,269.939C660.565,277.896 658.055,286.648 657.811,296.196L657.443,325.207C657.325,326.752 656.946,328.182 656.308,329.496L646.183,335.979C645.781,335.961 645.372,335.92 644.958,335.857L616.314,331.817C578.856,326.676 542.623,309.539 507.614,280.405C502.228,310.518 504.798,336.591 515.326,358.625C522.183,373.344 532.812,386.92 547.21,399.352L514.881,420.052Z" style="fill:rgb(17,153,255);fill-rule:nonzero;"/>
    </g>
    <g transform="matrix(0.86859,0.0676694,-0.0676694,0.86859,135.678,6.11945)">
        <path d="M121.402,672C121.402,672 167.433,643.616 239.468,598.873C288.471,568.435 349.545,530.529 416.283,488.736C454.035,465.095 493.586,440.206 533.8,414.751C559.674,398.373 585.823,381.767 611.9,365.048C637.978,348.328 663.98,331.491 689.664,314.818C729.584,288.903 768.696,263.331 805.968,238.939C847.494,211.763 886.689,186.009 922.061,162.729C1025.31,94.775 1095.93,48 1095.93,48C1095.93,48 1023.9,92.569 918.976,157.911C883.031,180.296 843.239,205.118 801.181,231.462C763.43,255.107 723.838,279.93 683.597,305.343C657.706,321.693 631.534,338.264 605.436,354.952C579.339,371.641 553.314,388.442 527.612,405.088C487.666,430.961 448.511,456.468 411.242,480.863C345.358,523.989 285.374,563.597 237.224,595.367C166.443,642.07 121.402,672 121.402,672Z" style="fill:rgb(238,238,238);"/>
    </g>
    <defs>
        <linearGradient id="_Linear1" x1="0" y1="0" x2="1" y2="0" gradientUnits="userSpaceOnUse" gradientTransform="matrix(1.57979e-14,258,-258,1.57979e-14,173,297)"><stop offset="0" style="stop-color:rgb(51,51,51);stop-opacity:1"/><stop offset="1" style="stop-color:rgb(51,51,51);stop-opacity:0"/></linearGradient>
        <linearGradient id="_Linear2" x1="0" y1="0" x2="1" y2="0" gradientUnits="userSpaceOnUse" gradientTransform="matrix(2.92012e-14,476.892,-476.892,2.92012e-14,0,-51.8919)"><stop offset="0" style="stop-color:rgb(51,51,51);stop-opacity:1"/><stop offset="1" style="stop-color:rgb(51,51,51);stop-opacity:0"/></linearGradient>
    </defs>
</svg>
